solid base_chassis
  facet normal 0.00000000 0.00000000 -1.00000000
    outer loop
      vertex -0.21000000 -0.14000000 -0.06000000
      vertex 0.21000000 0.14000000 -0.06000000
      vertex 0.21000000 -0.14000000 -0.06000000
    endloop
  endfacet
  facet normal 0.00000000 0.00000000 -1.00000000
    outer loop
      vertex -0.21000000 -0.14000000 -0.06000000
      vertex -0.21000000 0.14000000 -0.06000000
      vertex 0.21000000 0.14000000 -0.06000000
    endloop
  endfacet
  facet normal 0.00000000 0.00000000 1.00000000
    outer loop
      vertex -0.21000000 -0.14000000 0.06000000
      vertex 0.21000000 -0.14000000 0.06000000
      vertex 0.21000000 0.14000000 0.06000000
    endloop
  endfacet
  facet normal 0.00000000 0.00000000 1.00000000
    outer loop
      vertex -0.21000000 -0.14000000 0.06000000
      vertex 0.21000000 0.14000000 0.06000000
      vertex -0.21000000 0.14000000 0.06000000
    endloop
  endfacet
  facet normal 0.00000000 -1.00000000 0.00000000
    outer loop
      vertex -0.21000000 -0.14000000 -0.06000000
      vertex 0.21000000 -0.14000000 -0.06000000
      vertex 0.21000000 -0.14000000 0.06000000
    endloop
  endfacet
  facet normal 0.00000000 -1.00000000 0.00000000
    outer loop
      vertex -0.21000000 -0.14000000 -0.06000000
      vertex 0.21000000 -0.14000000 0.06000000
      vertex -0.21000000 -0.14000000 0.06000000
    endloop
  endfacet
  facet normal 1.00000000 0.00000000 0.00000000
    outer loop
      vertex 0.21000000 -0.14000000 -0.06000000
      vertex 0.21000000 0.14000000 -0.06000000
      vertex 0.21000000 0.14000000 0.06000000
    endloop
  endfacet
  facet normal 1.00000000 0.00000000 0.00000000
    outer loop
      vertex 0.21000000 -0.14000000 -0.06000000
      vertex 0.21000000 0.14000000 0.06000000
      vertex 0.21000000 -0.14000000 0.06000000
    endloop
  endfacet
  facet normal 0.00000000 1.00000000 0.00000000
    outer loop
      vertex 0.21000000 0.14000000 -0.06000000
      vertex -0.21000000 0.14000000 -0.06000000
      vertex -0.21000000 0.14000000 0.06000000
    endloop
  endfacet
  facet normal 0.00000000 1.00000000 -0.00000000
    outer loop
      vertex 0.21000000 0.14000000 -0.06000000
      vertex -0.21000000 0.14000000 0.06000000
      vertex 0.21000000 0.14000000 0.06000000
    endloop
  endfacet
  facet normal -1.00000000 0.00000000 0.00000000
    outer loop
      vertex -0.21000000 0.14000000 -0.06000000
      vertex -0.21000000 -0.14000000 -0.06000000
      vertex -0.21000000 -0.14000000 0.06000000
    endloop
  endfacet
  facet normal -1.00000000 0.00000000 0.00000000
    outer loop
      vertex -0.21000000 0.14000000 -0.06000000
      vertex -0.21000000 -0.14000000 0.06000000
      vertex -0.21000000 0.14000000 0.06000000
    endloop
  endfacet
endsolid base_chassis
