solid fender_strips
  facet normal 0.66913061 0.00000000 0.74314483
    outer loop
      vertex 0.09427040 -0.00800000 0.09274207
      vertex 0.08238008 0.00800000 0.10344816
      vertex 0.08238008 -0.00800000 0.10344816
    endloop
  endfacet
  facet normal 0.66913061 -0.00000000 0.74314483
    outer loop
      vertex 0.09427040 -0.00800000 0.09274207
      vertex 0.09427040 0.00800000 0.09274207
      vertex 0.08238008 0.00800000 0.10344816
    endloop
  endfacet
  facet normal -0.66913061 0.00000000 -0.74314483
    outer loop
      vertex 0.10363823 -0.00800000 0.10314610
      vertex 0.09174791 -0.00800000 0.11385219
      vertex 0.09174791 0.00800000 0.11385219
    endloop
  endfacet
  facet normal -0.66913061 0.00000000 -0.74314483
    outer loop
      vertex 0.10363823 -0.00800000 0.10314610
      vertex 0.09174791 0.00800000 0.11385219
      vertex 0.10363823 0.00800000 0.10314610
    endloop
  endfacet
  facet normal 0.00000000 1.00000000 0.00000000
    outer loop
      vertex 0.09427040 -0.00800000 0.09274207
      vertex 0.08238008 -0.00800000 0.10344816
      vertex 0.09174791 -0.00800000 0.11385219
    endloop
  endfacet
  facet normal 0.00000000 1.00000000 -0.00000000
    outer loop
      vertex 0.09427040 -0.00800000 0.09274207
      vertex 0.09174791 -0.00800000 0.11385219
      vertex 0.10363823 -0.00800000 0.10314610
    endloop
  endfacet
  facet normal 0.74314483 0.00000000 -0.66913061
    outer loop
      vertex 0.08238008 -0.00800000 0.10344816
      vertex 0.08238008 0.00800000 0.10344816
      vertex 0.09174791 0.00800000 0.11385219
    endloop
  endfacet
  facet normal 0.74314483 0.00000000 -0.66913061
    outer loop
      vertex 0.08238008 -0.00800000 0.10344816
      vertex 0.09174791 0.00800000 0.11385219
      vertex 0.09174791 -0.00800000 0.11385219
    endloop
  endfacet
  facet normal 0.00000000 -1.00000000 0.00000000
    outer loop
      vertex 0.08238008 0.00800000 0.10344816
      vertex 0.09427040 0.00800000 0.09274207
      vertex 0.10363823 0.00800000 0.10314610
    endloop
  endfacet
  facet normal 0.00000000 -1.00000000 0.00000000
    outer loop
      vertex 0.08238008 0.00800000 0.10344816
      vertex 0.10363823 0.00800000 0.10314610
      vertex 0.09174791 0.00800000 0.11385219
    endloop
  endfacet
  facet normal -0.74314483 0.00000000 0.66913061
    outer loop
      vertex 0.09427040 0.00800000 0.09274207
      vertex 0.09427040 -0.00800000 0.09274207
      vertex 0.10363823 -0.00800000 0.10314610
    endloop
  endfacet
  facet normal -0.74314483 0.00000000 0.66913061
    outer loop
      vertex 0.09427040 0.00800000 0.09274207
      vertex 0.10363823 -0.00800000 0.10314610
      vertex 0.10363823 0.00800000 0.10314610
    endloop
  endfacet
  facet normal 0.30901699 0.00000000 0.95105652
    outer loop
      vertex 0.04839870 -0.00800000 0.12306732
      vertex 0.03318179 0.00800000 0.12801160
      vertex 0.03318179 -0.00800000 0.12801160
    endloop
  endfacet
  facet normal 0.30901699 -0.00000000 0.95105652
    outer loop
      vertex 0.04839870 -0.00800000 0.12306732
      vertex 0.04839870 0.00800000 0.12306732
      vertex 0.03318179 0.00800000 0.12801160
    endloop
  endfacet
  facet normal -0.30901699 0.00000000 -0.95105652
    outer loop
      vertex 0.05272493 -0.00800000 0.13638212
      vertex 0.03750803 -0.00800000 0.14132639
      vertex 0.03750803 0.00800000 0.14132639
    endloop
  endfacet
  facet normal -0.30901699 0.00000000 -0.95105652
    outer loop
      vertex 0.05272493 -0.00800000 0.13638212
      vertex 0.03750803 0.00800000 0.14132639
      vertex 0.05272493 0.00800000 0.13638212
    endloop
  endfacet
  facet normal 0.00000000 1.00000000 0.00000000
    outer loop
      vertex 0.04839870 -0.00800000 0.12306732
      vertex 0.03318179 -0.00800000 0.12801160
      vertex 0.03750803 -0.00800000 0.14132639
    endloop
  endfacet
  facet normal 0.00000000 1.00000000 -0.00000000
    outer loop
      vertex 0.04839870 -0.00800000 0.12306732
      vertex 0.03750803 -0.00800000 0.14132639
      vertex 0.05272493 -0.00800000 0.13638212
    endloop
  endfacet
  facet normal 0.95105652 0.00000000 -0.30901699
    outer loop
      vertex 0.03318179 -0.00800000 0.12801160
      vertex 0.03318179 0.00800000 0.12801160
      vertex 0.03750803 0.00800000 0.14132639
    endloop
  endfacet
  facet normal 0.95105652 0.00000000 -0.30901699
    outer loop
      vertex 0.03318179 -0.00800000 0.12801160
      vertex 0.03750803 0.00800000 0.14132639
      vertex 0.03750803 -0.00800000 0.14132639
    endloop
  endfacet
  facet normal 0.00000000 -1.00000000 0.00000000
    outer loop
      vertex 0.03318179 0.00800000 0.12801160
      vertex 0.04839870 0.00800000 0.12306732
      vertex 0.05272493 0.00800000 0.13638212
    endloop
  endfacet
  facet normal 0.00000000 -1.00000000 0.00000000
    outer loop
      vertex 0.03318179 0.00800000 0.12801160
      vertex 0.05272493 0.00800000 0.13638212
      vertex 0.03750803 0.00800000 0.14132639
    endloop
  endfacet
  facet normal -0.95105652 0.00000000 0.30901699
    outer loop
      vertex 0.04839870 0.00800000 0.12306732
      vertex 0.04839870 -0.00800000 0.12306732
      vertex 0.05272493 -0.00800000 0.13638212
    endloop
  endfacet
  facet normal -0.95105652 0.00000000 0.30901699
    outer loop
      vertex 0.04839870 0.00800000 0.12306732
      vertex 0.05272493 -0.00800000 0.13638212
      vertex 0.05272493 0.00800000 0.13638212
    endloop
  endfacet
  facet normal -0.10452846 0.00000000 0.99452190
    outer loop
      vertex -0.00584158 -0.00800000 0.13211312
      vertex -0.02175393 0.00800000 0.13044066
      vertex -0.02175393 -0.00800000 0.13044066
    endloop
  endfacet
  facet normal -0.10452846 0.00000000 0.99452190
    outer loop
      vertex -0.00584158 -0.00800000 0.13211312
      vertex -0.00584158 0.00800000 0.13211312
      vertex -0.02175393 0.00800000 0.13044066
    endloop
  endfacet
  facet normal 0.10452846 0.00000000 -0.99452190
    outer loop
      vertex -0.00730498 -0.00800000 0.14603642
      vertex -0.02321733 -0.00800000 0.14436397
      vertex -0.02321733 0.00800000 0.14436397
    endloop
  endfacet
  facet normal 0.10452846 0.00000000 -0.99452190
    outer loop
      vertex -0.00730498 -0.00800000 0.14603642
      vertex -0.02321733 0.00800000 0.14436397
      vertex -0.00730498 0.00800000 0.14603642
    endloop
  endfacet
  facet normal 0.00000000 1.00000000 0.00000000
    outer loop
      vertex -0.00584158 -0.00800000 0.13211312
      vertex -0.02175393 -0.00800000 0.13044066
      vertex -0.02321733 -0.00800000 0.14436397
    endloop
  endfacet
  facet normal 0.00000000 1.00000000 0.00000000
    outer loop
      vertex -0.00584158 -0.00800000 0.13211312
      vertex -0.02321733 -0.00800000 0.14436397
      vertex -0.00730498 -0.00800000 0.14603642
    endloop
  endfacet
  facet normal 0.99452190 -0.00000000 0.10452846
    outer loop
      vertex -0.02175393 -0.00800000 0.13044066
      vertex -0.02175393 0.00800000 0.13044066
      vertex -0.02321733 0.00800000 0.14436397
    endloop
  endfacet
  facet normal 0.99452190 0.00000000 0.10452846
    outer loop
      vertex -0.02175393 -0.00800000 0.13044066
      vertex -0.02321733 0.00800000 0.14436397
      vertex -0.02321733 -0.00800000 0.14436397
    endloop
  endfacet
  facet normal 0.00000000 -1.00000000 0.00000000
    outer loop
      vertex -0.02175393 0.00800000 0.13044066
      vertex -0.00584158 0.00800000 0.13211312
      vertex -0.00730498 0.00800000 0.14603642
    endloop
  endfacet
  facet normal 0.00000000 -1.00000000 0.00000000
    outer loop
      vertex -0.02175393 0.00800000 0.13044066
      vertex -0.00730498 0.00800000 0.14603642
      vertex -0.02321733 0.00800000 0.14436397
    endloop
  endfacet
  facet normal -0.99452190 -0.00000000 -0.10452846
    outer loop
      vertex -0.00584158 0.00800000 0.13211312
      vertex -0.00584158 -0.00800000 0.13211312
      vertex -0.00730498 -0.00800000 0.14603642
    endloop
  endfacet
  facet normal -0.99452190 0.00000000 -0.10452846
    outer loop
      vertex -0.00584158 0.00800000 0.13211312
      vertex -0.00730498 -0.00800000 0.14603642
      vertex -0.00730498 0.00800000 0.14603642
    endloop
  endfacet
  facet normal -0.50000000 0.00000000 0.86602540
    outer loop
      vertex -0.05907180 -0.00800000 0.11831535
      vertex -0.07292820 0.00800000 0.11031535
      vertex -0.07292820 -0.00800000 0.11031535
    endloop
  endfacet
  facet normal -0.50000000 0.00000000 0.86602540
    outer loop
      vertex -0.05907180 -0.00800000 0.11831535
      vertex -0.05907180 0.00800000 0.11831535
      vertex -0.07292820 0.00800000 0.11031535
    endloop
  endfacet
  facet normal 0.50000000 0.00000000 -0.86602540
    outer loop
      vertex -0.06607180 -0.00800000 0.13043971
      vertex -0.07992820 -0.00800000 0.12243971
      vertex -0.07992820 0.00800000 0.12243971
    endloop
  endfacet
  facet normal 0.50000000 0.00000000 -0.86602540
    outer loop
      vertex -0.06607180 -0.00800000 0.13043971
      vertex -0.07992820 0.00800000 0.12243971
      vertex -0.06607180 0.00800000 0.13043971
    endloop
  endfacet
  facet normal 0.00000000 1.00000000 0.00000000
    outer loop
      vertex -0.05907180 -0.00800000 0.11831535
      vertex -0.07292820 -0.00800000 0.11031535
      vertex -0.07992820 -0.00800000 0.12243971
    endloop
  endfacet
  facet normal 0.00000000 1.00000000 0.00000000
    outer loop
      vertex -0.05907180 -0.00800000 0.11831535
      vertex -0.07992820 -0.00800000 0.12243971
      vertex -0.06607180 -0.00800000 0.13043971
    endloop
  endfacet
  facet normal 0.86602540 -0.00000000 0.50000000
    outer loop
      vertex -0.07292820 -0.00800000 0.11031535
      vertex -0.07292820 0.00800000 0.11031535
      vertex -0.07992820 0.00800000 0.12243971
    endloop
  endfacet
  facet normal 0.86602540 0.00000000 0.50000000
    outer loop
      vertex -0.07292820 -0.00800000 0.11031535
      vertex -0.07992820 0.00800000 0.12243971
      vertex -0.07992820 -0.00800000 0.12243971
    endloop
  endfacet
  facet normal 0.00000000 -1.00000000 0.00000000
    outer loop
      vertex -0.07292820 0.00800000 0.11031535
      vertex -0.05907180 0.00800000 0.11831535
      vertex -0.06607180 0.00800000 0.13043971
    endloop
  endfacet
  facet normal 0.00000000 -1.00000000 0.00000000
    outer loop
      vertex -0.07292820 0.00800000 0.11031535
      vertex -0.06607180 0.00800000 0.13043971
      vertex -0.07992820 0.00800000 0.12243971
    endloop
  endfacet
  facet normal -0.86602540 -0.00000000 -0.50000000
    outer loop
      vertex -0.05907180 0.00800000 0.11831535
      vertex -0.05907180 -0.00800000 0.11831535
      vertex -0.06607180 -0.00800000 0.13043971
    endloop
  endfacet
  facet normal -0.86602540 0.00000000 -0.50000000
    outer loop
      vertex -0.05907180 0.00800000 0.11831535
      vertex -0.06607180 -0.00800000 0.13043971
      vertex -0.06607180 0.00800000 0.13043971
    endloop
  endfacet
  facet normal -0.80901699 0.00000000 0.58778525
    outer loop
      vertex -0.10208796 -0.00800000 0.08405979
      vertex -0.11149253 0.00800000 0.07111552
      vertex -0.11149253 -0.00800000 0.07111552
    endloop
  endfacet
  facet normal -0.80901699 0.00000000 0.58778525
    outer loop
      vertex -0.10208796 -0.00800000 0.08405979
      vertex -0.10208796 0.00800000 0.08405979
      vertex -0.11149253 0.00800000 0.07111552
    endloop
  endfacet
  facet normal 0.80901699 0.00000000 -0.58778525
    outer loop
      vertex -0.11341420 -0.00800000 0.09228878
      vertex -0.12281876 -0.00800000 0.07934451
      vertex -0.12281876 0.00800000 0.07934451
    endloop
  endfacet
  facet normal 0.80901699 0.00000000 -0.58778525
    outer loop
      vertex -0.11341420 -0.00800000 0.09228878
      vertex -0.12281876 0.00800000 0.07934451
      vertex -0.11341420 0.00800000 0.09228878
    endloop
  endfacet
  facet normal 0.00000000 1.00000000 0.00000000
    outer loop
      vertex -0.10208796 -0.00800000 0.08405979
      vertex -0.11149253 -0.00800000 0.07111552
      vertex -0.12281876 -0.00800000 0.07934451
    endloop
  endfacet
  facet normal 0.00000000 1.00000000 0.00000000
    outer loop
      vertex -0.10208796 -0.00800000 0.08405979
      vertex -0.12281876 -0.00800000 0.07934451
      vertex -0.11341420 -0.00800000 0.09228878
    endloop
  endfacet
  facet normal 0.58778525 -0.00000000 0.80901699
    outer loop
      vertex -0.11149253 -0.00800000 0.07111552
      vertex -0.11149253 0.00800000 0.07111552
      vertex -0.12281876 0.00800000 0.07934451
    endloop
  endfacet
  facet normal 0.58778525 0.00000000 0.80901699
    outer loop
      vertex -0.11149253 -0.00800000 0.07111552
      vertex -0.12281876 0.00800000 0.07934451
      vertex -0.12281876 -0.00800000 0.07934451
    endloop
  endfacet
  facet normal 0.00000000 -1.00000000 0.00000000
    outer loop
      vertex -0.11149253 0.00800000 0.07111552
      vertex -0.10208796 0.00800000 0.08405979
      vertex -0.11341420 0.00800000 0.09228878
    endloop
  endfacet
  facet normal 0.00000000 -1.00000000 0.00000000
    outer loop
      vertex -0.11149253 0.00800000 0.07111552
      vertex -0.11341420 0.00800000 0.09228878
      vertex -0.12281876 0.00800000 0.07934451
    endloop
  endfacet
  facet normal -0.58778525 -0.00000000 -0.80901699
    outer loop
      vertex -0.10208796 0.00800000 0.08405979
      vertex -0.10208796 -0.00800000 0.08405979
      vertex -0.11341420 -0.00800000 0.09228878
    endloop
  endfacet
  facet normal -0.58778525 0.00000000 -0.80901699
    outer loop
      vertex -0.10208796 0.00800000 0.08405979
      vertex -0.11341420 -0.00800000 0.09228878
      vertex -0.11341420 0.00800000 0.09228878
    endloop
  endfacet
endsolid fender_strips
