solid front_bumper
  facet normal 0.00000000 0.00000000 1.00000000
    outer loop
      vertex 0.25500000 0.00000000 0.13250000
      vertex 0.28250000 0.08000000 0.13250000
      vertex 0.28201963 0.08487726 0.13250000
    endloop
  endfacet
  facet normal 0.00000000 0.00000000 -1.00000000
    outer loop
      vertex 0.25500000 0.00000000 0.07750000
      vertex 0.28201963 0.08487726 0.07750000
      vertex 0.28250000 0.08000000 0.07750000
    endloop
  endfacet
  facet normal 0.99518473 0.09801714 0.00000000
    outer loop
      vertex 0.28250000 0.08000000 0.13250000
      vertex 0.28250000 0.08000000 0.07750000
      vertex 0.28201963 0.08487726 0.07750000
    endloop
  endfacet
  facet normal 0.99518473 0.09801714 0.00000000
    outer loop
      vertex 0.28250000 0.08000000 0.13250000
      vertex 0.28201963 0.08487726 0.07750000
      vertex 0.28201963 0.08487726 0.13250000
    endloop
  endfacet
  facet normal 0.00000000 0.00000000 1.00000000
    outer loop
      vertex 0.25500000 0.00000000 0.13250000
      vertex 0.28201963 0.08487726 0.13250000
      vertex 0.28059699 0.08956709 0.13250000
    endloop
  endfacet
  facet normal 0.00000000 0.00000000 -1.00000000
    outer loop
      vertex 0.25500000 0.00000000 0.07750000
      vertex 0.28059699 0.08956709 0.07750000
      vertex 0.28201963 0.08487726 0.07750000
    endloop
  endfacet
  facet normal 0.95694034 0.29028468 0.00000000
    outer loop
      vertex 0.28201963 0.08487726 0.13250000
      vertex 0.28201963 0.08487726 0.07750000
      vertex 0.28059699 0.08956709 0.07750000
    endloop
  endfacet
  facet normal 0.95694034 0.29028468 0.00000000
    outer loop
      vertex 0.28201963 0.08487726 0.13250000
      vertex 0.28059699 0.08956709 0.07750000
      vertex 0.28059699 0.08956709 0.13250000
    endloop
  endfacet
  facet normal 0.00000000 0.00000000 1.00000000
    outer loop
      vertex 0.25500000 0.00000000 0.13250000
      vertex 0.28059699 0.08956709 0.13250000
      vertex 0.27828674 0.09388926 0.13250000
    endloop
  endfacet
  facet normal 0.00000000 0.00000000 -1.00000000
    outer loop
      vertex 0.25500000 0.00000000 0.07750000
      vertex 0.27828674 0.09388926 0.07750000
      vertex 0.28059699 0.08956709 0.07750000
    endloop
  endfacet
  facet normal 0.88192126 0.47139674 0.00000000
    outer loop
      vertex 0.28059699 0.08956709 0.13250000
      vertex 0.28059699 0.08956709 0.07750000
      vertex 0.27828674 0.09388926 0.07750000
    endloop
  endfacet
  facet normal 0.88192126 0.47139674 0.00000000
    outer loop
      vertex 0.28059699 0.08956709 0.13250000
      vertex 0.27828674 0.09388926 0.07750000
      vertex 0.27828674 0.09388926 0.13250000
    endloop
  endfacet
  facet normal 0.00000000 0.00000000 1.00000000
    outer loop
      vertex 0.25500000 0.00000000 0.13250000
      vertex 0.27828674 0.09388926 0.13250000
      vertex 0.27517767 0.09767767 0.13250000
    endloop
  endfacet
  facet normal 0.00000000 0.00000000 -1.00000000
    outer loop
      vertex 0.25500000 0.00000000 0.07750000
      vertex 0.27517767 0.09767767 0.07750000
      vertex 0.27828674 0.09388926 0.07750000
    endloop
  endfacet
  facet normal 0.77301045 0.63439328 0.00000000
    outer loop
      vertex 0.27828674 0.09388926 0.13250000
      vertex 0.27828674 0.09388926 0.07750000
      vertex 0.27517767 0.09767767 0.07750000
    endloop
  endfacet
  facet normal 0.77301045 0.63439328 0.00000000
    outer loop
      vertex 0.27828674 0.09388926 0.13250000
      vertex 0.27517767 0.09767767 0.07750000
      vertex 0.27517767 0.09767767 0.13250000
    endloop
  endfacet
  facet normal 0.00000000 0.00000000 1.00000000
    outer loop
      vertex 0.25500000 0.00000000 0.13250000
      vertex 0.27517767 0.09767767 0.13250000
      vertex 0.27138926 0.10078674 0.13250000
    endloop
  endfacet
  facet normal 0.00000000 0.00000000 -1.00000000
    outer loop
      vertex 0.25500000 0.00000000 0.07750000
      vertex 0.27138926 0.10078674 0.07750000
      vertex 0.27517767 0.09767767 0.07750000
    endloop
  endfacet
  facet normal 0.63439328 0.77301045 0.00000000
    outer loop
      vertex 0.27517767 0.09767767 0.13250000
      vertex 0.27517767 0.09767767 0.07750000
      vertex 0.27138926 0.10078674 0.07750000
    endloop
  endfacet
  facet normal 0.63439328 0.77301045 0.00000000
    outer loop
      vertex 0.27517767 0.09767767 0.13250000
      vertex 0.27138926 0.10078674 0.07750000
      vertex 0.27138926 0.10078674 0.13250000
    endloop
  endfacet
  facet normal 0.00000000 0.00000000 1.00000000
    outer loop
      vertex 0.25500000 0.00000000 0.13250000
      vertex 0.27138926 0.10078674 0.13250000
      vertex 0.26706709 0.10309699 0.13250000
    endloop
  endfacet
  facet normal 0.00000000 0.00000000 -1.00000000
    outer loop
      vertex 0.25500000 0.00000000 0.07750000
      vertex 0.26706709 0.10309699 0.07750000
      vertex 0.27138926 0.10078674 0.07750000
    endloop
  endfacet
  facet normal 0.47139674 0.88192126 0.00000000
    outer loop
      vertex 0.27138926 0.10078674 0.13250000
      vertex 0.27138926 0.10078674 0.07750000
      vertex 0.26706709 0.10309699 0.07750000
    endloop
  endfacet
  facet normal 0.47139674 0.88192126 0.00000000
    outer loop
      vertex 0.27138926 0.10078674 0.13250000
      vertex 0.26706709 0.10309699 0.07750000
      vertex 0.26706709 0.10309699 0.13250000
    endloop
  endfacet
  facet normal 0.00000000 0.00000000 1.00000000
    outer loop
      vertex 0.25500000 0.00000000 0.13250000
      vertex 0.26706709 0.10309699 0.13250000
      vertex 0.26237726 0.10451963 0.13250000
    endloop
  endfacet
  facet normal 0.00000000 0.00000000 -1.00000000
    outer loop
      vertex 0.25500000 0.00000000 0.07750000
      vertex 0.26237726 0.10451963 0.07750000
      vertex 0.26706709 0.10309699 0.07750000
    endloop
  endfacet
  facet normal 0.29028468 0.95694034 0.00000000
    outer loop
      vertex 0.26706709 0.10309699 0.13250000
      vertex 0.26706709 0.10309699 0.07750000
      vertex 0.26237726 0.10451963 0.07750000
    endloop
  endfacet
  facet normal 0.29028468 0.95694034 0.00000000
    outer loop
      vertex 0.26706709 0.10309699 0.13250000
      vertex 0.26237726 0.10451963 0.07750000
      vertex 0.26237726 0.10451963 0.13250000
    endloop
  endfacet
  facet normal 0.00000000 0.00000000 1.00000000
    outer loop
      vertex 0.25500000 0.00000000 0.13250000
      vertex 0.26237726 0.10451963 0.13250000
      vertex 0.25750000 0.10500000 0.13250000
    endloop
  endfacet
  facet normal 0.00000000 0.00000000 -1.00000000
    outer loop
      vertex 0.25500000 0.00000000 0.07750000
      vertex 0.25750000 0.10500000 0.07750000
      vertex 0.26237726 0.10451963 0.07750000
    endloop
  endfacet
  facet normal 0.09801714 0.99518473 0.00000000
    outer loop
      vertex 0.26237726 0.10451963 0.13250000
      vertex 0.26237726 0.10451963 0.07750000
      vertex 0.25750000 0.10500000 0.07750000
    endloop
  endfacet
  facet normal 0.09801714 0.99518473 0.00000000
    outer loop
      vertex 0.26237726 0.10451963 0.13250000
      vertex 0.25750000 0.10500000 0.07750000
      vertex 0.25750000 0.10500000 0.13250000
    endloop
  endfacet
  facet normal 0.00000000 -0.00000000 1.00000000
    outer loop
      vertex 0.25500000 0.00000000 0.13250000
      vertex 0.25750000 0.10500000 0.13250000
      vertex 0.25250000 0.10500000 0.13250000
    endloop
  endfacet
  facet normal 0.00000000 0.00000000 -1.00000000
    outer loop
      vertex 0.25500000 0.00000000 0.07750000
      vertex 0.25250000 0.10500000 0.07750000
      vertex 0.25750000 0.10500000 0.07750000
    endloop
  endfacet
  facet normal 0.00000000 1.00000000 0.00000000
    outer loop
      vertex 0.25750000 0.10500000 0.13250000
      vertex 0.25750000 0.10500000 0.07750000
      vertex 0.25250000 0.10500000 0.07750000
    endloop
  endfacet
  facet normal 0.00000000 1.00000000 0.00000000
    outer loop
      vertex 0.25750000 0.10500000 0.13250000
      vertex 0.25250000 0.10500000 0.07750000
      vertex 0.25250000 0.10500000 0.13250000
    endloop
  endfacet
  facet normal 0.00000000 0.00000000 1.00000000
    outer loop
      vertex 0.25500000 0.00000000 0.13250000
      vertex 0.25250000 0.10500000 0.13250000
      vertex 0.24762274 0.10451963 0.13250000
    endloop
  endfacet
  facet normal 0.00000000 0.00000000 -1.00000000
    outer loop
      vertex 0.25500000 0.00000000 0.07750000
      vertex 0.24762274 0.10451963 0.07750000
      vertex 0.25250000 0.10500000 0.07750000
    endloop
  endfacet
  facet normal -0.09801714 0.99518473 0.00000000
    outer loop
      vertex 0.25250000 0.10500000 0.13250000
      vertex 0.25250000 0.10500000 0.07750000
      vertex 0.24762274 0.10451963 0.07750000
    endloop
  endfacet
  facet normal -0.09801714 0.99518473 0.00000000
    outer loop
      vertex 0.25250000 0.10500000 0.13250000
      vertex 0.24762274 0.10451963 0.07750000
      vertex 0.24762274 0.10451963 0.13250000
    endloop
  endfacet
  facet normal 0.00000000 0.00000000 1.00000000
    outer loop
      vertex 0.25500000 0.00000000 0.13250000
      vertex 0.24762274 0.10451963 0.13250000
      vertex 0.24293291 0.10309699 0.13250000
    endloop
  endfacet
  facet normal 0.00000000 0.00000000 -1.00000000
    outer loop
      vertex 0.25500000 0.00000000 0.07750000
      vertex 0.24293291 0.10309699 0.07750000
      vertex 0.24762274 0.10451963 0.07750000
    endloop
  endfacet
  facet normal -0.29028468 0.95694034 0.00000000
    outer loop
      vertex 0.24762274 0.10451963 0.13250000
      vertex 0.24762274 0.10451963 0.07750000
      vertex 0.24293291 0.10309699 0.07750000
    endloop
  endfacet
  facet normal -0.29028468 0.95694034 0.00000000
    outer loop
      vertex 0.24762274 0.10451963 0.13250000
      vertex 0.24293291 0.10309699 0.07750000
      vertex 0.24293291 0.10309699 0.13250000
    endloop
  endfacet
  facet normal 0.00000000 0.00000000 1.00000000
    outer loop
      vertex 0.25500000 0.00000000 0.13250000
      vertex 0.24293291 0.10309699 0.13250000
      vertex 0.23861074 0.10078674 0.13250000
    endloop
  endfacet
  facet normal 0.00000000 0.00000000 -1.00000000
    outer loop
      vertex 0.25500000 0.00000000 0.07750000
      vertex 0.23861074 0.10078674 0.07750000
      vertex 0.24293291 0.10309699 0.07750000
    endloop
  endfacet
  facet normal -0.47139674 0.88192126 0.00000000
    outer loop
      vertex 0.24293291 0.10309699 0.13250000
      vertex 0.24293291 0.10309699 0.07750000
      vertex 0.23861074 0.10078674 0.07750000
    endloop
  endfacet
  facet normal -0.47139674 0.88192126 0.00000000
    outer loop
      vertex 0.24293291 0.10309699 0.13250000
      vertex 0.23861074 0.10078674 0.07750000
      vertex 0.23861074 0.10078674 0.13250000
    endloop
  endfacet
  facet normal 0.00000000 0.00000000 1.00000000
    outer loop
      vertex 0.25500000 0.00000000 0.13250000
      vertex 0.23861074 0.10078674 0.13250000
      vertex 0.23482233 0.09767767 0.13250000
    endloop
  endfacet
  facet normal 0.00000000 0.00000000 -1.00000000
    outer loop
      vertex 0.25500000 0.00000000 0.07750000
      vertex 0.23482233 0.09767767 0.07750000
      vertex 0.23861074 0.10078674 0.07750000
    endloop
  endfacet
  facet normal -0.63439328 0.77301045 0.00000000
    outer loop
      vertex 0.23861074 0.10078674 0.13250000
      vertex 0.23861074 0.10078674 0.07750000
      vertex 0.23482233 0.09767767 0.07750000
    endloop
  endfacet
  facet normal -0.63439328 0.77301045 0.00000000
    outer loop
      vertex 0.23861074 0.10078674 0.13250000
      vertex 0.23482233 0.09767767 0.07750000
      vertex 0.23482233 0.09767767 0.13250000
    endloop
  endfacet
  facet normal 0.00000000 0.00000000 1.00000000
    outer loop
      vertex 0.25500000 0.00000000 0.13250000
      vertex 0.23482233 0.09767767 0.13250000
      vertex 0.23171326 0.09388926 0.13250000
    endloop
  endfacet
  facet normal 0.00000000 0.00000000 -1.00000000
    outer loop
      vertex 0.25500000 0.00000000 0.07750000
      vertex 0.23171326 0.09388926 0.07750000
      vertex 0.23482233 0.09767767 0.07750000
    endloop
  endfacet
  facet normal -0.77301045 0.63439328 0.00000000
    outer loop
      vertex 0.23482233 0.09767767 0.13250000
      vertex 0.23482233 0.09767767 0.07750000
      vertex 0.23171326 0.09388926 0.07750000
    endloop
  endfacet
  facet normal -0.77301045 0.63439328 0.00000000
    outer loop
      vertex 0.23482233 0.09767767 0.13250000
      vertex 0.23171326 0.09388926 0.07750000
      vertex 0.23171326 0.09388926 0.13250000
    endloop
  endfacet
  facet normal 0.00000000 0.00000000 1.00000000
    outer loop
      vertex 0.25500000 0.00000000 0.13250000
      vertex 0.23171326 0.09388926 0.13250000
      vertex 0.22940301 0.08956709 0.13250000
    endloop
  endfacet
  facet normal 0.00000000 0.00000000 -1.00000000
    outer loop
      vertex 0.25500000 0.00000000 0.07750000
      vertex 0.22940301 0.08956709 0.07750000
      vertex 0.23171326 0.09388926 0.07750000
    endloop
  endfacet
  facet normal -0.88192126 0.47139674 0.00000000
    outer loop
      vertex 0.23171326 0.09388926 0.13250000
      vertex 0.23171326 0.09388926 0.07750000
      vertex 0.22940301 0.08956709 0.07750000
    endloop
  endfacet
  facet normal -0.88192126 0.47139674 0.00000000
    outer loop
      vertex 0.23171326 0.09388926 0.13250000
      vertex 0.22940301 0.08956709 0.07750000
      vertex 0.22940301 0.08956709 0.13250000
    endloop
  endfacet
  facet normal 0.00000000 0.00000000 1.00000000
    outer loop
      vertex 0.25500000 0.00000000 0.13250000
      vertex 0.22940301 0.08956709 0.13250000
      vertex 0.22798037 0.08487726 0.13250000
    endloop
  endfacet
  facet normal 0.00000000 0.00000000 -1.00000000
    outer loop
      vertex 0.25500000 0.00000000 0.07750000
      vertex 0.22798037 0.08487726 0.07750000
      vertex 0.22940301 0.08956709 0.07750000
    endloop
  endfacet
  facet normal -0.95694034 0.29028468 0.00000000
    outer loop
      vertex 0.22940301 0.08956709 0.13250000
      vertex 0.22940301 0.08956709 0.07750000
      vertex 0.22798037 0.08487726 0.07750000
    endloop
  endfacet
  facet normal -0.95694034 0.29028468 0.00000000
    outer loop
      vertex 0.22940301 0.08956709 0.13250000
      vertex 0.22798037 0.08487726 0.07750000
      vertex 0.22798037 0.08487726 0.13250000
    endloop
  endfacet
  facet normal 0.00000000 0.00000000 1.00000000
    outer loop
      vertex 0.25500000 0.00000000 0.13250000
      vertex 0.22798037 0.08487726 0.13250000
      vertex 0.22750000 0.08000000 0.13250000
    endloop
  endfacet
  facet normal 0.00000000 0.00000000 -1.00000000
    outer loop
      vertex 0.25500000 0.00000000 0.07750000
      vertex 0.22750000 0.08000000 0.07750000
      vertex 0.22798037 0.08487726 0.07750000
    endloop
  endfacet
  facet normal -0.99518473 0.09801714 0.00000000
    outer loop
      vertex 0.22798037 0.08487726 0.13250000
      vertex 0.22798037 0.08487726 0.07750000
      vertex 0.22750000 0.08000000 0.07750000
    endloop
  endfacet
  facet normal -0.99518473 0.09801714 0.00000000
    outer loop
      vertex 0.22798037 0.08487726 0.13250000
      vertex 0.22750000 0.08000000 0.07750000
      vertex 0.22750000 0.08000000 0.13250000
    endloop
  endfacet
  facet normal 0.00000000 0.00000000 1.00000000
    outer loop
      vertex 0.25500000 0.00000000 0.13250000
      vertex 0.22750000 0.08000000 0.13250000
      vertex 0.22750000 -0.08000000 0.13250000
    endloop
  endfacet
  facet normal -0.00000000 0.00000000 -1.00000000
    outer loop
      vertex 0.25500000 0.00000000 0.07750000
      vertex 0.22750000 -0.08000000 0.07750000
      vertex 0.22750000 0.08000000 0.07750000
    endloop
  endfacet
  facet normal -1.00000000 0.00000000 -0.00000000
    outer loop
      vertex 0.22750000 0.08000000 0.13250000
      vertex 0.22750000 0.08000000 0.07750000
      vertex 0.22750000 -0.08000000 0.07750000
    endloop
  endfacet
  facet normal -1.00000000 -0.00000000 0.00000000
    outer loop
      vertex 0.22750000 0.08000000 0.13250000
      vertex 0.22750000 -0.08000000 0.07750000
      vertex 0.22750000 -0.08000000 0.13250000
    endloop
  endfacet
  facet normal 0.00000000 0.00000000 1.00000000
    outer loop
      vertex 0.25500000 0.00000000 0.13250000
      vertex 0.22750000 -0.08000000 0.13250000
      vertex 0.22798037 -0.08487726 0.13250000
    endloop
  endfacet
  facet normal 0.00000000 0.00000000 -1.00000000
    outer loop
      vertex 0.25500000 0.00000000 0.07750000
      vertex 0.22798037 -0.08487726 0.07750000
      vertex 0.22750000 -0.08000000 0.07750000
    endloop
  endfacet
  facet normal -0.99518473 -0.09801714 -0.00000000
    outer loop
      vertex 0.22750000 -0.08000000 0.13250000
      vertex 0.22750000 -0.08000000 0.07750000
      vertex 0.22798037 -0.08487726 0.07750000
    endloop
  endfacet
  facet normal -0.99518473 -0.09801714 0.00000000
    outer loop
      vertex 0.22750000 -0.08000000 0.13250000
      vertex 0.22798037 -0.08487726 0.07750000
      vertex 0.22798037 -0.08487726 0.13250000
    endloop
  endfacet
  facet normal 0.00000000 0.00000000 1.00000000
    outer loop
      vertex 0.25500000 0.00000000 0.13250000
      vertex 0.22798037 -0.08487726 0.13250000
      vertex 0.22940301 -0.08956709 0.13250000
    endloop
  endfacet
  facet normal 0.00000000 0.00000000 -1.00000000
    outer loop
      vertex 0.25500000 0.00000000 0.07750000
      vertex 0.22940301 -0.08956709 0.07750000
      vertex 0.22798037 -0.08487726 0.07750000
    endloop
  endfacet
  facet normal -0.95694034 -0.29028468 -0.00000000
    outer loop
      vertex 0.22798037 -0.08487726 0.13250000
      vertex 0.22798037 -0.08487726 0.07750000
      vertex 0.22940301 -0.08956709 0.07750000
    endloop
  endfacet
  facet normal -0.95694034 -0.29028468 0.00000000
    outer loop
      vertex 0.22798037 -0.08487726 0.13250000
      vertex 0.22940301 -0.08956709 0.07750000
      vertex 0.22940301 -0.08956709 0.13250000
    endloop
  endfacet
  facet normal 0.00000000 0.00000000 1.00000000
    outer loop
      vertex 0.25500000 0.00000000 0.13250000
      vertex 0.22940301 -0.08956709 0.13250000
      vertex 0.23171326 -0.09388926 0.13250000
    endloop
  endfacet
  facet normal 0.00000000 0.00000000 -1.00000000
    outer loop
      vertex 0.25500000 0.00000000 0.07750000
      vertex 0.23171326 -0.09388926 0.07750000
      vertex 0.22940301 -0.08956709 0.07750000
    endloop
  endfacet
  facet normal -0.88192126 -0.47139674 -0.00000000
    outer loop
      vertex 0.22940301 -0.08956709 0.13250000
      vertex 0.22940301 -0.08956709 0.07750000
      vertex 0.23171326 -0.09388926 0.07750000
    endloop
  endfacet
  facet normal -0.88192126 -0.47139674 0.00000000
    outer loop
      vertex 0.22940301 -0.08956709 0.13250000
      vertex 0.23171326 -0.09388926 0.07750000
      vertex 0.23171326 -0.09388926 0.13250000
    endloop
  endfacet
  facet normal 0.00000000 0.00000000 1.00000000
    outer loop
      vertex 0.25500000 0.00000000 0.13250000
      vertex 0.23171326 -0.09388926 0.13250000
      vertex 0.23482233 -0.09767767 0.13250000
    endloop
  endfacet
  facet normal 0.00000000 0.00000000 -1.00000000
    outer loop
      vertex 0.25500000 0.00000000 0.07750000
      vertex 0.23482233 -0.09767767 0.07750000
      vertex 0.23171326 -0.09388926 0.07750000
    endloop
  endfacet
  facet normal -0.77301045 -0.63439328 -0.00000000
    outer loop
      vertex 0.23171326 -0.09388926 0.13250000
      vertex 0.23171326 -0.09388926 0.07750000
      vertex 0.23482233 -0.09767767 0.07750000
    endloop
  endfacet
  facet normal -0.77301045 -0.63439328 0.00000000
    outer loop
      vertex 0.23171326 -0.09388926 0.13250000
      vertex 0.23482233 -0.09767767 0.07750000
      vertex 0.23482233 -0.09767767 0.13250000
    endloop
  endfacet
  facet normal 0.00000000 0.00000000 1.00000000
    outer loop
      vertex 0.25500000 0.00000000 0.13250000
      vertex 0.23482233 -0.09767767 0.13250000
      vertex 0.23861074 -0.10078674 0.13250000
    endloop
  endfacet
  facet normal 0.00000000 0.00000000 -1.00000000
    outer loop
      vertex 0.25500000 0.00000000 0.07750000
      vertex 0.23861074 -0.10078674 0.07750000
      vertex 0.23482233 -0.09767767 0.07750000
    endloop
  endfacet
  facet normal -0.63439328 -0.77301045 -0.00000000
    outer loop
      vertex 0.23482233 -0.09767767 0.13250000
      vertex 0.23482233 -0.09767767 0.07750000
      vertex 0.23861074 -0.10078674 0.07750000
    endloop
  endfacet
  facet normal -0.63439328 -0.77301045 0.00000000
    outer loop
      vertex 0.23482233 -0.09767767 0.13250000
      vertex 0.23861074 -0.10078674 0.07750000
      vertex 0.23861074 -0.10078674 0.13250000
    endloop
  endfacet
  facet normal 0.00000000 0.00000000 1.00000000
    outer loop
      vertex 0.25500000 0.00000000 0.13250000
      vertex 0.23861074 -0.10078674 0.13250000
      vertex 0.24293291 -0.10309699 0.13250000
    endloop
  endfacet
  facet normal 0.00000000 0.00000000 -1.00000000
    outer loop
      vertex 0.25500000 0.00000000 0.07750000
      vertex 0.24293291 -0.10309699 0.07750000
      vertex 0.23861074 -0.10078674 0.07750000
    endloop
  endfacet
  facet normal -0.47139674 -0.88192126 -0.00000000
    outer loop
      vertex 0.23861074 -0.10078674 0.13250000
      vertex 0.23861074 -0.10078674 0.07750000
      vertex 0.24293291 -0.10309699 0.07750000
    endloop
  endfacet
  facet normal -0.47139674 -0.88192126 0.00000000
    outer loop
      vertex 0.23861074 -0.10078674 0.13250000
      vertex 0.24293291 -0.10309699 0.07750000
      vertex 0.24293291 -0.10309699 0.13250000
    endloop
  endfacet
  facet normal 0.00000000 0.00000000 1.00000000
    outer loop
      vertex 0.25500000 0.00000000 0.13250000
      vertex 0.24293291 -0.10309699 0.13250000
      vertex 0.24762274 -0.10451963 0.13250000
    endloop
  endfacet
  facet normal 0.00000000 0.00000000 -1.00000000
    outer loop
      vertex 0.25500000 0.00000000 0.07750000
      vertex 0.24762274 -0.10451963 0.07750000
      vertex 0.24293291 -0.10309699 0.07750000
    endloop
  endfacet
  facet normal -0.29028468 -0.95694034 -0.00000000
    outer loop
      vertex 0.24293291 -0.10309699 0.13250000
      vertex 0.24293291 -0.10309699 0.07750000
      vertex 0.24762274 -0.10451963 0.07750000
    endloop
  endfacet
  facet normal -0.29028468 -0.95694034 0.00000000
    outer loop
      vertex 0.24293291 -0.10309699 0.13250000
      vertex 0.24762274 -0.10451963 0.07750000
      vertex 0.24762274 -0.10451963 0.13250000
    endloop
  endfacet
  facet normal 0.00000000 0.00000000 1.00000000
    outer loop
      vertex 0.25500000 0.00000000 0.13250000
      vertex 0.24762274 -0.10451963 0.13250000
      vertex 0.25250000 -0.10500000 0.13250000
    endloop
  endfacet
  facet normal 0.00000000 0.00000000 -1.00000000
    outer loop
      vertex 0.25500000 0.00000000 0.07750000
      vertex 0.25250000 -0.10500000 0.07750000
      vertex 0.24762274 -0.10451963 0.07750000
    endloop
  endfacet
  facet normal -0.09801714 -0.99518473 -0.00000000
    outer loop
      vertex 0.24762274 -0.10451963 0.13250000
      vertex 0.24762274 -0.10451963 0.07750000
      vertex 0.25250000 -0.10500000 0.07750000
    endloop
  endfacet
  facet normal -0.09801714 -0.99518473 0.00000000
    outer loop
      vertex 0.24762274 -0.10451963 0.13250000
      vertex 0.25250000 -0.10500000 0.07750000
      vertex 0.25250000 -0.10500000 0.13250000
    endloop
  endfacet
  facet normal 0.00000000 0.00000000 1.00000000
    outer loop
      vertex 0.25500000 0.00000000 0.13250000
      vertex 0.25250000 -0.10500000 0.13250000
      vertex 0.25750000 -0.10500000 0.13250000
    endloop
  endfacet
  facet normal 0.00000000 -0.00000000 -1.00000000
    outer loop
      vertex 0.25500000 0.00000000 0.07750000
      vertex 0.25750000 -0.10500000 0.07750000
      vertex 0.25250000 -0.10500000 0.07750000
    endloop
  endfacet
  facet normal 0.00000000 -1.00000000 0.00000000
    outer loop
      vertex 0.25250000 -0.10500000 0.13250000
      vertex 0.25250000 -0.10500000 0.07750000
      vertex 0.25750000 -0.10500000 0.07750000
    endloop
  endfacet
  facet normal 0.00000000 -1.00000000 0.00000000
    outer loop
      vertex 0.25250000 -0.10500000 0.13250000
      vertex 0.25750000 -0.10500000 0.07750000
      vertex 0.25750000 -0.10500000 0.13250000
    endloop
  endfacet
  facet normal 0.00000000 0.00000000 1.00000000
    outer loop
      vertex 0.25500000 0.00000000 0.13250000
      vertex 0.25750000 -0.10500000 0.13250000
      vertex 0.26237726 -0.10451963 0.13250000
    endloop
  endfacet
  facet normal 0.00000000 0.00000000 -1.00000000
    outer loop
      vertex 0.25500000 0.00000000 0.07750000
      vertex 0.26237726 -0.10451963 0.07750000
      vertex 0.25750000 -0.10500000 0.07750000
    endloop
  endfacet
  facet normal 0.09801714 -0.99518473 0.00000000
    outer loop
      vertex 0.25750000 -0.10500000 0.13250000
      vertex 0.25750000 -0.10500000 0.07750000
      vertex 0.26237726 -0.10451963 0.07750000
    endloop
  endfacet
  facet normal 0.09801714 -0.99518473 0.00000000
    outer loop
      vertex 0.25750000 -0.10500000 0.13250000
      vertex 0.26237726 -0.10451963 0.07750000
      vertex 0.26237726 -0.10451963 0.13250000
    endloop
  endfacet
  facet normal 0.00000000 0.00000000 1.00000000
    outer loop
      vertex 0.25500000 0.00000000 0.13250000
      vertex 0.26237726 -0.10451963 0.13250000
      vertex 0.26706709 -0.10309699 0.13250000
    endloop
  endfacet
  facet normal 0.00000000 0.00000000 -1.00000000
    outer loop
      vertex 0.25500000 0.00000000 0.07750000
      vertex 0.26706709 -0.10309699 0.07750000
      vertex 0.26237726 -0.10451963 0.07750000
    endloop
  endfacet
  facet normal 0.29028468 -0.95694034 0.00000000
    outer loop
      vertex 0.26237726 -0.10451963 0.13250000
      vertex 0.26237726 -0.10451963 0.07750000
      vertex 0.26706709 -0.10309699 0.07750000
    endloop
  endfacet
  facet normal 0.29028468 -0.95694034 0.00000000
    outer loop
      vertex 0.26237726 -0.10451963 0.13250000
      vertex 0.26706709 -0.10309699 0.07750000
      vertex 0.26706709 -0.10309699 0.13250000
    endloop
  endfacet
  facet normal 0.00000000 0.00000000 1.00000000
    outer loop
      vertex 0.25500000 0.00000000 0.13250000
      vertex 0.26706709 -0.10309699 0.13250000
      vertex 0.27138926 -0.10078674 0.13250000
    endloop
  endfacet
  facet normal 0.00000000 0.00000000 -1.00000000
    outer loop
      vertex 0.25500000 0.00000000 0.07750000
      vertex 0.27138926 -0.10078674 0.07750000
      vertex 0.26706709 -0.10309699 0.07750000
    endloop
  endfacet
  facet normal 0.47139674 -0.88192126 0.00000000
    outer loop
      vertex 0.26706709 -0.10309699 0.13250000
      vertex 0.26706709 -0.10309699 0.07750000
      vertex 0.27138926 -0.10078674 0.07750000
    endloop
  endfacet
  facet normal 0.47139674 -0.88192126 0.00000000
    outer loop
      vertex 0.26706709 -0.10309699 0.13250000
      vertex 0.27138926 -0.10078674 0.07750000
      vertex 0.27138926 -0.10078674 0.13250000
    endloop
  endfacet
  facet normal 0.00000000 0.00000000 1.00000000
    outer loop
      vertex 0.25500000 0.00000000 0.13250000
      vertex 0.27138926 -0.10078674 0.13250000
      vertex 0.27517767 -0.09767767 0.13250000
    endloop
  endfacet
  facet normal 0.00000000 0.00000000 -1.00000000
    outer loop
      vertex 0.25500000 0.00000000 0.07750000
      vertex 0.27517767 -0.09767767 0.07750000
      vertex 0.27138926 -0.10078674 0.07750000
    endloop
  endfacet
  facet normal 0.63439328 -0.77301045 0.00000000
    outer loop
      vertex 0.27138926 -0.10078674 0.13250000
      vertex 0.27138926 -0.10078674 0.07750000
      vertex 0.27517767 -0.09767767 0.07750000
    endloop
  endfacet
  facet normal 0.63439328 -0.77301045 0.00000000
    outer loop
      vertex 0.27138926 -0.10078674 0.13250000
      vertex 0.27517767 -0.09767767 0.07750000
      vertex 0.27517767 -0.09767767 0.13250000
    endloop
  endfacet
  facet normal 0.00000000 0.00000000 1.00000000
    outer loop
      vertex 0.25500000 0.00000000 0.13250000
      vertex 0.27517767 -0.09767767 0.13250000
      vertex 0.27828674 -0.09388926 0.13250000
    endloop
  endfacet
  facet normal 0.00000000 0.00000000 -1.00000000
    outer loop
      vertex 0.25500000 0.00000000 0.07750000
      vertex 0.27828674 -0.09388926 0.07750000
      vertex 0.27517767 -0.09767767 0.07750000
    endloop
  endfacet
  facet normal 0.77301045 -0.63439328 0.00000000
    outer loop
      vertex 0.27517767 -0.09767767 0.13250000
      vertex 0.27517767 -0.09767767 0.07750000
      vertex 0.27828674 -0.09388926 0.07750000
    endloop
  endfacet
  facet normal 0.77301045 -0.63439328 0.00000000
    outer loop
      vertex 0.27517767 -0.09767767 0.13250000
      vertex 0.27828674 -0.09388926 0.07750000
      vertex 0.27828674 -0.09388926 0.13250000
    endloop
  endfacet
  facet normal 0.00000000 0.00000000 1.00000000
    outer loop
      vertex 0.25500000 0.00000000 0.13250000
      vertex 0.27828674 -0.09388926 0.13250000
      vertex 0.28059699 -0.08956709 0.13250000
    endloop
  endfacet
  facet normal 0.00000000 0.00000000 -1.00000000
    outer loop
      vertex 0.25500000 0.00000000 0.07750000
      vertex 0.28059699 -0.08956709 0.07750000
      vertex 0.27828674 -0.09388926 0.07750000
    endloop
  endfacet
  facet normal 0.88192126 -0.47139674 0.00000000
    outer loop
      vertex 0.27828674 -0.09388926 0.13250000
      vertex 0.27828674 -0.09388926 0.07750000
      vertex 0.28059699 -0.08956709 0.07750000
    endloop
  endfacet
  facet normal 0.88192126 -0.47139674 0.00000000
    outer loop
      vertex 0.27828674 -0.09388926 0.13250000
      vertex 0.28059699 -0.08956709 0.07750000
      vertex 0.28059699 -0.08956709 0.13250000
    endloop
  endfacet
  facet normal 0.00000000 0.00000000 1.00000000
    outer loop
      vertex 0.25500000 0.00000000 0.13250000
      vertex 0.28059699 -0.08956709 0.13250000
      vertex 0.28201963 -0.08487726 0.13250000
    endloop
  endfacet
  facet normal 0.00000000 0.00000000 -1.00000000
    outer loop
      vertex 0.25500000 0.00000000 0.07750000
      vertex 0.28201963 -0.08487726 0.07750000
      vertex 0.28059699 -0.08956709 0.07750000
    endloop
  endfacet
  facet normal 0.95694034 -0.29028468 0.00000000
    outer loop
      vertex 0.28059699 -0.08956709 0.13250000
      vertex 0.28059699 -0.08956709 0.07750000
      vertex 0.28201963 -0.08487726 0.07750000
    endloop
  endfacet
  facet normal 0.95694034 -0.29028468 0.00000000
    outer loop
      vertex 0.28059699 -0.08956709 0.13250000
      vertex 0.28201963 -0.08487726 0.07750000
      vertex 0.28201963 -0.08487726 0.13250000
    endloop
  endfacet
  facet normal 0.00000000 0.00000000 1.00000000
    outer loop
      vertex 0.25500000 0.00000000 0.13250000
      vertex 0.28201963 -0.08487726 0.13250000
      vertex 0.28250000 -0.08000000 0.13250000
    endloop
  endfacet
  facet normal 0.00000000 0.00000000 -1.00000000
    outer loop
      vertex 0.25500000 0.00000000 0.07750000
      vertex 0.28250000 -0.08000000 0.07750000
      vertex 0.28201963 -0.08487726 0.07750000
    endloop
  endfacet
  facet normal 0.99518473 -0.09801714 0.00000000
    outer loop
      vertex 0.28201963 -0.08487726 0.13250000
      vertex 0.28201963 -0.08487726 0.07750000
      vertex 0.28250000 -0.08000000 0.07750000
    endloop
  endfacet
  facet normal 0.99518473 -0.09801714 0.00000000
    outer loop
      vertex 0.28201963 -0.08487726 0.13250000
      vertex 0.28250000 -0.08000000 0.07750000
      vertex 0.28250000 -0.08000000 0.13250000
    endloop
  endfacet
  facet normal -0.00000000 0.00000000 1.00000000
    outer loop
      vertex 0.25500000 0.00000000 0.13250000
      vertex 0.28250000 -0.08000000 0.13250000
      vertex 0.28250000 0.08000000 0.13250000
    endloop
  endfacet
  facet normal 0.00000000 0.00000000 -1.00000000
    outer loop
      vertex 0.25500000 0.00000000 0.07750000
      vertex 0.28250000 0.08000000 0.07750000
      vertex 0.28250000 -0.08000000 0.07750000
    endloop
  endfacet
  facet normal 1.00000000 0.00000000 0.00000000
    outer loop
      vertex 0.28250000 -0.08000000 0.13250000
      vertex 0.28250000 -0.08000000 0.07750000
      vertex 0.28250000 0.08000000 0.07750000
    endloop
  endfacet
  facet normal 1.00000000 -0.00000000 0.00000000
    outer loop
      vertex 0.28250000 -0.08000000 0.13250000
      vertex 0.28250000 0.08000000 0.07750000
      vertex 0.28250000 0.08000000 0.13250000
    endloop
  endfacet
endsolid front_bumper
