solid left_wheel
  facet normal 0.00000000 -1.00000000 0.00000000
    outer loop
      vertex 0.00000000 0.02500000 0.00000000
      vertex 0.10000000 0.02500000 0.00000000
      vertex 0.09951847 0.02500000 0.00980171
    endloop
  endfacet
  facet normal 0.00000000 1.00000000 0.00000000
    outer loop
      vertex 0.00000000 -0.02500000 0.00000000
      vertex 0.09951847 -0.02500000 0.00980171
      vertex 0.10000000 -0.02500000 0.00000000
    endloop
  endfacet
  facet normal -0.99879546 -0.00000000 -0.04906767
    outer loop
      vertex 0.10000000 0.02500000 0.00000000
      vertex 0.10000000 -0.02500000 0.00000000
      vertex 0.09951847 -0.02500000 0.00980171
    endloop
  endfacet
  facet normal -0.99879546 0.00000000 -0.04906767
    outer loop
      vertex 0.10000000 0.02500000 0.00000000
      vertex 0.09951847 -0.02500000 0.00980171
      vertex 0.09951847 0.02500000 0.00980171
    endloop
  endfacet
  facet normal 0.00000000 -1.00000000 0.00000000
    outer loop
      vertex 0.00000000 0.02500000 0.00000000
      vertex 0.09951847 0.02500000 0.00980171
      vertex 0.09807853 0.02500000 0.01950903
    endloop
  endfacet
  facet normal 0.00000000 1.00000000 0.00000000
    outer loop
      vertex 0.00000000 -0.02500000 0.00000000
      vertex 0.09807853 -0.02500000 0.01950903
      vertex 0.09951847 -0.02500000 0.00980171
    endloop
  endfacet
  facet normal -0.98917651 -0.00000000 -0.14673047
    outer loop
      vertex 0.09951847 0.02500000 0.00980171
      vertex 0.09951847 -0.02500000 0.00980171
      vertex 0.09807853 -0.02500000 0.01950903
    endloop
  endfacet
  facet normal -0.98917651 0.00000000 -0.14673047
    outer loop
      vertex 0.09951847 0.02500000 0.00980171
      vertex 0.09807853 -0.02500000 0.01950903
      vertex 0.09807853 0.02500000 0.01950903
    endloop
  endfacet
  facet normal 0.00000000 -1.00000000 0.00000000
    outer loop
      vertex 0.00000000 0.02500000 0.00000000
      vertex 0.09807853 0.02500000 0.01950903
      vertex 0.09569403 0.02500000 0.02902847
    endloop
  endfacet
  facet normal 0.00000000 1.00000000 0.00000000
    outer loop
      vertex 0.00000000 -0.02500000 0.00000000
      vertex 0.09569403 -0.02500000 0.02902847
      vertex 0.09807853 -0.02500000 0.01950903
    endloop
  endfacet
  facet normal -0.97003125 -0.00000000 -0.24298018
    outer loop
      vertex 0.09807853 0.02500000 0.01950903
      vertex 0.09807853 -0.02500000 0.01950903
      vertex 0.09569403 -0.02500000 0.02902847
    endloop
  endfacet
  facet normal -0.97003125 0.00000000 -0.24298018
    outer loop
      vertex 0.09807853 0.02500000 0.01950903
      vertex 0.09569403 -0.02500000 0.02902847
      vertex 0.09569403 0.02500000 0.02902847
    endloop
  endfacet
  facet normal 0.00000000 -1.00000000 0.00000000
    outer loop
      vertex 0.00000000 0.02500000 0.00000000
      vertex 0.09569403 0.02500000 0.02902847
      vertex 0.09238795 0.02500000 0.03826834
    endloop
  endfacet
  facet normal 0.00000000 1.00000000 0.00000000
    outer loop
      vertex 0.00000000 -0.02500000 0.00000000
      vertex 0.09238795 -0.02500000 0.03826834
      vertex 0.09569403 -0.02500000 0.02902847
    endloop
  endfacet
  facet normal -0.94154407 -0.00000000 -0.33688985
    outer loop
      vertex 0.09569403 0.02500000 0.02902847
      vertex 0.09569403 -0.02500000 0.02902847
      vertex 0.09238795 -0.02500000 0.03826834
    endloop
  endfacet
  facet normal -0.94154407 0.00000000 -0.33688985
    outer loop
      vertex 0.09569403 0.02500000 0.02902847
      vertex 0.09238795 -0.02500000 0.03826834
      vertex 0.09238795 0.02500000 0.03826834
    endloop
  endfacet
  facet normal 0.00000000 -1.00000000 0.00000000
    outer loop
      vertex 0.00000000 0.02500000 0.00000000
      vertex 0.09238795 0.02500000 0.03826834
      vertex 0.08819213 0.02500000 0.04713967
    endloop
  endfacet
  facet normal 0.00000000 1.00000000 0.00000000
    outer loop
      vertex 0.00000000 -0.02500000 0.00000000
      vertex 0.08819213 -0.02500000 0.04713967
      vertex 0.09238795 -0.02500000 0.03826834
    endloop
  endfacet
  facet normal -0.90398929 -0.00000000 -0.42755509
    outer loop
      vertex 0.09238795 0.02500000 0.03826834
      vertex 0.09238795 -0.02500000 0.03826834
      vertex 0.08819213 -0.02500000 0.04713967
    endloop
  endfacet
  facet normal -0.90398929 0.00000000 -0.42755509
    outer loop
      vertex 0.09238795 0.02500000 0.03826834
      vertex 0.08819213 -0.02500000 0.04713967
      vertex 0.08819213 0.02500000 0.04713967
    endloop
  endfacet
  facet normal 0.00000000 -1.00000000 0.00000000
    outer loop
      vertex 0.00000000 0.02500000 0.00000000
      vertex 0.08819213 0.02500000 0.04713967
      vertex 0.08314696 0.02500000 0.05555702
    endloop
  endfacet
  facet normal 0.00000000 1.00000000 0.00000000
    outer loop
      vertex 0.00000000 -0.02500000 0.00000000
      vertex 0.08314696 -0.02500000 0.05555702
      vertex 0.08819213 -0.02500000 0.04713967
    endloop
  endfacet
  facet normal -0.85772861 -0.00000000 -0.51410274
    outer loop
      vertex 0.08819213 0.02500000 0.04713967
      vertex 0.08819213 -0.02500000 0.04713967
      vertex 0.08314696 -0.02500000 0.05555702
    endloop
  endfacet
  facet normal -0.85772861 0.00000000 -0.51410274
    outer loop
      vertex 0.08819213 0.02500000 0.04713967
      vertex 0.08314696 -0.02500000 0.05555702
      vertex 0.08314696 0.02500000 0.05555702
    endloop
  endfacet
  facet normal 0.00000000 -1.00000000 0.00000000
    outer loop
      vertex 0.00000000 0.02500000 0.00000000
      vertex 0.08314696 0.02500000 0.05555702
      vertex 0.07730105 0.02500000 0.06343933
    endloop
  endfacet
  facet normal 0.00000000 1.00000000 0.00000000
    outer loop
      vertex 0.00000000 -0.02500000 0.00000000
      vertex 0.07730105 -0.02500000 0.06343933
      vertex 0.08314696 -0.02500000 0.05555702
    endloop
  endfacet
  facet normal -0.80320753 -0.00000000 -0.59569930
    outer loop
      vertex 0.08314696 0.02500000 0.05555702
      vertex 0.08314696 -0.02500000 0.05555702
      vertex 0.07730105 -0.02500000 0.06343933
    endloop
  endfacet
  facet normal -0.80320753 0.00000000 -0.59569930
    outer loop
      vertex 0.08314696 0.02500000 0.05555702
      vertex 0.07730105 -0.02500000 0.06343933
      vertex 0.07730105 0.02500000 0.06343933
    endloop
  endfacet
  facet normal 0.00000000 -1.00000000 0.00000000
    outer loop
      vertex 0.00000000 0.02500000 0.00000000
      vertex 0.07730105 0.02500000 0.06343933
      vertex 0.07071068 0.02500000 0.07071068
    endloop
  endfacet
  facet normal 0.00000000 1.00000000 0.00000000
    outer loop
      vertex 0.00000000 -0.02500000 0.00000000
      vertex 0.07071068 -0.02500000 0.07071068
      vertex 0.07730105 -0.02500000 0.06343933
    endloop
  endfacet
  facet normal -0.74095113 -0.00000000 -0.67155895
    outer loop
      vertex 0.07730105 0.02500000 0.06343933
      vertex 0.07730105 -0.02500000 0.06343933
      vertex 0.07071068 -0.02500000 0.07071068
    endloop
  endfacet
  facet normal -0.74095113 0.00000000 -0.67155895
    outer loop
      vertex 0.07730105 0.02500000 0.06343933
      vertex 0.07071068 -0.02500000 0.07071068
      vertex 0.07071068 0.02500000 0.07071068
    endloop
  endfacet
  facet normal 0.00000000 -1.00000000 0.00000000
    outer loop
      vertex 0.00000000 0.02500000 0.00000000
      vertex 0.07071068 0.02500000 0.07071068
      vertex 0.06343933 0.02500000 0.07730105
    endloop
  endfacet
  facet normal 0.00000000 1.00000000 0.00000000
    outer loop
      vertex 0.00000000 -0.02500000 0.00000000
      vertex 0.06343933 -0.02500000 0.07730105
      vertex 0.07071068 -0.02500000 0.07071068
    endloop
  endfacet
  facet normal -0.67155895 -0.00000000 -0.74095113
    outer loop
      vertex 0.07071068 0.02500000 0.07071068
      vertex 0.07071068 -0.02500000 0.07071068
      vertex 0.06343933 -0.02500000 0.07730105
    endloop
  endfacet
  facet normal -0.67155895 0.00000000 -0.74095113
    outer loop
      vertex 0.07071068 0.02500000 0.07071068
      vertex 0.06343933 -0.02500000 0.07730105
      vertex 0.06343933 0.02500000 0.07730105
    endloop
  endfacet
  facet normal 0.00000000 -1.00000000 0.00000000
    outer loop
      vertex 0.00000000 0.02500000 0.00000000
      vertex 0.06343933 0.02500000 0.07730105
      vertex 0.05555702 0.02500000 0.08314696
    endloop
  endfacet
  facet normal 0.00000000 1.00000000 0.00000000
    outer loop
      vertex 0.00000000 -0.02500000 0.00000000
      vertex 0.05555702 -0.02500000 0.08314696
      vertex 0.06343933 -0.02500000 0.07730105
    endloop
  endfacet
  facet normal -0.59569930 -0.00000000 -0.80320753
    outer loop
      vertex 0.06343933 0.02500000 0.07730105
      vertex 0.06343933 -0.02500000 0.07730105
      vertex 0.05555702 -0.02500000 0.08314696
    endloop
  endfacet
  facet normal -0.59569930 0.00000000 -0.80320753
    outer loop
      vertex 0.06343933 0.02500000 0.07730105
      vertex 0.05555702 -0.02500000 0.08314696
      vertex 0.05555702 0.02500000 0.08314696
    endloop
  endfacet
  facet normal 0.00000000 -1.00000000 0.00000000
    outer loop
      vertex 0.00000000 0.02500000 0.00000000
      vertex 0.05555702 0.02500000 0.08314696
      vertex 0.04713967 0.02500000 0.08819213
    endloop
  endfacet
  facet normal 0.00000000 1.00000000 0.00000000
    outer loop
      vertex 0.00000000 -0.02500000 0.00000000
      vertex 0.04713967 -0.02500000 0.08819213
      vertex 0.05555702 -0.02500000 0.08314696
    endloop
  endfacet
  facet normal -0.51410274 -0.00000000 -0.85772861
    outer loop
      vertex 0.05555702 0.02500000 0.08314696
      vertex 0.05555702 -0.02500000 0.08314696
      vertex 0.04713967 -0.02500000 0.08819213
    endloop
  endfacet
  facet normal -0.51410274 0.00000000 -0.85772861
    outer loop
      vertex 0.05555702 0.02500000 0.08314696
      vertex 0.04713967 -0.02500000 0.08819213
      vertex 0.04713967 0.02500000 0.08819213
    endloop
  endfacet
  facet normal 0.00000000 -1.00000000 0.00000000
    outer loop
      vertex 0.00000000 0.02500000 0.00000000
      vertex 0.04713967 0.02500000 0.08819213
      vertex 0.03826834 0.02500000 0.09238795
    endloop
  endfacet
  facet normal 0.00000000 1.00000000 0.00000000
    outer loop
      vertex 0.00000000 -0.02500000 0.00000000
      vertex 0.03826834 -0.02500000 0.09238795
      vertex 0.04713967 -0.02500000 0.08819213
    endloop
  endfacet
  facet normal -0.42755509 -0.00000000 -0.90398929
    outer loop
      vertex 0.04713967 0.02500000 0.08819213
      vertex 0.04713967 -0.02500000 0.08819213
      vertex 0.03826834 -0.02500000 0.09238795
    endloop
  endfacet
  facet normal -0.42755509 0.00000000 -0.90398929
    outer loop
      vertex 0.04713967 0.02500000 0.08819213
      vertex 0.03826834 -0.02500000 0.09238795
      vertex 0.03826834 0.02500000 0.09238795
    endloop
  endfacet
  facet normal 0.00000000 -1.00000000 0.00000000
    outer loop
      vertex 0.00000000 0.02500000 0.00000000
      vertex 0.03826834 0.02500000 0.09238795
      vertex 0.02902847 0.02500000 0.09569403
    endloop
  endfacet
  facet normal 0.00000000 1.00000000 0.00000000
    outer loop
      vertex 0.00000000 -0.02500000 0.00000000
      vertex 0.02902847 -0.02500000 0.09569403
      vertex 0.03826834 -0.02500000 0.09238795
    endloop
  endfacet
  facet normal -0.33688985 -0.00000000 -0.94154407
    outer loop
      vertex 0.03826834 0.02500000 0.09238795
      vertex 0.03826834 -0.02500000 0.09238795
      vertex 0.02902847 -0.02500000 0.09569403
    endloop
  endfacet
  facet normal -0.33688985 0.00000000 -0.94154407
    outer loop
      vertex 0.03826834 0.02500000 0.09238795
      vertex 0.02902847 -0.02500000 0.09569403
      vertex 0.02902847 0.02500000 0.09569403
    endloop
  endfacet
  facet normal 0.00000000 -1.00000000 0.00000000
    outer loop
      vertex 0.00000000 0.02500000 0.00000000
      vertex 0.02902847 0.02500000 0.09569403
      vertex 0.01950903 0.02500000 0.09807853
    endloop
  endfacet
  facet normal 0.00000000 1.00000000 0.00000000
    outer loop
      vertex 0.00000000 -0.02500000 0.00000000
      vertex 0.01950903 -0.02500000 0.09807853
      vertex 0.02902847 -0.02500000 0.09569403
    endloop
  endfacet
  facet normal -0.24298018 -0.00000000 -0.97003125
    outer loop
      vertex 0.02902847 0.02500000 0.09569403
      vertex 0.02902847 -0.02500000 0.09569403
      vertex 0.01950903 -0.02500000 0.09807853
    endloop
  endfacet
  facet normal -0.24298018 0.00000000 -0.97003125
    outer loop
      vertex 0.02902847 0.02500000 0.09569403
      vertex 0.01950903 -0.02500000 0.09807853
      vertex 0.01950903 0.02500000 0.09807853
    endloop
  endfacet
  facet normal 0.00000000 -1.00000000 0.00000000
    outer loop
      vertex 0.00000000 0.02500000 0.00000000
      vertex 0.01950903 0.02500000 0.09807853
      vertex 0.00980171 0.02500000 0.09951847
    endloop
  endfacet
  facet normal 0.00000000 1.00000000 0.00000000
    outer loop
      vertex 0.00000000 -0.02500000 0.00000000
      vertex 0.00980171 -0.02500000 0.09951847
      vertex 0.01950903 -0.02500000 0.09807853
    endloop
  endfacet
  facet normal -0.14673047 -0.00000000 -0.98917651
    outer loop
      vertex 0.01950903 0.02500000 0.09807853
      vertex 0.01950903 -0.02500000 0.09807853
      vertex 0.00980171 -0.02500000 0.09951847
    endloop
  endfacet
  facet normal -0.14673047 0.00000000 -0.98917651
    outer loop
      vertex 0.01950903 0.02500000 0.09807853
      vertex 0.00980171 -0.02500000 0.09951847
      vertex 0.00980171 0.02500000 0.09951847
    endloop
  endfacet
  facet normal 0.00000000 -1.00000000 0.00000000
    outer loop
      vertex 0.00000000 0.02500000 0.00000000
      vertex 0.00980171 0.02500000 0.09951847
      vertex 0.00000000 0.02500000 0.10000000
    endloop
  endfacet
  facet normal 0.00000000 1.00000000 0.00000000
    outer loop
      vertex 0.00000000 -0.02500000 0.00000000
      vertex 0.00000000 -0.02500000 0.10000000
      vertex 0.00980171 -0.02500000 0.09951847
    endloop
  endfacet
  facet normal -0.04906767 -0.00000000 -0.99879546
    outer loop
      vertex 0.00980171 0.02500000 0.09951847
      vertex 0.00980171 -0.02500000 0.09951847
      vertex 0.00000000 -0.02500000 0.10000000
    endloop
  endfacet
  facet normal -0.04906767 0.00000000 -0.99879546
    outer loop
      vertex 0.00980171 0.02500000 0.09951847
      vertex 0.00000000 -0.02500000 0.10000000
      vertex 0.00000000 0.02500000 0.10000000
    endloop
  endfacet
  facet normal 0.00000000 -1.00000000 0.00000000
    outer loop
      vertex 0.00000000 0.02500000 0.00000000
      vertex 0.00000000 0.02500000 0.10000000
      vertex -0.00980171 0.02500000 0.09951847
    endloop
  endfacet
  facet normal 0.00000000 1.00000000 -0.00000000
    outer loop
      vertex 0.00000000 -0.02500000 0.00000000
      vertex -0.00980171 -0.02500000 0.09951847
      vertex 0.00000000 -0.02500000 0.10000000
    endloop
  endfacet
  facet normal 0.04906767 0.00000000 -0.99879546
    outer loop
      vertex 0.00000000 0.02500000 0.10000000
      vertex 0.00000000 -0.02500000 0.10000000
      vertex -0.00980171 -0.02500000 0.09951847
    endloop
  endfacet
  facet normal 0.04906767 0.00000000 -0.99879546
    outer loop
      vertex 0.00000000 0.02500000 0.10000000
      vertex -0.00980171 -0.02500000 0.09951847
      vertex -0.00980171 0.02500000 0.09951847
    endloop
  endfacet
  facet normal 0.00000000 -1.00000000 0.00000000
    outer loop
      vertex 0.00000000 0.02500000 0.00000000
      vertex -0.00980171 0.02500000 0.09951847
      vertex -0.01950903 0.02500000 0.09807853
    endloop
  endfacet
  facet normal 0.00000000 1.00000000 0.00000000
    outer loop
      vertex 0.00000000 -0.02500000 0.00000000
      vertex -0.01950903 -0.02500000 0.09807853
      vertex -0.00980171 -0.02500000 0.09951847
    endloop
  endfacet
  facet normal 0.14673047 0.00000000 -0.98917651
    outer loop
      vertex -0.00980171 0.02500000 0.09951847
      vertex -0.00980171 -0.02500000 0.09951847
      vertex -0.01950903 -0.02500000 0.09807853
    endloop
  endfacet
  facet normal 0.14673047 0.00000000 -0.98917651
    outer loop
      vertex -0.00980171 0.02500000 0.09951847
      vertex -0.01950903 -0.02500000 0.09807853
      vertex -0.01950903 0.02500000 0.09807853
    endloop
  endfacet
  facet normal 0.00000000 -1.00000000 0.00000000
    outer loop
      vertex 0.00000000 0.02500000 0.00000000
      vertex -0.01950903 0.02500000 0.09807853
      vertex -0.02902847 0.02500000 0.09569403
    endloop
  endfacet
  facet normal 0.00000000 1.00000000 0.00000000
    outer loop
      vertex 0.00000000 -0.02500000 0.00000000
      vertex -0.02902847 -0.02500000 0.09569403
      vertex -0.01950903 -0.02500000 0.09807853
    endloop
  endfacet
  facet normal 0.24298018 0.00000000 -0.97003125
    outer loop
      vertex -0.01950903 0.02500000 0.09807853
      vertex -0.01950903 -0.02500000 0.09807853
      vertex -0.02902847 -0.02500000 0.09569403
    endloop
  endfacet
  facet normal 0.24298018 0.00000000 -0.97003125
    outer loop
      vertex -0.01950903 0.02500000 0.09807853
      vertex -0.02902847 -0.02500000 0.09569403
      vertex -0.02902847 0.02500000 0.09569403
    endloop
  endfacet
  facet normal 0.00000000 -1.00000000 0.00000000
    outer loop
      vertex 0.00000000 0.02500000 0.00000000
      vertex -0.02902847 0.02500000 0.09569403
      vertex -0.03826834 0.02500000 0.09238795
    endloop
  endfacet
  facet normal 0.00000000 1.00000000 0.00000000
    outer loop
      vertex 0.00000000 -0.02500000 0.00000000
      vertex -0.03826834 -0.02500000 0.09238795
      vertex -0.02902847 -0.02500000 0.09569403
    endloop
  endfacet
  facet normal 0.33688985 0.00000000 -0.94154407
    outer loop
      vertex -0.02902847 0.02500000 0.09569403
      vertex -0.02902847 -0.02500000 0.09569403
      vertex -0.03826834 -0.02500000 0.09238795
    endloop
  endfacet
  facet normal 0.33688985 0.00000000 -0.94154407
    outer loop
      vertex -0.02902847 0.02500000 0.09569403
      vertex -0.03826834 -0.02500000 0.09238795
      vertex -0.03826834 0.02500000 0.09238795
    endloop
  endfacet
  facet normal 0.00000000 -1.00000000 0.00000000
    outer loop
      vertex 0.00000000 0.02500000 0.00000000
      vertex -0.03826834 0.02500000 0.09238795
      vertex -0.04713967 0.02500000 0.08819213
    endloop
  endfacet
  facet normal 0.00000000 1.00000000 0.00000000
    outer loop
      vertex 0.00000000 -0.02500000 0.00000000
      vertex -0.04713967 -0.02500000 0.08819213
      vertex -0.03826834 -0.02500000 0.09238795
    endloop
  endfacet
  facet normal 0.42755509 0.00000000 -0.90398929
    outer loop
      vertex -0.03826834 0.02500000 0.09238795
      vertex -0.03826834 -0.02500000 0.09238795
      vertex -0.04713967 -0.02500000 0.08819213
    endloop
  endfacet
  facet normal 0.42755509 0.00000000 -0.90398929
    outer loop
      vertex -0.03826834 0.02500000 0.09238795
      vertex -0.04713967 -0.02500000 0.08819213
      vertex -0.04713967 0.02500000 0.08819213
    endloop
  endfacet
  facet normal 0.00000000 -1.00000000 0.00000000
    outer loop
      vertex 0.00000000 0.02500000 0.00000000
      vertex -0.04713967 0.02500000 0.08819213
      vertex -0.05555702 0.02500000 0.08314696
    endloop
  endfacet
  facet normal 0.00000000 1.00000000 0.00000000
    outer loop
      vertex 0.00000000 -0.02500000 0.00000000
      vertex -0.05555702 -0.02500000 0.08314696
      vertex -0.04713967 -0.02500000 0.08819213
    endloop
  endfacet
  facet normal 0.51410274 0.00000000 -0.85772861
    outer loop
      vertex -0.04713967 0.02500000 0.08819213
      vertex -0.04713967 -0.02500000 0.08819213
      vertex -0.05555702 -0.02500000 0.08314696
    endloop
  endfacet
  facet normal 0.51410274 0.00000000 -0.85772861
    outer loop
      vertex -0.04713967 0.02500000 0.08819213
      vertex -0.05555702 -0.02500000 0.08314696
      vertex -0.05555702 0.02500000 0.08314696
    endloop
  endfacet
  facet normal 0.00000000 -1.00000000 0.00000000
    outer loop
      vertex 0.00000000 0.02500000 0.00000000
      vertex -0.05555702 0.02500000 0.08314696
      vertex -0.06343933 0.02500000 0.07730105
    endloop
  endfacet
  facet normal 0.00000000 1.00000000 0.00000000
    outer loop
      vertex 0.00000000 -0.02500000 0.00000000
      vertex -0.06343933 -0.02500000 0.07730105
      vertex -0.05555702 -0.02500000 0.08314696
    endloop
  endfacet
  facet normal 0.59569930 0.00000000 -0.80320753
    outer loop
      vertex -0.05555702 0.02500000 0.08314696
      vertex -0.05555702 -0.02500000 0.08314696
      vertex -0.06343933 -0.02500000 0.07730105
    endloop
  endfacet
  facet normal 0.59569930 0.00000000 -0.80320753
    outer loop
      vertex -0.05555702 0.02500000 0.08314696
      vertex -0.06343933 -0.02500000 0.07730105
      vertex -0.06343933 0.02500000 0.07730105
    endloop
  endfacet
  facet normal 0.00000000 -1.00000000 0.00000000
    outer loop
      vertex 0.00000000 0.02500000 0.00000000
      vertex -0.06343933 0.02500000 0.07730105
      vertex -0.07071068 0.02500000 0.07071068
    endloop
  endfacet
  facet normal 0.00000000 1.00000000 0.00000000
    outer loop
      vertex 0.00000000 -0.02500000 0.00000000
      vertex -0.07071068 -0.02500000 0.07071068
      vertex -0.06343933 -0.02500000 0.07730105
    endloop
  endfacet
  facet normal 0.67155895 0.00000000 -0.74095113
    outer loop
      vertex -0.06343933 0.02500000 0.07730105
      vertex -0.06343933 -0.02500000 0.07730105
      vertex -0.07071068 -0.02500000 0.07071068
    endloop
  endfacet
  facet normal 0.67155895 0.00000000 -0.74095113
    outer loop
      vertex -0.06343933 0.02500000 0.07730105
      vertex -0.07071068 -0.02500000 0.07071068
      vertex -0.07071068 0.02500000 0.07071068
    endloop
  endfacet
  facet normal 0.00000000 -1.00000000 0.00000000
    outer loop
      vertex 0.00000000 0.02500000 0.00000000
      vertex -0.07071068 0.02500000 0.07071068
      vertex -0.07730105 0.02500000 0.06343933
    endloop
  endfacet
  facet normal 0.00000000 1.00000000 0.00000000
    outer loop
      vertex 0.00000000 -0.02500000 0.00000000
      vertex -0.07730105 -0.02500000 0.06343933
      vertex -0.07071068 -0.02500000 0.07071068
    endloop
  endfacet
  facet normal 0.74095113 0.00000000 -0.67155895
    outer loop
      vertex -0.07071068 0.02500000 0.07071068
      vertex -0.07071068 -0.02500000 0.07071068
      vertex -0.07730105 -0.02500000 0.06343933
    endloop
  endfacet
  facet normal 0.74095113 0.00000000 -0.67155895
    outer loop
      vertex -0.07071068 0.02500000 0.07071068
      vertex -0.07730105 -0.02500000 0.06343933
      vertex -0.07730105 0.02500000 0.06343933
    endloop
  endfacet
  facet normal 0.00000000 -1.00000000 0.00000000
    outer loop
      vertex 0.00000000 0.02500000 0.00000000
      vertex -0.07730105 0.02500000 0.06343933
      vertex -0.08314696 0.02500000 0.05555702
    endloop
  endfacet
  facet normal 0.00000000 1.00000000 0.00000000
    outer loop
      vertex 0.00000000 -0.02500000 0.00000000
      vertex -0.08314696 -0.02500000 0.05555702
      vertex -0.07730105 -0.02500000 0.06343933
    endloop
  endfacet
  facet normal 0.80320753 0.00000000 -0.59569930
    outer loop
      vertex -0.07730105 0.02500000 0.06343933
      vertex -0.07730105 -0.02500000 0.06343933
      vertex -0.08314696 -0.02500000 0.05555702
    endloop
  endfacet
  facet normal 0.80320753 0.00000000 -0.59569930
    outer loop
      vertex -0.07730105 0.02500000 0.06343933
      vertex -0.08314696 -0.02500000 0.05555702
      vertex -0.08314696 0.02500000 0.05555702
    endloop
  endfacet
  facet normal 0.00000000 -1.00000000 0.00000000
    outer loop
      vertex 0.00000000 0.02500000 0.00000000
      vertex -0.08314696 0.02500000 0.05555702
      vertex -0.08819213 0.02500000 0.04713967
    endloop
  endfacet
  facet normal 0.00000000 1.00000000 0.00000000
    outer loop
      vertex 0.00000000 -0.02500000 0.00000000
      vertex -0.08819213 -0.02500000 0.04713967
      vertex -0.08314696 -0.02500000 0.05555702
    endloop
  endfacet
  facet normal 0.85772861 0.00000000 -0.51410274
    outer loop
      vertex -0.08314696 0.02500000 0.05555702
      vertex -0.08314696 -0.02500000 0.05555702
      vertex -0.08819213 -0.02500000 0.04713967
    endloop
  endfacet
  facet normal 0.85772861 0.00000000 -0.51410274
    outer loop
      vertex -0.08314696 0.02500000 0.05555702
      vertex -0.08819213 -0.02500000 0.04713967
      vertex -0.08819213 0.02500000 0.04713967
    endloop
  endfacet
  facet normal 0.00000000 -1.00000000 0.00000000
    outer loop
      vertex 0.00000000 0.02500000 0.00000000
      vertex -0.08819213 0.02500000 0.04713967
      vertex -0.09238795 0.02500000 0.03826834
    endloop
  endfacet
  facet normal 0.00000000 1.00000000 0.00000000
    outer loop
      vertex 0.00000000 -0.02500000 0.00000000
      vertex -0.09238795 -0.02500000 0.03826834
      vertex -0.08819213 -0.02500000 0.04713967
    endloop
  endfacet
  facet normal 0.90398929 0.00000000 -0.42755509
    outer loop
      vertex -0.08819213 0.02500000 0.04713967
      vertex -0.08819213 -0.02500000 0.04713967
      vertex -0.09238795 -0.02500000 0.03826834
    endloop
  endfacet
  facet normal 0.90398929 0.00000000 -0.42755509
    outer loop
      vertex -0.08819213 0.02500000 0.04713967
      vertex -0.09238795 -0.02500000 0.03826834
      vertex -0.09238795 0.02500000 0.03826834
    endloop
  endfacet
  facet normal 0.00000000 -1.00000000 0.00000000
    outer loop
      vertex 0.00000000 0.02500000 0.00000000
      vertex -0.09238795 0.02500000 0.03826834
      vertex -0.09569403 0.02500000 0.02902847
    endloop
  endfacet
  facet normal 0.00000000 1.00000000 0.00000000
    outer loop
      vertex 0.00000000 -0.02500000 0.00000000
      vertex -0.09569403 -0.02500000 0.02902847
      vertex -0.09238795 -0.02500000 0.03826834
    endloop
  endfacet
  facet normal 0.94154407 0.00000000 -0.33688985
    outer loop
      vertex -0.09238795 0.02500000 0.03826834
      vertex -0.09238795 -0.02500000 0.03826834
      vertex -0.09569403 -0.02500000 0.02902847
    endloop
  endfacet
  facet normal 0.94154407 0.00000000 -0.33688985
    outer loop
      vertex -0.09238795 0.02500000 0.03826834
      vertex -0.09569403 -0.02500000 0.02902847
      vertex -0.09569403 0.02500000 0.02902847
    endloop
  endfacet
  facet normal 0.00000000 -1.00000000 0.00000000
    outer loop
      vertex 0.00000000 0.02500000 0.00000000
      vertex -0.09569403 0.02500000 0.02902847
      vertex -0.09807853 0.02500000 0.01950903
    endloop
  endfacet
  facet normal 0.00000000 1.00000000 0.00000000
    outer loop
      vertex 0.00000000 -0.02500000 0.00000000
      vertex -0.09807853 -0.02500000 0.01950903
      vertex -0.09569403 -0.02500000 0.02902847
    endloop
  endfacet
  facet normal 0.97003125 0.00000000 -0.24298018
    outer loop
      vertex -0.09569403 0.02500000 0.02902847
      vertex -0.09569403 -0.02500000 0.02902847
      vertex -0.09807853 -0.02500000 0.01950903
    endloop
  endfacet
  facet normal 0.97003125 0.00000000 -0.24298018
    outer loop
      vertex -0.09569403 0.02500000 0.02902847
      vertex -0.09807853 -0.02500000 0.01950903
      vertex -0.09807853 0.02500000 0.01950903
    endloop
  endfacet
  facet normal 0.00000000 -1.00000000 0.00000000
    outer loop
      vertex 0.00000000 0.02500000 0.00000000
      vertex -0.09807853 0.02500000 0.01950903
      vertex -0.09951847 0.02500000 0.00980171
    endloop
  endfacet
  facet normal 0.00000000 1.00000000 0.00000000
    outer loop
      vertex 0.00000000 -0.02500000 0.00000000
      vertex -0.09951847 -0.02500000 0.00980171
      vertex -0.09807853 -0.02500000 0.01950903
    endloop
  endfacet
  facet normal 0.98917651 0.00000000 -0.14673047
    outer loop
      vertex -0.09807853 0.02500000 0.01950903
      vertex -0.09807853 -0.02500000 0.01950903
      vertex -0.09951847 -0.02500000 0.00980171
    endloop
  endfacet
  facet normal 0.98917651 0.00000000 -0.14673047
    outer loop
      vertex -0.09807853 0.02500000 0.01950903
      vertex -0.09951847 -0.02500000 0.00980171
      vertex -0.09951847 0.02500000 0.00980171
    endloop
  endfacet
  facet normal 0.00000000 -1.00000000 0.00000000
    outer loop
      vertex 0.00000000 0.02500000 0.00000000
      vertex -0.09951847 0.02500000 0.00980171
      vertex -0.10000000 0.02500000 0.00000000
    endloop
  endfacet
  facet normal 0.00000000 1.00000000 0.00000000
    outer loop
      vertex 0.00000000 -0.02500000 0.00000000
      vertex -0.10000000 -0.02500000 0.00000000
      vertex -0.09951847 -0.02500000 0.00980171
    endloop
  endfacet
  facet normal 0.99879546 0.00000000 -0.04906767
    outer loop
      vertex -0.09951847 0.02500000 0.00980171
      vertex -0.09951847 -0.02500000 0.00980171
      vertex -0.10000000 -0.02500000 0.00000000
    endloop
  endfacet
  facet normal 0.99879546 0.00000000 -0.04906767
    outer loop
      vertex -0.09951847 0.02500000 0.00980171
      vertex -0.10000000 -0.02500000 0.00000000
      vertex -0.10000000 0.02500000 0.00000000
    endloop
  endfacet
  facet normal -0.00000000 -1.00000000 0.00000000
    outer loop
      vertex 0.00000000 0.02500000 0.00000000
      vertex -0.10000000 0.02500000 0.00000000
      vertex -0.09951847 0.02500000 -0.00980171
    endloop
  endfacet
  facet normal 0.00000000 1.00000000 0.00000000
    outer loop
      vertex 0.00000000 -0.02500000 0.00000000
      vertex -0.09951847 -0.02500000 -0.00980171
      vertex -0.10000000 -0.02500000 0.00000000
    endloop
  endfacet
  facet normal 0.99879546 0.00000000 0.04906767
    outer loop
      vertex -0.10000000 0.02500000 0.00000000
      vertex -0.10000000 -0.02500000 0.00000000
      vertex -0.09951847 -0.02500000 -0.00980171
    endloop
  endfacet
  facet normal 0.99879546 0.00000000 0.04906767
    outer loop
      vertex -0.10000000 0.02500000 0.00000000
      vertex -0.09951847 -0.02500000 -0.00980171
      vertex -0.09951847 0.02500000 -0.00980171
    endloop
  endfacet
  facet normal 0.00000000 -1.00000000 0.00000000
    outer loop
      vertex 0.00000000 0.02500000 0.00000000
      vertex -0.09951847 0.02500000 -0.00980171
      vertex -0.09807853 0.02500000 -0.01950903
    endloop
  endfacet
  facet normal 0.00000000 1.00000000 0.00000000
    outer loop
      vertex 0.00000000 -0.02500000 0.00000000
      vertex -0.09807853 -0.02500000 -0.01950903
      vertex -0.09951847 -0.02500000 -0.00980171
    endloop
  endfacet
  facet normal 0.98917651 0.00000000 0.14673047
    outer loop
      vertex -0.09951847 0.02500000 -0.00980171
      vertex -0.09951847 -0.02500000 -0.00980171
      vertex -0.09807853 -0.02500000 -0.01950903
    endloop
  endfacet
  facet normal 0.98917651 0.00000000 0.14673047
    outer loop
      vertex -0.09951847 0.02500000 -0.00980171
      vertex -0.09807853 -0.02500000 -0.01950903
      vertex -0.09807853 0.02500000 -0.01950903
    endloop
  endfacet
  facet normal 0.00000000 -1.00000000 0.00000000
    outer loop
      vertex 0.00000000 0.02500000 0.00000000
      vertex -0.09807853 0.02500000 -0.01950903
      vertex -0.09569403 0.02500000 -0.02902847
    endloop
  endfacet
  facet normal 0.00000000 1.00000000 0.00000000
    outer loop
      vertex 0.00000000 -0.02500000 0.00000000
      vertex -0.09569403 -0.02500000 -0.02902847
      vertex -0.09807853 -0.02500000 -0.01950903
    endloop
  endfacet
  facet normal 0.97003125 0.00000000 0.24298018
    outer loop
      vertex -0.09807853 0.02500000 -0.01950903
      vertex -0.09807853 -0.02500000 -0.01950903
      vertex -0.09569403 -0.02500000 -0.02902847
    endloop
  endfacet
  facet normal 0.97003125 0.00000000 0.24298018
    outer loop
      vertex -0.09807853 0.02500000 -0.01950903
      vertex -0.09569403 -0.02500000 -0.02902847
      vertex -0.09569403 0.02500000 -0.02902847
    endloop
  endfacet
  facet normal 0.00000000 -1.00000000 0.00000000
    outer loop
      vertex 0.00000000 0.02500000 0.00000000
      vertex -0.09569403 0.02500000 -0.02902847
      vertex -0.09238795 0.02500000 -0.03826834
    endloop
  endfacet
  facet normal 0.00000000 1.00000000 0.00000000
    outer loop
      vertex 0.00000000 -0.02500000 0.00000000
      vertex -0.09238795 -0.02500000 -0.03826834
      vertex -0.09569403 -0.02500000 -0.02902847
    endloop
  endfacet
  facet normal 0.94154407 0.00000000 0.33688985
    outer loop
      vertex -0.09569403 0.02500000 -0.02902847
      vertex -0.09569403 -0.02500000 -0.02902847
      vertex -0.09238795 -0.02500000 -0.03826834
    endloop
  endfacet
  facet normal 0.94154407 0.00000000 0.33688985
    outer loop
      vertex -0.09569403 0.02500000 -0.02902847
      vertex -0.09238795 -0.02500000 -0.03826834
      vertex -0.09238795 0.02500000 -0.03826834
    endloop
  endfacet
  facet normal 0.00000000 -1.00000000 0.00000000
    outer loop
      vertex 0.00000000 0.02500000 0.00000000
      vertex -0.09238795 0.02500000 -0.03826834
      vertex -0.08819213 0.02500000 -0.04713967
    endloop
  endfacet
  facet normal 0.00000000 1.00000000 0.00000000
    outer loop
      vertex 0.00000000 -0.02500000 0.00000000
      vertex -0.08819213 -0.02500000 -0.04713967
      vertex -0.09238795 -0.02500000 -0.03826834
    endloop
  endfacet
  facet normal 0.90398929 0.00000000 0.42755509
    outer loop
      vertex -0.09238795 0.02500000 -0.03826834
      vertex -0.09238795 -0.02500000 -0.03826834
      vertex -0.08819213 -0.02500000 -0.04713967
    endloop
  endfacet
  facet normal 0.90398929 0.00000000 0.42755509
    outer loop
      vertex -0.09238795 0.02500000 -0.03826834
      vertex -0.08819213 -0.02500000 -0.04713967
      vertex -0.08819213 0.02500000 -0.04713967
    endloop
  endfacet
  facet normal 0.00000000 -1.00000000 0.00000000
    outer loop
      vertex 0.00000000 0.02500000 0.00000000
      vertex -0.08819213 0.02500000 -0.04713967
      vertex -0.08314696 0.02500000 -0.05555702
    endloop
  endfacet
  facet normal 0.00000000 1.00000000 0.00000000
    outer loop
      vertex 0.00000000 -0.02500000 0.00000000
      vertex -0.08314696 -0.02500000 -0.05555702
      vertex -0.08819213 -0.02500000 -0.04713967
    endloop
  endfacet
  facet normal 0.85772861 0.00000000 0.51410274
    outer loop
      vertex -0.08819213 0.02500000 -0.04713967
      vertex -0.08819213 -0.02500000 -0.04713967
      vertex -0.08314696 -0.02500000 -0.05555702
    endloop
  endfacet
  facet normal 0.85772861 0.00000000 0.51410274
    outer loop
      vertex -0.08819213 0.02500000 -0.04713967
      vertex -0.08314696 -0.02500000 -0.05555702
      vertex -0.08314696 0.02500000 -0.05555702
    endloop
  endfacet
  facet normal 0.00000000 -1.00000000 0.00000000
    outer loop
      vertex 0.00000000 0.02500000 0.00000000
      vertex -0.08314696 0.02500000 -0.05555702
      vertex -0.07730105 0.02500000 -0.06343933
    endloop
  endfacet
  facet normal 0.00000000 1.00000000 0.00000000
    outer loop
      vertex 0.00000000 -0.02500000 0.00000000
      vertex -0.07730105 -0.02500000 -0.06343933
      vertex -0.08314696 -0.02500000 -0.05555702
    endloop
  endfacet
  facet normal 0.80320753 0.00000000 0.59569930
    outer loop
      vertex -0.08314696 0.02500000 -0.05555702
      vertex -0.08314696 -0.02500000 -0.05555702
      vertex -0.07730105 -0.02500000 -0.06343933
    endloop
  endfacet
  facet normal 0.80320753 0.00000000 0.59569930
    outer loop
      vertex -0.08314696 0.02500000 -0.05555702
      vertex -0.07730105 -0.02500000 -0.06343933
      vertex -0.07730105 0.02500000 -0.06343933
    endloop
  endfacet
  facet normal 0.00000000 -1.00000000 0.00000000
    outer loop
      vertex 0.00000000 0.02500000 0.00000000
      vertex -0.07730105 0.02500000 -0.06343933
      vertex -0.07071068 0.02500000 -0.07071068
    endloop
  endfacet
  facet normal 0.00000000 1.00000000 0.00000000
    outer loop
      vertex 0.00000000 -0.02500000 0.00000000
      vertex -0.07071068 -0.02500000 -0.07071068
      vertex -0.07730105 -0.02500000 -0.06343933
    endloop
  endfacet
  facet normal 0.74095113 0.00000000 0.67155895
    outer loop
      vertex -0.07730105 0.02500000 -0.06343933
      vertex -0.07730105 -0.02500000 -0.06343933
      vertex -0.07071068 -0.02500000 -0.07071068
    endloop
  endfacet
  facet normal 0.74095113 0.00000000 0.67155895
    outer loop
      vertex -0.07730105 0.02500000 -0.06343933
      vertex -0.07071068 -0.02500000 -0.07071068
      vertex -0.07071068 0.02500000 -0.07071068
    endloop
  endfacet
  facet normal 0.00000000 -1.00000000 0.00000000
    outer loop
      vertex 0.00000000 0.02500000 0.00000000
      vertex -0.07071068 0.02500000 -0.07071068
      vertex -0.06343933 0.02500000 -0.07730105
    endloop
  endfacet
  facet normal 0.00000000 1.00000000 0.00000000
    outer loop
      vertex 0.00000000 -0.02500000 0.00000000
      vertex -0.06343933 -0.02500000 -0.07730105
      vertex -0.07071068 -0.02500000 -0.07071068
    endloop
  endfacet
  facet normal 0.67155895 0.00000000 0.74095113
    outer loop
      vertex -0.07071068 0.02500000 -0.07071068
      vertex -0.07071068 -0.02500000 -0.07071068
      vertex -0.06343933 -0.02500000 -0.07730105
    endloop
  endfacet
  facet normal 0.67155895 0.00000000 0.74095113
    outer loop
      vertex -0.07071068 0.02500000 -0.07071068
      vertex -0.06343933 -0.02500000 -0.07730105
      vertex -0.06343933 0.02500000 -0.07730105
    endloop
  endfacet
  facet normal 0.00000000 -1.00000000 0.00000000
    outer loop
      vertex 0.00000000 0.02500000 0.00000000
      vertex -0.06343933 0.02500000 -0.07730105
      vertex -0.05555702 0.02500000 -0.08314696
    endloop
  endfacet
  facet normal 0.00000000 1.00000000 0.00000000
    outer loop
      vertex 0.00000000 -0.02500000 0.00000000
      vertex -0.05555702 -0.02500000 -0.08314696
      vertex -0.06343933 -0.02500000 -0.07730105
    endloop
  endfacet
  facet normal 0.59569930 0.00000000 0.80320753
    outer loop
      vertex -0.06343933 0.02500000 -0.07730105
      vertex -0.06343933 -0.02500000 -0.07730105
      vertex -0.05555702 -0.02500000 -0.08314696
    endloop
  endfacet
  facet normal 0.59569930 0.00000000 0.80320753
    outer loop
      vertex -0.06343933 0.02500000 -0.07730105
      vertex -0.05555702 -0.02500000 -0.08314696
      vertex -0.05555702 0.02500000 -0.08314696
    endloop
  endfacet
  facet normal 0.00000000 -1.00000000 0.00000000
    outer loop
      vertex 0.00000000 0.02500000 0.00000000
      vertex -0.05555702 0.02500000 -0.08314696
      vertex -0.04713967 0.02500000 -0.08819213
    endloop
  endfacet
  facet normal 0.00000000 1.00000000 0.00000000
    outer loop
      vertex 0.00000000 -0.02500000 0.00000000
      vertex -0.04713967 -0.02500000 -0.08819213
      vertex -0.05555702 -0.02500000 -0.08314696
    endloop
  endfacet
  facet normal 0.51410274 0.00000000 0.85772861
    outer loop
      vertex -0.05555702 0.02500000 -0.08314696
      vertex -0.05555702 -0.02500000 -0.08314696
      vertex -0.04713967 -0.02500000 -0.08819213
    endloop
  endfacet
  facet normal 0.51410274 0.00000000 0.85772861
    outer loop
      vertex -0.05555702 0.02500000 -0.08314696
      vertex -0.04713967 -0.02500000 -0.08819213
      vertex -0.04713967 0.02500000 -0.08819213
    endloop
  endfacet
  facet normal 0.00000000 -1.00000000 0.00000000
    outer loop
      vertex 0.00000000 0.02500000 0.00000000
      vertex -0.04713967 0.02500000 -0.08819213
      vertex -0.03826834 0.02500000 -0.09238795
    endloop
  endfacet
  facet normal 0.00000000 1.00000000 0.00000000
    outer loop
      vertex 0.00000000 -0.02500000 0.00000000
      vertex -0.03826834 -0.02500000 -0.09238795
      vertex -0.04713967 -0.02500000 -0.08819213
    endloop
  endfacet
  facet normal 0.42755509 0.00000000 0.90398929
    outer loop
      vertex -0.04713967 0.02500000 -0.08819213
      vertex -0.04713967 -0.02500000 -0.08819213
      vertex -0.03826834 -0.02500000 -0.09238795
    endloop
  endfacet
  facet normal 0.42755509 0.00000000 0.90398929
    outer loop
      vertex -0.04713967 0.02500000 -0.08819213
      vertex -0.03826834 -0.02500000 -0.09238795
      vertex -0.03826834 0.02500000 -0.09238795
    endloop
  endfacet
  facet normal 0.00000000 -1.00000000 0.00000000
    outer loop
      vertex 0.00000000 0.02500000 0.00000000
      vertex -0.03826834 0.02500000 -0.09238795
      vertex -0.02902847 0.02500000 -0.09569403
    endloop
  endfacet
  facet normal 0.00000000 1.00000000 0.00000000
    outer loop
      vertex 0.00000000 -0.02500000 0.00000000
      vertex -0.02902847 -0.02500000 -0.09569403
      vertex -0.03826834 -0.02500000 -0.09238795
    endloop
  endfacet
  facet normal 0.33688985 0.00000000 0.94154407
    outer loop
      vertex -0.03826834 0.02500000 -0.09238795
      vertex -0.03826834 -0.02500000 -0.09238795
      vertex -0.02902847 -0.02500000 -0.09569403
    endloop
  endfacet
  facet normal 0.33688985 0.00000000 0.94154407
    outer loop
      vertex -0.03826834 0.02500000 -0.09238795
      vertex -0.02902847 -0.02500000 -0.09569403
      vertex -0.02902847 0.02500000 -0.09569403
    endloop
  endfacet
  facet normal 0.00000000 -1.00000000 0.00000000
    outer loop
      vertex 0.00000000 0.02500000 0.00000000
      vertex -0.02902847 0.02500000 -0.09569403
      vertex -0.01950903 0.02500000 -0.09807853
    endloop
  endfacet
  facet normal 0.00000000 1.00000000 0.00000000
    outer loop
      vertex 0.00000000 -0.02500000 0.00000000
      vertex -0.01950903 -0.02500000 -0.09807853
      vertex -0.02902847 -0.02500000 -0.09569403
    endloop
  endfacet
  facet normal 0.24298018 0.00000000 0.97003125
    outer loop
      vertex -0.02902847 0.02500000 -0.09569403
      vertex -0.02902847 -0.02500000 -0.09569403
      vertex -0.01950903 -0.02500000 -0.09807853
    endloop
  endfacet
  facet normal 0.24298018 0.00000000 0.97003125
    outer loop
      vertex -0.02902847 0.02500000 -0.09569403
      vertex -0.01950903 -0.02500000 -0.09807853
      vertex -0.01950903 0.02500000 -0.09807853
    endloop
  endfacet
  facet normal 0.00000000 -1.00000000 0.00000000
    outer loop
      vertex 0.00000000 0.02500000 0.00000000
      vertex -0.01950903 0.02500000 -0.09807853
      vertex -0.00980171 0.02500000 -0.09951847
    endloop
  endfacet
  facet normal 0.00000000 1.00000000 0.00000000
    outer loop
      vertex 0.00000000 -0.02500000 0.00000000
      vertex -0.00980171 -0.02500000 -0.09951847
      vertex -0.01950903 -0.02500000 -0.09807853
    endloop
  endfacet
  facet normal 0.14673047 0.00000000 0.98917651
    outer loop
      vertex -0.01950903 0.02500000 -0.09807853
      vertex -0.01950903 -0.02500000 -0.09807853
      vertex -0.00980171 -0.02500000 -0.09951847
    endloop
  endfacet
  facet normal 0.14673047 0.00000000 0.98917651
    outer loop
      vertex -0.01950903 0.02500000 -0.09807853
      vertex -0.00980171 -0.02500000 -0.09951847
      vertex -0.00980171 0.02500000 -0.09951847
    endloop
  endfacet
  facet normal 0.00000000 -1.00000000 0.00000000
    outer loop
      vertex 0.00000000 0.02500000 0.00000000
      vertex -0.00980171 0.02500000 -0.09951847
      vertex -0.00000000 0.02500000 -0.10000000
    endloop
  endfacet
  facet normal 0.00000000 1.00000000 0.00000000
    outer loop
      vertex 0.00000000 -0.02500000 0.00000000
      vertex -0.00000000 -0.02500000 -0.10000000
      vertex -0.00980171 -0.02500000 -0.09951847
    endloop
  endfacet
  facet normal 0.04906767 0.00000000 0.99879546
    outer loop
      vertex -0.00980171 0.02500000 -0.09951847
      vertex -0.00980171 -0.02500000 -0.09951847
      vertex -0.00000000 -0.02500000 -0.10000000
    endloop
  endfacet
  facet normal 0.04906767 0.00000000 0.99879546
    outer loop
      vertex -0.00980171 0.02500000 -0.09951847
      vertex -0.00000000 -0.02500000 -0.10000000
      vertex -0.00000000 0.02500000 -0.10000000
    endloop
  endfacet
  facet normal 0.00000000 -1.00000000 -0.00000000
    outer loop
      vertex 0.00000000 0.02500000 0.00000000
      vertex -0.00000000 0.02500000 -0.10000000
      vertex 0.00980171 0.02500000 -0.09951847
    endloop
  endfacet
  facet normal 0.00000000 1.00000000 0.00000000
    outer loop
      vertex 0.00000000 -0.02500000 0.00000000
      vertex 0.00980171 -0.02500000 -0.09951847
      vertex -0.00000000 -0.02500000 -0.10000000
    endloop
  endfacet
  facet normal -0.04906767 0.00000000 0.99879546
    outer loop
      vertex -0.00000000 0.02500000 -0.10000000
      vertex -0.00000000 -0.02500000 -0.10000000
      vertex 0.00980171 -0.02500000 -0.09951847
    endloop
  endfacet
  facet normal -0.04906767 0.00000000 0.99879546
    outer loop
      vertex -0.00000000 0.02500000 -0.10000000
      vertex 0.00980171 -0.02500000 -0.09951847
      vertex 0.00980171 0.02500000 -0.09951847
    endloop
  endfacet
  facet normal 0.00000000 -1.00000000 0.00000000
    outer loop
      vertex 0.00000000 0.02500000 0.00000000
      vertex 0.00980171 0.02500000 -0.09951847
      vertex 0.01950903 0.02500000 -0.09807853
    endloop
  endfacet
  facet normal 0.00000000 1.00000000 0.00000000
    outer loop
      vertex 0.00000000 -0.02500000 0.00000000
      vertex 0.01950903 -0.02500000 -0.09807853
      vertex 0.00980171 -0.02500000 -0.09951847
    endloop
  endfacet
  facet normal -0.14673047 0.00000000 0.98917651
    outer loop
      vertex 0.00980171 0.02500000 -0.09951847
      vertex 0.00980171 -0.02500000 -0.09951847
      vertex 0.01950903 -0.02500000 -0.09807853
    endloop
  endfacet
  facet normal -0.14673047 0.00000000 0.98917651
    outer loop
      vertex 0.00980171 0.02500000 -0.09951847
      vertex 0.01950903 -0.02500000 -0.09807853
      vertex 0.01950903 0.02500000 -0.09807853
    endloop
  endfacet
  facet normal 0.00000000 -1.00000000 0.00000000
    outer loop
      vertex 0.00000000 0.02500000 0.00000000
      vertex 0.01950903 0.02500000 -0.09807853
      vertex 0.02902847 0.02500000 -0.09569403
    endloop
  endfacet
  facet normal 0.00000000 1.00000000 0.00000000
    outer loop
      vertex 0.00000000 -0.02500000 0.00000000
      vertex 0.02902847 -0.02500000 -0.09569403
      vertex 0.01950903 -0.02500000 -0.09807853
    endloop
  endfacet
  facet normal -0.24298018 0.00000000 0.97003125
    outer loop
      vertex 0.01950903 0.02500000 -0.09807853
      vertex 0.01950903 -0.02500000 -0.09807853
      vertex 0.02902847 -0.02500000 -0.09569403
    endloop
  endfacet
  facet normal -0.24298018 0.00000000 0.97003125
    outer loop
      vertex 0.01950903 0.02500000 -0.09807853
      vertex 0.02902847 -0.02500000 -0.09569403
      vertex 0.02902847 0.02500000 -0.09569403
    endloop
  endfacet
  facet normal 0.00000000 -1.00000000 0.00000000
    outer loop
      vertex 0.00000000 0.02500000 0.00000000
      vertex 0.02902847 0.02500000 -0.09569403
      vertex 0.03826834 0.02500000 -0.09238795
    endloop
  endfacet
  facet normal 0.00000000 1.00000000 0.00000000
    outer loop
      vertex 0.00000000 -0.02500000 0.00000000
      vertex 0.03826834 -0.02500000 -0.09238795
      vertex 0.02902847 -0.02500000 -0.09569403
    endloop
  endfacet
  facet normal -0.33688985 0.00000000 0.94154407
    outer loop
      vertex 0.02902847 0.02500000 -0.09569403
      vertex 0.02902847 -0.02500000 -0.09569403
      vertex 0.03826834 -0.02500000 -0.09238795
    endloop
  endfacet
  facet normal -0.33688985 0.00000000 0.94154407
    outer loop
      vertex 0.02902847 0.02500000 -0.09569403
      vertex 0.03826834 -0.02500000 -0.09238795
      vertex 0.03826834 0.02500000 -0.09238795
    endloop
  endfacet
  facet normal 0.00000000 -1.00000000 0.00000000
    outer loop
      vertex 0.00000000 0.02500000 0.00000000
      vertex 0.03826834 0.02500000 -0.09238795
      vertex 0.04713967 0.02500000 -0.08819213
    endloop
  endfacet
  facet normal 0.00000000 1.00000000 0.00000000
    outer loop
      vertex 0.00000000 -0.02500000 0.00000000
      vertex 0.04713967 -0.02500000 -0.08819213
      vertex 0.03826834 -0.02500000 -0.09238795
    endloop
  endfacet
  facet normal -0.42755509 0.00000000 0.90398929
    outer loop
      vertex 0.03826834 0.02500000 -0.09238795
      vertex 0.03826834 -0.02500000 -0.09238795
      vertex 0.04713967 -0.02500000 -0.08819213
    endloop
  endfacet
  facet normal -0.42755509 0.00000000 0.90398929
    outer loop
      vertex 0.03826834 0.02500000 -0.09238795
      vertex 0.04713967 -0.02500000 -0.08819213
      vertex 0.04713967 0.02500000 -0.08819213
    endloop
  endfacet
  facet normal 0.00000000 -1.00000000 0.00000000
    outer loop
      vertex 0.00000000 0.02500000 0.00000000
      vertex 0.04713967 0.02500000 -0.08819213
      vertex 0.05555702 0.02500000 -0.08314696
    endloop
  endfacet
  facet normal 0.00000000 1.00000000 0.00000000
    outer loop
      vertex 0.00000000 -0.02500000 0.00000000
      vertex 0.05555702 -0.02500000 -0.08314696
      vertex 0.04713967 -0.02500000 -0.08819213
    endloop
  endfacet
  facet normal -0.51410274 0.00000000 0.85772861
    outer loop
      vertex 0.04713967 0.02500000 -0.08819213
      vertex 0.04713967 -0.02500000 -0.08819213
      vertex 0.05555702 -0.02500000 -0.08314696
    endloop
  endfacet
  facet normal -0.51410274 0.00000000 0.85772861
    outer loop
      vertex 0.04713967 0.02500000 -0.08819213
      vertex 0.05555702 -0.02500000 -0.08314696
      vertex 0.05555702 0.02500000 -0.08314696
    endloop
  endfacet
  facet normal 0.00000000 -1.00000000 0.00000000
    outer loop
      vertex 0.00000000 0.02500000 0.00000000
      vertex 0.05555702 0.02500000 -0.08314696
      vertex 0.06343933 0.02500000 -0.07730105
    endloop
  endfacet
  facet normal 0.00000000 1.00000000 0.00000000
    outer loop
      vertex 0.00000000 -0.02500000 0.00000000
      vertex 0.06343933 -0.02500000 -0.07730105
      vertex 0.05555702 -0.02500000 -0.08314696
    endloop
  endfacet
  facet normal -0.59569930 0.00000000 0.80320753
    outer loop
      vertex 0.05555702 0.02500000 -0.08314696
      vertex 0.05555702 -0.02500000 -0.08314696
      vertex 0.06343933 -0.02500000 -0.07730105
    endloop
  endfacet
  facet normal -0.59569930 0.00000000 0.80320753
    outer loop
      vertex 0.05555702 0.02500000 -0.08314696
      vertex 0.06343933 -0.02500000 -0.07730105
      vertex 0.06343933 0.02500000 -0.07730105
    endloop
  endfacet
  facet normal 0.00000000 -1.00000000 0.00000000
    outer loop
      vertex 0.00000000 0.02500000 0.00000000
      vertex 0.06343933 0.02500000 -0.07730105
      vertex 0.07071068 0.02500000 -0.07071068
    endloop
  endfacet
  facet normal 0.00000000 1.00000000 0.00000000
    outer loop
      vertex 0.00000000 -0.02500000 0.00000000
      vertex 0.07071068 -0.02500000 -0.07071068
      vertex 0.06343933 -0.02500000 -0.07730105
    endloop
  endfacet
  facet normal -0.67155895 0.00000000 0.74095113
    outer loop
      vertex 0.06343933 0.02500000 -0.07730105
      vertex 0.06343933 -0.02500000 -0.07730105
      vertex 0.07071068 -0.02500000 -0.07071068
    endloop
  endfacet
  facet normal -0.67155895 0.00000000 0.74095113
    outer loop
      vertex 0.06343933 0.02500000 -0.07730105
      vertex 0.07071068 -0.02500000 -0.07071068
      vertex 0.07071068 0.02500000 -0.07071068
    endloop
  endfacet
  facet normal 0.00000000 -1.00000000 0.00000000
    outer loop
      vertex 0.00000000 0.02500000 0.00000000
      vertex 0.07071068 0.02500000 -0.07071068
      vertex 0.07730105 0.02500000 -0.06343933
    endloop
  endfacet
  facet normal 0.00000000 1.00000000 0.00000000
    outer loop
      vertex 0.00000000 -0.02500000 0.00000000
      vertex 0.07730105 -0.02500000 -0.06343933
      vertex 0.07071068 -0.02500000 -0.07071068
    endloop
  endfacet
  facet normal -0.74095113 0.00000000 0.67155895
    outer loop
      vertex 0.07071068 0.02500000 -0.07071068
      vertex 0.07071068 -0.02500000 -0.07071068
      vertex 0.07730105 -0.02500000 -0.06343933
    endloop
  endfacet
  facet normal -0.74095113 0.00000000 0.67155895
    outer loop
      vertex 0.07071068 0.02500000 -0.07071068
      vertex 0.07730105 -0.02500000 -0.06343933
      vertex 0.07730105 0.02500000 -0.06343933
    endloop
  endfacet
  facet normal 0.00000000 -1.00000000 0.00000000
    outer loop
      vertex 0.00000000 0.02500000 0.00000000
      vertex 0.07730105 0.02500000 -0.06343933
      vertex 0.08314696 0.02500000 -0.05555702
    endloop
  endfacet
  facet normal 0.00000000 1.00000000 0.00000000
    outer loop
      vertex 0.00000000 -0.02500000 0.00000000
      vertex 0.08314696 -0.02500000 -0.05555702
      vertex 0.07730105 -0.02500000 -0.06343933
    endloop
  endfacet
  facet normal -0.80320753 0.00000000 0.59569930
    outer loop
      vertex 0.07730105 0.02500000 -0.06343933
      vertex 0.07730105 -0.02500000 -0.06343933
      vertex 0.08314696 -0.02500000 -0.05555702
    endloop
  endfacet
  facet normal -0.80320753 0.00000000 0.59569930
    outer loop
      vertex 0.07730105 0.02500000 -0.06343933
      vertex 0.08314696 -0.02500000 -0.05555702
      vertex 0.08314696 0.02500000 -0.05555702
    endloop
  endfacet
  facet normal 0.00000000 -1.00000000 0.00000000
    outer loop
      vertex 0.00000000 0.02500000 0.00000000
      vertex 0.08314696 0.02500000 -0.05555702
      vertex 0.08819213 0.02500000 -0.04713967
    endloop
  endfacet
  facet normal 0.00000000 1.00000000 0.00000000
    outer loop
      vertex 0.00000000 -0.02500000 0.00000000
      vertex 0.08819213 -0.02500000 -0.04713967
      vertex 0.08314696 -0.02500000 -0.05555702
    endloop
  endfacet
  facet normal -0.85772861 0.00000000 0.51410274
    outer loop
      vertex 0.08314696 0.02500000 -0.05555702
      vertex 0.08314696 -0.02500000 -0.05555702
      vertex 0.08819213 -0.02500000 -0.04713967
    endloop
  endfacet
  facet normal -0.85772861 0.00000000 0.51410274
    outer loop
      vertex 0.08314696 0.02500000 -0.05555702
      vertex 0.08819213 -0.02500000 -0.04713967
      vertex 0.08819213 0.02500000 -0.04713967
    endloop
  endfacet
  facet normal 0.00000000 -1.00000000 0.00000000
    outer loop
      vertex 0.00000000 0.02500000 0.00000000
      vertex 0.08819213 0.02500000 -0.04713967
      vertex 0.09238795 0.02500000 -0.03826834
    endloop
  endfacet
  facet normal 0.00000000 1.00000000 0.00000000
    outer loop
      vertex 0.00000000 -0.02500000 0.00000000
      vertex 0.09238795 -0.02500000 -0.03826834
      vertex 0.08819213 -0.02500000 -0.04713967
    endloop
  endfacet
  facet normal -0.90398929 0.00000000 0.42755509
    outer loop
      vertex 0.08819213 0.02500000 -0.04713967
      vertex 0.08819213 -0.02500000 -0.04713967
      vertex 0.09238795 -0.02500000 -0.03826834
    endloop
  endfacet
  facet normal -0.90398929 0.00000000 0.42755509
    outer loop
      vertex 0.08819213 0.02500000 -0.04713967
      vertex 0.09238795 -0.02500000 -0.03826834
      vertex 0.09238795 0.02500000 -0.03826834
    endloop
  endfacet
  facet normal 0.00000000 -1.00000000 0.00000000
    outer loop
      vertex 0.00000000 0.02500000 0.00000000
      vertex 0.09238795 0.02500000 -0.03826834
      vertex 0.09569403 0.02500000 -0.02902847
    endloop
  endfacet
  facet normal 0.00000000 1.00000000 0.00000000
    outer loop
      vertex 0.00000000 -0.02500000 0.00000000
      vertex 0.09569403 -0.02500000 -0.02902847
      vertex 0.09238795 -0.02500000 -0.03826834
    endloop
  endfacet
  facet normal -0.94154407 0.00000000 0.33688985
    outer loop
      vertex 0.09238795 0.02500000 -0.03826834
      vertex 0.09238795 -0.02500000 -0.03826834
      vertex 0.09569403 -0.02500000 -0.02902847
    endloop
  endfacet
  facet normal -0.94154407 0.00000000 0.33688985
    outer loop
      vertex 0.09238795 0.02500000 -0.03826834
      vertex 0.09569403 -0.02500000 -0.02902847
      vertex 0.09569403 0.02500000 -0.02902847
    endloop
  endfacet
  facet normal 0.00000000 -1.00000000 0.00000000
    outer loop
      vertex 0.00000000 0.02500000 0.00000000
      vertex 0.09569403 0.02500000 -0.02902847
      vertex 0.09807853 0.02500000 -0.01950903
    endloop
  endfacet
  facet normal 0.00000000 1.00000000 0.00000000
    outer loop
      vertex 0.00000000 -0.02500000 0.00000000
      vertex 0.09807853 -0.02500000 -0.01950903
      vertex 0.09569403 -0.02500000 -0.02902847
    endloop
  endfacet
  facet normal -0.97003125 0.00000000 0.24298018
    outer loop
      vertex 0.09569403 0.02500000 -0.02902847
      vertex 0.09569403 -0.02500000 -0.02902847
      vertex 0.09807853 -0.02500000 -0.01950903
    endloop
  endfacet
  facet normal -0.97003125 0.00000000 0.24298018
    outer loop
      vertex 0.09569403 0.02500000 -0.02902847
      vertex 0.09807853 -0.02500000 -0.01950903
      vertex 0.09807853 0.02500000 -0.01950903
    endloop
  endfacet
  facet normal 0.00000000 -1.00000000 0.00000000
    outer loop
      vertex 0.00000000 0.02500000 0.00000000
      vertex 0.09807853 0.02500000 -0.01950903
      vertex 0.09951847 0.02500000 -0.00980171
    endloop
  endfacet
  facet normal 0.00000000 1.00000000 0.00000000
    outer loop
      vertex 0.00000000 -0.02500000 0.00000000
      vertex 0.09951847 -0.02500000 -0.00980171
      vertex 0.09807853 -0.02500000 -0.01950903
    endloop
  endfacet
  facet normal -0.98917651 0.00000000 0.14673047
    outer loop
      vertex 0.09807853 0.02500000 -0.01950903
      vertex 0.09807853 -0.02500000 -0.01950903
      vertex 0.09951847 -0.02500000 -0.00980171
    endloop
  endfacet
  facet normal -0.98917651 0.00000000 0.14673047
    outer loop
      vertex 0.09807853 0.02500000 -0.01950903
      vertex 0.09951847 -0.02500000 -0.00980171
      vertex 0.09951847 0.02500000 -0.00980171
    endloop
  endfacet
  facet normal 0.00000000 -1.00000000 0.00000000
    outer loop
      vertex 0.00000000 0.02500000 0.00000000
      vertex 0.09951847 0.02500000 -0.00980171
      vertex 0.10000000 0.02500000 -0.00000000
    endloop
  endfacet
  facet normal 0.00000000 1.00000000 0.00000000
    outer loop
      vertex 0.00000000 -0.02500000 0.00000000
      vertex 0.10000000 -0.02500000 -0.00000000
      vertex 0.09951847 -0.02500000 -0.00980171
    endloop
  endfacet
  facet normal -0.99879546 0.00000000 0.04906767
    outer loop
      vertex 0.09951847 0.02500000 -0.00980171
      vertex 0.09951847 -0.02500000 -0.00980171
      vertex 0.10000000 -0.02500000 -0.00000000
    endloop
  endfacet
  facet normal -0.99879546 0.00000000 0.04906767
    outer loop
      vertex 0.09951847 0.02500000 -0.00980171
      vertex 0.10000000 -0.02500000 -0.00000000
      vertex 0.10000000 0.02500000 -0.00000000
    endloop
  endfacet
endsolid left_wheel
