solid rear_bumper
  facet normal 0.00000000 0.00000000 1.00000000
    outer loop
      vertex -0.25500000 0.00000000 0.15750000
      vertex -0.23250000 0.09300000 0.15750000
      vertex -0.23292272 0.09729199 0.15750000
    endloop
  endfacet
  facet normal 0.00000000 0.00000000 -1.00000000
    outer loop
      vertex -0.25500000 0.00000000 0.08250000
      vertex -0.23292272 0.09729199 0.08250000
      vertex -0.23250000 0.09300000 0.08250000
    endloop
  endfacet
  facet normal 0.99518473 0.09801714 0.00000000
    outer loop
      vertex -0.23250000 0.09300000 0.15750000
      vertex -0.23250000 0.09300000 0.08250000
      vertex -0.23292272 0.09729199 0.08250000
    endloop
  endfacet
  facet normal 0.99518473 0.09801714 0.00000000
    outer loop
      vertex -0.23250000 0.09300000 0.15750000
      vertex -0.23292272 0.09729199 0.08250000
      vertex -0.23292272 0.09729199 0.15750000
    endloop
  endfacet
  facet normal 0.00000000 0.00000000 1.00000000
    outer loop
      vertex -0.25500000 0.00000000 0.15750000
      vertex -0.23292272 0.09729199 0.15750000
      vertex -0.23417465 0.10141904 0.15750000
    endloop
  endfacet
  facet normal 0.00000000 0.00000000 -1.00000000
    outer loop
      vertex -0.25500000 0.00000000 0.08250000
      vertex -0.23417465 0.10141904 0.08250000
      vertex -0.23292272 0.09729199 0.08250000
    endloop
  endfacet
  facet normal 0.95694034 0.29028468 0.00000000
    outer loop
      vertex -0.23292272 0.09729199 0.15750000
      vertex -0.23292272 0.09729199 0.08250000
      vertex -0.23417465 0.10141904 0.08250000
    endloop
  endfacet
  facet normal 0.95694034 0.29028468 0.00000000
    outer loop
      vertex -0.23292272 0.09729199 0.15750000
      vertex -0.23417465 0.10141904 0.08250000
      vertex -0.23417465 0.10141904 0.15750000
    endloop
  endfacet
  facet normal 0.00000000 0.00000000 1.00000000
    outer loop
      vertex -0.25500000 0.00000000 0.15750000
      vertex -0.23417465 0.10141904 0.15750000
      vertex -0.23620767 0.10522255 0.15750000
    endloop
  endfacet
  facet normal 0.00000000 0.00000000 -1.00000000
    outer loop
      vertex -0.25500000 0.00000000 0.08250000
      vertex -0.23620767 0.10522255 0.08250000
      vertex -0.23417465 0.10141904 0.08250000
    endloop
  endfacet
  facet normal 0.88192126 0.47139674 0.00000000
    outer loop
      vertex -0.23417465 0.10141904 0.15750000
      vertex -0.23417465 0.10141904 0.08250000
      vertex -0.23620767 0.10522255 0.08250000
    endloop
  endfacet
  facet normal 0.88192126 0.47139674 0.00000000
    outer loop
      vertex -0.23417465 0.10141904 0.15750000
      vertex -0.23620767 0.10522255 0.08250000
      vertex -0.23620767 0.10522255 0.15750000
    endloop
  endfacet
  facet normal 0.00000000 0.00000000 1.00000000
    outer loop
      vertex -0.25500000 0.00000000 0.15750000
      vertex -0.23620767 0.10522255 0.15750000
      vertex -0.23894365 0.10855635 0.15750000
    endloop
  endfacet
  facet normal 0.00000000 0.00000000 -1.00000000
    outer loop
      vertex -0.25500000 0.00000000 0.08250000
      vertex -0.23894365 0.10855635 0.08250000
      vertex -0.23620767 0.10522255 0.08250000
    endloop
  endfacet
  facet normal 0.77301045 0.63439328 0.00000000
    outer loop
      vertex -0.23620767 0.10522255 0.15750000
      vertex -0.23620767 0.10522255 0.08250000
      vertex -0.23894365 0.10855635 0.08250000
    endloop
  endfacet
  facet normal 0.77301045 0.63439328 0.00000000
    outer loop
      vertex -0.23620767 0.10522255 0.15750000
      vertex -0.23894365 0.10855635 0.08250000
      vertex -0.23894365 0.10855635 0.15750000
    endloop
  endfacet
  facet normal 0.00000000 0.00000000 1.00000000
    outer loop
      vertex -0.25500000 0.00000000 0.15750000
      vertex -0.23894365 0.10855635 0.15750000
      vertex -0.24227745 0.11129233 0.15750000
    endloop
  endfacet
  facet normal 0.00000000 0.00000000 -1.00000000
    outer loop
      vertex -0.25500000 0.00000000 0.08250000
      vertex -0.24227745 0.11129233 0.08250000
      vertex -0.23894365 0.10855635 0.08250000
    endloop
  endfacet
  facet normal 0.63439328 0.77301045 0.00000000
    outer loop
      vertex -0.23894365 0.10855635 0.15750000
      vertex -0.23894365 0.10855635 0.08250000
      vertex -0.24227745 0.11129233 0.08250000
    endloop
  endfacet
  facet normal 0.63439328 0.77301045 0.00000000
    outer loop
      vertex -0.23894365 0.10855635 0.15750000
      vertex -0.24227745 0.11129233 0.08250000
      vertex -0.24227745 0.11129233 0.15750000
    endloop
  endfacet
  facet normal 0.00000000 0.00000000 1.00000000
    outer loop
      vertex -0.25500000 0.00000000 0.15750000
      vertex -0.24227745 0.11129233 0.15750000
      vertex -0.24608096 0.11332535 0.15750000
    endloop
  endfacet
  facet normal 0.00000000 0.00000000 -1.00000000
    outer loop
      vertex -0.25500000 0.00000000 0.08250000
      vertex -0.24608096 0.11332535 0.08250000
      vertex -0.24227745 0.11129233 0.08250000
    endloop
  endfacet
  facet normal 0.47139674 0.88192126 0.00000000
    outer loop
      vertex -0.24227745 0.11129233 0.15750000
      vertex -0.24227745 0.11129233 0.08250000
      vertex -0.24608096 0.11332535 0.08250000
    endloop
  endfacet
  facet normal 0.47139674 0.88192126 0.00000000
    outer loop
      vertex -0.24227745 0.11129233 0.15750000
      vertex -0.24608096 0.11332535 0.08250000
      vertex -0.24608096 0.11332535 0.15750000
    endloop
  endfacet
  facet normal 0.00000000 0.00000000 1.00000000
    outer loop
      vertex -0.25500000 0.00000000 0.15750000
      vertex -0.24608096 0.11332535 0.15750000
      vertex -0.25020801 0.11457728 0.15750000
    endloop
  endfacet
  facet normal 0.00000000 0.00000000 -1.00000000
    outer loop
      vertex -0.25500000 0.00000000 0.08250000
      vertex -0.25020801 0.11457728 0.08250000
      vertex -0.24608096 0.11332535 0.08250000
    endloop
  endfacet
  facet normal 0.29028468 0.95694034 0.00000000
    outer loop
      vertex -0.24608096 0.11332535 0.15750000
      vertex -0.24608096 0.11332535 0.08250000
      vertex -0.25020801 0.11457728 0.08250000
    endloop
  endfacet
  facet normal 0.29028468 0.95694034 0.00000000
    outer loop
      vertex -0.24608096 0.11332535 0.15750000
      vertex -0.25020801 0.11457728 0.08250000
      vertex -0.25020801 0.11457728 0.15750000
    endloop
  endfacet
  facet normal 0.00000000 0.00000000 1.00000000
    outer loop
      vertex -0.25500000 0.00000000 0.15750000
      vertex -0.25020801 0.11457728 0.15750000
      vertex -0.25450000 0.11500000 0.15750000
    endloop
  endfacet
  facet normal 0.00000000 0.00000000 -1.00000000
    outer loop
      vertex -0.25500000 0.00000000 0.08250000
      vertex -0.25450000 0.11500000 0.08250000
      vertex -0.25020801 0.11457728 0.08250000
    endloop
  endfacet
  facet normal 0.09801714 0.99518473 0.00000000
    outer loop
      vertex -0.25020801 0.11457728 0.15750000
      vertex -0.25020801 0.11457728 0.08250000
      vertex -0.25450000 0.11500000 0.08250000
    endloop
  endfacet
  facet normal 0.09801714 0.99518473 0.00000000
    outer loop
      vertex -0.25020801 0.11457728 0.15750000
      vertex -0.25450000 0.11500000 0.08250000
      vertex -0.25450000 0.11500000 0.15750000
    endloop
  endfacet
  facet normal 0.00000000 -0.00000000 1.00000000
    outer loop
      vertex -0.25500000 0.00000000 0.15750000
      vertex -0.25450000 0.11500000 0.15750000
      vertex -0.25550000 0.11500000 0.15750000
    endloop
  endfacet
  facet normal 0.00000000 0.00000000 -1.00000000
    outer loop
      vertex -0.25500000 0.00000000 0.08250000
      vertex -0.25550000 0.11500000 0.08250000
      vertex -0.25450000 0.11500000 0.08250000
    endloop
  endfacet
  facet normal 0.00000000 1.00000000 0.00000000
    outer loop
      vertex -0.25450000 0.11500000 0.15750000
      vertex -0.25450000 0.11500000 0.08250000
      vertex -0.25550000 0.11500000 0.08250000
    endloop
  endfacet
  facet normal 0.00000000 1.00000000 0.00000000
    outer loop
      vertex -0.25450000 0.11500000 0.15750000
      vertex -0.25550000 0.11500000 0.08250000
      vertex -0.25550000 0.11500000 0.15750000
    endloop
  endfacet
  facet normal 0.00000000 0.00000000 1.00000000
    outer loop
      vertex -0.25500000 0.00000000 0.15750000
      vertex -0.25550000 0.11500000 0.15750000
      vertex -0.25979199 0.11457728 0.15750000
    endloop
  endfacet
  facet normal 0.00000000 0.00000000 -1.00000000
    outer loop
      vertex -0.25500000 0.00000000 0.08250000
      vertex -0.25979199 0.11457728 0.08250000
      vertex -0.25550000 0.11500000 0.08250000
    endloop
  endfacet
  facet normal -0.09801714 0.99518473 0.00000000
    outer loop
      vertex -0.25550000 0.11500000 0.15750000
      vertex -0.25550000 0.11500000 0.08250000
      vertex -0.25979199 0.11457728 0.08250000
    endloop
  endfacet
  facet normal -0.09801714 0.99518473 0.00000000
    outer loop
      vertex -0.25550000 0.11500000 0.15750000
      vertex -0.25979199 0.11457728 0.08250000
      vertex -0.25979199 0.11457728 0.15750000
    endloop
  endfacet
  facet normal 0.00000000 0.00000000 1.00000000
    outer loop
      vertex -0.25500000 0.00000000 0.15750000
      vertex -0.25979199 0.11457728 0.15750000
      vertex -0.26391904 0.11332535 0.15750000
    endloop
  endfacet
  facet normal 0.00000000 0.00000000 -1.00000000
    outer loop
      vertex -0.25500000 0.00000000 0.08250000
      vertex -0.26391904 0.11332535 0.08250000
      vertex -0.25979199 0.11457728 0.08250000
    endloop
  endfacet
  facet normal -0.29028468 0.95694034 0.00000000
    outer loop
      vertex -0.25979199 0.11457728 0.15750000
      vertex -0.25979199 0.11457728 0.08250000
      vertex -0.26391904 0.11332535 0.08250000
    endloop
  endfacet
  facet normal -0.29028468 0.95694034 0.00000000
    outer loop
      vertex -0.25979199 0.11457728 0.15750000
      vertex -0.26391904 0.11332535 0.08250000
      vertex -0.26391904 0.11332535 0.15750000
    endloop
  endfacet
  facet normal 0.00000000 0.00000000 1.00000000
    outer loop
      vertex -0.25500000 0.00000000 0.15750000
      vertex -0.26391904 0.11332535 0.15750000
      vertex -0.26772255 0.11129233 0.15750000
    endloop
  endfacet
  facet normal 0.00000000 0.00000000 -1.00000000
    outer loop
      vertex -0.25500000 0.00000000 0.08250000
      vertex -0.26772255 0.11129233 0.08250000
      vertex -0.26391904 0.11332535 0.08250000
    endloop
  endfacet
  facet normal -0.47139674 0.88192126 0.00000000
    outer loop
      vertex -0.26391904 0.11332535 0.15750000
      vertex -0.26391904 0.11332535 0.08250000
      vertex -0.26772255 0.11129233 0.08250000
    endloop
  endfacet
  facet normal -0.47139674 0.88192126 0.00000000
    outer loop
      vertex -0.26391904 0.11332535 0.15750000
      vertex -0.26772255 0.11129233 0.08250000
      vertex -0.26772255 0.11129233 0.15750000
    endloop
  endfacet
  facet normal 0.00000000 0.00000000 1.00000000
    outer loop
      vertex -0.25500000 0.00000000 0.15750000
      vertex -0.26772255 0.11129233 0.15750000
      vertex -0.27105635 0.10855635 0.15750000
    endloop
  endfacet
  facet normal 0.00000000 0.00000000 -1.00000000
    outer loop
      vertex -0.25500000 0.00000000 0.08250000
      vertex -0.27105635 0.10855635 0.08250000
      vertex -0.26772255 0.11129233 0.08250000
    endloop
  endfacet
  facet normal -0.63439328 0.77301045 0.00000000
    outer loop
      vertex -0.26772255 0.11129233 0.15750000
      vertex -0.26772255 0.11129233 0.08250000
      vertex -0.27105635 0.10855635 0.08250000
    endloop
  endfacet
  facet normal -0.63439328 0.77301045 0.00000000
    outer loop
      vertex -0.26772255 0.11129233 0.15750000
      vertex -0.27105635 0.10855635 0.08250000
      vertex -0.27105635 0.10855635 0.15750000
    endloop
  endfacet
  facet normal 0.00000000 0.00000000 1.00000000
    outer loop
      vertex -0.25500000 0.00000000 0.15750000
      vertex -0.27105635 0.10855635 0.15750000
      vertex -0.27379233 0.10522255 0.15750000
    endloop
  endfacet
  facet normal 0.00000000 0.00000000 -1.00000000
    outer loop
      vertex -0.25500000 0.00000000 0.08250000
      vertex -0.27379233 0.10522255 0.08250000
      vertex -0.27105635 0.10855635 0.08250000
    endloop
  endfacet
  facet normal -0.77301045 0.63439328 0.00000000
    outer loop
      vertex -0.27105635 0.10855635 0.15750000
      vertex -0.27105635 0.10855635 0.08250000
      vertex -0.27379233 0.10522255 0.08250000
    endloop
  endfacet
  facet normal -0.77301045 0.63439328 0.00000000
    outer loop
      vertex -0.27105635 0.10855635 0.15750000
      vertex -0.27379233 0.10522255 0.08250000
      vertex -0.27379233 0.10522255 0.15750000
    endloop
  endfacet
  facet normal 0.00000000 0.00000000 1.00000000
    outer loop
      vertex -0.25500000 0.00000000 0.15750000
      vertex -0.27379233 0.10522255 0.15750000
      vertex -0.27582535 0.10141904 0.15750000
    endloop
  endfacet
  facet normal 0.00000000 0.00000000 -1.00000000
    outer loop
      vertex -0.25500000 0.00000000 0.08250000
      vertex -0.27582535 0.10141904 0.08250000
      vertex -0.27379233 0.10522255 0.08250000
    endloop
  endfacet
  facet normal -0.88192126 0.47139674 0.00000000
    outer loop
      vertex -0.27379233 0.10522255 0.15750000
      vertex -0.27379233 0.10522255 0.08250000
      vertex -0.27582535 0.10141904 0.08250000
    endloop
  endfacet
  facet normal -0.88192126 0.47139674 0.00000000
    outer loop
      vertex -0.27379233 0.10522255 0.15750000
      vertex -0.27582535 0.10141904 0.08250000
      vertex -0.27582535 0.10141904 0.15750000
    endloop
  endfacet
  facet normal 0.00000000 0.00000000 1.00000000
    outer loop
      vertex -0.25500000 0.00000000 0.15750000
      vertex -0.27582535 0.10141904 0.15750000
      vertex -0.27707728 0.09729199 0.15750000
    endloop
  endfacet
  facet normal 0.00000000 0.00000000 -1.00000000
    outer loop
      vertex -0.25500000 0.00000000 0.08250000
      vertex -0.27707728 0.09729199 0.08250000
      vertex -0.27582535 0.10141904 0.08250000
    endloop
  endfacet
  facet normal -0.95694034 0.29028468 0.00000000
    outer loop
      vertex -0.27582535 0.10141904 0.15750000
      vertex -0.27582535 0.10141904 0.08250000
      vertex -0.27707728 0.09729199 0.08250000
    endloop
  endfacet
  facet normal -0.95694034 0.29028468 0.00000000
    outer loop
      vertex -0.27582535 0.10141904 0.15750000
      vertex -0.27707728 0.09729199 0.08250000
      vertex -0.27707728 0.09729199 0.15750000
    endloop
  endfacet
  facet normal 0.00000000 0.00000000 1.00000000
    outer loop
      vertex -0.25500000 0.00000000 0.15750000
      vertex -0.27707728 0.09729199 0.15750000
      vertex -0.27750000 0.09300000 0.15750000
    endloop
  endfacet
  facet normal 0.00000000 0.00000000 -1.00000000
    outer loop
      vertex -0.25500000 0.00000000 0.08250000
      vertex -0.27750000 0.09300000 0.08250000
      vertex -0.27707728 0.09729199 0.08250000
    endloop
  endfacet
  facet normal -0.99518473 0.09801714 0.00000000
    outer loop
      vertex -0.27707728 0.09729199 0.15750000
      vertex -0.27707728 0.09729199 0.08250000
      vertex -0.27750000 0.09300000 0.08250000
    endloop
  endfacet
  facet normal -0.99518473 0.09801714 0.00000000
    outer loop
      vertex -0.27707728 0.09729199 0.15750000
      vertex -0.27750000 0.09300000 0.08250000
      vertex -0.27750000 0.09300000 0.15750000
    endloop
  endfacet
  facet normal 0.00000000 0.00000000 1.00000000
    outer loop
      vertex -0.25500000 0.00000000 0.15750000
      vertex -0.27750000 0.09300000 0.15750000
      vertex -0.27750000 -0.09300000 0.15750000
    endloop
  endfacet
  facet normal -0.00000000 0.00000000 -1.00000000
    outer loop
      vertex -0.25500000 0.00000000 0.08250000
      vertex -0.27750000 -0.09300000 0.08250000
      vertex -0.27750000 0.09300000 0.08250000
    endloop
  endfacet
  facet normal -1.00000000 0.00000000 -0.00000000
    outer loop
      vertex -0.27750000 0.09300000 0.15750000
      vertex -0.27750000 0.09300000 0.08250000
      vertex -0.27750000 -0.09300000 0.08250000
    endloop
  endfacet
  facet normal -1.00000000 -0.00000000 0.00000000
    outer loop
      vertex -0.27750000 0.09300000 0.15750000
      vertex -0.27750000 -0.09300000 0.08250000
      vertex -0.27750000 -0.09300000 0.15750000
    endloop
  endfacet
  facet normal 0.00000000 0.00000000 1.00000000
    outer loop
      vertex -0.25500000 0.00000000 0.15750000
      vertex -0.27750000 -0.09300000 0.15750000
      vertex -0.27707728 -0.09729199 0.15750000
    endloop
  endfacet
  facet normal 0.00000000 0.00000000 -1.00000000
    outer loop
      vertex -0.25500000 0.00000000 0.08250000
      vertex -0.27707728 -0.09729199 0.08250000
      vertex -0.27750000 -0.09300000 0.08250000
    endloop
  endfacet
  facet normal -0.99518473 -0.09801714 -0.00000000
    outer loop
      vertex -0.27750000 -0.09300000 0.15750000
      vertex -0.27750000 -0.09300000 0.08250000
      vertex -0.27707728 -0.09729199 0.08250000
    endloop
  endfacet
  facet normal -0.99518473 -0.09801714 0.00000000
    outer loop
      vertex -0.27750000 -0.09300000 0.15750000
      vertex -0.27707728 -0.09729199 0.08250000
      vertex -0.27707728 -0.09729199 0.15750000
    endloop
  endfacet
  facet normal 0.00000000 0.00000000 1.00000000
    outer loop
      vertex -0.25500000 0.00000000 0.15750000
      vertex -0.27707728 -0.09729199 0.15750000
      vertex -0.27582535 -0.10141904 0.15750000
    endloop
  endfacet
  facet normal 0.00000000 0.00000000 -1.00000000
    outer loop
      vertex -0.25500000 0.00000000 0.08250000
      vertex -0.27582535 -0.10141904 0.08250000
      vertex -0.27707728 -0.09729199 0.08250000
    endloop
  endfacet
  facet normal -0.95694034 -0.29028468 -0.00000000
    outer loop
      vertex -0.27707728 -0.09729199 0.15750000
      vertex -0.27707728 -0.09729199 0.08250000
      vertex -0.27582535 -0.10141904 0.08250000
    endloop
  endfacet
  facet normal -0.95694034 -0.29028468 0.00000000
    outer loop
      vertex -0.27707728 -0.09729199 0.15750000
      vertex -0.27582535 -0.10141904 0.08250000
      vertex -0.27582535 -0.10141904 0.15750000
    endloop
  endfacet
  facet normal 0.00000000 0.00000000 1.00000000
    outer loop
      vertex -0.25500000 0.00000000 0.15750000
      vertex -0.27582535 -0.10141904 0.15750000
      vertex -0.27379233 -0.10522255 0.15750000
    endloop
  endfacet
  facet normal 0.00000000 0.00000000 -1.00000000
    outer loop
      vertex -0.25500000 0.00000000 0.08250000
      vertex -0.27379233 -0.10522255 0.08250000
      vertex -0.27582535 -0.10141904 0.08250000
    endloop
  endfacet
  facet normal -0.88192126 -0.47139674 -0.00000000
    outer loop
      vertex -0.27582535 -0.10141904 0.15750000
      vertex -0.27582535 -0.10141904 0.08250000
      vertex -0.27379233 -0.10522255 0.08250000
    endloop
  endfacet
  facet normal -0.88192126 -0.47139674 0.00000000
    outer loop
      vertex -0.27582535 -0.10141904 0.15750000
      vertex -0.27379233 -0.10522255 0.08250000
      vertex -0.27379233 -0.10522255 0.15750000
    endloop
  endfacet
  facet normal 0.00000000 0.00000000 1.00000000
    outer loop
      vertex -0.25500000 0.00000000 0.15750000
      vertex -0.27379233 -0.10522255 0.15750000
      vertex -0.27105635 -0.10855635 0.15750000
    endloop
  endfacet
  facet normal 0.00000000 0.00000000 -1.00000000
    outer loop
      vertex -0.25500000 0.00000000 0.08250000
      vertex -0.27105635 -0.10855635 0.08250000
      vertex -0.27379233 -0.10522255 0.08250000
    endloop
  endfacet
  facet normal -0.77301045 -0.63439328 -0.00000000
    outer loop
      vertex -0.27379233 -0.10522255 0.15750000
      vertex -0.27379233 -0.10522255 0.08250000
      vertex -0.27105635 -0.10855635 0.08250000
    endloop
  endfacet
  facet normal -0.77301045 -0.63439328 0.00000000
    outer loop
      vertex -0.27379233 -0.10522255 0.15750000
      vertex -0.27105635 -0.10855635 0.08250000
      vertex -0.27105635 -0.10855635 0.15750000
    endloop
  endfacet
  facet normal 0.00000000 0.00000000 1.00000000
    outer loop
      vertex -0.25500000 0.00000000 0.15750000
      vertex -0.27105635 -0.10855635 0.15750000
      vertex -0.26772255 -0.11129233 0.15750000
    endloop
  endfacet
  facet normal 0.00000000 0.00000000 -1.00000000
    outer loop
      vertex -0.25500000 0.00000000 0.08250000
      vertex -0.26772255 -0.11129233 0.08250000
      vertex -0.27105635 -0.10855635 0.08250000
    endloop
  endfacet
  facet normal -0.63439328 -0.77301045 -0.00000000
    outer loop
      vertex -0.27105635 -0.10855635 0.15750000
      vertex -0.27105635 -0.10855635 0.08250000
      vertex -0.26772255 -0.11129233 0.08250000
    endloop
  endfacet
  facet normal -0.63439328 -0.77301045 0.00000000
    outer loop
      vertex -0.27105635 -0.10855635 0.15750000
      vertex -0.26772255 -0.11129233 0.08250000
      vertex -0.26772255 -0.11129233 0.15750000
    endloop
  endfacet
  facet normal 0.00000000 0.00000000 1.00000000
    outer loop
      vertex -0.25500000 0.00000000 0.15750000
      vertex -0.26772255 -0.11129233 0.15750000
      vertex -0.26391904 -0.11332535 0.15750000
    endloop
  endfacet
  facet normal 0.00000000 0.00000000 -1.00000000
    outer loop
      vertex -0.25500000 0.00000000 0.08250000
      vertex -0.26391904 -0.11332535 0.08250000
      vertex -0.26772255 -0.11129233 0.08250000
    endloop
  endfacet
  facet normal -0.47139674 -0.88192126 -0.00000000
    outer loop
      vertex -0.26772255 -0.11129233 0.15750000
      vertex -0.26772255 -0.11129233 0.08250000
      vertex -0.26391904 -0.11332535 0.08250000
    endloop
  endfacet
  facet normal -0.47139674 -0.88192126 0.00000000
    outer loop
      vertex -0.26772255 -0.11129233 0.15750000
      vertex -0.26391904 -0.11332535 0.08250000
      vertex -0.26391904 -0.11332535 0.15750000
    endloop
  endfacet
  facet normal 0.00000000 0.00000000 1.00000000
    outer loop
      vertex -0.25500000 0.00000000 0.15750000
      vertex -0.26391904 -0.11332535 0.15750000
      vertex -0.25979199 -0.11457728 0.15750000
    endloop
  endfacet
  facet normal 0.00000000 0.00000000 -1.00000000
    outer loop
      vertex -0.25500000 0.00000000 0.08250000
      vertex -0.25979199 -0.11457728 0.08250000
      vertex -0.26391904 -0.11332535 0.08250000
    endloop
  endfacet
  facet normal -0.29028468 -0.95694034 -0.00000000
    outer loop
      vertex -0.26391904 -0.11332535 0.15750000
      vertex -0.26391904 -0.11332535 0.08250000
      vertex -0.25979199 -0.11457728 0.08250000
    endloop
  endfacet
  facet normal -0.29028468 -0.95694034 0.00000000
    outer loop
      vertex -0.26391904 -0.11332535 0.15750000
      vertex -0.25979199 -0.11457728 0.08250000
      vertex -0.25979199 -0.11457728 0.15750000
    endloop
  endfacet
  facet normal 0.00000000 0.00000000 1.00000000
    outer loop
      vertex -0.25500000 0.00000000 0.15750000
      vertex -0.25979199 -0.11457728 0.15750000
      vertex -0.25550000 -0.11500000 0.15750000
    endloop
  endfacet
  facet normal 0.00000000 0.00000000 -1.00000000
    outer loop
      vertex -0.25500000 0.00000000 0.08250000
      vertex -0.25550000 -0.11500000 0.08250000
      vertex -0.25979199 -0.11457728 0.08250000
    endloop
  endfacet
  facet normal -0.09801714 -0.99518473 -0.00000000
    outer loop
      vertex -0.25979199 -0.11457728 0.15750000
      vertex -0.25979199 -0.11457728 0.08250000
      vertex -0.25550000 -0.11500000 0.08250000
    endloop
  endfacet
  facet normal -0.09801714 -0.99518473 0.00000000
    outer loop
      vertex -0.25979199 -0.11457728 0.15750000
      vertex -0.25550000 -0.11500000 0.08250000
      vertex -0.25550000 -0.11500000 0.15750000
    endloop
  endfacet
  facet normal 0.00000000 0.00000000 1.00000000
    outer loop
      vertex -0.25500000 0.00000000 0.15750000
      vertex -0.25550000 -0.11500000 0.15750000
      vertex -0.25450000 -0.11500000 0.15750000
    endloop
  endfacet
  facet normal 0.00000000 -0.00000000 -1.00000000
    outer loop
      vertex -0.25500000 0.00000000 0.08250000
      vertex -0.25450000 -0.11500000 0.08250000
      vertex -0.25550000 -0.11500000 0.08250000
    endloop
  endfacet
  facet normal 0.00000000 -1.00000000 0.00000000
    outer loop
      vertex -0.25550000 -0.11500000 0.15750000
      vertex -0.25550000 -0.11500000 0.08250000
      vertex -0.25450000 -0.11500000 0.08250000
    endloop
  endfacet
  facet normal 0.00000000 -1.00000000 0.00000000
    outer loop
      vertex -0.25550000 -0.11500000 0.15750000
      vertex -0.25450000 -0.11500000 0.08250000
      vertex -0.25450000 -0.11500000 0.15750000
    endloop
  endfacet
  facet normal 0.00000000 0.00000000 1.00000000
    outer loop
      vertex -0.25500000 0.00000000 0.15750000
      vertex -0.25450000 -0.11500000 0.15750000
      vertex -0.25020801 -0.11457728 0.15750000
    endloop
  endfacet
  facet normal 0.00000000 0.00000000 -1.00000000
    outer loop
      vertex -0.25500000 0.00000000 0.08250000
      vertex -0.25020801 -0.11457728 0.08250000
      vertex -0.25450000 -0.11500000 0.08250000
    endloop
  endfacet
  facet normal 0.09801714 -0.99518473 0.00000000
    outer loop
      vertex -0.25450000 -0.11500000 0.15750000
      vertex -0.25450000 -0.11500000 0.08250000
      vertex -0.25020801 -0.11457728 0.08250000
    endloop
  endfacet
  facet normal 0.09801714 -0.99518473 0.00000000
    outer loop
      vertex -0.25450000 -0.11500000 0.15750000
      vertex -0.25020801 -0.11457728 0.08250000
      vertex -0.25020801 -0.11457728 0.15750000
    endloop
  endfacet
  facet normal 0.00000000 0.00000000 1.00000000
    outer loop
      vertex -0.25500000 0.00000000 0.15750000
      vertex -0.25020801 -0.11457728 0.15750000
      vertex -0.24608096 -0.11332535 0.15750000
    endloop
  endfacet
  facet normal 0.00000000 0.00000000 -1.00000000
    outer loop
      vertex -0.25500000 0.00000000 0.08250000
      vertex -0.24608096 -0.11332535 0.08250000
      vertex -0.25020801 -0.11457728 0.08250000
    endloop
  endfacet
  facet normal 0.29028468 -0.95694034 0.00000000
    outer loop
      vertex -0.25020801 -0.11457728 0.15750000
      vertex -0.25020801 -0.11457728 0.08250000
      vertex -0.24608096 -0.11332535 0.08250000
    endloop
  endfacet
  facet normal 0.29028468 -0.95694034 0.00000000
    outer loop
      vertex -0.25020801 -0.11457728 0.15750000
      vertex -0.24608096 -0.11332535 0.08250000
      vertex -0.24608096 -0.11332535 0.15750000
    endloop
  endfacet
  facet normal 0.00000000 0.00000000 1.00000000
    outer loop
      vertex -0.25500000 0.00000000 0.15750000
      vertex -0.24608096 -0.11332535 0.15750000
      vertex -0.24227745 -0.11129233 0.15750000
    endloop
  endfacet
  facet normal 0.00000000 0.00000000 -1.00000000
    outer loop
      vertex -0.25500000 0.00000000 0.08250000
      vertex -0.24227745 -0.11129233 0.08250000
      vertex -0.24608096 -0.11332535 0.08250000
    endloop
  endfacet
  facet normal 0.47139674 -0.88192126 0.00000000
    outer loop
      vertex -0.24608096 -0.11332535 0.15750000
      vertex -0.24608096 -0.11332535 0.08250000
      vertex -0.24227745 -0.11129233 0.08250000
    endloop
  endfacet
  facet normal 0.47139674 -0.88192126 0.00000000
    outer loop
      vertex -0.24608096 -0.11332535 0.15750000
      vertex -0.24227745 -0.11129233 0.08250000
      vertex -0.24227745 -0.11129233 0.15750000
    endloop
  endfacet
  facet normal 0.00000000 0.00000000 1.00000000
    outer loop
      vertex -0.25500000 0.00000000 0.15750000
      vertex -0.24227745 -0.11129233 0.15750000
      vertex -0.23894365 -0.10855635 0.15750000
    endloop
  endfacet
  facet normal 0.00000000 0.00000000 -1.00000000
    outer loop
      vertex -0.25500000 0.00000000 0.08250000
      vertex -0.23894365 -0.10855635 0.08250000
      vertex -0.24227745 -0.11129233 0.08250000
    endloop
  endfacet
  facet normal 0.63439328 -0.77301045 0.00000000
    outer loop
      vertex -0.24227745 -0.11129233 0.15750000
      vertex -0.24227745 -0.11129233 0.08250000
      vertex -0.23894365 -0.10855635 0.08250000
    endloop
  endfacet
  facet normal 0.63439328 -0.77301045 0.00000000
    outer loop
      vertex -0.24227745 -0.11129233 0.15750000
      vertex -0.23894365 -0.10855635 0.08250000
      vertex -0.23894365 -0.10855635 0.15750000
    endloop
  endfacet
  facet normal 0.00000000 0.00000000 1.00000000
    outer loop
      vertex -0.25500000 0.00000000 0.15750000
      vertex -0.23894365 -0.10855635 0.15750000
      vertex -0.23620767 -0.10522255 0.15750000
    endloop
  endfacet
  facet normal 0.00000000 0.00000000 -1.00000000
    outer loop
      vertex -0.25500000 0.00000000 0.08250000
      vertex -0.23620767 -0.10522255 0.08250000
      vertex -0.23894365 -0.10855635 0.08250000
    endloop
  endfacet
  facet normal 0.77301045 -0.63439328 0.00000000
    outer loop
      vertex -0.23894365 -0.10855635 0.15750000
      vertex -0.23894365 -0.10855635 0.08250000
      vertex -0.23620767 -0.10522255 0.08250000
    endloop
  endfacet
  facet normal 0.77301045 -0.63439328 0.00000000
    outer loop
      vertex -0.23894365 -0.10855635 0.15750000
      vertex -0.23620767 -0.10522255 0.08250000
      vertex -0.23620767 -0.10522255 0.15750000
    endloop
  endfacet
  facet normal 0.00000000 0.00000000 1.00000000
    outer loop
      vertex -0.25500000 0.00000000 0.15750000
      vertex -0.23620767 -0.10522255 0.15750000
      vertex -0.23417465 -0.10141904 0.15750000
    endloop
  endfacet
  facet normal 0.00000000 0.00000000 -1.00000000
    outer loop
      vertex -0.25500000 0.00000000 0.08250000
      vertex -0.23417465 -0.10141904 0.08250000
      vertex -0.23620767 -0.10522255 0.08250000
    endloop
  endfacet
  facet normal 0.88192126 -0.47139674 0.00000000
    outer loop
      vertex -0.23620767 -0.10522255 0.15750000
      vertex -0.23620767 -0.10522255 0.08250000
      vertex -0.23417465 -0.10141904 0.08250000
    endloop
  endfacet
  facet normal 0.88192126 -0.47139674 0.00000000
    outer loop
      vertex -0.23620767 -0.10522255 0.15750000
      vertex -0.23417465 -0.10141904 0.08250000
      vertex -0.23417465 -0.10141904 0.15750000
    endloop
  endfacet
  facet normal 0.00000000 0.00000000 1.00000000
    outer loop
      vertex -0.25500000 0.00000000 0.15750000
      vertex -0.23417465 -0.10141904 0.15750000
      vertex -0.23292272 -0.09729199 0.15750000
    endloop
  endfacet
  facet normal 0.00000000 0.00000000 -1.00000000
    outer loop
      vertex -0.25500000 0.00000000 0.08250000
      vertex -0.23292272 -0.09729199 0.08250000
      vertex -0.23417465 -0.10141904 0.08250000
    endloop
  endfacet
  facet normal 0.95694034 -0.29028468 0.00000000
    outer loop
      vertex -0.23417465 -0.10141904 0.15750000
      vertex -0.23417465 -0.10141904 0.08250000
      vertex -0.23292272 -0.09729199 0.08250000
    endloop
  endfacet
  facet normal 0.95694034 -0.29028468 0.00000000
    outer loop
      vertex -0.23417465 -0.10141904 0.15750000
      vertex -0.23292272 -0.09729199 0.08250000
      vertex -0.23292272 -0.09729199 0.15750000
    endloop
  endfacet
  facet normal 0.00000000 0.00000000 1.00000000
    outer loop
      vertex -0.25500000 0.00000000 0.15750000
      vertex -0.23292272 -0.09729199 0.15750000
      vertex -0.23250000 -0.09300000 0.15750000
    endloop
  endfacet
  facet normal 0.00000000 0.00000000 -1.00000000
    outer loop
      vertex -0.25500000 0.00000000 0.08250000
      vertex -0.23250000 -0.09300000 0.08250000
      vertex -0.23292272 -0.09729199 0.08250000
    endloop
  endfacet
  facet normal 0.99518473 -0.09801714 0.00000000
    outer loop
      vertex -0.23292272 -0.09729199 0.15750000
      vertex -0.23292272 -0.09729199 0.08250000
      vertex -0.23250000 -0.09300000 0.08250000
    endloop
  endfacet
  facet normal 0.99518473 -0.09801714 0.00000000
    outer loop
      vertex -0.23292272 -0.09729199 0.15750000
      vertex -0.23250000 -0.09300000 0.08250000
      vertex -0.23250000 -0.09300000 0.15750000
    endloop
  endfacet
  facet normal -0.00000000 0.00000000 1.00000000
    outer loop
      vertex -0.25500000 0.00000000 0.15750000
      vertex -0.23250000 -0.09300000 0.15750000
      vertex -0.23250000 0.09300000 0.15750000
    endloop
  endfacet
  facet normal 0.00000000 0.00000000 -1.00000000
    outer loop
      vertex -0.25500000 0.00000000 0.08250000
      vertex -0.23250000 0.09300000 0.08250000
      vertex -0.23250000 -0.09300000 0.08250000
    endloop
  endfacet
  facet normal 1.00000000 0.00000000 0.00000000
    outer loop
      vertex -0.23250000 -0.09300000 0.15750000
      vertex -0.23250000 -0.09300000 0.08250000
      vertex -0.23250000 0.09300000 0.08250000
    endloop
  endfacet
  facet normal 1.00000000 -0.00000000 0.00000000
    outer loop
      vertex -0.23250000 -0.09300000 0.15750000
      vertex -0.23250000 0.09300000 0.08250000
      vertex -0.23250000 0.09300000 0.15750000
    endloop
  endfacet
endsolid rear_bumper
