solid side_pod
  facet normal -0.00000000 0.00000000 1.00000000
    outer loop
      vertex 0.00000000 0.00000000 0.05250000
      vertex 0.12500000 -0.00050000 0.05250000
      vertex 0.12465414 0.00301163 0.05250000
    endloop
  endfacet
  facet normal 0.00000000 0.00000000 -1.00000000
    outer loop
      vertex 0.00000000 0.00000000 -0.05250000
      vertex 0.12465414 0.00301163 -0.05250000
      vertex 0.12500000 -0.00050000 -0.05250000
    endloop
  endfacet
  facet normal 0.99518473 0.09801714 0.00000000
    outer loop
      vertex 0.12500000 -0.00050000 0.05250000
      vertex 0.12500000 -0.00050000 -0.05250000
      vertex 0.12465414 0.00301163 -0.05250000
    endloop
  endfacet
  facet normal 0.99518473 0.09801714 0.00000000
    outer loop
      vertex 0.12500000 -0.00050000 0.05250000
      vertex 0.12465414 0.00301163 -0.05250000
      vertex 0.12465414 0.00301163 0.05250000
    endloop
  endfacet
  facet normal 0.00000000 0.00000000 1.00000000
    outer loop
      vertex 0.00000000 0.00000000 0.05250000
      vertex 0.12465414 0.00301163 0.05250000
      vertex 0.12362983 0.00638830 0.05250000
    endloop
  endfacet
  facet normal 0.00000000 0.00000000 -1.00000000
    outer loop
      vertex 0.00000000 0.00000000 -0.05250000
      vertex 0.12362983 0.00638830 -0.05250000
      vertex 0.12465414 0.00301163 -0.05250000
    endloop
  endfacet
  facet normal 0.95694034 0.29028468 0.00000000
    outer loop
      vertex 0.12465414 0.00301163 0.05250000
      vertex 0.12465414 0.00301163 -0.05250000
      vertex 0.12362983 0.00638830 -0.05250000
    endloop
  endfacet
  facet normal 0.95694034 0.29028468 0.00000000
    outer loop
      vertex 0.12465414 0.00301163 0.05250000
      vertex 0.12362983 0.00638830 -0.05250000
      vertex 0.12362983 0.00638830 0.05250000
    endloop
  endfacet
  facet normal 0.00000000 0.00000000 1.00000000
    outer loop
      vertex 0.00000000 0.00000000 0.05250000
      vertex 0.12362983 0.00638830 0.05250000
      vertex 0.12196645 0.00950026 0.05250000
    endloop
  endfacet
  facet normal 0.00000000 0.00000000 -1.00000000
    outer loop
      vertex 0.00000000 0.00000000 -0.05250000
      vertex 0.12196645 0.00950026 -0.05250000
      vertex 0.12362983 0.00638830 -0.05250000
    endloop
  endfacet
  facet normal 0.88192126 0.47139674 0.00000000
    outer loop
      vertex 0.12362983 0.00638830 0.05250000
      vertex 0.12362983 0.00638830 -0.05250000
      vertex 0.12196645 0.00950026 -0.05250000
    endloop
  endfacet
  facet normal 0.88192126 0.47139674 0.00000000
    outer loop
      vertex 0.12362983 0.00638830 0.05250000
      vertex 0.12196645 0.00950026 -0.05250000
      vertex 0.12196645 0.00950026 0.05250000
    endloop
  endfacet
  facet normal 0.00000000 0.00000000 1.00000000
    outer loop
      vertex 0.00000000 0.00000000 0.05250000
      vertex 0.12196645 0.00950026 0.05250000
      vertex 0.11972792 0.01222792 0.05250000
    endloop
  endfacet
  facet normal 0.00000000 0.00000000 -1.00000000
    outer loop
      vertex 0.00000000 0.00000000 -0.05250000
      vertex 0.11972792 0.01222792 -0.05250000
      vertex 0.12196645 0.00950026 -0.05250000
    endloop
  endfacet
  facet normal 0.77301045 0.63439328 0.00000000
    outer loop
      vertex 0.12196645 0.00950026 0.05250000
      vertex 0.12196645 0.00950026 -0.05250000
      vertex 0.11972792 0.01222792 -0.05250000
    endloop
  endfacet
  facet normal 0.77301045 0.63439328 0.00000000
    outer loop
      vertex 0.12196645 0.00950026 0.05250000
      vertex 0.11972792 0.01222792 -0.05250000
      vertex 0.11972792 0.01222792 0.05250000
    endloop
  endfacet
  facet normal 0.00000000 0.00000000 1.00000000
    outer loop
      vertex 0.00000000 0.00000000 0.05250000
      vertex 0.11972792 0.01222792 0.05250000
      vertex 0.11700026 0.01446645 0.05250000
    endloop
  endfacet
  facet normal 0.00000000 0.00000000 -1.00000000
    outer loop
      vertex 0.00000000 0.00000000 -0.05250000
      vertex 0.11700026 0.01446645 -0.05250000
      vertex 0.11972792 0.01222792 -0.05250000
    endloop
  endfacet
  facet normal 0.63439328 0.77301045 0.00000000
    outer loop
      vertex 0.11972792 0.01222792 0.05250000
      vertex 0.11972792 0.01222792 -0.05250000
      vertex 0.11700026 0.01446645 -0.05250000
    endloop
  endfacet
  facet normal 0.63439328 0.77301045 0.00000000
    outer loop
      vertex 0.11972792 0.01222792 0.05250000
      vertex 0.11700026 0.01446645 -0.05250000
      vertex 0.11700026 0.01446645 0.05250000
    endloop
  endfacet
  facet normal 0.00000000 0.00000000 1.00000000
    outer loop
      vertex 0.00000000 0.00000000 0.05250000
      vertex 0.11700026 0.01446645 0.05250000
      vertex 0.11388830 0.01612983 0.05250000
    endloop
  endfacet
  facet normal 0.00000000 0.00000000 -1.00000000
    outer loop
      vertex 0.00000000 0.00000000 -0.05250000
      vertex 0.11388830 0.01612983 -0.05250000
      vertex 0.11700026 0.01446645 -0.05250000
    endloop
  endfacet
  facet normal 0.47139674 0.88192126 0.00000000
    outer loop
      vertex 0.11700026 0.01446645 0.05250000
      vertex 0.11700026 0.01446645 -0.05250000
      vertex 0.11388830 0.01612983 -0.05250000
    endloop
  endfacet
  facet normal 0.47139674 0.88192126 0.00000000
    outer loop
      vertex 0.11700026 0.01446645 0.05250000
      vertex 0.11388830 0.01612983 -0.05250000
      vertex 0.11388830 0.01612983 0.05250000
    endloop
  endfacet
  facet normal 0.00000000 0.00000000 1.00000000
    outer loop
      vertex 0.00000000 0.00000000 0.05250000
      vertex 0.11388830 0.01612983 0.05250000
      vertex 0.11051163 0.01715414 0.05250000
    endloop
  endfacet
  facet normal 0.00000000 0.00000000 -1.00000000
    outer loop
      vertex 0.00000000 0.00000000 -0.05250000
      vertex 0.11051163 0.01715414 -0.05250000
      vertex 0.11388830 0.01612983 -0.05250000
    endloop
  endfacet
  facet normal 0.29028468 0.95694034 0.00000000
    outer loop
      vertex 0.11388830 0.01612983 0.05250000
      vertex 0.11388830 0.01612983 -0.05250000
      vertex 0.11051163 0.01715414 -0.05250000
    endloop
  endfacet
  facet normal 0.29028468 0.95694034 0.00000000
    outer loop
      vertex 0.11388830 0.01612983 0.05250000
      vertex 0.11051163 0.01715414 -0.05250000
      vertex 0.11051163 0.01715414 0.05250000
    endloop
  endfacet
  facet normal 0.00000000 0.00000000 1.00000000
    outer loop
      vertex 0.00000000 0.00000000 0.05250000
      vertex 0.11051163 0.01715414 0.05250000
      vertex 0.10700000 0.01750000 0.05250000
    endloop
  endfacet
  facet normal 0.00000000 0.00000000 -1.00000000
    outer loop
      vertex 0.00000000 0.00000000 -0.05250000
      vertex 0.10700000 0.01750000 -0.05250000
      vertex 0.11051163 0.01715414 -0.05250000
    endloop
  endfacet
  facet normal 0.09801714 0.99518473 0.00000000
    outer loop
      vertex 0.11051163 0.01715414 0.05250000
      vertex 0.11051163 0.01715414 -0.05250000
      vertex 0.10700000 0.01750000 -0.05250000
    endloop
  endfacet
  facet normal 0.09801714 0.99518473 0.00000000
    outer loop
      vertex 0.11051163 0.01715414 0.05250000
      vertex 0.10700000 0.01750000 -0.05250000
      vertex 0.10700000 0.01750000 0.05250000
    endloop
  endfacet
  facet normal 0.00000000 -0.00000000 1.00000000
    outer loop
      vertex 0.00000000 0.00000000 0.05250000
      vertex 0.10700000 0.01750000 0.05250000
      vertex -0.10700000 0.01750000 0.05250000
    endloop
  endfacet
  facet normal 0.00000000 0.00000000 -1.00000000
    outer loop
      vertex 0.00000000 0.00000000 -0.05250000
      vertex -0.10700000 0.01750000 -0.05250000
      vertex 0.10700000 0.01750000 -0.05250000
    endloop
  endfacet
  facet normal 0.00000000 1.00000000 0.00000000
    outer loop
      vertex 0.10700000 0.01750000 0.05250000
      vertex 0.10700000 0.01750000 -0.05250000
      vertex -0.10700000 0.01750000 -0.05250000
    endloop
  endfacet
  facet normal 0.00000000 1.00000000 0.00000000
    outer loop
      vertex 0.10700000 0.01750000 0.05250000
      vertex -0.10700000 0.01750000 -0.05250000
      vertex -0.10700000 0.01750000 0.05250000
    endloop
  endfacet
  facet normal 0.00000000 0.00000000 1.00000000
    outer loop
      vertex 0.00000000 0.00000000 0.05250000
      vertex -0.10700000 0.01750000 0.05250000
      vertex -0.11051163 0.01715414 0.05250000
    endloop
  endfacet
  facet normal 0.00000000 0.00000000 -1.00000000
    outer loop
      vertex 0.00000000 0.00000000 -0.05250000
      vertex -0.11051163 0.01715414 -0.05250000
      vertex -0.10700000 0.01750000 -0.05250000
    endloop
  endfacet
  facet normal -0.09801714 0.99518473 0.00000000
    outer loop
      vertex -0.10700000 0.01750000 0.05250000
      vertex -0.10700000 0.01750000 -0.05250000
      vertex -0.11051163 0.01715414 -0.05250000
    endloop
  endfacet
  facet normal -0.09801714 0.99518473 0.00000000
    outer loop
      vertex -0.10700000 0.01750000 0.05250000
      vertex -0.11051163 0.01715414 -0.05250000
      vertex -0.11051163 0.01715414 0.05250000
    endloop
  endfacet
  facet normal 0.00000000 0.00000000 1.00000000
    outer loop
      vertex 0.00000000 0.00000000 0.05250000
      vertex -0.11051163 0.01715414 0.05250000
      vertex -0.11388830 0.01612983 0.05250000
    endloop
  endfacet
  facet normal 0.00000000 0.00000000 -1.00000000
    outer loop
      vertex 0.00000000 0.00000000 -0.05250000
      vertex -0.11388830 0.01612983 -0.05250000
      vertex -0.11051163 0.01715414 -0.05250000
    endloop
  endfacet
  facet normal -0.29028468 0.95694034 0.00000000
    outer loop
      vertex -0.11051163 0.01715414 0.05250000
      vertex -0.11051163 0.01715414 -0.05250000
      vertex -0.11388830 0.01612983 -0.05250000
    endloop
  endfacet
  facet normal -0.29028468 0.95694034 0.00000000
    outer loop
      vertex -0.11051163 0.01715414 0.05250000
      vertex -0.11388830 0.01612983 -0.05250000
      vertex -0.11388830 0.01612983 0.05250000
    endloop
  endfacet
  facet normal 0.00000000 0.00000000 1.00000000
    outer loop
      vertex 0.00000000 0.00000000 0.05250000
      vertex -0.11388830 0.01612983 0.05250000
      vertex -0.11700026 0.01446645 0.05250000
    endloop
  endfacet
  facet normal 0.00000000 0.00000000 -1.00000000
    outer loop
      vertex 0.00000000 0.00000000 -0.05250000
      vertex -0.11700026 0.01446645 -0.05250000
      vertex -0.11388830 0.01612983 -0.05250000
    endloop
  endfacet
  facet normal -0.47139674 0.88192126 0.00000000
    outer loop
      vertex -0.11388830 0.01612983 0.05250000
      vertex -0.11388830 0.01612983 -0.05250000
      vertex -0.11700026 0.01446645 -0.05250000
    endloop
  endfacet
  facet normal -0.47139674 0.88192126 0.00000000
    outer loop
      vertex -0.11388830 0.01612983 0.05250000
      vertex -0.11700026 0.01446645 -0.05250000
      vertex -0.11700026 0.01446645 0.05250000
    endloop
  endfacet
  facet normal 0.00000000 0.00000000 1.00000000
    outer loop
      vertex 0.00000000 0.00000000 0.05250000
      vertex -0.11700026 0.01446645 0.05250000
      vertex -0.11972792 0.01222792 0.05250000
    endloop
  endfacet
  facet normal 0.00000000 0.00000000 -1.00000000
    outer loop
      vertex 0.00000000 0.00000000 -0.05250000
      vertex -0.11972792 0.01222792 -0.05250000
      vertex -0.11700026 0.01446645 -0.05250000
    endloop
  endfacet
  facet normal -0.63439328 0.77301045 0.00000000
    outer loop
      vertex -0.11700026 0.01446645 0.05250000
      vertex -0.11700026 0.01446645 -0.05250000
      vertex -0.11972792 0.01222792 -0.05250000
    endloop
  endfacet
  facet normal -0.63439328 0.77301045 0.00000000
    outer loop
      vertex -0.11700026 0.01446645 0.05250000
      vertex -0.11972792 0.01222792 -0.05250000
      vertex -0.11972792 0.01222792 0.05250000
    endloop
  endfacet
  facet normal 0.00000000 0.00000000 1.00000000
    outer loop
      vertex 0.00000000 0.00000000 0.05250000
      vertex -0.11972792 0.01222792 0.05250000
      vertex -0.12196645 0.00950026 0.05250000
    endloop
  endfacet
  facet normal 0.00000000 0.00000000 -1.00000000
    outer loop
      vertex 0.00000000 0.00000000 -0.05250000
      vertex -0.12196645 0.00950026 -0.05250000
      vertex -0.11972792 0.01222792 -0.05250000
    endloop
  endfacet
  facet normal -0.77301045 0.63439328 0.00000000
    outer loop
      vertex -0.11972792 0.01222792 0.05250000
      vertex -0.11972792 0.01222792 -0.05250000
      vertex -0.12196645 0.00950026 -0.05250000
    endloop
  endfacet
  facet normal -0.77301045 0.63439328 0.00000000
    outer loop
      vertex -0.11972792 0.01222792 0.05250000
      vertex -0.12196645 0.00950026 -0.05250000
      vertex -0.12196645 0.00950026 0.05250000
    endloop
  endfacet
  facet normal 0.00000000 0.00000000 1.00000000
    outer loop
      vertex 0.00000000 0.00000000 0.05250000
      vertex -0.12196645 0.00950026 0.05250000
      vertex -0.12362983 0.00638830 0.05250000
    endloop
  endfacet
  facet normal 0.00000000 0.00000000 -1.00000000
    outer loop
      vertex 0.00000000 0.00000000 -0.05250000
      vertex -0.12362983 0.00638830 -0.05250000
      vertex -0.12196645 0.00950026 -0.05250000
    endloop
  endfacet
  facet normal -0.88192126 0.47139674 0.00000000
    outer loop
      vertex -0.12196645 0.00950026 0.05250000
      vertex -0.12196645 0.00950026 -0.05250000
      vertex -0.12362983 0.00638830 -0.05250000
    endloop
  endfacet
  facet normal -0.88192126 0.47139674 0.00000000
    outer loop
      vertex -0.12196645 0.00950026 0.05250000
      vertex -0.12362983 0.00638830 -0.05250000
      vertex -0.12362983 0.00638830 0.05250000
    endloop
  endfacet
  facet normal 0.00000000 0.00000000 1.00000000
    outer loop
      vertex 0.00000000 0.00000000 0.05250000
      vertex -0.12362983 0.00638830 0.05250000
      vertex -0.12465414 0.00301163 0.05250000
    endloop
  endfacet
  facet normal 0.00000000 0.00000000 -1.00000000
    outer loop
      vertex 0.00000000 0.00000000 -0.05250000
      vertex -0.12465414 0.00301163 -0.05250000
      vertex -0.12362983 0.00638830 -0.05250000
    endloop
  endfacet
  facet normal -0.95694034 0.29028468 0.00000000
    outer loop
      vertex -0.12362983 0.00638830 0.05250000
      vertex -0.12362983 0.00638830 -0.05250000
      vertex -0.12465414 0.00301163 -0.05250000
    endloop
  endfacet
  facet normal -0.95694034 0.29028468 0.00000000
    outer loop
      vertex -0.12362983 0.00638830 0.05250000
      vertex -0.12465414 0.00301163 -0.05250000
      vertex -0.12465414 0.00301163 0.05250000
    endloop
  endfacet
  facet normal 0.00000000 0.00000000 1.00000000
    outer loop
      vertex 0.00000000 0.00000000 0.05250000
      vertex -0.12465414 0.00301163 0.05250000
      vertex -0.12500000 -0.00050000 0.05250000
    endloop
  endfacet
  facet normal -0.00000000 0.00000000 -1.00000000
    outer loop
      vertex 0.00000000 0.00000000 -0.05250000
      vertex -0.12500000 -0.00050000 -0.05250000
      vertex -0.12465414 0.00301163 -0.05250000
    endloop
  endfacet
  facet normal -0.99518473 0.09801714 0.00000000
    outer loop
      vertex -0.12465414 0.00301163 0.05250000
      vertex -0.12465414 0.00301163 -0.05250000
      vertex -0.12500000 -0.00050000 -0.05250000
    endloop
  endfacet
  facet normal -0.99518473 0.09801714 0.00000000
    outer loop
      vertex -0.12465414 0.00301163 0.05250000
      vertex -0.12500000 -0.00050000 -0.05250000
      vertex -0.12500000 -0.00050000 0.05250000
    endloop
  endfacet
  facet normal -0.00000000 0.00000000 -1.00000000
    outer loop
      vertex 0.00000000 0.00000000 0.05250000
      vertex -0.12500000 -0.00050000 0.05250000
      vertex -0.12500000 0.00050000 0.05250000
    endloop
  endfacet
  facet normal 0.00000000 0.00000000 1.00000000
    outer loop
      vertex 0.00000000 0.00000000 -0.05250000
      vertex -0.12500000 0.00050000 -0.05250000
      vertex -0.12500000 -0.00050000 -0.05250000
    endloop
  endfacet
  facet normal 1.00000000 0.00000000 0.00000000
    outer loop
      vertex -0.12500000 -0.00050000 0.05250000
      vertex -0.12500000 -0.00050000 -0.05250000
      vertex -0.12500000 0.00050000 -0.05250000
    endloop
  endfacet
  facet normal 1.00000000 -0.00000000 0.00000000
    outer loop
      vertex -0.12500000 -0.00050000 0.05250000
      vertex -0.12500000 0.00050000 -0.05250000
      vertex -0.12500000 0.00050000 0.05250000
    endloop
  endfacet
  facet normal 0.00000000 0.00000000 1.00000000
    outer loop
      vertex 0.00000000 0.00000000 0.05250000
      vertex -0.12500000 0.00050000 0.05250000
      vertex -0.12465414 -0.00301163 0.05250000
    endloop
  endfacet
  facet normal -0.00000000 0.00000000 -1.00000000
    outer loop
      vertex 0.00000000 0.00000000 -0.05250000
      vertex -0.12465414 -0.00301163 -0.05250000
      vertex -0.12500000 0.00050000 -0.05250000
    endloop
  endfacet
  facet normal -0.99518473 -0.09801714 -0.00000000
    outer loop
      vertex -0.12500000 0.00050000 0.05250000
      vertex -0.12500000 0.00050000 -0.05250000
      vertex -0.12465414 -0.00301163 -0.05250000
    endloop
  endfacet
  facet normal -0.99518473 -0.09801714 0.00000000
    outer loop
      vertex -0.12500000 0.00050000 0.05250000
      vertex -0.12465414 -0.00301163 -0.05250000
      vertex -0.12465414 -0.00301163 0.05250000
    endloop
  endfacet
  facet normal 0.00000000 0.00000000 1.00000000
    outer loop
      vertex 0.00000000 0.00000000 0.05250000
      vertex -0.12465414 -0.00301163 0.05250000
      vertex -0.12362983 -0.00638830 0.05250000
    endloop
  endfacet
  facet normal 0.00000000 0.00000000 -1.00000000
    outer loop
      vertex 0.00000000 0.00000000 -0.05250000
      vertex -0.12362983 -0.00638830 -0.05250000
      vertex -0.12465414 -0.00301163 -0.05250000
    endloop
  endfacet
  facet normal -0.95694034 -0.29028468 -0.00000000
    outer loop
      vertex -0.12465414 -0.00301163 0.05250000
      vertex -0.12465414 -0.00301163 -0.05250000
      vertex -0.12362983 -0.00638830 -0.05250000
    endloop
  endfacet
  facet normal -0.95694034 -0.29028468 0.00000000
    outer loop
      vertex -0.12465414 -0.00301163 0.05250000
      vertex -0.12362983 -0.00638830 -0.05250000
      vertex -0.12362983 -0.00638830 0.05250000
    endloop
  endfacet
  facet normal 0.00000000 0.00000000 1.00000000
    outer loop
      vertex 0.00000000 0.00000000 0.05250000
      vertex -0.12362983 -0.00638830 0.05250000
      vertex -0.12196645 -0.00950026 0.05250000
    endloop
  endfacet
  facet normal 0.00000000 0.00000000 -1.00000000
    outer loop
      vertex 0.00000000 0.00000000 -0.05250000
      vertex -0.12196645 -0.00950026 -0.05250000
      vertex -0.12362983 -0.00638830 -0.05250000
    endloop
  endfacet
  facet normal -0.88192126 -0.47139674 -0.00000000
    outer loop
      vertex -0.12362983 -0.00638830 0.05250000
      vertex -0.12362983 -0.00638830 -0.05250000
      vertex -0.12196645 -0.00950026 -0.05250000
    endloop
  endfacet
  facet normal -0.88192126 -0.47139674 0.00000000
    outer loop
      vertex -0.12362983 -0.00638830 0.05250000
      vertex -0.12196645 -0.00950026 -0.05250000
      vertex -0.12196645 -0.00950026 0.05250000
    endloop
  endfacet
  facet normal 0.00000000 0.00000000 1.00000000
    outer loop
      vertex 0.00000000 0.00000000 0.05250000
      vertex -0.12196645 -0.00950026 0.05250000
      vertex -0.11972792 -0.01222792 0.05250000
    endloop
  endfacet
  facet normal 0.00000000 0.00000000 -1.00000000
    outer loop
      vertex 0.00000000 0.00000000 -0.05250000
      vertex -0.11972792 -0.01222792 -0.05250000
      vertex -0.12196645 -0.00950026 -0.05250000
    endloop
  endfacet
  facet normal -0.77301045 -0.63439328 -0.00000000
    outer loop
      vertex -0.12196645 -0.00950026 0.05250000
      vertex -0.12196645 -0.00950026 -0.05250000
      vertex -0.11972792 -0.01222792 -0.05250000
    endloop
  endfacet
  facet normal -0.77301045 -0.63439328 0.00000000
    outer loop
      vertex -0.12196645 -0.00950026 0.05250000
      vertex -0.11972792 -0.01222792 -0.05250000
      vertex -0.11972792 -0.01222792 0.05250000
    endloop
  endfacet
  facet normal 0.00000000 0.00000000 1.00000000
    outer loop
      vertex 0.00000000 0.00000000 0.05250000
      vertex -0.11972792 -0.01222792 0.05250000
      vertex -0.11700026 -0.01446645 0.05250000
    endloop
  endfacet
  facet normal 0.00000000 0.00000000 -1.00000000
    outer loop
      vertex 0.00000000 0.00000000 -0.05250000
      vertex -0.11700026 -0.01446645 -0.05250000
      vertex -0.11972792 -0.01222792 -0.05250000
    endloop
  endfacet
  facet normal -0.63439328 -0.77301045 -0.00000000
    outer loop
      vertex -0.11972792 -0.01222792 0.05250000
      vertex -0.11972792 -0.01222792 -0.05250000
      vertex -0.11700026 -0.01446645 -0.05250000
    endloop
  endfacet
  facet normal -0.63439328 -0.77301045 0.00000000
    outer loop
      vertex -0.11972792 -0.01222792 0.05250000
      vertex -0.11700026 -0.01446645 -0.05250000
      vertex -0.11700026 -0.01446645 0.05250000
    endloop
  endfacet
  facet normal 0.00000000 0.00000000 1.00000000
    outer loop
      vertex 0.00000000 0.00000000 0.05250000
      vertex -0.11700026 -0.01446645 0.05250000
      vertex -0.11388830 -0.01612983 0.05250000
    endloop
  endfacet
  facet normal 0.00000000 0.00000000 -1.00000000
    outer loop
      vertex 0.00000000 0.00000000 -0.05250000
      vertex -0.11388830 -0.01612983 -0.05250000
      vertex -0.11700026 -0.01446645 -0.05250000
    endloop
  endfacet
  facet normal -0.47139674 -0.88192126 -0.00000000
    outer loop
      vertex -0.11700026 -0.01446645 0.05250000
      vertex -0.11700026 -0.01446645 -0.05250000
      vertex -0.11388830 -0.01612983 -0.05250000
    endloop
  endfacet
  facet normal -0.47139674 -0.88192126 0.00000000
    outer loop
      vertex -0.11700026 -0.01446645 0.05250000
      vertex -0.11388830 -0.01612983 -0.05250000
      vertex -0.11388830 -0.01612983 0.05250000
    endloop
  endfacet
  facet normal 0.00000000 0.00000000 1.00000000
    outer loop
      vertex 0.00000000 0.00000000 0.05250000
      vertex -0.11388830 -0.01612983 0.05250000
      vertex -0.11051163 -0.01715414 0.05250000
    endloop
  endfacet
  facet normal 0.00000000 0.00000000 -1.00000000
    outer loop
      vertex 0.00000000 0.00000000 -0.05250000
      vertex -0.11051163 -0.01715414 -0.05250000
      vertex -0.11388830 -0.01612983 -0.05250000
    endloop
  endfacet
  facet normal -0.29028468 -0.95694034 -0.00000000
    outer loop
      vertex -0.11388830 -0.01612983 0.05250000
      vertex -0.11388830 -0.01612983 -0.05250000
      vertex -0.11051163 -0.01715414 -0.05250000
    endloop
  endfacet
  facet normal -0.29028468 -0.95694034 0.00000000
    outer loop
      vertex -0.11388830 -0.01612983 0.05250000
      vertex -0.11051163 -0.01715414 -0.05250000
      vertex -0.11051163 -0.01715414 0.05250000
    endloop
  endfacet
  facet normal 0.00000000 0.00000000 1.00000000
    outer loop
      vertex 0.00000000 0.00000000 0.05250000
      vertex -0.11051163 -0.01715414 0.05250000
      vertex -0.10700000 -0.01750000 0.05250000
    endloop
  endfacet
  facet normal 0.00000000 0.00000000 -1.00000000
    outer loop
      vertex 0.00000000 0.00000000 -0.05250000
      vertex -0.10700000 -0.01750000 -0.05250000
      vertex -0.11051163 -0.01715414 -0.05250000
    endloop
  endfacet
  facet normal -0.09801714 -0.99518473 -0.00000000
    outer loop
      vertex -0.11051163 -0.01715414 0.05250000
      vertex -0.11051163 -0.01715414 -0.05250000
      vertex -0.10700000 -0.01750000 -0.05250000
    endloop
  endfacet
  facet normal -0.09801714 -0.99518473 0.00000000
    outer loop
      vertex -0.11051163 -0.01715414 0.05250000
      vertex -0.10700000 -0.01750000 -0.05250000
      vertex -0.10700000 -0.01750000 0.05250000
    endloop
  endfacet
  facet normal 0.00000000 0.00000000 1.00000000
    outer loop
      vertex 0.00000000 0.00000000 0.05250000
      vertex -0.10700000 -0.01750000 0.05250000
      vertex 0.10700000 -0.01750000 0.05250000
    endloop
  endfacet
  facet normal 0.00000000 -0.00000000 -1.00000000
    outer loop
      vertex 0.00000000 0.00000000 -0.05250000
      vertex 0.10700000 -0.01750000 -0.05250000
      vertex -0.10700000 -0.01750000 -0.05250000
    endloop
  endfacet
  facet normal 0.00000000 -1.00000000 0.00000000
    outer loop
      vertex -0.10700000 -0.01750000 0.05250000
      vertex -0.10700000 -0.01750000 -0.05250000
      vertex 0.10700000 -0.01750000 -0.05250000
    endloop
  endfacet
  facet normal 0.00000000 -1.00000000 0.00000000
    outer loop
      vertex -0.10700000 -0.01750000 0.05250000
      vertex 0.10700000 -0.01750000 -0.05250000
      vertex 0.10700000 -0.01750000 0.05250000
    endloop
  endfacet
  facet normal 0.00000000 0.00000000 1.00000000
    outer loop
      vertex 0.00000000 0.00000000 0.05250000
      vertex 0.10700000 -0.01750000 0.05250000
      vertex 0.11051163 -0.01715414 0.05250000
    endloop
  endfacet
  facet normal 0.00000000 0.00000000 -1.00000000
    outer loop
      vertex 0.00000000 0.00000000 -0.05250000
      vertex 0.11051163 -0.01715414 -0.05250000
      vertex 0.10700000 -0.01750000 -0.05250000
    endloop
  endfacet
  facet normal 0.09801714 -0.99518473 0.00000000
    outer loop
      vertex 0.10700000 -0.01750000 0.05250000
      vertex 0.10700000 -0.01750000 -0.05250000
      vertex 0.11051163 -0.01715414 -0.05250000
    endloop
  endfacet
  facet normal 0.09801714 -0.99518473 0.00000000
    outer loop
      vertex 0.10700000 -0.01750000 0.05250000
      vertex 0.11051163 -0.01715414 -0.05250000
      vertex 0.11051163 -0.01715414 0.05250000
    endloop
  endfacet
  facet normal 0.00000000 0.00000000 1.00000000
    outer loop
      vertex 0.00000000 0.00000000 0.05250000
      vertex 0.11051163 -0.01715414 0.05250000
      vertex 0.11388830 -0.01612983 0.05250000
    endloop
  endfacet
  facet normal 0.00000000 0.00000000 -1.00000000
    outer loop
      vertex 0.00000000 0.00000000 -0.05250000
      vertex 0.11388830 -0.01612983 -0.05250000
      vertex 0.11051163 -0.01715414 -0.05250000
    endloop
  endfacet
  facet normal 0.29028468 -0.95694034 0.00000000
    outer loop
      vertex 0.11051163 -0.01715414 0.05250000
      vertex 0.11051163 -0.01715414 -0.05250000
      vertex 0.11388830 -0.01612983 -0.05250000
    endloop
  endfacet
  facet normal 0.29028468 -0.95694034 0.00000000
    outer loop
      vertex 0.11051163 -0.01715414 0.05250000
      vertex 0.11388830 -0.01612983 -0.05250000
      vertex 0.11388830 -0.01612983 0.05250000
    endloop
  endfacet
  facet normal 0.00000000 0.00000000 1.00000000
    outer loop
      vertex 0.00000000 0.00000000 0.05250000
      vertex 0.11388830 -0.01612983 0.05250000
      vertex 0.11700026 -0.01446645 0.05250000
    endloop
  endfacet
  facet normal 0.00000000 0.00000000 -1.00000000
    outer loop
      vertex 0.00000000 0.00000000 -0.05250000
      vertex 0.11700026 -0.01446645 -0.05250000
      vertex 0.11388830 -0.01612983 -0.05250000
    endloop
  endfacet
  facet normal 0.47139674 -0.88192126 0.00000000
    outer loop
      vertex 0.11388830 -0.01612983 0.05250000
      vertex 0.11388830 -0.01612983 -0.05250000
      vertex 0.11700026 -0.01446645 -0.05250000
    endloop
  endfacet
  facet normal 0.47139674 -0.88192126 0.00000000
    outer loop
      vertex 0.11388830 -0.01612983 0.05250000
      vertex 0.11700026 -0.01446645 -0.05250000
      vertex 0.11700026 -0.01446645 0.05250000
    endloop
  endfacet
  facet normal 0.00000000 0.00000000 1.00000000
    outer loop
      vertex 0.00000000 0.00000000 0.05250000
      vertex 0.11700026 -0.01446645 0.05250000
      vertex 0.11972792 -0.01222792 0.05250000
    endloop
  endfacet
  facet normal 0.00000000 0.00000000 -1.00000000
    outer loop
      vertex 0.00000000 0.00000000 -0.05250000
      vertex 0.11972792 -0.01222792 -0.05250000
      vertex 0.11700026 -0.01446645 -0.05250000
    endloop
  endfacet
  facet normal 0.63439328 -0.77301045 0.00000000
    outer loop
      vertex 0.11700026 -0.01446645 0.05250000
      vertex 0.11700026 -0.01446645 -0.05250000
      vertex 0.11972792 -0.01222792 -0.05250000
    endloop
  endfacet
  facet normal 0.63439328 -0.77301045 0.00000000
    outer loop
      vertex 0.11700026 -0.01446645 0.05250000
      vertex 0.11972792 -0.01222792 -0.05250000
      vertex 0.11972792 -0.01222792 0.05250000
    endloop
  endfacet
  facet normal 0.00000000 0.00000000 1.00000000
    outer loop
      vertex 0.00000000 0.00000000 0.05250000
      vertex 0.11972792 -0.01222792 0.05250000
      vertex 0.12196645 -0.00950026 0.05250000
    endloop
  endfacet
  facet normal 0.00000000 0.00000000 -1.00000000
    outer loop
      vertex 0.00000000 0.00000000 -0.05250000
      vertex 0.12196645 -0.00950026 -0.05250000
      vertex 0.11972792 -0.01222792 -0.05250000
    endloop
  endfacet
  facet normal 0.77301045 -0.63439328 0.00000000
    outer loop
      vertex 0.11972792 -0.01222792 0.05250000
      vertex 0.11972792 -0.01222792 -0.05250000
      vertex 0.12196645 -0.00950026 -0.05250000
    endloop
  endfacet
  facet normal 0.77301045 -0.63439328 0.00000000
    outer loop
      vertex 0.11972792 -0.01222792 0.05250000
      vertex 0.12196645 -0.00950026 -0.05250000
      vertex 0.12196645 -0.00950026 0.05250000
    endloop
  endfacet
  facet normal 0.00000000 0.00000000 1.00000000
    outer loop
      vertex 0.00000000 0.00000000 0.05250000
      vertex 0.12196645 -0.00950026 0.05250000
      vertex 0.12362983 -0.00638830 0.05250000
    endloop
  endfacet
  facet normal 0.00000000 0.00000000 -1.00000000
    outer loop
      vertex 0.00000000 0.00000000 -0.05250000
      vertex 0.12362983 -0.00638830 -0.05250000
      vertex 0.12196645 -0.00950026 -0.05250000
    endloop
  endfacet
  facet normal 0.88192126 -0.47139674 0.00000000
    outer loop
      vertex 0.12196645 -0.00950026 0.05250000
      vertex 0.12196645 -0.00950026 -0.05250000
      vertex 0.12362983 -0.00638830 -0.05250000
    endloop
  endfacet
  facet normal 0.88192126 -0.47139674 0.00000000
    outer loop
      vertex 0.12196645 -0.00950026 0.05250000
      vertex 0.12362983 -0.00638830 -0.05250000
      vertex 0.12362983 -0.00638830 0.05250000
    endloop
  endfacet
  facet normal 0.00000000 0.00000000 1.00000000
    outer loop
      vertex 0.00000000 0.00000000 0.05250000
      vertex 0.12362983 -0.00638830 0.05250000
      vertex 0.12465414 -0.00301163 0.05250000
    endloop
  endfacet
  facet normal 0.00000000 0.00000000 -1.00000000
    outer loop
      vertex 0.00000000 0.00000000 -0.05250000
      vertex 0.12465414 -0.00301163 -0.05250000
      vertex 0.12362983 -0.00638830 -0.05250000
    endloop
  endfacet
  facet normal 0.95694034 -0.29028468 0.00000000
    outer loop
      vertex 0.12362983 -0.00638830 0.05250000
      vertex 0.12362983 -0.00638830 -0.05250000
      vertex 0.12465414 -0.00301163 -0.05250000
    endloop
  endfacet
  facet normal 0.95694034 -0.29028468 0.00000000
    outer loop
      vertex 0.12362983 -0.00638830 0.05250000
      vertex 0.12465414 -0.00301163 -0.05250000
      vertex 0.12465414 -0.00301163 0.05250000
    endloop
  endfacet
  facet normal -0.00000000 0.00000000 1.00000000
    outer loop
      vertex 0.00000000 0.00000000 0.05250000
      vertex 0.12465414 -0.00301163 0.05250000
      vertex 0.12500000 0.00050000 0.05250000
    endloop
  endfacet
  facet normal 0.00000000 0.00000000 -1.00000000
    outer loop
      vertex 0.00000000 0.00000000 -0.05250000
      vertex 0.12500000 0.00050000 -0.05250000
      vertex 0.12465414 -0.00301163 -0.05250000
    endloop
  endfacet
  facet normal 0.99518473 -0.09801714 0.00000000
    outer loop
      vertex 0.12465414 -0.00301163 0.05250000
      vertex 0.12465414 -0.00301163 -0.05250000
      vertex 0.12500000 0.00050000 -0.05250000
    endloop
  endfacet
  facet normal 0.99518473 -0.09801714 0.00000000
    outer loop
      vertex 0.12465414 -0.00301163 0.05250000
      vertex 0.12500000 0.00050000 -0.05250000
      vertex 0.12500000 0.00050000 0.05250000
    endloop
  endfacet
  facet normal 0.00000000 0.00000000 -1.00000000
    outer loop
      vertex 0.00000000 0.00000000 0.05250000
      vertex 0.12500000 0.00050000 0.05250000
      vertex 0.12500000 -0.00050000 0.05250000
    endloop
  endfacet
  facet normal -0.00000000 0.00000000 1.00000000
    outer loop
      vertex 0.00000000 0.00000000 -0.05250000
      vertex 0.12500000 -0.00050000 -0.05250000
      vertex 0.12500000 0.00050000 -0.05250000
    endloop
  endfacet
  facet normal -1.00000000 0.00000000 -0.00000000
    outer loop
      vertex 0.12500000 0.00050000 0.05250000
      vertex 0.12500000 0.00050000 -0.05250000
      vertex 0.12500000 -0.00050000 -0.05250000
    endloop
  endfacet
  facet normal -1.00000000 -0.00000000 0.00000000
    outer loop
      vertex 0.12500000 0.00050000 0.05250000
      vertex 0.12500000 -0.00050000 -0.05250000
      vertex 0.12500000 -0.00050000 0.05250000
    endloop
  endfacet
endsolid side_pod
