solid top_deck
  facet normal 0.00000000 0.00000000 1.00000000
    outer loop
      vertex 0.01500000 0.00000000 0.23750000
      vertex 0.18500000 0.05500000 0.23750000
      vertex 0.18432748 0.06182816 0.23750000
    endloop
  endfacet
  facet normal 0.00000000 0.00000000 -1.00000000
    outer loop
      vertex 0.01500000 0.00000000 0.19250000
      vertex 0.18432748 0.06182816 0.19250000
      vertex 0.18500000 0.05500000 0.19250000
    endloop
  endfacet
  facet normal 0.99518473 0.09801714 0.00000000
    outer loop
      vertex 0.18500000 0.05500000 0.23750000
      vertex 0.18500000 0.05500000 0.19250000
      vertex 0.18432748 0.06182816 0.19250000
    endloop
  endfacet
  facet normal 0.99518473 0.09801714 0.00000000
    outer loop
      vertex 0.18500000 0.05500000 0.23750000
      vertex 0.18432748 0.06182816 0.19250000
      vertex 0.18432748 0.06182816 0.23750000
    endloop
  endfacet
  facet normal 0.00000000 0.00000000 1.00000000
    outer loop
      vertex 0.01500000 0.00000000 0.23750000
      vertex 0.18432748 0.06182816 0.23750000
      vertex 0.18233578 0.06839392 0.23750000
    endloop
  endfacet
  facet normal 0.00000000 0.00000000 -1.00000000
    outer loop
      vertex 0.01500000 0.00000000 0.19250000
      vertex 0.18233578 0.06839392 0.19250000
      vertex 0.18432748 0.06182816 0.19250000
    endloop
  endfacet
  facet normal 0.95694034 0.29028468 0.00000000
    outer loop
      vertex 0.18432748 0.06182816 0.23750000
      vertex 0.18432748 0.06182816 0.19250000
      vertex 0.18233578 0.06839392 0.19250000
    endloop
  endfacet
  facet normal 0.95694034 0.29028468 0.00000000
    outer loop
      vertex 0.18432748 0.06182816 0.23750000
      vertex 0.18233578 0.06839392 0.19250000
      vertex 0.18233578 0.06839392 0.23750000
    endloop
  endfacet
  facet normal 0.00000000 0.00000000 1.00000000
    outer loop
      vertex 0.01500000 0.00000000 0.23750000
      vertex 0.18233578 0.06839392 0.23750000
      vertex 0.17910144 0.07444496 0.23750000
    endloop
  endfacet
  facet normal 0.00000000 0.00000000 -1.00000000
    outer loop
      vertex 0.01500000 0.00000000 0.19250000
      vertex 0.17910144 0.07444496 0.19250000
      vertex 0.18233578 0.06839392 0.19250000
    endloop
  endfacet
  facet normal 0.88192126 0.47139674 0.00000000
    outer loop
      vertex 0.18233578 0.06839392 0.23750000
      vertex 0.18233578 0.06839392 0.19250000
      vertex 0.17910144 0.07444496 0.19250000
    endloop
  endfacet
  facet normal 0.88192126 0.47139674 0.00000000
    outer loop
      vertex 0.18233578 0.06839392 0.23750000
      vertex 0.17910144 0.07444496 0.19250000
      vertex 0.17910144 0.07444496 0.23750000
    endloop
  endfacet
  facet normal 0.00000000 0.00000000 1.00000000
    outer loop
      vertex 0.01500000 0.00000000 0.23750000
      vertex 0.17910144 0.07444496 0.23750000
      vertex 0.17474874 0.07974874 0.23750000
    endloop
  endfacet
  facet normal 0.00000000 0.00000000 -1.00000000
    outer loop
      vertex 0.01500000 0.00000000 0.19250000
      vertex 0.17474874 0.07974874 0.19250000
      vertex 0.17910144 0.07444496 0.19250000
    endloop
  endfacet
  facet normal 0.77301045 0.63439328 0.00000000
    outer loop
      vertex 0.17910144 0.07444496 0.23750000
      vertex 0.17910144 0.07444496 0.19250000
      vertex 0.17474874 0.07974874 0.19250000
    endloop
  endfacet
  facet normal 0.77301045 0.63439328 0.00000000
    outer loop
      vertex 0.17910144 0.07444496 0.23750000
      vertex 0.17474874 0.07974874 0.19250000
      vertex 0.17474874 0.07974874 0.23750000
    endloop
  endfacet
  facet normal 0.00000000 0.00000000 1.00000000
    outer loop
      vertex 0.01500000 0.00000000 0.23750000
      vertex 0.17474874 0.07974874 0.23750000
      vertex 0.16944496 0.08410144 0.23750000
    endloop
  endfacet
  facet normal 0.00000000 0.00000000 -1.00000000
    outer loop
      vertex 0.01500000 0.00000000 0.19250000
      vertex 0.16944496 0.08410144 0.19250000
      vertex 0.17474874 0.07974874 0.19250000
    endloop
  endfacet
  facet normal 0.63439328 0.77301045 0.00000000
    outer loop
      vertex 0.17474874 0.07974874 0.23750000
      vertex 0.17474874 0.07974874 0.19250000
      vertex 0.16944496 0.08410144 0.19250000
    endloop
  endfacet
  facet normal 0.63439328 0.77301045 0.00000000
    outer loop
      vertex 0.17474874 0.07974874 0.23750000
      vertex 0.16944496 0.08410144 0.19250000
      vertex 0.16944496 0.08410144 0.23750000
    endloop
  endfacet
  facet normal 0.00000000 0.00000000 1.00000000
    outer loop
      vertex 0.01500000 0.00000000 0.23750000
      vertex 0.16944496 0.08410144 0.23750000
      vertex 0.16339392 0.08733578 0.23750000
    endloop
  endfacet
  facet normal 0.00000000 0.00000000 -1.00000000
    outer loop
      vertex 0.01500000 0.00000000 0.19250000
      vertex 0.16339392 0.08733578 0.19250000
      vertex 0.16944496 0.08410144 0.19250000
    endloop
  endfacet
  facet normal 0.47139674 0.88192126 0.00000000
    outer loop
      vertex 0.16944496 0.08410144 0.23750000
      vertex 0.16944496 0.08410144 0.19250000
      vertex 0.16339392 0.08733578 0.19250000
    endloop
  endfacet
  facet normal 0.47139674 0.88192126 0.00000000
    outer loop
      vertex 0.16944496 0.08410144 0.23750000
      vertex 0.16339392 0.08733578 0.19250000
      vertex 0.16339392 0.08733578 0.23750000
    endloop
  endfacet
  facet normal 0.00000000 0.00000000 1.00000000
    outer loop
      vertex 0.01500000 0.00000000 0.23750000
      vertex 0.16339392 0.08733578 0.23750000
      vertex 0.15682816 0.08932748 0.23750000
    endloop
  endfacet
  facet normal 0.00000000 0.00000000 -1.00000000
    outer loop
      vertex 0.01500000 0.00000000 0.19250000
      vertex 0.15682816 0.08932748 0.19250000
      vertex 0.16339392 0.08733578 0.19250000
    endloop
  endfacet
  facet normal 0.29028468 0.95694034 0.00000000
    outer loop
      vertex 0.16339392 0.08733578 0.23750000
      vertex 0.16339392 0.08733578 0.19250000
      vertex 0.15682816 0.08932748 0.19250000
    endloop
  endfacet
  facet normal 0.29028468 0.95694034 0.00000000
    outer loop
      vertex 0.16339392 0.08733578 0.23750000
      vertex 0.15682816 0.08932748 0.19250000
      vertex 0.15682816 0.08932748 0.23750000
    endloop
  endfacet
  facet normal 0.00000000 0.00000000 1.00000000
    outer loop
      vertex 0.01500000 0.00000000 0.23750000
      vertex 0.15682816 0.08932748 0.23750000
      vertex 0.15000000 0.09000000 0.23750000
    endloop
  endfacet
  facet normal 0.00000000 0.00000000 -1.00000000
    outer loop
      vertex 0.01500000 0.00000000 0.19250000
      vertex 0.15000000 0.09000000 0.19250000
      vertex 0.15682816 0.08932748 0.19250000
    endloop
  endfacet
  facet normal 0.09801714 0.99518473 0.00000000
    outer loop
      vertex 0.15682816 0.08932748 0.23750000
      vertex 0.15682816 0.08932748 0.19250000
      vertex 0.15000000 0.09000000 0.19250000
    endloop
  endfacet
  facet normal 0.09801714 0.99518473 0.00000000
    outer loop
      vertex 0.15682816 0.08932748 0.23750000
      vertex 0.15000000 0.09000000 0.19250000
      vertex 0.15000000 0.09000000 0.23750000
    endloop
  endfacet
  facet normal 0.00000000 -0.00000000 1.00000000
    outer loop
      vertex 0.01500000 0.00000000 0.23750000
      vertex 0.15000000 0.09000000 0.23750000
      vertex -0.12000000 0.09000000 0.23750000
    endloop
  endfacet
  facet normal 0.00000000 0.00000000 -1.00000000
    outer loop
      vertex 0.01500000 0.00000000 0.19250000
      vertex -0.12000000 0.09000000 0.19250000
      vertex 0.15000000 0.09000000 0.19250000
    endloop
  endfacet
  facet normal 0.00000000 1.00000000 0.00000000
    outer loop
      vertex 0.15000000 0.09000000 0.23750000
      vertex 0.15000000 0.09000000 0.19250000
      vertex -0.12000000 0.09000000 0.19250000
    endloop
  endfacet
  facet normal 0.00000000 1.00000000 0.00000000
    outer loop
      vertex 0.15000000 0.09000000 0.23750000
      vertex -0.12000000 0.09000000 0.19250000
      vertex -0.12000000 0.09000000 0.23750000
    endloop
  endfacet
  facet normal 0.00000000 0.00000000 1.00000000
    outer loop
      vertex 0.01500000 0.00000000 0.23750000
      vertex -0.12000000 0.09000000 0.23750000
      vertex -0.12682816 0.08932748 0.23750000
    endloop
  endfacet
  facet normal 0.00000000 0.00000000 -1.00000000
    outer loop
      vertex 0.01500000 0.00000000 0.19250000
      vertex -0.12682816 0.08932748 0.19250000
      vertex -0.12000000 0.09000000 0.19250000
    endloop
  endfacet
  facet normal -0.09801714 0.99518473 0.00000000
    outer loop
      vertex -0.12000000 0.09000000 0.23750000
      vertex -0.12000000 0.09000000 0.19250000
      vertex -0.12682816 0.08932748 0.19250000
    endloop
  endfacet
  facet normal -0.09801714 0.99518473 0.00000000
    outer loop
      vertex -0.12000000 0.09000000 0.23750000
      vertex -0.12682816 0.08932748 0.19250000
      vertex -0.12682816 0.08932748 0.23750000
    endloop
  endfacet
  facet normal 0.00000000 0.00000000 1.00000000
    outer loop
      vertex 0.01500000 0.00000000 0.23750000
      vertex -0.12682816 0.08932748 0.23750000
      vertex -0.13339392 0.08733578 0.23750000
    endloop
  endfacet
  facet normal 0.00000000 0.00000000 -1.00000000
    outer loop
      vertex 0.01500000 0.00000000 0.19250000
      vertex -0.13339392 0.08733578 0.19250000
      vertex -0.12682816 0.08932748 0.19250000
    endloop
  endfacet
  facet normal -0.29028468 0.95694034 0.00000000
    outer loop
      vertex -0.12682816 0.08932748 0.23750000
      vertex -0.12682816 0.08932748 0.19250000
      vertex -0.13339392 0.08733578 0.19250000
    endloop
  endfacet
  facet normal -0.29028468 0.95694034 0.00000000
    outer loop
      vertex -0.12682816 0.08932748 0.23750000
      vertex -0.13339392 0.08733578 0.19250000
      vertex -0.13339392 0.08733578 0.23750000
    endloop
  endfacet
  facet normal 0.00000000 0.00000000 1.00000000
    outer loop
      vertex 0.01500000 0.00000000 0.23750000
      vertex -0.13339392 0.08733578 0.23750000
      vertex -0.13944496 0.08410144 0.23750000
    endloop
  endfacet
  facet normal 0.00000000 0.00000000 -1.00000000
    outer loop
      vertex 0.01500000 0.00000000 0.19250000
      vertex -0.13944496 0.08410144 0.19250000
      vertex -0.13339392 0.08733578 0.19250000
    endloop
  endfacet
  facet normal -0.47139674 0.88192126 0.00000000
    outer loop
      vertex -0.13339392 0.08733578 0.23750000
      vertex -0.13339392 0.08733578 0.19250000
      vertex -0.13944496 0.08410144 0.19250000
    endloop
  endfacet
  facet normal -0.47139674 0.88192126 0.00000000
    outer loop
      vertex -0.13339392 0.08733578 0.23750000
      vertex -0.13944496 0.08410144 0.19250000
      vertex -0.13944496 0.08410144 0.23750000
    endloop
  endfacet
  facet normal 0.00000000 0.00000000 1.00000000
    outer loop
      vertex 0.01500000 0.00000000 0.23750000
      vertex -0.13944496 0.08410144 0.23750000
      vertex -0.14474874 0.07974874 0.23750000
    endloop
  endfacet
  facet normal 0.00000000 0.00000000 -1.00000000
    outer loop
      vertex 0.01500000 0.00000000 0.19250000
      vertex -0.14474874 0.07974874 0.19250000
      vertex -0.13944496 0.08410144 0.19250000
    endloop
  endfacet
  facet normal -0.63439328 0.77301045 0.00000000
    outer loop
      vertex -0.13944496 0.08410144 0.23750000
      vertex -0.13944496 0.08410144 0.19250000
      vertex -0.14474874 0.07974874 0.19250000
    endloop
  endfacet
  facet normal -0.63439328 0.77301045 0.00000000
    outer loop
      vertex -0.13944496 0.08410144 0.23750000
      vertex -0.14474874 0.07974874 0.19250000
      vertex -0.14474874 0.07974874 0.23750000
    endloop
  endfacet
  facet normal 0.00000000 0.00000000 1.00000000
    outer loop
      vertex 0.01500000 0.00000000 0.23750000
      vertex -0.14474874 0.07974874 0.23750000
      vertex -0.14910144 0.07444496 0.23750000
    endloop
  endfacet
  facet normal 0.00000000 0.00000000 -1.00000000
    outer loop
      vertex 0.01500000 0.00000000 0.19250000
      vertex -0.14910144 0.07444496 0.19250000
      vertex -0.14474874 0.07974874 0.19250000
    endloop
  endfacet
  facet normal -0.77301045 0.63439328 0.00000000
    outer loop
      vertex -0.14474874 0.07974874 0.23750000
      vertex -0.14474874 0.07974874 0.19250000
      vertex -0.14910144 0.07444496 0.19250000
    endloop
  endfacet
  facet normal -0.77301045 0.63439328 0.00000000
    outer loop
      vertex -0.14474874 0.07974874 0.23750000
      vertex -0.14910144 0.07444496 0.19250000
      vertex -0.14910144 0.07444496 0.23750000
    endloop
  endfacet
  facet normal 0.00000000 0.00000000 1.00000000
    outer loop
      vertex 0.01500000 0.00000000 0.23750000
      vertex -0.14910144 0.07444496 0.23750000
      vertex -0.15233578 0.06839392 0.23750000
    endloop
  endfacet
  facet normal 0.00000000 0.00000000 -1.00000000
    outer loop
      vertex 0.01500000 0.00000000 0.19250000
      vertex -0.15233578 0.06839392 0.19250000
      vertex -0.14910144 0.07444496 0.19250000
    endloop
  endfacet
  facet normal -0.88192126 0.47139674 0.00000000
    outer loop
      vertex -0.14910144 0.07444496 0.23750000
      vertex -0.14910144 0.07444496 0.19250000
      vertex -0.15233578 0.06839392 0.19250000
    endloop
  endfacet
  facet normal -0.88192126 0.47139674 0.00000000
    outer loop
      vertex -0.14910144 0.07444496 0.23750000
      vertex -0.15233578 0.06839392 0.19250000
      vertex -0.15233578 0.06839392 0.23750000
    endloop
  endfacet
  facet normal 0.00000000 0.00000000 1.00000000
    outer loop
      vertex 0.01500000 0.00000000 0.23750000
      vertex -0.15233578 0.06839392 0.23750000
      vertex -0.15432748 0.06182816 0.23750000
    endloop
  endfacet
  facet normal 0.00000000 0.00000000 -1.00000000
    outer loop
      vertex 0.01500000 0.00000000 0.19250000
      vertex -0.15432748 0.06182816 0.19250000
      vertex -0.15233578 0.06839392 0.19250000
    endloop
  endfacet
  facet normal -0.95694034 0.29028468 0.00000000
    outer loop
      vertex -0.15233578 0.06839392 0.23750000
      vertex -0.15233578 0.06839392 0.19250000
      vertex -0.15432748 0.06182816 0.19250000
    endloop
  endfacet
  facet normal -0.95694034 0.29028468 0.00000000
    outer loop
      vertex -0.15233578 0.06839392 0.23750000
      vertex -0.15432748 0.06182816 0.19250000
      vertex -0.15432748 0.06182816 0.23750000
    endloop
  endfacet
  facet normal 0.00000000 0.00000000 1.00000000
    outer loop
      vertex 0.01500000 0.00000000 0.23750000
      vertex -0.15432748 0.06182816 0.23750000
      vertex -0.15500000 0.05500000 0.23750000
    endloop
  endfacet
  facet normal 0.00000000 0.00000000 -1.00000000
    outer loop
      vertex 0.01500000 0.00000000 0.19250000
      vertex -0.15500000 0.05500000 0.19250000
      vertex -0.15432748 0.06182816 0.19250000
    endloop
  endfacet
  facet normal -0.99518473 0.09801714 0.00000000
    outer loop
      vertex -0.15432748 0.06182816 0.23750000
      vertex -0.15432748 0.06182816 0.19250000
      vertex -0.15500000 0.05500000 0.19250000
    endloop
  endfacet
  facet normal -0.99518473 0.09801714 0.00000000
    outer loop
      vertex -0.15432748 0.06182816 0.23750000
      vertex -0.15500000 0.05500000 0.19250000
      vertex -0.15500000 0.05500000 0.23750000
    endloop
  endfacet
  facet normal 0.00000000 0.00000000 1.00000000
    outer loop
      vertex 0.01500000 0.00000000 0.23750000
      vertex -0.15500000 0.05500000 0.23750000
      vertex -0.15500000 -0.05500000 0.23750000
    endloop
  endfacet
  facet normal -0.00000000 0.00000000 -1.00000000
    outer loop
      vertex 0.01500000 0.00000000 0.19250000
      vertex -0.15500000 -0.05500000 0.19250000
      vertex -0.15500000 0.05500000 0.19250000
    endloop
  endfacet
  facet normal -1.00000000 0.00000000 -0.00000000
    outer loop
      vertex -0.15500000 0.05500000 0.23750000
      vertex -0.15500000 0.05500000 0.19250000
      vertex -0.15500000 -0.05500000 0.19250000
    endloop
  endfacet
  facet normal -1.00000000 -0.00000000 0.00000000
    outer loop
      vertex -0.15500000 0.05500000 0.23750000
      vertex -0.15500000 -0.05500000 0.19250000
      vertex -0.15500000 -0.05500000 0.23750000
    endloop
  endfacet
  facet normal 0.00000000 0.00000000 1.00000000
    outer loop
      vertex 0.01500000 0.00000000 0.23750000
      vertex -0.15500000 -0.05500000 0.23750000
      vertex -0.15432748 -0.06182816 0.23750000
    endloop
  endfacet
  facet normal 0.00000000 0.00000000 -1.00000000
    outer loop
      vertex 0.01500000 0.00000000 0.19250000
      vertex -0.15432748 -0.06182816 0.19250000
      vertex -0.15500000 -0.05500000 0.19250000
    endloop
  endfacet
  facet normal -0.99518473 -0.09801714 -0.00000000
    outer loop
      vertex -0.15500000 -0.05500000 0.23750000
      vertex -0.15500000 -0.05500000 0.19250000
      vertex -0.15432748 -0.06182816 0.19250000
    endloop
  endfacet
  facet normal -0.99518473 -0.09801714 0.00000000
    outer loop
      vertex -0.15500000 -0.05500000 0.23750000
      vertex -0.15432748 -0.06182816 0.19250000
      vertex -0.15432748 -0.06182816 0.23750000
    endloop
  endfacet
  facet normal 0.00000000 0.00000000 1.00000000
    outer loop
      vertex 0.01500000 0.00000000 0.23750000
      vertex -0.15432748 -0.06182816 0.23750000
      vertex -0.15233578 -0.06839392 0.23750000
    endloop
  endfacet
  facet normal 0.00000000 0.00000000 -1.00000000
    outer loop
      vertex 0.01500000 0.00000000 0.19250000
      vertex -0.15233578 -0.06839392 0.19250000
      vertex -0.15432748 -0.06182816 0.19250000
    endloop
  endfacet
  facet normal -0.95694034 -0.29028468 -0.00000000
    outer loop
      vertex -0.15432748 -0.06182816 0.23750000
      vertex -0.15432748 -0.06182816 0.19250000
      vertex -0.15233578 -0.06839392 0.19250000
    endloop
  endfacet
  facet normal -0.95694034 -0.29028468 0.00000000
    outer loop
      vertex -0.15432748 -0.06182816 0.23750000
      vertex -0.15233578 -0.06839392 0.19250000
      vertex -0.15233578 -0.06839392 0.23750000
    endloop
  endfacet
  facet normal 0.00000000 0.00000000 1.00000000
    outer loop
      vertex 0.01500000 0.00000000 0.23750000
      vertex -0.15233578 -0.06839392 0.23750000
      vertex -0.14910144 -0.07444496 0.23750000
    endloop
  endfacet
  facet normal 0.00000000 0.00000000 -1.00000000
    outer loop
      vertex 0.01500000 0.00000000 0.19250000
      vertex -0.14910144 -0.07444496 0.19250000
      vertex -0.15233578 -0.06839392 0.19250000
    endloop
  endfacet
  facet normal -0.88192126 -0.47139674 -0.00000000
    outer loop
      vertex -0.15233578 -0.06839392 0.23750000
      vertex -0.15233578 -0.06839392 0.19250000
      vertex -0.14910144 -0.07444496 0.19250000
    endloop
  endfacet
  facet normal -0.88192126 -0.47139674 0.00000000
    outer loop
      vertex -0.15233578 -0.06839392 0.23750000
      vertex -0.14910144 -0.07444496 0.19250000
      vertex -0.14910144 -0.07444496 0.23750000
    endloop
  endfacet
  facet normal 0.00000000 0.00000000 1.00000000
    outer loop
      vertex 0.01500000 0.00000000 0.23750000
      vertex -0.14910144 -0.07444496 0.23750000
      vertex -0.14474874 -0.07974874 0.23750000
    endloop
  endfacet
  facet normal 0.00000000 0.00000000 -1.00000000
    outer loop
      vertex 0.01500000 0.00000000 0.19250000
      vertex -0.14474874 -0.07974874 0.19250000
      vertex -0.14910144 -0.07444496 0.19250000
    endloop
  endfacet
  facet normal -0.77301045 -0.63439328 -0.00000000
    outer loop
      vertex -0.14910144 -0.07444496 0.23750000
      vertex -0.14910144 -0.07444496 0.19250000
      vertex -0.14474874 -0.07974874 0.19250000
    endloop
  endfacet
  facet normal -0.77301045 -0.63439328 0.00000000
    outer loop
      vertex -0.14910144 -0.07444496 0.23750000
      vertex -0.14474874 -0.07974874 0.19250000
      vertex -0.14474874 -0.07974874 0.23750000
    endloop
  endfacet
  facet normal 0.00000000 0.00000000 1.00000000
    outer loop
      vertex 0.01500000 0.00000000 0.23750000
      vertex -0.14474874 -0.07974874 0.23750000
      vertex -0.13944496 -0.08410144 0.23750000
    endloop
  endfacet
  facet normal 0.00000000 0.00000000 -1.00000000
    outer loop
      vertex 0.01500000 0.00000000 0.19250000
      vertex -0.13944496 -0.08410144 0.19250000
      vertex -0.14474874 -0.07974874 0.19250000
    endloop
  endfacet
  facet normal -0.63439328 -0.77301045 -0.00000000
    outer loop
      vertex -0.14474874 -0.07974874 0.23750000
      vertex -0.14474874 -0.07974874 0.19250000
      vertex -0.13944496 -0.08410144 0.19250000
    endloop
  endfacet
  facet normal -0.63439328 -0.77301045 0.00000000
    outer loop
      vertex -0.14474874 -0.07974874 0.23750000
      vertex -0.13944496 -0.08410144 0.19250000
      vertex -0.13944496 -0.08410144 0.23750000
    endloop
  endfacet
  facet normal 0.00000000 0.00000000 1.00000000
    outer loop
      vertex 0.01500000 0.00000000 0.23750000
      vertex -0.13944496 -0.08410144 0.23750000
      vertex -0.13339392 -0.08733578 0.23750000
    endloop
  endfacet
  facet normal 0.00000000 0.00000000 -1.00000000
    outer loop
      vertex 0.01500000 0.00000000 0.19250000
      vertex -0.13339392 -0.08733578 0.19250000
      vertex -0.13944496 -0.08410144 0.19250000
    endloop
  endfacet
  facet normal -0.47139674 -0.88192126 -0.00000000
    outer loop
      vertex -0.13944496 -0.08410144 0.23750000
      vertex -0.13944496 -0.08410144 0.19250000
      vertex -0.13339392 -0.08733578 0.19250000
    endloop
  endfacet
  facet normal -0.47139674 -0.88192126 0.00000000
    outer loop
      vertex -0.13944496 -0.08410144 0.23750000
      vertex -0.13339392 -0.08733578 0.19250000
      vertex -0.13339392 -0.08733578 0.23750000
    endloop
  endfacet
  facet normal 0.00000000 0.00000000 1.00000000
    outer loop
      vertex 0.01500000 0.00000000 0.23750000
      vertex -0.13339392 -0.08733578 0.23750000
      vertex -0.12682816 -0.08932748 0.23750000
    endloop
  endfacet
  facet normal 0.00000000 0.00000000 -1.00000000
    outer loop
      vertex 0.01500000 0.00000000 0.19250000
      vertex -0.12682816 -0.08932748 0.19250000
      vertex -0.13339392 -0.08733578 0.19250000
    endloop
  endfacet
  facet normal -0.29028468 -0.95694034 -0.00000000
    outer loop
      vertex -0.13339392 -0.08733578 0.23750000
      vertex -0.13339392 -0.08733578 0.19250000
      vertex -0.12682816 -0.08932748 0.19250000
    endloop
  endfacet
  facet normal -0.29028468 -0.95694034 0.00000000
    outer loop
      vertex -0.13339392 -0.08733578 0.23750000
      vertex -0.12682816 -0.08932748 0.19250000
      vertex -0.12682816 -0.08932748 0.23750000
    endloop
  endfacet
  facet normal 0.00000000 0.00000000 1.00000000
    outer loop
      vertex 0.01500000 0.00000000 0.23750000
      vertex -0.12682816 -0.08932748 0.23750000
      vertex -0.12000000 -0.09000000 0.23750000
    endloop
  endfacet
  facet normal 0.00000000 0.00000000 -1.00000000
    outer loop
      vertex 0.01500000 0.00000000 0.19250000
      vertex -0.12000000 -0.09000000 0.19250000
      vertex -0.12682816 -0.08932748 0.19250000
    endloop
  endfacet
  facet normal -0.09801714 -0.99518473 -0.00000000
    outer loop
      vertex -0.12682816 -0.08932748 0.23750000
      vertex -0.12682816 -0.08932748 0.19250000
      vertex -0.12000000 -0.09000000 0.19250000
    endloop
  endfacet
  facet normal -0.09801714 -0.99518473 0.00000000
    outer loop
      vertex -0.12682816 -0.08932748 0.23750000
      vertex -0.12000000 -0.09000000 0.19250000
      vertex -0.12000000 -0.09000000 0.23750000
    endloop
  endfacet
  facet normal 0.00000000 0.00000000 1.00000000
    outer loop
      vertex 0.01500000 0.00000000 0.23750000
      vertex -0.12000000 -0.09000000 0.23750000
      vertex 0.15000000 -0.09000000 0.23750000
    endloop
  endfacet
  facet normal 0.00000000 -0.00000000 -1.00000000
    outer loop
      vertex 0.01500000 0.00000000 0.19250000
      vertex 0.15000000 -0.09000000 0.19250000
      vertex -0.12000000 -0.09000000 0.19250000
    endloop
  endfacet
  facet normal 0.00000000 -1.00000000 0.00000000
    outer loop
      vertex -0.12000000 -0.09000000 0.23750000
      vertex -0.12000000 -0.09000000 0.19250000
      vertex 0.15000000 -0.09000000 0.19250000
    endloop
  endfacet
  facet normal 0.00000000 -1.00000000 0.00000000
    outer loop
      vertex -0.12000000 -0.09000000 0.23750000
      vertex 0.15000000 -0.09000000 0.19250000
      vertex 0.15000000 -0.09000000 0.23750000
    endloop
  endfacet
  facet normal 0.00000000 0.00000000 1.00000000
    outer loop
      vertex 0.01500000 0.00000000 0.23750000
      vertex 0.15000000 -0.09000000 0.23750000
      vertex 0.15682816 -0.08932748 0.23750000
    endloop
  endfacet
  facet normal 0.00000000 0.00000000 -1.00000000
    outer loop
      vertex 0.01500000 0.00000000 0.19250000
      vertex 0.15682816 -0.08932748 0.19250000
      vertex 0.15000000 -0.09000000 0.19250000
    endloop
  endfacet
  facet normal 0.09801714 -0.99518473 0.00000000
    outer loop
      vertex 0.15000000 -0.09000000 0.23750000
      vertex 0.15000000 -0.09000000 0.19250000
      vertex 0.15682816 -0.08932748 0.19250000
    endloop
  endfacet
  facet normal 0.09801714 -0.99518473 0.00000000
    outer loop
      vertex 0.15000000 -0.09000000 0.23750000
      vertex 0.15682816 -0.08932748 0.19250000
      vertex 0.15682816 -0.08932748 0.23750000
    endloop
  endfacet
  facet normal 0.00000000 0.00000000 1.00000000
    outer loop
      vertex 0.01500000 0.00000000 0.23750000
      vertex 0.15682816 -0.08932748 0.23750000
      vertex 0.16339392 -0.08733578 0.23750000
    endloop
  endfacet
  facet normal 0.00000000 0.00000000 -1.00000000
    outer loop
      vertex 0.01500000 0.00000000 0.19250000
      vertex 0.16339392 -0.08733578 0.19250000
      vertex 0.15682816 -0.08932748 0.19250000
    endloop
  endfacet
  facet normal 0.29028468 -0.95694034 0.00000000
    outer loop
      vertex 0.15682816 -0.08932748 0.23750000
      vertex 0.15682816 -0.08932748 0.19250000
      vertex 0.16339392 -0.08733578 0.19250000
    endloop
  endfacet
  facet normal 0.29028468 -0.95694034 0.00000000
    outer loop
      vertex 0.15682816 -0.08932748 0.23750000
      vertex 0.16339392 -0.08733578 0.19250000
      vertex 0.16339392 -0.08733578 0.23750000
    endloop
  endfacet
  facet normal 0.00000000 0.00000000 1.00000000
    outer loop
      vertex 0.01500000 0.00000000 0.23750000
      vertex 0.16339392 -0.08733578 0.23750000
      vertex 0.16944496 -0.08410144 0.23750000
    endloop
  endfacet
  facet normal 0.00000000 0.00000000 -1.00000000
    outer loop
      vertex 0.01500000 0.00000000 0.19250000
      vertex 0.16944496 -0.08410144 0.19250000
      vertex 0.16339392 -0.08733578 0.19250000
    endloop
  endfacet
  facet normal 0.47139674 -0.88192126 0.00000000
    outer loop
      vertex 0.16339392 -0.08733578 0.23750000
      vertex 0.16339392 -0.08733578 0.19250000
      vertex 0.16944496 -0.08410144 0.19250000
    endloop
  endfacet
  facet normal 0.47139674 -0.88192126 0.00000000
    outer loop
      vertex 0.16339392 -0.08733578 0.23750000
      vertex 0.16944496 -0.08410144 0.19250000
      vertex 0.16944496 -0.08410144 0.23750000
    endloop
  endfacet
  facet normal 0.00000000 0.00000000 1.00000000
    outer loop
      vertex 0.01500000 0.00000000 0.23750000
      vertex 0.16944496 -0.08410144 0.23750000
      vertex 0.17474874 -0.07974874 0.23750000
    endloop
  endfacet
  facet normal 0.00000000 0.00000000 -1.00000000
    outer loop
      vertex 0.01500000 0.00000000 0.19250000
      vertex 0.17474874 -0.07974874 0.19250000
      vertex 0.16944496 -0.08410144 0.19250000
    endloop
  endfacet
  facet normal 0.63439328 -0.77301045 0.00000000
    outer loop
      vertex 0.16944496 -0.08410144 0.23750000
      vertex 0.16944496 -0.08410144 0.19250000
      vertex 0.17474874 -0.07974874 0.19250000
    endloop
  endfacet
  facet normal 0.63439328 -0.77301045 0.00000000
    outer loop
      vertex 0.16944496 -0.08410144 0.23750000
      vertex 0.17474874 -0.07974874 0.19250000
      vertex 0.17474874 -0.07974874 0.23750000
    endloop
  endfacet
  facet normal 0.00000000 0.00000000 1.00000000
    outer loop
      vertex 0.01500000 0.00000000 0.23750000
      vertex 0.17474874 -0.07974874 0.23750000
      vertex 0.17910144 -0.07444496 0.23750000
    endloop
  endfacet
  facet normal 0.00000000 0.00000000 -1.00000000
    outer loop
      vertex 0.01500000 0.00000000 0.19250000
      vertex 0.17910144 -0.07444496 0.19250000
      vertex 0.17474874 -0.07974874 0.19250000
    endloop
  endfacet
  facet normal 0.77301045 -0.63439328 0.00000000
    outer loop
      vertex 0.17474874 -0.07974874 0.23750000
      vertex 0.17474874 -0.07974874 0.19250000
      vertex 0.17910144 -0.07444496 0.19250000
    endloop
  endfacet
  facet normal 0.77301045 -0.63439328 0.00000000
    outer loop
      vertex 0.17474874 -0.07974874 0.23750000
      vertex 0.17910144 -0.07444496 0.19250000
      vertex 0.17910144 -0.07444496 0.23750000
    endloop
  endfacet
  facet normal 0.00000000 0.00000000 1.00000000
    outer loop
      vertex 0.01500000 0.00000000 0.23750000
      vertex 0.17910144 -0.07444496 0.23750000
      vertex 0.18233578 -0.06839392 0.23750000
    endloop
  endfacet
  facet normal 0.00000000 0.00000000 -1.00000000
    outer loop
      vertex 0.01500000 0.00000000 0.19250000
      vertex 0.18233578 -0.06839392 0.19250000
      vertex 0.17910144 -0.07444496 0.19250000
    endloop
  endfacet
  facet normal 0.88192126 -0.47139674 0.00000000
    outer loop
      vertex 0.17910144 -0.07444496 0.23750000
      vertex 0.17910144 -0.07444496 0.19250000
      vertex 0.18233578 -0.06839392 0.19250000
    endloop
  endfacet
  facet normal 0.88192126 -0.47139674 0.00000000
    outer loop
      vertex 0.17910144 -0.07444496 0.23750000
      vertex 0.18233578 -0.06839392 0.19250000
      vertex 0.18233578 -0.06839392 0.23750000
    endloop
  endfacet
  facet normal 0.00000000 0.00000000 1.00000000
    outer loop
      vertex 0.01500000 0.00000000 0.23750000
      vertex 0.18233578 -0.06839392 0.23750000
      vertex 0.18432748 -0.06182816 0.23750000
    endloop
  endfacet
  facet normal 0.00000000 0.00000000 -1.00000000
    outer loop
      vertex 0.01500000 0.00000000 0.19250000
      vertex 0.18432748 -0.06182816 0.19250000
      vertex 0.18233578 -0.06839392 0.19250000
    endloop
  endfacet
  facet normal 0.95694034 -0.29028468 0.00000000
    outer loop
      vertex 0.18233578 -0.06839392 0.23750000
      vertex 0.18233578 -0.06839392 0.19250000
      vertex 0.18432748 -0.06182816 0.19250000
    endloop
  endfacet
  facet normal 0.95694034 -0.29028468 0.00000000
    outer loop
      vertex 0.18233578 -0.06839392 0.23750000
      vertex 0.18432748 -0.06182816 0.19250000
      vertex 0.18432748 -0.06182816 0.23750000
    endloop
  endfacet
  facet normal 0.00000000 0.00000000 1.00000000
    outer loop
      vertex 0.01500000 0.00000000 0.23750000
      vertex 0.18432748 -0.06182816 0.23750000
      vertex 0.18500000 -0.05500000 0.23750000
    endloop
  endfacet
  facet normal 0.00000000 0.00000000 -1.00000000
    outer loop
      vertex 0.01500000 0.00000000 0.19250000
      vertex 0.18500000 -0.05500000 0.19250000
      vertex 0.18432748 -0.06182816 0.19250000
    endloop
  endfacet
  facet normal 0.99518473 -0.09801714 0.00000000
    outer loop
      vertex 0.18432748 -0.06182816 0.23750000
      vertex 0.18432748 -0.06182816 0.19250000
      vertex 0.18500000 -0.05500000 0.19250000
    endloop
  endfacet
  facet normal 0.99518473 -0.09801714 0.00000000
    outer loop
      vertex 0.18432748 -0.06182816 0.23750000
      vertex 0.18500000 -0.05500000 0.19250000
      vertex 0.18500000 -0.05500000 0.23750000
    endloop
  endfacet
  facet normal -0.00000000 0.00000000 1.00000000
    outer loop
      vertex 0.01500000 0.00000000 0.23750000
      vertex 0.18500000 -0.05500000 0.23750000
      vertex 0.18500000 0.05500000 0.23750000
    endloop
  endfacet
  facet normal 0.00000000 0.00000000 -1.00000000
    outer loop
      vertex 0.01500000 0.00000000 0.19250000
      vertex 0.18500000 0.05500000 0.19250000
      vertex 0.18500000 -0.05500000 0.19250000
    endloop
  endfacet
  facet normal 1.00000000 0.00000000 0.00000000
    outer loop
      vertex 0.18500000 -0.05500000 0.23750000
      vertex 0.18500000 -0.05500000 0.19250000
      vertex 0.18500000 0.05500000 0.19250000
    endloop
  endfacet
  facet normal 1.00000000 -0.00000000 0.00000000
    outer loop
      vertex 0.18500000 -0.05500000 0.23750000
      vertex 0.18500000 0.05500000 0.19250000
      vertex 0.18500000 0.05500000 0.23750000
    endloop
  endfacet
endsolid top_deck
