solid wheel_fender
  facet normal 0.00000000 0.00000000 -1.00000000
    outer loop
      vertex -0.18500000 -0.00600000 -0.02600000
      vertex -0.13800000 0.00600000 -0.02600000
      vertex -0.13800000 -0.00600000 -0.02600000
    endloop
  endfacet
  facet normal 0.00000000 0.00000000 -1.00000000
    outer loop
      vertex -0.18500000 -0.00600000 -0.02600000
      vertex -0.18500000 0.00600000 -0.02600000
      vertex -0.13800000 0.00600000 -0.02600000
    endloop
  endfacet
  facet normal 0.00000000 0.00000000 1.00000000
    outer loop
      vertex -0.18500000 -0.00600000 0.00000000
      vertex -0.13800000 -0.00600000 0.00000000
      vertex -0.13800000 0.00600000 0.00000000
    endloop
  endfacet
  facet normal 0.00000000 0.00000000 1.00000000
    outer loop
      vertex -0.18500000 -0.00600000 0.00000000
      vertex -0.13800000 0.00600000 0.00000000
      vertex -0.18500000 0.00600000 0.00000000
    endloop
  endfacet
  facet normal 0.00000000 -1.00000000 0.00000000
    outer loop
      vertex -0.18500000 -0.00600000 -0.02600000
      vertex -0.13800000 -0.00600000 -0.02600000
      vertex -0.13800000 -0.00600000 0.00000000
    endloop
  endfacet
  facet normal 0.00000000 -1.00000000 0.00000000
    outer loop
      vertex -0.18500000 -0.00600000 -0.02600000
      vertex -0.13800000 -0.00600000 0.00000000
      vertex -0.18500000 -0.00600000 0.00000000
    endloop
  endfacet
  facet normal 1.00000000 0.00000000 0.00000000
    outer loop
      vertex -0.13800000 -0.00600000 -0.02600000
      vertex -0.13800000 0.00600000 -0.02600000
      vertex -0.13800000 0.00600000 0.00000000
    endloop
  endfacet
  facet normal 1.00000000 0.00000000 0.00000000
    outer loop
      vertex -0.13800000 -0.00600000 -0.02600000
      vertex -0.13800000 0.00600000 0.00000000
      vertex -0.13800000 -0.00600000 0.00000000
    endloop
  endfacet
  facet normal 0.00000000 1.00000000 0.00000000
    outer loop
      vertex -0.13800000 0.00600000 -0.02600000
      vertex -0.18500000 0.00600000 -0.02600000
      vertex -0.18500000 0.00600000 0.00000000
    endloop
  endfacet
  facet normal 0.00000000 1.00000000 -0.00000000
    outer loop
      vertex -0.13800000 0.00600000 -0.02600000
      vertex -0.18500000 0.00600000 0.00000000
      vertex -0.13800000 0.00600000 0.00000000
    endloop
  endfacet
  facet normal -1.00000000 0.00000000 0.00000000
    outer loop
      vertex -0.18500000 0.00600000 -0.02600000
      vertex -0.18500000 -0.00600000 -0.02600000
      vertex -0.18500000 -0.00600000 0.00000000
    endloop
  endfacet
  facet normal -1.00000000 0.00000000 0.00000000
    outer loop
      vertex -0.18500000 0.00600000 -0.02600000
      vertex -0.18500000 -0.00600000 0.00000000
      vertex -0.18500000 0.00600000 0.00000000
    endloop
  endfacet
  facet normal 0.00000000 0.00000000 -1.00000000
    outer loop
      vertex 0.13800000 -0.00600000 -0.02600000
      vertex 0.18500000 0.00600000 -0.02600000
      vertex 0.18500000 -0.00600000 -0.02600000
    endloop
  endfacet
  facet normal 0.00000000 0.00000000 -1.00000000
    outer loop
      vertex 0.13800000 -0.00600000 -0.02600000
      vertex 0.13800000 0.00600000 -0.02600000
      vertex 0.18500000 0.00600000 -0.02600000
    endloop
  endfacet
  facet normal 0.00000000 0.00000000 1.00000000
    outer loop
      vertex 0.13800000 -0.00600000 0.00000000
      vertex 0.18500000 -0.00600000 0.00000000
      vertex 0.18500000 0.00600000 0.00000000
    endloop
  endfacet
  facet normal 0.00000000 0.00000000 1.00000000
    outer loop
      vertex 0.13800000 -0.00600000 0.00000000
      vertex 0.18500000 0.00600000 0.00000000
      vertex 0.13800000 0.00600000 0.00000000
    endloop
  endfacet
  facet normal 0.00000000 -1.00000000 0.00000000
    outer loop
      vertex 0.13800000 -0.00600000 -0.02600000
      vertex 0.18500000 -0.00600000 -0.02600000
      vertex 0.18500000 -0.00600000 0.00000000
    endloop
  endfacet
  facet normal 0.00000000 -1.00000000 0.00000000
    outer loop
      vertex 0.13800000 -0.00600000 -0.02600000
      vertex 0.18500000 -0.00600000 0.00000000
      vertex 0.13800000 -0.00600000 0.00000000
    endloop
  endfacet
  facet normal 1.00000000 0.00000000 0.00000000
    outer loop
      vertex 0.18500000 -0.00600000 -0.02600000
      vertex 0.18500000 0.00600000 -0.02600000
      vertex 0.18500000 0.00600000 0.00000000
    endloop
  endfacet
  facet normal 1.00000000 0.00000000 0.00000000
    outer loop
      vertex 0.18500000 -0.00600000 -0.02600000
      vertex 0.18500000 0.00600000 0.00000000
      vertex 0.18500000 -0.00600000 0.00000000
    endloop
  endfacet
  facet normal 0.00000000 1.00000000 0.00000000
    outer loop
      vertex 0.18500000 0.00600000 -0.02600000
      vertex 0.13800000 0.00600000 -0.02600000
      vertex 0.13800000 0.00600000 0.00000000
    endloop
  endfacet
  facet normal 0.00000000 1.00000000 -0.00000000
    outer loop
      vertex 0.18500000 0.00600000 -0.02600000
      vertex 0.13800000 0.00600000 0.00000000
      vertex 0.18500000 0.00600000 0.00000000
    endloop
  endfacet
  facet normal -1.00000000 0.00000000 0.00000000
    outer loop
      vertex 0.13800000 0.00600000 -0.02600000
      vertex 0.13800000 -0.00600000 -0.02600000
      vertex 0.13800000 -0.00600000 0.00000000
    endloop
  endfacet
  facet normal -1.00000000 0.00000000 0.00000000
    outer loop
      vertex 0.13800000 0.00600000 -0.02600000
      vertex 0.13800000 -0.00600000 0.00000000
      vertex 0.13800000 0.00600000 0.00000000
    endloop
  endfacet
  facet normal 0.00000000 1.00000000 0.00000000
    outer loop
      vertex -0.11200000 0.00600000 0.00000000
      vertex -0.13800000 0.00600000 0.00000000
      vertex -0.13747487 0.00600000 0.01202749
    endloop
  endfacet
  facet normal 0.00000000 1.00000000 -0.00000000
    outer loop
      vertex -0.11200000 0.00600000 0.00000000
      vertex -0.13747487 0.00600000 0.01202749
      vertex -0.11157381 0.00600000 0.00976144
    endloop
  endfacet
  facet normal 0.00000000 -1.00000000 0.00000000
    outer loop
      vertex -0.11200000 -0.00600000 0.00000000
      vertex -0.13747487 -0.00600000 0.01202749
      vertex -0.13800000 -0.00600000 0.00000000
    endloop
  endfacet
  facet normal 0.00000000 -1.00000000 0.00000000
    outer loop
      vertex -0.11200000 -0.00600000 0.00000000
      vertex -0.11157381 -0.00600000 0.00976144
      vertex -0.13747487 -0.00600000 0.01202749
    endloop
  endfacet
  facet normal -0.99904822 0.00000000 0.04361939
    outer loop
      vertex -0.13800000 0.00600000 0.00000000
      vertex -0.13800000 -0.00600000 0.00000000
      vertex -0.13747487 -0.00600000 0.01202749
    endloop
  endfacet
  facet normal -0.99904822 0.00000000 0.04361939
    outer loop
      vertex -0.13800000 0.00600000 0.00000000
      vertex -0.13747487 -0.00600000 0.01202749
      vertex -0.13747487 0.00600000 0.01202749
    endloop
  endfacet
  facet normal 0.99904822 0.00000000 -0.04361939
    outer loop
      vertex -0.11200000 0.00600000 0.00000000
      vertex -0.11157381 -0.00600000 0.00976144
      vertex -0.11200000 -0.00600000 0.00000000
    endloop
  endfacet
  facet normal 0.99904822 0.00000000 -0.04361939
    outer loop
      vertex -0.11200000 0.00600000 0.00000000
      vertex -0.11157381 0.00600000 0.00976144
      vertex -0.11157381 -0.00600000 0.00976144
    endloop
  endfacet
  facet normal 0.00000000 1.00000000 0.00000000
    outer loop
      vertex -0.11157381 0.00600000 0.00976144
      vertex -0.13747487 0.00600000 0.01202749
      vertex -0.13590347 0.00600000 0.02396345
    endloop
  endfacet
  facet normal 0.00000000 1.00000000 -0.00000000
    outer loop
      vertex -0.11157381 0.00600000 0.00976144
      vertex -0.13590347 0.00600000 0.02396345
      vertex -0.11029847 0.00600000 0.01944860
    endloop
  endfacet
  facet normal 0.00000000 -1.00000000 0.00000000
    outer loop
      vertex -0.11157381 -0.00600000 0.00976144
      vertex -0.13590347 -0.00600000 0.02396345
      vertex -0.13747487 -0.00600000 0.01202749
    endloop
  endfacet
  facet normal 0.00000000 -1.00000000 0.00000000
    outer loop
      vertex -0.11157381 -0.00600000 0.00976144
      vertex -0.11029847 -0.00600000 0.01944860
      vertex -0.13590347 -0.00600000 0.02396345
    endloop
  endfacet
  facet normal -0.99144486 0.00000000 0.13052619
    outer loop
      vertex -0.13747487 0.00600000 0.01202749
      vertex -0.13747487 -0.00600000 0.01202749
      vertex -0.13590347 -0.00600000 0.02396345
    endloop
  endfacet
  facet normal -0.99144486 0.00000000 0.13052619
    outer loop
      vertex -0.13747487 0.00600000 0.01202749
      vertex -0.13590347 -0.00600000 0.02396345
      vertex -0.13590347 0.00600000 0.02396345
    endloop
  endfacet
  facet normal 0.99144486 0.00000000 -0.13052619
    outer loop
      vertex -0.11157381 0.00600000 0.00976144
      vertex -0.11029847 -0.00600000 0.01944860
      vertex -0.11157381 -0.00600000 0.00976144
    endloop
  endfacet
  facet normal 0.99144486 0.00000000 -0.13052619
    outer loop
      vertex -0.11157381 0.00600000 0.00976144
      vertex -0.11029847 0.00600000 0.01944860
      vertex -0.11029847 -0.00600000 0.01944860
    endloop
  endfacet
  facet normal 0.00000000 1.00000000 0.00000000
    outer loop
      vertex -0.11029847 0.00600000 0.01944860
      vertex -0.13590347 0.00600000 0.02396345
      vertex -0.13329776 0.00600000 0.03571703
    endloop
  endfacet
  facet normal 0.00000000 1.00000000 -0.00000000
    outer loop
      vertex -0.11029847 0.00600000 0.01944860
      vertex -0.13329776 0.00600000 0.03571703
      vertex -0.10818369 0.00600000 0.02898773
    endloop
  endfacet
  facet normal 0.00000000 -1.00000000 0.00000000
    outer loop
      vertex -0.11029847 -0.00600000 0.01944860
      vertex -0.13329776 -0.00600000 0.03571703
      vertex -0.13590347 -0.00600000 0.02396345
    endloop
  endfacet
  facet normal 0.00000000 -1.00000000 0.00000000
    outer loop
      vertex -0.11029847 -0.00600000 0.01944860
      vertex -0.10818369 -0.00600000 0.02898773
      vertex -0.13329776 -0.00600000 0.03571703
    endloop
  endfacet
  facet normal -0.97629601 0.00000000 0.21643961
    outer loop
      vertex -0.13590347 0.00600000 0.02396345
      vertex -0.13590347 -0.00600000 0.02396345
      vertex -0.13329776 -0.00600000 0.03571703
    endloop
  endfacet
  facet normal -0.97629601 0.00000000 0.21643961
    outer loop
      vertex -0.13590347 0.00600000 0.02396345
      vertex -0.13329776 -0.00600000 0.03571703
      vertex -0.13329776 0.00600000 0.03571703
    endloop
  endfacet
  facet normal 0.97629601 0.00000000 -0.21643961
    outer loop
      vertex -0.11029847 0.00600000 0.01944860
      vertex -0.10818369 -0.00600000 0.02898773
      vertex -0.11029847 -0.00600000 0.01944860
    endloop
  endfacet
  facet normal 0.97629601 0.00000000 -0.21643961
    outer loop
      vertex -0.11029847 0.00600000 0.01944860
      vertex -0.10818369 0.00600000 0.02898773
      vertex -0.10818369 -0.00600000 0.02898773
    endloop
  endfacet
  facet normal 0.00000000 1.00000000 0.00000000
    outer loop
      vertex -0.10818369 0.00600000 0.02898773
      vertex -0.13329776 0.00600000 0.03571703
      vertex -0.12967758 0.00600000 0.04719878
    endloop
  endfacet
  facet normal 0.00000000 1.00000000 -0.00000000
    outer loop
      vertex -0.10818369 0.00600000 0.02898773
      vertex -0.12967758 0.00600000 0.04719878
      vertex -0.10524557 0.00600000 0.03830626
    endloop
  endfacet
  facet normal 0.00000000 -1.00000000 0.00000000
    outer loop
      vertex -0.10818369 -0.00600000 0.02898773
      vertex -0.12967758 -0.00600000 0.04719878
      vertex -0.13329776 -0.00600000 0.03571703
    endloop
  endfacet
  facet normal 0.00000000 -1.00000000 0.00000000
    outer loop
      vertex -0.10818369 -0.00600000 0.02898773
      vertex -0.10524557 -0.00600000 0.03830626
      vertex -0.12967758 -0.00600000 0.04719878
    endloop
  endfacet
  facet normal -0.95371695 0.00000000 0.30070580
    outer loop
      vertex -0.13329776 0.00600000 0.03571703
      vertex -0.13329776 -0.00600000 0.03571703
      vertex -0.12967758 -0.00600000 0.04719878
    endloop
  endfacet
  facet normal -0.95371695 0.00000000 0.30070580
    outer loop
      vertex -0.13329776 0.00600000 0.03571703
      vertex -0.12967758 -0.00600000 0.04719878
      vertex -0.12967758 0.00600000 0.04719878
    endloop
  endfacet
  facet normal 0.95371695 0.00000000 -0.30070580
    outer loop
      vertex -0.10818369 0.00600000 0.02898773
      vertex -0.10524557 -0.00600000 0.03830626
      vertex -0.10818369 -0.00600000 0.02898773
    endloop
  endfacet
  facet normal 0.95371695 0.00000000 -0.30070580
    outer loop
      vertex -0.10818369 0.00600000 0.02898773
      vertex -0.10524557 0.00600000 0.03830626
      vertex -0.10524557 -0.00600000 0.03830626
    endloop
  endfacet
  facet normal 0.00000000 1.00000000 0.00000000
    outer loop
      vertex -0.10524557 0.00600000 0.03830626
      vertex -0.12967758 0.00600000 0.04719878
      vertex -0.12507047 0.00600000 0.05832132
    endloop
  endfacet
  facet normal 0.00000000 1.00000000 -0.00000000
    outer loop
      vertex -0.10524557 0.00600000 0.03830626
      vertex -0.12507047 0.00600000 0.05832132
      vertex -0.10150647 0.00600000 0.04733325
    endloop
  endfacet
  facet normal 0.00000000 -1.00000000 0.00000000
    outer loop
      vertex -0.10524557 -0.00600000 0.03830626
      vertex -0.12507047 -0.00600000 0.05832132
      vertex -0.12967758 -0.00600000 0.04719878
    endloop
  endfacet
  facet normal 0.00000000 -1.00000000 0.00000000
    outer loop
      vertex -0.10524557 -0.00600000 0.03830626
      vertex -0.10150647 -0.00600000 0.04733325
      vertex -0.12507047 -0.00600000 0.05832132
    endloop
  endfacet
  facet normal -0.92387953 0.00000000 0.38268343
    outer loop
      vertex -0.12967758 0.00600000 0.04719878
      vertex -0.12967758 -0.00600000 0.04719878
      vertex -0.12507047 -0.00600000 0.05832132
    endloop
  endfacet
  facet normal -0.92387953 0.00000000 0.38268343
    outer loop
      vertex -0.12967758 0.00600000 0.04719878
      vertex -0.12507047 -0.00600000 0.05832132
      vertex -0.12507047 0.00600000 0.05832132
    endloop
  endfacet
  facet normal 0.92387953 0.00000000 -0.38268343
    outer loop
      vertex -0.10524557 0.00600000 0.03830626
      vertex -0.10150647 -0.00600000 0.04733325
      vertex -0.10524557 -0.00600000 0.03830626
    endloop
  endfacet
  facet normal 0.92387953 0.00000000 -0.38268343
    outer loop
      vertex -0.10524557 0.00600000 0.03830626
      vertex -0.10150647 0.00600000 0.04733325
      vertex -0.10150647 -0.00600000 0.04733325
    endloop
  endfacet
  facet normal 0.00000000 1.00000000 0.00000000
    outer loop
      vertex -0.10150647 0.00600000 0.04733325
      vertex -0.12507047 0.00600000 0.05832132
      vertex -0.11951151 0.00600000 0.06900000
    endloop
  endfacet
  facet normal 0.00000000 1.00000000 -0.00000000
    outer loop
      vertex -0.10150647 0.00600000 0.04733325
      vertex -0.11951151 0.00600000 0.06900000
      vertex -0.09699485 0.00600000 0.05600000
    endloop
  endfacet
  facet normal 0.00000000 -1.00000000 0.00000000
    outer loop
      vertex -0.10150647 -0.00600000 0.04733325
      vertex -0.11951151 -0.00600000 0.06900000
      vertex -0.12507047 -0.00600000 0.05832132
    endloop
  endfacet
  facet normal 0.00000000 -1.00000000 0.00000000
    outer loop
      vertex -0.10150647 -0.00600000 0.04733325
      vertex -0.09699485 -0.00600000 0.05600000
      vertex -0.11951151 -0.00600000 0.06900000
    endloop
  endfacet
  facet normal -0.88701083 0.00000000 0.46174861
    outer loop
      vertex -0.12507047 0.00600000 0.05832132
      vertex -0.12507047 -0.00600000 0.05832132
      vertex -0.11951151 -0.00600000 0.06900000
    endloop
  endfacet
  facet normal -0.88701083 0.00000000 0.46174861
    outer loop
      vertex -0.12507047 0.00600000 0.05832132
      vertex -0.11951151 -0.00600000 0.06900000
      vertex -0.11951151 0.00600000 0.06900000
    endloop
  endfacet
  facet normal 0.88701083 0.00000000 -0.46174861
    outer loop
      vertex -0.10150647 0.00600000 0.04733325
      vertex -0.09699485 -0.00600000 0.05600000
      vertex -0.10150647 -0.00600000 0.04733325
    endloop
  endfacet
  facet normal 0.88701083 0.00000000 -0.46174861
    outer loop
      vertex -0.10150647 0.00600000 0.04733325
      vertex -0.09699485 0.00600000 0.05600000
      vertex -0.09699485 -0.00600000 0.05600000
    endloop
  endfacet
  facet normal 0.00000000 1.00000000 0.00000000
    outer loop
      vertex -0.09699485 0.00600000 0.05600000
      vertex -0.11951151 0.00600000 0.06900000
      vertex -0.11304298 0.00600000 0.07915355
    endloop
  endfacet
  facet normal 0.00000000 1.00000000 -0.00000000
    outer loop
      vertex -0.09699485 0.00600000 0.05600000
      vertex -0.11304298 0.00600000 0.07915355
      vertex -0.09174503 0.00600000 0.06424056
    endloop
  endfacet
  facet normal 0.00000000 -1.00000000 0.00000000
    outer loop
      vertex -0.09699485 -0.00600000 0.05600000
      vertex -0.11304298 -0.00600000 0.07915355
      vertex -0.11951151 -0.00600000 0.06900000
    endloop
  endfacet
  facet normal 0.00000000 -1.00000000 0.00000000
    outer loop
      vertex -0.09699485 -0.00600000 0.05600000
      vertex -0.09174503 -0.00600000 0.06424056
      vertex -0.11304298 -0.00600000 0.07915355
    endloop
  endfacet
  facet normal -0.84339145 0.00000000 0.53729961
    outer loop
      vertex -0.11951151 0.00600000 0.06900000
      vertex -0.11951151 -0.00600000 0.06900000
      vertex -0.11304298 -0.00600000 0.07915355
    endloop
  endfacet
  facet normal -0.84339145 0.00000000 0.53729961
    outer loop
      vertex -0.11951151 0.00600000 0.06900000
      vertex -0.11304298 -0.00600000 0.07915355
      vertex -0.11304298 0.00600000 0.07915355
    endloop
  endfacet
  facet normal 0.84339145 0.00000000 -0.53729961
    outer loop
      vertex -0.09699485 0.00600000 0.05600000
      vertex -0.09174503 -0.00600000 0.06424056
      vertex -0.09699485 -0.00600000 0.05600000
    endloop
  endfacet
  facet normal 0.84339145 0.00000000 -0.53729961
    outer loop
      vertex -0.09699485 0.00600000 0.05600000
      vertex -0.09174503 0.00600000 0.06424056
      vertex -0.09174503 -0.00600000 0.06424056
    endloop
  endfacet
  facet normal 0.00000000 1.00000000 0.00000000
    outer loop
      vertex -0.09174503 0.00600000 0.06424056
      vertex -0.11304298 0.00600000 0.07915355
      vertex -0.10571413 0.00600000 0.08870469
    endloop
  endfacet
  facet normal 0.00000000 1.00000000 -0.00000000
    outer loop
      vertex -0.09174503 0.00600000 0.06424056
      vertex -0.10571413 0.00600000 0.08870469
      vertex -0.08579698 0.00600000 0.07199221
    endloop
  endfacet
  facet normal 0.00000000 -1.00000000 0.00000000
    outer loop
      vertex -0.09174503 -0.00600000 0.06424056
      vertex -0.10571413 -0.00600000 0.08870469
      vertex -0.11304298 -0.00600000 0.07915355
    endloop
  endfacet
  facet normal 0.00000000 -1.00000000 0.00000000
    outer loop
      vertex -0.09174503 -0.00600000 0.06424056
      vertex -0.08579698 -0.00600000 0.07199221
      vertex -0.10571413 -0.00600000 0.08870469
    endloop
  endfacet
  facet normal -0.79335334 0.00000000 0.60876143
    outer loop
      vertex -0.11304298 0.00600000 0.07915355
      vertex -0.11304298 -0.00600000 0.07915355
      vertex -0.10571413 -0.00600000 0.08870469
    endloop
  endfacet
  facet normal -0.79335334 0.00000000 0.60876143
    outer loop
      vertex -0.11304298 0.00600000 0.07915355
      vertex -0.10571413 -0.00600000 0.08870469
      vertex -0.10571413 0.00600000 0.08870469
    endloop
  endfacet
  facet normal 0.79335334 0.00000000 -0.60876143
    outer loop
      vertex -0.09174503 0.00600000 0.06424056
      vertex -0.08579698 -0.00600000 0.07199221
      vertex -0.09174503 -0.00600000 0.06424056
    endloop
  endfacet
  facet normal 0.79335334 0.00000000 -0.60876143
    outer loop
      vertex -0.09174503 0.00600000 0.06424056
      vertex -0.08579698 0.00600000 0.07199221
      vertex -0.08579698 -0.00600000 0.07199221
    endloop
  endfacet
  facet normal 0.00000000 1.00000000 0.00000000
    outer loop
      vertex -0.08579698 0.00600000 0.07199221
      vertex -0.10571413 0.00600000 0.08870469
      vertex -0.09758074 0.00600000 0.09758074
    endloop
  endfacet
  facet normal 0.00000000 1.00000000 -0.00000000
    outer loop
      vertex -0.08579698 0.00600000 0.07199221
      vertex -0.09758074 0.00600000 0.09758074
      vertex -0.07919596 0.00600000 0.07919596
    endloop
  endfacet
  facet normal 0.00000000 -1.00000000 0.00000000
    outer loop
      vertex -0.08579698 -0.00600000 0.07199221
      vertex -0.09758074 -0.00600000 0.09758074
      vertex -0.10571413 -0.00600000 0.08870469
    endloop
  endfacet
  facet normal 0.00000000 -1.00000000 0.00000000
    outer loop
      vertex -0.08579698 -0.00600000 0.07199221
      vertex -0.07919596 -0.00600000 0.07919596
      vertex -0.09758074 -0.00600000 0.09758074
    endloop
  endfacet
  facet normal -0.73727734 0.00000000 0.67559021
    outer loop
      vertex -0.10571413 0.00600000 0.08870469
      vertex -0.10571413 -0.00600000 0.08870469
      vertex -0.09758074 -0.00600000 0.09758074
    endloop
  endfacet
  facet normal -0.73727734 0.00000000 0.67559021
    outer loop
      vertex -0.10571413 0.00600000 0.08870469
      vertex -0.09758074 -0.00600000 0.09758074
      vertex -0.09758074 0.00600000 0.09758074
    endloop
  endfacet
  facet normal 0.73727734 0.00000000 -0.67559021
    outer loop
      vertex -0.08579698 0.00600000 0.07199221
      vertex -0.07919596 -0.00600000 0.07919596
      vertex -0.08579698 -0.00600000 0.07199221
    endloop
  endfacet
  facet normal 0.73727734 0.00000000 -0.67559021
    outer loop
      vertex -0.08579698 0.00600000 0.07199221
      vertex -0.07919596 0.00600000 0.07919596
      vertex -0.07919596 -0.00600000 0.07919596
    endloop
  endfacet
  facet normal 0.00000000 1.00000000 0.00000000
    outer loop
      vertex -0.07919596 0.00600000 0.07919596
      vertex -0.09758074 0.00600000 0.09758074
      vertex -0.08870469 0.00600000 0.10571413
    endloop
  endfacet
  facet normal 0.00000000 1.00000000 -0.00000000
    outer loop
      vertex -0.07919596 0.00600000 0.07919596
      vertex -0.08870469 0.00600000 0.10571413
      vertex -0.07199221 0.00600000 0.08579698
    endloop
  endfacet
  facet normal 0.00000000 -1.00000000 0.00000000
    outer loop
      vertex -0.07919596 -0.00600000 0.07919596
      vertex -0.08870469 -0.00600000 0.10571413
      vertex -0.09758074 -0.00600000 0.09758074
    endloop
  endfacet
  facet normal 0.00000000 -1.00000000 0.00000000
    outer loop
      vertex -0.07919596 -0.00600000 0.07919596
      vertex -0.07199221 -0.00600000 0.08579698
      vertex -0.08870469 -0.00600000 0.10571413
    endloop
  endfacet
  facet normal -0.67559021 0.00000000 0.73727734
    outer loop
      vertex -0.09758074 0.00600000 0.09758074
      vertex -0.09758074 -0.00600000 0.09758074
      vertex -0.08870469 -0.00600000 0.10571413
    endloop
  endfacet
  facet normal -0.67559021 0.00000000 0.73727734
    outer loop
      vertex -0.09758074 0.00600000 0.09758074
      vertex -0.08870469 -0.00600000 0.10571413
      vertex -0.08870469 0.00600000 0.10571413
    endloop
  endfacet
  facet normal 0.67559021 0.00000000 -0.73727734
    outer loop
      vertex -0.07919596 0.00600000 0.07919596
      vertex -0.07199221 -0.00600000 0.08579698
      vertex -0.07919596 -0.00600000 0.07919596
    endloop
  endfacet
  facet normal 0.67559021 0.00000000 -0.73727734
    outer loop
      vertex -0.07919596 0.00600000 0.07919596
      vertex -0.07199221 0.00600000 0.08579698
      vertex -0.07199221 -0.00600000 0.08579698
    endloop
  endfacet
  facet normal 0.00000000 1.00000000 0.00000000
    outer loop
      vertex -0.07199221 0.00600000 0.08579698
      vertex -0.08870469 0.00600000 0.10571413
      vertex -0.07915355 0.00600000 0.11304298
    endloop
  endfacet
  facet normal 0.00000000 1.00000000 -0.00000000
    outer loop
      vertex -0.07199221 0.00600000 0.08579698
      vertex -0.07915355 0.00600000 0.11304298
      vertex -0.06424056 0.00600000 0.09174503
    endloop
  endfacet
  facet normal 0.00000000 -1.00000000 0.00000000
    outer loop
      vertex -0.07199221 -0.00600000 0.08579698
      vertex -0.07915355 -0.00600000 0.11304298
      vertex -0.08870469 -0.00600000 0.10571413
    endloop
  endfacet
  facet normal 0.00000000 -1.00000000 0.00000000
    outer loop
      vertex -0.07199221 -0.00600000 0.08579698
      vertex -0.06424056 -0.00600000 0.09174503
      vertex -0.07915355 -0.00600000 0.11304298
    endloop
  endfacet
  facet normal -0.60876143 0.00000000 0.79335334
    outer loop
      vertex -0.08870469 0.00600000 0.10571413
      vertex -0.08870469 -0.00600000 0.10571413
      vertex -0.07915355 -0.00600000 0.11304298
    endloop
  endfacet
  facet normal -0.60876143 0.00000000 0.79335334
    outer loop
      vertex -0.08870469 0.00600000 0.10571413
      vertex -0.07915355 -0.00600000 0.11304298
      vertex -0.07915355 0.00600000 0.11304298
    endloop
  endfacet
  facet normal 0.60876143 0.00000000 -0.79335334
    outer loop
      vertex -0.07199221 0.00600000 0.08579698
      vertex -0.06424056 -0.00600000 0.09174503
      vertex -0.07199221 -0.00600000 0.08579698
    endloop
  endfacet
  facet normal 0.60876143 0.00000000 -0.79335334
    outer loop
      vertex -0.07199221 0.00600000 0.08579698
      vertex -0.06424056 0.00600000 0.09174503
      vertex -0.06424056 -0.00600000 0.09174503
    endloop
  endfacet
  facet normal 0.00000000 1.00000000 0.00000000
    outer loop
      vertex -0.06424056 0.00600000 0.09174503
      vertex -0.07915355 0.00600000 0.11304298
      vertex -0.06900000 0.00600000 0.11951151
    endloop
  endfacet
  facet normal 0.00000000 1.00000000 -0.00000000
    outer loop
      vertex -0.06424056 0.00600000 0.09174503
      vertex -0.06900000 0.00600000 0.11951151
      vertex -0.05600000 0.00600000 0.09699485
    endloop
  endfacet
  facet normal 0.00000000 -1.00000000 0.00000000
    outer loop
      vertex -0.06424056 -0.00600000 0.09174503
      vertex -0.06900000 -0.00600000 0.11951151
      vertex -0.07915355 -0.00600000 0.11304298
    endloop
  endfacet
  facet normal 0.00000000 -1.00000000 0.00000000
    outer loop
      vertex -0.06424056 -0.00600000 0.09174503
      vertex -0.05600000 -0.00600000 0.09699485
      vertex -0.06900000 -0.00600000 0.11951151
    endloop
  endfacet
  facet normal -0.53729961 0.00000000 0.84339145
    outer loop
      vertex -0.07915355 0.00600000 0.11304298
      vertex -0.07915355 -0.00600000 0.11304298
      vertex -0.06900000 -0.00600000 0.11951151
    endloop
  endfacet
  facet normal -0.53729961 0.00000000 0.84339145
    outer loop
      vertex -0.07915355 0.00600000 0.11304298
      vertex -0.06900000 -0.00600000 0.11951151
      vertex -0.06900000 0.00600000 0.11951151
    endloop
  endfacet
  facet normal 0.53729961 0.00000000 -0.84339145
    outer loop
      vertex -0.06424056 0.00600000 0.09174503
      vertex -0.05600000 -0.00600000 0.09699485
      vertex -0.06424056 -0.00600000 0.09174503
    endloop
  endfacet
  facet normal 0.53729961 0.00000000 -0.84339145
    outer loop
      vertex -0.06424056 0.00600000 0.09174503
      vertex -0.05600000 0.00600000 0.09699485
      vertex -0.05600000 -0.00600000 0.09699485
    endloop
  endfacet
  facet normal 0.00000000 1.00000000 0.00000000
    outer loop
      vertex -0.05600000 0.00600000 0.09699485
      vertex -0.06900000 0.00600000 0.11951151
      vertex -0.05832132 0.00600000 0.12507047
    endloop
  endfacet
  facet normal 0.00000000 1.00000000 -0.00000000
    outer loop
      vertex -0.05600000 0.00600000 0.09699485
      vertex -0.05832132 0.00600000 0.12507047
      vertex -0.04733325 0.00600000 0.10150647
    endloop
  endfacet
  facet normal 0.00000000 -1.00000000 0.00000000
    outer loop
      vertex -0.05600000 -0.00600000 0.09699485
      vertex -0.05832132 -0.00600000 0.12507047
      vertex -0.06900000 -0.00600000 0.11951151
    endloop
  endfacet
  facet normal 0.00000000 -1.00000000 0.00000000
    outer loop
      vertex -0.05600000 -0.00600000 0.09699485
      vertex -0.04733325 -0.00600000 0.10150647
      vertex -0.05832132 -0.00600000 0.12507047
    endloop
  endfacet
  facet normal -0.46174861 0.00000000 0.88701083
    outer loop
      vertex -0.06900000 0.00600000 0.11951151
      vertex -0.06900000 -0.00600000 0.11951151
      vertex -0.05832132 -0.00600000 0.12507047
    endloop
  endfacet
  facet normal -0.46174861 0.00000000 0.88701083
    outer loop
      vertex -0.06900000 0.00600000 0.11951151
      vertex -0.05832132 -0.00600000 0.12507047
      vertex -0.05832132 0.00600000 0.12507047
    endloop
  endfacet
  facet normal 0.46174861 0.00000000 -0.88701083
    outer loop
      vertex -0.05600000 0.00600000 0.09699485
      vertex -0.04733325 -0.00600000 0.10150647
      vertex -0.05600000 -0.00600000 0.09699485
    endloop
  endfacet
  facet normal 0.46174861 0.00000000 -0.88701083
    outer loop
      vertex -0.05600000 0.00600000 0.09699485
      vertex -0.04733325 0.00600000 0.10150647
      vertex -0.04733325 -0.00600000 0.10150647
    endloop
  endfacet
  facet normal 0.00000000 1.00000000 -0.00000000
    outer loop
      vertex -0.04733325 0.00600000 0.10150647
      vertex -0.05832132 0.00600000 0.12507047
      vertex -0.04719878 0.00600000 0.12967758
    endloop
  endfacet
  facet normal 0.00000000 1.00000000 0.00000000
    outer loop
      vertex -0.04733325 0.00600000 0.10150647
      vertex -0.04719878 0.00600000 0.12967758
      vertex -0.03830626 0.00600000 0.10524557
    endloop
  endfacet
  facet normal 0.00000000 -1.00000000 0.00000000
    outer loop
      vertex -0.04733325 -0.00600000 0.10150647
      vertex -0.04719878 -0.00600000 0.12967758
      vertex -0.05832132 -0.00600000 0.12507047
    endloop
  endfacet
  facet normal 0.00000000 -1.00000000 0.00000000
    outer loop
      vertex -0.04733325 -0.00600000 0.10150647
      vertex -0.03830626 -0.00600000 0.10524557
      vertex -0.04719878 -0.00600000 0.12967758
    endloop
  endfacet
  facet normal -0.38268343 0.00000000 0.92387953
    outer loop
      vertex -0.05832132 0.00600000 0.12507047
      vertex -0.05832132 -0.00600000 0.12507047
      vertex -0.04719878 -0.00600000 0.12967758
    endloop
  endfacet
  facet normal -0.38268343 0.00000000 0.92387953
    outer loop
      vertex -0.05832132 0.00600000 0.12507047
      vertex -0.04719878 -0.00600000 0.12967758
      vertex -0.04719878 0.00600000 0.12967758
    endloop
  endfacet
  facet normal 0.38268343 0.00000000 -0.92387953
    outer loop
      vertex -0.04733325 0.00600000 0.10150647
      vertex -0.03830626 -0.00600000 0.10524557
      vertex -0.04733325 -0.00600000 0.10150647
    endloop
  endfacet
  facet normal 0.38268343 0.00000000 -0.92387953
    outer loop
      vertex -0.04733325 0.00600000 0.10150647
      vertex -0.03830626 0.00600000 0.10524557
      vertex -0.03830626 -0.00600000 0.10524557
    endloop
  endfacet
  facet normal 0.00000000 1.00000000 -0.00000000
    outer loop
      vertex -0.03830626 0.00600000 0.10524557
      vertex -0.04719878 0.00600000 0.12967758
      vertex -0.03571703 0.00600000 0.13329776
    endloop
  endfacet
  facet normal 0.00000000 1.00000000 0.00000000
    outer loop
      vertex -0.03830626 0.00600000 0.10524557
      vertex -0.03571703 0.00600000 0.13329776
      vertex -0.02898773 0.00600000 0.10818369
    endloop
  endfacet
  facet normal 0.00000000 -1.00000000 0.00000000
    outer loop
      vertex -0.03830626 -0.00600000 0.10524557
      vertex -0.03571703 -0.00600000 0.13329776
      vertex -0.04719878 -0.00600000 0.12967758
    endloop
  endfacet
  facet normal 0.00000000 -1.00000000 0.00000000
    outer loop
      vertex -0.03830626 -0.00600000 0.10524557
      vertex -0.02898773 -0.00600000 0.10818369
      vertex -0.03571703 -0.00600000 0.13329776
    endloop
  endfacet
  facet normal -0.30070580 0.00000000 0.95371695
    outer loop
      vertex -0.04719878 0.00600000 0.12967758
      vertex -0.04719878 -0.00600000 0.12967758
      vertex -0.03571703 -0.00600000 0.13329776
    endloop
  endfacet
  facet normal -0.30070580 0.00000000 0.95371695
    outer loop
      vertex -0.04719878 0.00600000 0.12967758
      vertex -0.03571703 -0.00600000 0.13329776
      vertex -0.03571703 0.00600000 0.13329776
    endloop
  endfacet
  facet normal 0.30070580 0.00000000 -0.95371695
    outer loop
      vertex -0.03830626 0.00600000 0.10524557
      vertex -0.02898773 -0.00600000 0.10818369
      vertex -0.03830626 -0.00600000 0.10524557
    endloop
  endfacet
  facet normal 0.30070580 0.00000000 -0.95371695
    outer loop
      vertex -0.03830626 0.00600000 0.10524557
      vertex -0.02898773 0.00600000 0.10818369
      vertex -0.02898773 -0.00600000 0.10818369
    endloop
  endfacet
  facet normal 0.00000000 1.00000000 -0.00000000
    outer loop
      vertex -0.02898773 0.00600000 0.10818369
      vertex -0.03571703 0.00600000 0.13329776
      vertex -0.02396345 0.00600000 0.13590347
    endloop
  endfacet
  facet normal 0.00000000 1.00000000 0.00000000
    outer loop
      vertex -0.02898773 0.00600000 0.10818369
      vertex -0.02396345 0.00600000 0.13590347
      vertex -0.01944860 0.00600000 0.11029847
    endloop
  endfacet
  facet normal 0.00000000 -1.00000000 0.00000000
    outer loop
      vertex -0.02898773 -0.00600000 0.10818369
      vertex -0.02396345 -0.00600000 0.13590347
      vertex -0.03571703 -0.00600000 0.13329776
    endloop
  endfacet
  facet normal 0.00000000 -1.00000000 0.00000000
    outer loop
      vertex -0.02898773 -0.00600000 0.10818369
      vertex -0.01944860 -0.00600000 0.11029847
      vertex -0.02396345 -0.00600000 0.13590347
    endloop
  endfacet
  facet normal -0.21643961 0.00000000 0.97629601
    outer loop
      vertex -0.03571703 0.00600000 0.13329776
      vertex -0.03571703 -0.00600000 0.13329776
      vertex -0.02396345 -0.00600000 0.13590347
    endloop
  endfacet
  facet normal -0.21643961 0.00000000 0.97629601
    outer loop
      vertex -0.03571703 0.00600000 0.13329776
      vertex -0.02396345 -0.00600000 0.13590347
      vertex -0.02396345 0.00600000 0.13590347
    endloop
  endfacet
  facet normal 0.21643961 0.00000000 -0.97629601
    outer loop
      vertex -0.02898773 0.00600000 0.10818369
      vertex -0.01944860 -0.00600000 0.11029847
      vertex -0.02898773 -0.00600000 0.10818369
    endloop
  endfacet
  facet normal 0.21643961 0.00000000 -0.97629601
    outer loop
      vertex -0.02898773 0.00600000 0.10818369
      vertex -0.01944860 0.00600000 0.11029847
      vertex -0.01944860 -0.00600000 0.11029847
    endloop
  endfacet
  facet normal 0.00000000 1.00000000 -0.00000000
    outer loop
      vertex -0.01944860 0.00600000 0.11029847
      vertex -0.02396345 0.00600000 0.13590347
      vertex -0.01202749 0.00600000 0.13747487
    endloop
  endfacet
  facet normal 0.00000000 1.00000000 0.00000000
    outer loop
      vertex -0.01944860 0.00600000 0.11029847
      vertex -0.01202749 0.00600000 0.13747487
      vertex -0.00976144 0.00600000 0.11157381
    endloop
  endfacet
  facet normal 0.00000000 -1.00000000 0.00000000
    outer loop
      vertex -0.01944860 -0.00600000 0.11029847
      vertex -0.01202749 -0.00600000 0.13747487
      vertex -0.02396345 -0.00600000 0.13590347
    endloop
  endfacet
  facet normal 0.00000000 -1.00000000 0.00000000
    outer loop
      vertex -0.01944860 -0.00600000 0.11029847
      vertex -0.00976144 -0.00600000 0.11157381
      vertex -0.01202749 -0.00600000 0.13747487
    endloop
  endfacet
  facet normal -0.13052619 0.00000000 0.99144486
    outer loop
      vertex -0.02396345 0.00600000 0.13590347
      vertex -0.02396345 -0.00600000 0.13590347
      vertex -0.01202749 -0.00600000 0.13747487
    endloop
  endfacet
  facet normal -0.13052619 0.00000000 0.99144486
    outer loop
      vertex -0.02396345 0.00600000 0.13590347
      vertex -0.01202749 -0.00600000 0.13747487
      vertex -0.01202749 0.00600000 0.13747487
    endloop
  endfacet
  facet normal 0.13052619 0.00000000 -0.99144486
    outer loop
      vertex -0.01944860 0.00600000 0.11029847
      vertex -0.00976144 -0.00600000 0.11157381
      vertex -0.01944860 -0.00600000 0.11029847
    endloop
  endfacet
  facet normal 0.13052619 0.00000000 -0.99144486
    outer loop
      vertex -0.01944860 0.00600000 0.11029847
      vertex -0.00976144 0.00600000 0.11157381
      vertex -0.00976144 -0.00600000 0.11157381
    endloop
  endfacet
  facet normal 0.00000000 1.00000000 -0.00000000
    outer loop
      vertex -0.00976144 0.00600000 0.11157381
      vertex -0.01202749 0.00600000 0.13747487
      vertex 0.00000000 0.00600000 0.13800000
    endloop
  endfacet
  facet normal 0.00000000 1.00000000 0.00000000
    outer loop
      vertex -0.00976144 0.00600000 0.11157381
      vertex 0.00000000 0.00600000 0.13800000
      vertex 0.00000000 0.00600000 0.11200000
    endloop
  endfacet
  facet normal 0.00000000 -1.00000000 0.00000000
    outer loop
      vertex -0.00976144 -0.00600000 0.11157381
      vertex 0.00000000 -0.00600000 0.13800000
      vertex -0.01202749 -0.00600000 0.13747487
    endloop
  endfacet
  facet normal 0.00000000 -1.00000000 0.00000000
    outer loop
      vertex -0.00976144 -0.00600000 0.11157381
      vertex 0.00000000 -0.00600000 0.11200000
      vertex 0.00000000 -0.00600000 0.13800000
    endloop
  endfacet
  facet normal -0.04361939 0.00000000 0.99904822
    outer loop
      vertex -0.01202749 0.00600000 0.13747487
      vertex -0.01202749 -0.00600000 0.13747487
      vertex 0.00000000 -0.00600000 0.13800000
    endloop
  endfacet
  facet normal -0.04361939 0.00000000 0.99904822
    outer loop
      vertex -0.01202749 0.00600000 0.13747487
      vertex 0.00000000 -0.00600000 0.13800000
      vertex 0.00000000 0.00600000 0.13800000
    endloop
  endfacet
  facet normal 0.04361939 0.00000000 -0.99904822
    outer loop
      vertex -0.00976144 0.00600000 0.11157381
      vertex 0.00000000 -0.00600000 0.11200000
      vertex -0.00976144 -0.00600000 0.11157381
    endloop
  endfacet
  facet normal 0.04361939 0.00000000 -0.99904822
    outer loop
      vertex -0.00976144 0.00600000 0.11157381
      vertex 0.00000000 0.00600000 0.11200000
      vertex 0.00000000 -0.00600000 0.11200000
    endloop
  endfacet
  facet normal 0.00000000 1.00000000 0.00000000
    outer loop
      vertex 0.00000000 0.00600000 0.11200000
      vertex 0.00000000 0.00600000 0.13800000
      vertex 0.01202749 0.00600000 0.13747487
    endloop
  endfacet
  facet normal -0.00000000 1.00000000 0.00000000
    outer loop
      vertex 0.00000000 0.00600000 0.11200000
      vertex 0.01202749 0.00600000 0.13747487
      vertex 0.00976144 0.00600000 0.11157381
    endloop
  endfacet
  facet normal 0.00000000 -1.00000000 0.00000000
    outer loop
      vertex 0.00000000 -0.00600000 0.11200000
      vertex 0.01202749 -0.00600000 0.13747487
      vertex 0.00000000 -0.00600000 0.13800000
    endloop
  endfacet
  facet normal 0.00000000 -1.00000000 0.00000000
    outer loop
      vertex 0.00000000 -0.00600000 0.11200000
      vertex 0.00976144 -0.00600000 0.11157381
      vertex 0.01202749 -0.00600000 0.13747487
    endloop
  endfacet
  facet normal 0.04361939 0.00000000 0.99904822
    outer loop
      vertex 0.00000000 0.00600000 0.13800000
      vertex 0.00000000 -0.00600000 0.13800000
      vertex 0.01202749 -0.00600000 0.13747487
    endloop
  endfacet
  facet normal 0.04361939 0.00000000 0.99904822
    outer loop
      vertex 0.00000000 0.00600000 0.13800000
      vertex 0.01202749 -0.00600000 0.13747487
      vertex 0.01202749 0.00600000 0.13747487
    endloop
  endfacet
  facet normal -0.04361939 -0.00000000 -0.99904822
    outer loop
      vertex 0.00000000 0.00600000 0.11200000
      vertex 0.00976144 -0.00600000 0.11157381
      vertex 0.00000000 -0.00600000 0.11200000
    endloop
  endfacet
  facet normal -0.04361939 0.00000000 -0.99904822
    outer loop
      vertex 0.00000000 0.00600000 0.11200000
      vertex 0.00976144 0.00600000 0.11157381
      vertex 0.00976144 -0.00600000 0.11157381
    endloop
  endfacet
  facet normal 0.00000000 1.00000000 0.00000000
    outer loop
      vertex 0.00976144 0.00600000 0.11157381
      vertex 0.01202749 0.00600000 0.13747487
      vertex 0.02396345 0.00600000 0.13590347
    endloop
  endfacet
  facet normal -0.00000000 1.00000000 0.00000000
    outer loop
      vertex 0.00976144 0.00600000 0.11157381
      vertex 0.02396345 0.00600000 0.13590347
      vertex 0.01944860 0.00600000 0.11029847
    endloop
  endfacet
  facet normal 0.00000000 -1.00000000 0.00000000
    outer loop
      vertex 0.00976144 -0.00600000 0.11157381
      vertex 0.02396345 -0.00600000 0.13590347
      vertex 0.01202749 -0.00600000 0.13747487
    endloop
  endfacet
  facet normal 0.00000000 -1.00000000 0.00000000
    outer loop
      vertex 0.00976144 -0.00600000 0.11157381
      vertex 0.01944860 -0.00600000 0.11029847
      vertex 0.02396345 -0.00600000 0.13590347
    endloop
  endfacet
  facet normal 0.13052619 0.00000000 0.99144486
    outer loop
      vertex 0.01202749 0.00600000 0.13747487
      vertex 0.01202749 -0.00600000 0.13747487
      vertex 0.02396345 -0.00600000 0.13590347
    endloop
  endfacet
  facet normal 0.13052619 0.00000000 0.99144486
    outer loop
      vertex 0.01202749 0.00600000 0.13747487
      vertex 0.02396345 -0.00600000 0.13590347
      vertex 0.02396345 0.00600000 0.13590347
    endloop
  endfacet
  facet normal -0.13052619 -0.00000000 -0.99144486
    outer loop
      vertex 0.00976144 0.00600000 0.11157381
      vertex 0.01944860 -0.00600000 0.11029847
      vertex 0.00976144 -0.00600000 0.11157381
    endloop
  endfacet
  facet normal -0.13052619 0.00000000 -0.99144486
    outer loop
      vertex 0.00976144 0.00600000 0.11157381
      vertex 0.01944860 0.00600000 0.11029847
      vertex 0.01944860 -0.00600000 0.11029847
    endloop
  endfacet
  facet normal 0.00000000 1.00000000 0.00000000
    outer loop
      vertex 0.01944860 0.00600000 0.11029847
      vertex 0.02396345 0.00600000 0.13590347
      vertex 0.03571703 0.00600000 0.13329776
    endloop
  endfacet
  facet normal -0.00000000 1.00000000 0.00000000
    outer loop
      vertex 0.01944860 0.00600000 0.11029847
      vertex 0.03571703 0.00600000 0.13329776
      vertex 0.02898773 0.00600000 0.10818369
    endloop
  endfacet
  facet normal 0.00000000 -1.00000000 0.00000000
    outer loop
      vertex 0.01944860 -0.00600000 0.11029847
      vertex 0.03571703 -0.00600000 0.13329776
      vertex 0.02396345 -0.00600000 0.13590347
    endloop
  endfacet
  facet normal 0.00000000 -1.00000000 0.00000000
    outer loop
      vertex 0.01944860 -0.00600000 0.11029847
      vertex 0.02898773 -0.00600000 0.10818369
      vertex 0.03571703 -0.00600000 0.13329776
    endloop
  endfacet
  facet normal 0.21643961 0.00000000 0.97629601
    outer loop
      vertex 0.02396345 0.00600000 0.13590347
      vertex 0.02396345 -0.00600000 0.13590347
      vertex 0.03571703 -0.00600000 0.13329776
    endloop
  endfacet
  facet normal 0.21643961 0.00000000 0.97629601
    outer loop
      vertex 0.02396345 0.00600000 0.13590347
      vertex 0.03571703 -0.00600000 0.13329776
      vertex 0.03571703 0.00600000 0.13329776
    endloop
  endfacet
  facet normal -0.21643961 -0.00000000 -0.97629601
    outer loop
      vertex 0.01944860 0.00600000 0.11029847
      vertex 0.02898773 -0.00600000 0.10818369
      vertex 0.01944860 -0.00600000 0.11029847
    endloop
  endfacet
  facet normal -0.21643961 0.00000000 -0.97629601
    outer loop
      vertex 0.01944860 0.00600000 0.11029847
      vertex 0.02898773 0.00600000 0.10818369
      vertex 0.02898773 -0.00600000 0.10818369
    endloop
  endfacet
  facet normal 0.00000000 1.00000000 0.00000000
    outer loop
      vertex 0.02898773 0.00600000 0.10818369
      vertex 0.03571703 0.00600000 0.13329776
      vertex 0.04719878 0.00600000 0.12967758
    endloop
  endfacet
  facet normal -0.00000000 1.00000000 0.00000000
    outer loop
      vertex 0.02898773 0.00600000 0.10818369
      vertex 0.04719878 0.00600000 0.12967758
      vertex 0.03830626 0.00600000 0.10524557
    endloop
  endfacet
  facet normal 0.00000000 -1.00000000 0.00000000
    outer loop
      vertex 0.02898773 -0.00600000 0.10818369
      vertex 0.04719878 -0.00600000 0.12967758
      vertex 0.03571703 -0.00600000 0.13329776
    endloop
  endfacet
  facet normal 0.00000000 -1.00000000 0.00000000
    outer loop
      vertex 0.02898773 -0.00600000 0.10818369
      vertex 0.03830626 -0.00600000 0.10524557
      vertex 0.04719878 -0.00600000 0.12967758
    endloop
  endfacet
  facet normal 0.30070580 0.00000000 0.95371695
    outer loop
      vertex 0.03571703 0.00600000 0.13329776
      vertex 0.03571703 -0.00600000 0.13329776
      vertex 0.04719878 -0.00600000 0.12967758
    endloop
  endfacet
  facet normal 0.30070580 0.00000000 0.95371695
    outer loop
      vertex 0.03571703 0.00600000 0.13329776
      vertex 0.04719878 -0.00600000 0.12967758
      vertex 0.04719878 0.00600000 0.12967758
    endloop
  endfacet
  facet normal -0.30070580 -0.00000000 -0.95371695
    outer loop
      vertex 0.02898773 0.00600000 0.10818369
      vertex 0.03830626 -0.00600000 0.10524557
      vertex 0.02898773 -0.00600000 0.10818369
    endloop
  endfacet
  facet normal -0.30070580 0.00000000 -0.95371695
    outer loop
      vertex 0.02898773 0.00600000 0.10818369
      vertex 0.03830626 0.00600000 0.10524557
      vertex 0.03830626 -0.00600000 0.10524557
    endloop
  endfacet
  facet normal 0.00000000 1.00000000 0.00000000
    outer loop
      vertex 0.03830626 0.00600000 0.10524557
      vertex 0.04719878 0.00600000 0.12967758
      vertex 0.05832132 0.00600000 0.12507047
    endloop
  endfacet
  facet normal -0.00000000 1.00000000 0.00000000
    outer loop
      vertex 0.03830626 0.00600000 0.10524557
      vertex 0.05832132 0.00600000 0.12507047
      vertex 0.04733325 0.00600000 0.10150647
    endloop
  endfacet
  facet normal 0.00000000 -1.00000000 0.00000000
    outer loop
      vertex 0.03830626 -0.00600000 0.10524557
      vertex 0.05832132 -0.00600000 0.12507047
      vertex 0.04719878 -0.00600000 0.12967758
    endloop
  endfacet
  facet normal 0.00000000 -1.00000000 0.00000000
    outer loop
      vertex 0.03830626 -0.00600000 0.10524557
      vertex 0.04733325 -0.00600000 0.10150647
      vertex 0.05832132 -0.00600000 0.12507047
    endloop
  endfacet
  facet normal 0.38268343 0.00000000 0.92387953
    outer loop
      vertex 0.04719878 0.00600000 0.12967758
      vertex 0.04719878 -0.00600000 0.12967758
      vertex 0.05832132 -0.00600000 0.12507047
    endloop
  endfacet
  facet normal 0.38268343 0.00000000 0.92387953
    outer loop
      vertex 0.04719878 0.00600000 0.12967758
      vertex 0.05832132 -0.00600000 0.12507047
      vertex 0.05832132 0.00600000 0.12507047
    endloop
  endfacet
  facet normal -0.38268343 -0.00000000 -0.92387953
    outer loop
      vertex 0.03830626 0.00600000 0.10524557
      vertex 0.04733325 -0.00600000 0.10150647
      vertex 0.03830626 -0.00600000 0.10524557
    endloop
  endfacet
  facet normal -0.38268343 0.00000000 -0.92387953
    outer loop
      vertex 0.03830626 0.00600000 0.10524557
      vertex 0.04733325 0.00600000 0.10150647
      vertex 0.04733325 -0.00600000 0.10150647
    endloop
  endfacet
  facet normal 0.00000000 1.00000000 0.00000000
    outer loop
      vertex 0.04733325 0.00600000 0.10150647
      vertex 0.05832132 0.00600000 0.12507047
      vertex 0.06900000 0.00600000 0.11951151
    endloop
  endfacet
  facet normal -0.00000000 1.00000000 0.00000000
    outer loop
      vertex 0.04733325 0.00600000 0.10150647
      vertex 0.06900000 0.00600000 0.11951151
      vertex 0.05600000 0.00600000 0.09699485
    endloop
  endfacet
  facet normal 0.00000000 -1.00000000 0.00000000
    outer loop
      vertex 0.04733325 -0.00600000 0.10150647
      vertex 0.06900000 -0.00600000 0.11951151
      vertex 0.05832132 -0.00600000 0.12507047
    endloop
  endfacet
  facet normal 0.00000000 -1.00000000 0.00000000
    outer loop
      vertex 0.04733325 -0.00600000 0.10150647
      vertex 0.05600000 -0.00600000 0.09699485
      vertex 0.06900000 -0.00600000 0.11951151
    endloop
  endfacet
  facet normal 0.46174861 0.00000000 0.88701083
    outer loop
      vertex 0.05832132 0.00600000 0.12507047
      vertex 0.05832132 -0.00600000 0.12507047
      vertex 0.06900000 -0.00600000 0.11951151
    endloop
  endfacet
  facet normal 0.46174861 0.00000000 0.88701083
    outer loop
      vertex 0.05832132 0.00600000 0.12507047
      vertex 0.06900000 -0.00600000 0.11951151
      vertex 0.06900000 0.00600000 0.11951151
    endloop
  endfacet
  facet normal -0.46174861 -0.00000000 -0.88701083
    outer loop
      vertex 0.04733325 0.00600000 0.10150647
      vertex 0.05600000 -0.00600000 0.09699485
      vertex 0.04733325 -0.00600000 0.10150647
    endloop
  endfacet
  facet normal -0.46174861 0.00000000 -0.88701083
    outer loop
      vertex 0.04733325 0.00600000 0.10150647
      vertex 0.05600000 0.00600000 0.09699485
      vertex 0.05600000 -0.00600000 0.09699485
    endloop
  endfacet
  facet normal 0.00000000 1.00000000 0.00000000
    outer loop
      vertex 0.05600000 0.00600000 0.09699485
      vertex 0.06900000 0.00600000 0.11951151
      vertex 0.07915355 0.00600000 0.11304298
    endloop
  endfacet
  facet normal -0.00000000 1.00000000 0.00000000
    outer loop
      vertex 0.05600000 0.00600000 0.09699485
      vertex 0.07915355 0.00600000 0.11304298
      vertex 0.06424056 0.00600000 0.09174503
    endloop
  endfacet
  facet normal 0.00000000 -1.00000000 0.00000000
    outer loop
      vertex 0.05600000 -0.00600000 0.09699485
      vertex 0.07915355 -0.00600000 0.11304298
      vertex 0.06900000 -0.00600000 0.11951151
    endloop
  endfacet
  facet normal 0.00000000 -1.00000000 0.00000000
    outer loop
      vertex 0.05600000 -0.00600000 0.09699485
      vertex 0.06424056 -0.00600000 0.09174503
      vertex 0.07915355 -0.00600000 0.11304298
    endloop
  endfacet
  facet normal 0.53729961 0.00000000 0.84339145
    outer loop
      vertex 0.06900000 0.00600000 0.11951151
      vertex 0.06900000 -0.00600000 0.11951151
      vertex 0.07915355 -0.00600000 0.11304298
    endloop
  endfacet
  facet normal 0.53729961 0.00000000 0.84339145
    outer loop
      vertex 0.06900000 0.00600000 0.11951151
      vertex 0.07915355 -0.00600000 0.11304298
      vertex 0.07915355 0.00600000 0.11304298
    endloop
  endfacet
  facet normal -0.53729961 -0.00000000 -0.84339145
    outer loop
      vertex 0.05600000 0.00600000 0.09699485
      vertex 0.06424056 -0.00600000 0.09174503
      vertex 0.05600000 -0.00600000 0.09699485
    endloop
  endfacet
  facet normal -0.53729961 0.00000000 -0.84339145
    outer loop
      vertex 0.05600000 0.00600000 0.09699485
      vertex 0.06424056 0.00600000 0.09174503
      vertex 0.06424056 -0.00600000 0.09174503
    endloop
  endfacet
  facet normal 0.00000000 1.00000000 0.00000000
    outer loop
      vertex 0.06424056 0.00600000 0.09174503
      vertex 0.07915355 0.00600000 0.11304298
      vertex 0.08870469 0.00600000 0.10571413
    endloop
  endfacet
  facet normal -0.00000000 1.00000000 0.00000000
    outer loop
      vertex 0.06424056 0.00600000 0.09174503
      vertex 0.08870469 0.00600000 0.10571413
      vertex 0.07199221 0.00600000 0.08579698
    endloop
  endfacet
  facet normal 0.00000000 -1.00000000 0.00000000
    outer loop
      vertex 0.06424056 -0.00600000 0.09174503
      vertex 0.08870469 -0.00600000 0.10571413
      vertex 0.07915355 -0.00600000 0.11304298
    endloop
  endfacet
  facet normal 0.00000000 -1.00000000 0.00000000
    outer loop
      vertex 0.06424056 -0.00600000 0.09174503
      vertex 0.07199221 -0.00600000 0.08579698
      vertex 0.08870469 -0.00600000 0.10571413
    endloop
  endfacet
  facet normal 0.60876143 0.00000000 0.79335334
    outer loop
      vertex 0.07915355 0.00600000 0.11304298
      vertex 0.07915355 -0.00600000 0.11304298
      vertex 0.08870469 -0.00600000 0.10571413
    endloop
  endfacet
  facet normal 0.60876143 0.00000000 0.79335334
    outer loop
      vertex 0.07915355 0.00600000 0.11304298
      vertex 0.08870469 -0.00600000 0.10571413
      vertex 0.08870469 0.00600000 0.10571413
    endloop
  endfacet
  facet normal -0.60876143 -0.00000000 -0.79335334
    outer loop
      vertex 0.06424056 0.00600000 0.09174503
      vertex 0.07199221 -0.00600000 0.08579698
      vertex 0.06424056 -0.00600000 0.09174503
    endloop
  endfacet
  facet normal -0.60876143 0.00000000 -0.79335334
    outer loop
      vertex 0.06424056 0.00600000 0.09174503
      vertex 0.07199221 0.00600000 0.08579698
      vertex 0.07199221 -0.00600000 0.08579698
    endloop
  endfacet
  facet normal 0.00000000 1.00000000 0.00000000
    outer loop
      vertex 0.07199221 0.00600000 0.08579698
      vertex 0.08870469 0.00600000 0.10571413
      vertex 0.09758074 0.00600000 0.09758074
    endloop
  endfacet
  facet normal -0.00000000 1.00000000 0.00000000
    outer loop
      vertex 0.07199221 0.00600000 0.08579698
      vertex 0.09758074 0.00600000 0.09758074
      vertex 0.07919596 0.00600000 0.07919596
    endloop
  endfacet
  facet normal 0.00000000 -1.00000000 0.00000000
    outer loop
      vertex 0.07199221 -0.00600000 0.08579698
      vertex 0.09758074 -0.00600000 0.09758074
      vertex 0.08870469 -0.00600000 0.10571413
    endloop
  endfacet
  facet normal 0.00000000 -1.00000000 0.00000000
    outer loop
      vertex 0.07199221 -0.00600000 0.08579698
      vertex 0.07919596 -0.00600000 0.07919596
      vertex 0.09758074 -0.00600000 0.09758074
    endloop
  endfacet
  facet normal 0.67559021 0.00000000 0.73727734
    outer loop
      vertex 0.08870469 0.00600000 0.10571413
      vertex 0.08870469 -0.00600000 0.10571413
      vertex 0.09758074 -0.00600000 0.09758074
    endloop
  endfacet
  facet normal 0.67559021 0.00000000 0.73727734
    outer loop
      vertex 0.08870469 0.00600000 0.10571413
      vertex 0.09758074 -0.00600000 0.09758074
      vertex 0.09758074 0.00600000 0.09758074
    endloop
  endfacet
  facet normal -0.67559021 -0.00000000 -0.73727734
    outer loop
      vertex 0.07199221 0.00600000 0.08579698
      vertex 0.07919596 -0.00600000 0.07919596
      vertex 0.07199221 -0.00600000 0.08579698
    endloop
  endfacet
  facet normal -0.67559021 0.00000000 -0.73727734
    outer loop
      vertex 0.07199221 0.00600000 0.08579698
      vertex 0.07919596 0.00600000 0.07919596
      vertex 0.07919596 -0.00600000 0.07919596
    endloop
  endfacet
  facet normal 0.00000000 1.00000000 0.00000000
    outer loop
      vertex 0.07919596 0.00600000 0.07919596
      vertex 0.09758074 0.00600000 0.09758074
      vertex 0.10571413 0.00600000 0.08870469
    endloop
  endfacet
  facet normal -0.00000000 1.00000000 0.00000000
    outer loop
      vertex 0.07919596 0.00600000 0.07919596
      vertex 0.10571413 0.00600000 0.08870469
      vertex 0.08579698 0.00600000 0.07199221
    endloop
  endfacet
  facet normal 0.00000000 -1.00000000 0.00000000
    outer loop
      vertex 0.07919596 -0.00600000 0.07919596
      vertex 0.10571413 -0.00600000 0.08870469
      vertex 0.09758074 -0.00600000 0.09758074
    endloop
  endfacet
  facet normal 0.00000000 -1.00000000 0.00000000
    outer loop
      vertex 0.07919596 -0.00600000 0.07919596
      vertex 0.08579698 -0.00600000 0.07199221
      vertex 0.10571413 -0.00600000 0.08870469
    endloop
  endfacet
  facet normal 0.73727734 0.00000000 0.67559021
    outer loop
      vertex 0.09758074 0.00600000 0.09758074
      vertex 0.09758074 -0.00600000 0.09758074
      vertex 0.10571413 -0.00600000 0.08870469
    endloop
  endfacet
  facet normal 0.73727734 0.00000000 0.67559021
    outer loop
      vertex 0.09758074 0.00600000 0.09758074
      vertex 0.10571413 -0.00600000 0.08870469
      vertex 0.10571413 0.00600000 0.08870469
    endloop
  endfacet
  facet normal -0.73727734 -0.00000000 -0.67559021
    outer loop
      vertex 0.07919596 0.00600000 0.07919596
      vertex 0.08579698 -0.00600000 0.07199221
      vertex 0.07919596 -0.00600000 0.07919596
    endloop
  endfacet
  facet normal -0.73727734 0.00000000 -0.67559021
    outer loop
      vertex 0.07919596 0.00600000 0.07919596
      vertex 0.08579698 0.00600000 0.07199221
      vertex 0.08579698 -0.00600000 0.07199221
    endloop
  endfacet
  facet normal 0.00000000 1.00000000 0.00000000
    outer loop
      vertex 0.08579698 0.00600000 0.07199221
      vertex 0.10571413 0.00600000 0.08870469
      vertex 0.11304298 0.00600000 0.07915355
    endloop
  endfacet
  facet normal -0.00000000 1.00000000 0.00000000
    outer loop
      vertex 0.08579698 0.00600000 0.07199221
      vertex 0.11304298 0.00600000 0.07915355
      vertex 0.09174503 0.00600000 0.06424056
    endloop
  endfacet
  facet normal 0.00000000 -1.00000000 0.00000000
    outer loop
      vertex 0.08579698 -0.00600000 0.07199221
      vertex 0.11304298 -0.00600000 0.07915355
      vertex 0.10571413 -0.00600000 0.08870469
    endloop
  endfacet
  facet normal 0.00000000 -1.00000000 0.00000000
    outer loop
      vertex 0.08579698 -0.00600000 0.07199221
      vertex 0.09174503 -0.00600000 0.06424056
      vertex 0.11304298 -0.00600000 0.07915355
    endloop
  endfacet
  facet normal 0.79335334 0.00000000 0.60876143
    outer loop
      vertex 0.10571413 0.00600000 0.08870469
      vertex 0.10571413 -0.00600000 0.08870469
      vertex 0.11304298 -0.00600000 0.07915355
    endloop
  endfacet
  facet normal 0.79335334 0.00000000 0.60876143
    outer loop
      vertex 0.10571413 0.00600000 0.08870469
      vertex 0.11304298 -0.00600000 0.07915355
      vertex 0.11304298 0.00600000 0.07915355
    endloop
  endfacet
  facet normal -0.79335334 -0.00000000 -0.60876143
    outer loop
      vertex 0.08579698 0.00600000 0.07199221
      vertex 0.09174503 -0.00600000 0.06424056
      vertex 0.08579698 -0.00600000 0.07199221
    endloop
  endfacet
  facet normal -0.79335334 0.00000000 -0.60876143
    outer loop
      vertex 0.08579698 0.00600000 0.07199221
      vertex 0.09174503 0.00600000 0.06424056
      vertex 0.09174503 -0.00600000 0.06424056
    endloop
  endfacet
  facet normal 0.00000000 1.00000000 0.00000000
    outer loop
      vertex 0.09174503 0.00600000 0.06424056
      vertex 0.11304298 0.00600000 0.07915355
      vertex 0.11951151 0.00600000 0.06900000
    endloop
  endfacet
  facet normal -0.00000000 1.00000000 0.00000000
    outer loop
      vertex 0.09174503 0.00600000 0.06424056
      vertex 0.11951151 0.00600000 0.06900000
      vertex 0.09699485 0.00600000 0.05600000
    endloop
  endfacet
  facet normal 0.00000000 -1.00000000 0.00000000
    outer loop
      vertex 0.09174503 -0.00600000 0.06424056
      vertex 0.11951151 -0.00600000 0.06900000
      vertex 0.11304298 -0.00600000 0.07915355
    endloop
  endfacet
  facet normal 0.00000000 -1.00000000 0.00000000
    outer loop
      vertex 0.09174503 -0.00600000 0.06424056
      vertex 0.09699485 -0.00600000 0.05600000
      vertex 0.11951151 -0.00600000 0.06900000
    endloop
  endfacet
  facet normal 0.84339145 0.00000000 0.53729961
    outer loop
      vertex 0.11304298 0.00600000 0.07915355
      vertex 0.11304298 -0.00600000 0.07915355
      vertex 0.11951151 -0.00600000 0.06900000
    endloop
  endfacet
  facet normal 0.84339145 0.00000000 0.53729961
    outer loop
      vertex 0.11304298 0.00600000 0.07915355
      vertex 0.11951151 -0.00600000 0.06900000
      vertex 0.11951151 0.00600000 0.06900000
    endloop
  endfacet
  facet normal -0.84339145 -0.00000000 -0.53729961
    outer loop
      vertex 0.09174503 0.00600000 0.06424056
      vertex 0.09699485 -0.00600000 0.05600000
      vertex 0.09174503 -0.00600000 0.06424056
    endloop
  endfacet
  facet normal -0.84339145 0.00000000 -0.53729961
    outer loop
      vertex 0.09174503 0.00600000 0.06424056
      vertex 0.09699485 0.00600000 0.05600000
      vertex 0.09699485 -0.00600000 0.05600000
    endloop
  endfacet
  facet normal 0.00000000 1.00000000 0.00000000
    outer loop
      vertex 0.09699485 0.00600000 0.05600000
      vertex 0.11951151 0.00600000 0.06900000
      vertex 0.12507047 0.00600000 0.05832132
    endloop
  endfacet
  facet normal -0.00000000 1.00000000 0.00000000
    outer loop
      vertex 0.09699485 0.00600000 0.05600000
      vertex 0.12507047 0.00600000 0.05832132
      vertex 0.10150647 0.00600000 0.04733325
    endloop
  endfacet
  facet normal 0.00000000 -1.00000000 0.00000000
    outer loop
      vertex 0.09699485 -0.00600000 0.05600000
      vertex 0.12507047 -0.00600000 0.05832132
      vertex 0.11951151 -0.00600000 0.06900000
    endloop
  endfacet
  facet normal 0.00000000 -1.00000000 0.00000000
    outer loop
      vertex 0.09699485 -0.00600000 0.05600000
      vertex 0.10150647 -0.00600000 0.04733325
      vertex 0.12507047 -0.00600000 0.05832132
    endloop
  endfacet
  facet normal 0.88701083 0.00000000 0.46174861
    outer loop
      vertex 0.11951151 0.00600000 0.06900000
      vertex 0.11951151 -0.00600000 0.06900000
      vertex 0.12507047 -0.00600000 0.05832132
    endloop
  endfacet
  facet normal 0.88701083 0.00000000 0.46174861
    outer loop
      vertex 0.11951151 0.00600000 0.06900000
      vertex 0.12507047 -0.00600000 0.05832132
      vertex 0.12507047 0.00600000 0.05832132
    endloop
  endfacet
  facet normal -0.88701083 -0.00000000 -0.46174861
    outer loop
      vertex 0.09699485 0.00600000 0.05600000
      vertex 0.10150647 -0.00600000 0.04733325
      vertex 0.09699485 -0.00600000 0.05600000
    endloop
  endfacet
  facet normal -0.88701083 0.00000000 -0.46174861
    outer loop
      vertex 0.09699485 0.00600000 0.05600000
      vertex 0.10150647 0.00600000 0.04733325
      vertex 0.10150647 -0.00600000 0.04733325
    endloop
  endfacet
  facet normal -0.00000000 1.00000000 0.00000000
    outer loop
      vertex 0.10150647 0.00600000 0.04733325
      vertex 0.12507047 0.00600000 0.05832132
      vertex 0.12967758 0.00600000 0.04719878
    endloop
  endfacet
  facet normal 0.00000000 1.00000000 0.00000000
    outer loop
      vertex 0.10150647 0.00600000 0.04733325
      vertex 0.12967758 0.00600000 0.04719878
      vertex 0.10524557 0.00600000 0.03830626
    endloop
  endfacet
  facet normal 0.00000000 -1.00000000 0.00000000
    outer loop
      vertex 0.10150647 -0.00600000 0.04733325
      vertex 0.12967758 -0.00600000 0.04719878
      vertex 0.12507047 -0.00600000 0.05832132
    endloop
  endfacet
  facet normal 0.00000000 -1.00000000 0.00000000
    outer loop
      vertex 0.10150647 -0.00600000 0.04733325
      vertex 0.10524557 -0.00600000 0.03830626
      vertex 0.12967758 -0.00600000 0.04719878
    endloop
  endfacet
  facet normal 0.92387953 0.00000000 0.38268343
    outer loop
      vertex 0.12507047 0.00600000 0.05832132
      vertex 0.12507047 -0.00600000 0.05832132
      vertex 0.12967758 -0.00600000 0.04719878
    endloop
  endfacet
  facet normal 0.92387953 0.00000000 0.38268343
    outer loop
      vertex 0.12507047 0.00600000 0.05832132
      vertex 0.12967758 -0.00600000 0.04719878
      vertex 0.12967758 0.00600000 0.04719878
    endloop
  endfacet
  facet normal -0.92387953 -0.00000000 -0.38268343
    outer loop
      vertex 0.10150647 0.00600000 0.04733325
      vertex 0.10524557 -0.00600000 0.03830626
      vertex 0.10150647 -0.00600000 0.04733325
    endloop
  endfacet
  facet normal -0.92387953 0.00000000 -0.38268343
    outer loop
      vertex 0.10150647 0.00600000 0.04733325
      vertex 0.10524557 0.00600000 0.03830626
      vertex 0.10524557 -0.00600000 0.03830626
    endloop
  endfacet
  facet normal -0.00000000 1.00000000 0.00000000
    outer loop
      vertex 0.10524557 0.00600000 0.03830626
      vertex 0.12967758 0.00600000 0.04719878
      vertex 0.13329776 0.00600000 0.03571703
    endloop
  endfacet
  facet normal 0.00000000 1.00000000 0.00000000
    outer loop
      vertex 0.10524557 0.00600000 0.03830626
      vertex 0.13329776 0.00600000 0.03571703
      vertex 0.10818369 0.00600000 0.02898773
    endloop
  endfacet
  facet normal 0.00000000 -1.00000000 0.00000000
    outer loop
      vertex 0.10524557 -0.00600000 0.03830626
      vertex 0.13329776 -0.00600000 0.03571703
      vertex 0.12967758 -0.00600000 0.04719878
    endloop
  endfacet
  facet normal 0.00000000 -1.00000000 0.00000000
    outer loop
      vertex 0.10524557 -0.00600000 0.03830626
      vertex 0.10818369 -0.00600000 0.02898773
      vertex 0.13329776 -0.00600000 0.03571703
    endloop
  endfacet
  facet normal 0.95371695 0.00000000 0.30070580
    outer loop
      vertex 0.12967758 0.00600000 0.04719878
      vertex 0.12967758 -0.00600000 0.04719878
      vertex 0.13329776 -0.00600000 0.03571703
    endloop
  endfacet
  facet normal 0.95371695 0.00000000 0.30070580
    outer loop
      vertex 0.12967758 0.00600000 0.04719878
      vertex 0.13329776 -0.00600000 0.03571703
      vertex 0.13329776 0.00600000 0.03571703
    endloop
  endfacet
  facet normal -0.95371695 -0.00000000 -0.30070580
    outer loop
      vertex 0.10524557 0.00600000 0.03830626
      vertex 0.10818369 -0.00600000 0.02898773
      vertex 0.10524557 -0.00600000 0.03830626
    endloop
  endfacet
  facet normal -0.95371695 0.00000000 -0.30070580
    outer loop
      vertex 0.10524557 0.00600000 0.03830626
      vertex 0.10818369 0.00600000 0.02898773
      vertex 0.10818369 -0.00600000 0.02898773
    endloop
  endfacet
  facet normal -0.00000000 1.00000000 0.00000000
    outer loop
      vertex 0.10818369 0.00600000 0.02898773
      vertex 0.13329776 0.00600000 0.03571703
      vertex 0.13590347 0.00600000 0.02396345
    endloop
  endfacet
  facet normal 0.00000000 1.00000000 0.00000000
    outer loop
      vertex 0.10818369 0.00600000 0.02898773
      vertex 0.13590347 0.00600000 0.02396345
      vertex 0.11029847 0.00600000 0.01944860
    endloop
  endfacet
  facet normal 0.00000000 -1.00000000 0.00000000
    outer loop
      vertex 0.10818369 -0.00600000 0.02898773
      vertex 0.13590347 -0.00600000 0.02396345
      vertex 0.13329776 -0.00600000 0.03571703
    endloop
  endfacet
  facet normal 0.00000000 -1.00000000 0.00000000
    outer loop
      vertex 0.10818369 -0.00600000 0.02898773
      vertex 0.11029847 -0.00600000 0.01944860
      vertex 0.13590347 -0.00600000 0.02396345
    endloop
  endfacet
  facet normal 0.97629601 0.00000000 0.21643961
    outer loop
      vertex 0.13329776 0.00600000 0.03571703
      vertex 0.13329776 -0.00600000 0.03571703
      vertex 0.13590347 -0.00600000 0.02396345
    endloop
  endfacet
  facet normal 0.97629601 0.00000000 0.21643961
    outer loop
      vertex 0.13329776 0.00600000 0.03571703
      vertex 0.13590347 -0.00600000 0.02396345
      vertex 0.13590347 0.00600000 0.02396345
    endloop
  endfacet
  facet normal -0.97629601 -0.00000000 -0.21643961
    outer loop
      vertex 0.10818369 0.00600000 0.02898773
      vertex 0.11029847 -0.00600000 0.01944860
      vertex 0.10818369 -0.00600000 0.02898773
    endloop
  endfacet
  facet normal -0.97629601 0.00000000 -0.21643961
    outer loop
      vertex 0.10818369 0.00600000 0.02898773
      vertex 0.11029847 0.00600000 0.01944860
      vertex 0.11029847 -0.00600000 0.01944860
    endloop
  endfacet
  facet normal -0.00000000 1.00000000 0.00000000
    outer loop
      vertex 0.11029847 0.00600000 0.01944860
      vertex 0.13590347 0.00600000 0.02396345
      vertex 0.13747487 0.00600000 0.01202749
    endloop
  endfacet
  facet normal 0.00000000 1.00000000 0.00000000
    outer loop
      vertex 0.11029847 0.00600000 0.01944860
      vertex 0.13747487 0.00600000 0.01202749
      vertex 0.11157381 0.00600000 0.00976144
    endloop
  endfacet
  facet normal 0.00000000 -1.00000000 0.00000000
    outer loop
      vertex 0.11029847 -0.00600000 0.01944860
      vertex 0.13747487 -0.00600000 0.01202749
      vertex 0.13590347 -0.00600000 0.02396345
    endloop
  endfacet
  facet normal 0.00000000 -1.00000000 0.00000000
    outer loop
      vertex 0.11029847 -0.00600000 0.01944860
      vertex 0.11157381 -0.00600000 0.00976144
      vertex 0.13747487 -0.00600000 0.01202749
    endloop
  endfacet
  facet normal 0.99144486 0.00000000 0.13052619
    outer loop
      vertex 0.13590347 0.00600000 0.02396345
      vertex 0.13590347 -0.00600000 0.02396345
      vertex 0.13747487 -0.00600000 0.01202749
    endloop
  endfacet
  facet normal 0.99144486 0.00000000 0.13052619
    outer loop
      vertex 0.13590347 0.00600000 0.02396345
      vertex 0.13747487 -0.00600000 0.01202749
      vertex 0.13747487 0.00600000 0.01202749
    endloop
  endfacet
  facet normal -0.99144486 -0.00000000 -0.13052619
    outer loop
      vertex 0.11029847 0.00600000 0.01944860
      vertex 0.11157381 -0.00600000 0.00976144
      vertex 0.11029847 -0.00600000 0.01944860
    endloop
  endfacet
  facet normal -0.99144486 0.00000000 -0.13052619
    outer loop
      vertex 0.11029847 0.00600000 0.01944860
      vertex 0.11157381 0.00600000 0.00976144
      vertex 0.11157381 -0.00600000 0.00976144
    endloop
  endfacet
  facet normal -0.00000000 1.00000000 0.00000000
    outer loop
      vertex 0.11157381 0.00600000 0.00976144
      vertex 0.13747487 0.00600000 0.01202749
      vertex 0.13800000 0.00600000 0.00000000
    endloop
  endfacet
  facet normal 0.00000000 1.00000000 0.00000000
    outer loop
      vertex 0.11157381 0.00600000 0.00976144
      vertex 0.13800000 0.00600000 0.00000000
      vertex 0.11200000 0.00600000 0.00000000
    endloop
  endfacet
  facet normal 0.00000000 -1.00000000 0.00000000
    outer loop
      vertex 0.11157381 -0.00600000 0.00976144
      vertex 0.13800000 -0.00600000 0.00000000
      vertex 0.13747487 -0.00600000 0.01202749
    endloop
  endfacet
  facet normal 0.00000000 -1.00000000 0.00000000
    outer loop
      vertex 0.11157381 -0.00600000 0.00976144
      vertex 0.11200000 -0.00600000 0.00000000
      vertex 0.13800000 -0.00600000 0.00000000
    endloop
  endfacet
  facet normal 0.99904822 0.00000000 0.04361939
    outer loop
      vertex 0.13747487 0.00600000 0.01202749
      vertex 0.13747487 -0.00600000 0.01202749
      vertex 0.13800000 -0.00600000 0.00000000
    endloop
  endfacet
  facet normal 0.99904822 0.00000000 0.04361939
    outer loop
      vertex 0.13747487 0.00600000 0.01202749
      vertex 0.13800000 -0.00600000 0.00000000
      vertex 0.13800000 0.00600000 0.00000000
    endloop
  endfacet
  facet normal -0.99904822 -0.00000000 -0.04361939
    outer loop
      vertex 0.11157381 0.00600000 0.00976144
      vertex 0.11200000 -0.00600000 0.00000000
      vertex 0.11157381 -0.00600000 0.00976144
    endloop
  endfacet
  facet normal -0.99904822 0.00000000 -0.04361939
    outer loop
      vertex 0.11157381 0.00600000 0.00976144
      vertex 0.11200000 0.00600000 0.00000000
      vertex 0.11200000 -0.00600000 0.00000000
    endloop
  endfacet
endsolid wheel_fender
