solid wheel_treads
  facet normal 1.00000000 0.00000000 0.00000000
    outer loop
      vertex 0.09400000 -0.02600000 -0.00700000
      vertex 0.09400000 0.02600000 0.00700000
      vertex 0.09400000 -0.02600000 0.00700000
    endloop
  endfacet
  facet normal 1.00000000 0.00000000 0.00000000
    outer loop
      vertex 0.09400000 -0.02600000 -0.00700000
      vertex 0.09400000 0.02600000 -0.00700000
      vertex 0.09400000 0.02600000 0.00700000
    endloop
  endfacet
  facet normal -1.00000000 0.00000000 0.00000000
    outer loop
      vertex 0.10600000 -0.02600000 -0.00700000
      vertex 0.10600000 -0.02600000 0.00700000
      vertex 0.10600000 0.02600000 0.00700000
    endloop
  endfacet
  facet normal -1.00000000 0.00000000 0.00000000
    outer loop
      vertex 0.10600000 -0.02600000 -0.00700000
      vertex 0.10600000 0.02600000 0.00700000
      vertex 0.10600000 0.02600000 -0.00700000
    endloop
  endfacet
  facet normal 0.00000000 1.00000000 0.00000000
    outer loop
      vertex 0.09400000 -0.02600000 -0.00700000
      vertex 0.09400000 -0.02600000 0.00700000
      vertex 0.10600000 -0.02600000 0.00700000
    endloop
  endfacet
  facet normal 0.00000000 1.00000000 0.00000000
    outer loop
      vertex 0.09400000 -0.02600000 -0.00700000
      vertex 0.10600000 -0.02600000 0.00700000
      vertex 0.10600000 -0.02600000 -0.00700000
    endloop
  endfacet
  facet normal 0.00000000 0.00000000 -1.00000000
    outer loop
      vertex 0.09400000 -0.02600000 0.00700000
      vertex 0.09400000 0.02600000 0.00700000
      vertex 0.10600000 0.02600000 0.00700000
    endloop
  endfacet
  facet normal 0.00000000 0.00000000 -1.00000000
    outer loop
      vertex 0.09400000 -0.02600000 0.00700000
      vertex 0.10600000 0.02600000 0.00700000
      vertex 0.10600000 -0.02600000 0.00700000
    endloop
  endfacet
  facet normal 0.00000000 -1.00000000 0.00000000
    outer loop
      vertex 0.09400000 0.02600000 0.00700000
      vertex 0.09400000 0.02600000 -0.00700000
      vertex 0.10600000 0.02600000 -0.00700000
    endloop
  endfacet
  facet normal 0.00000000 -1.00000000 0.00000000
    outer loop
      vertex 0.09400000 0.02600000 0.00700000
      vertex 0.10600000 0.02600000 -0.00700000
      vertex 0.10600000 0.02600000 0.00700000
    endloop
  endfacet
  facet normal 0.00000000 0.00000000 1.00000000
    outer loop
      vertex 0.09400000 0.02600000 -0.00700000
      vertex 0.09400000 -0.02600000 -0.00700000
      vertex 0.10600000 -0.02600000 -0.00700000
    endloop
  endfacet
  facet normal -0.00000000 0.00000000 1.00000000
    outer loop
      vertex 0.09400000 0.02600000 -0.00700000
      vertex 0.10600000 -0.02600000 -0.00700000
      vertex 0.10600000 0.02600000 -0.00700000
    endloop
  endfacet
  facet normal 0.93969262 0.00000000 0.34202014
    outer loop
      vertex 0.09072525 -0.02600000 0.02557205
      vertex 0.08593697 0.02600000 0.03872774
      vertex 0.08593697 -0.02600000 0.03872774
    endloop
  endfacet
  facet normal 0.93969262 -0.00000000 0.34202014
    outer loop
      vertex 0.09072525 -0.02600000 0.02557205
      vertex 0.09072525 0.02600000 0.02557205
      vertex 0.08593697 0.02600000 0.03872774
    endloop
  endfacet
  facet normal -0.93969262 0.00000000 -0.34202014
    outer loop
      vertex 0.10200156 -0.02600000 0.02967629
      vertex 0.09721328 -0.02600000 0.04283198
      vertex 0.09721328 0.02600000 0.04283198
    endloop
  endfacet
  facet normal -0.93969262 0.00000000 -0.34202014
    outer loop
      vertex 0.10200156 -0.02600000 0.02967629
      vertex 0.09721328 0.02600000 0.04283198
      vertex 0.10200156 0.02600000 0.02967629
    endloop
  endfacet
  facet normal 0.00000000 1.00000000 -0.00000000
    outer loop
      vertex 0.09072525 -0.02600000 0.02557205
      vertex 0.08593697 -0.02600000 0.03872774
      vertex 0.09721328 -0.02600000 0.04283198
    endloop
  endfacet
  facet normal 0.00000000 1.00000000 0.00000000
    outer loop
      vertex 0.09072525 -0.02600000 0.02557205
      vertex 0.09721328 -0.02600000 0.04283198
      vertex 0.10200156 -0.02600000 0.02967629
    endloop
  endfacet
  facet normal 0.34202014 0.00000000 -0.93969262
    outer loop
      vertex 0.08593697 -0.02600000 0.03872774
      vertex 0.08593697 0.02600000 0.03872774
      vertex 0.09721328 0.02600000 0.04283198
    endloop
  endfacet
  facet normal 0.34202014 0.00000000 -0.93969262
    outer loop
      vertex 0.08593697 -0.02600000 0.03872774
      vertex 0.09721328 0.02600000 0.04283198
      vertex 0.09721328 -0.02600000 0.04283198
    endloop
  endfacet
  facet normal 0.00000000 -1.00000000 0.00000000
    outer loop
      vertex 0.08593697 0.02600000 0.03872774
      vertex 0.09072525 0.02600000 0.02557205
      vertex 0.10200156 0.02600000 0.02967629
    endloop
  endfacet
  facet normal 0.00000000 -1.00000000 0.00000000
    outer loop
      vertex 0.08593697 0.02600000 0.03872774
      vertex 0.10200156 0.02600000 0.02967629
      vertex 0.09721328 0.02600000 0.04283198
    endloop
  endfacet
  facet normal -0.34202014 0.00000000 0.93969262
    outer loop
      vertex 0.09072525 0.02600000 0.02557205
      vertex 0.09072525 -0.02600000 0.02557205
      vertex 0.10200156 -0.02600000 0.02967629
    endloop
  endfacet
  facet normal -0.34202014 0.00000000 0.93969262
    outer loop
      vertex 0.09072525 0.02600000 0.02557205
      vertex 0.10200156 -0.02600000 0.02967629
      vertex 0.10200156 0.02600000 0.02967629
    endloop
  endfacet
  facet normal 0.76604444 0.00000000 0.64278761
    outer loop
      vertex 0.07650769 -0.02600000 0.05505972
      vertex 0.06750866 0.02600000 0.06578435
      vertex 0.06750866 -0.02600000 0.06578435
    endloop
  endfacet
  facet normal 0.76604444 -0.00000000 0.64278761
    outer loop
      vertex 0.07650769 -0.02600000 0.05505972
      vertex 0.07650769 0.02600000 0.05505972
      vertex 0.06750866 0.02600000 0.06578435
    endloop
  endfacet
  facet normal -0.76604444 0.00000000 -0.64278761
    outer loop
      vertex 0.08570022 -0.02600000 0.06277318
      vertex 0.07670120 -0.02600000 0.07349780
      vertex 0.07670120 0.02600000 0.07349780
    endloop
  endfacet
  facet normal -0.76604444 0.00000000 -0.64278761
    outer loop
      vertex 0.08570022 -0.02600000 0.06277318
      vertex 0.07670120 0.02600000 0.07349780
      vertex 0.08570022 0.02600000 0.06277318
    endloop
  endfacet
  facet normal 0.00000000 1.00000000 -0.00000000
    outer loop
      vertex 0.07650769 -0.02600000 0.05505972
      vertex 0.06750866 -0.02600000 0.06578435
      vertex 0.07670120 -0.02600000 0.07349780
    endloop
  endfacet
  facet normal 0.00000000 1.00000000 0.00000000
    outer loop
      vertex 0.07650769 -0.02600000 0.05505972
      vertex 0.07670120 -0.02600000 0.07349780
      vertex 0.08570022 -0.02600000 0.06277318
    endloop
  endfacet
  facet normal 0.64278761 0.00000000 -0.76604444
    outer loop
      vertex 0.06750866 -0.02600000 0.06578435
      vertex 0.06750866 0.02600000 0.06578435
      vertex 0.07670120 0.02600000 0.07349780
    endloop
  endfacet
  facet normal 0.64278761 0.00000000 -0.76604444
    outer loop
      vertex 0.06750866 -0.02600000 0.06578435
      vertex 0.07670120 0.02600000 0.07349780
      vertex 0.07670120 -0.02600000 0.07349780
    endloop
  endfacet
  facet normal 0.00000000 -1.00000000 0.00000000
    outer loop
      vertex 0.06750866 0.02600000 0.06578435
      vertex 0.07650769 0.02600000 0.05505972
      vertex 0.08570022 0.02600000 0.06277318
    endloop
  endfacet
  facet normal 0.00000000 -1.00000000 0.00000000
    outer loop
      vertex 0.06750866 0.02600000 0.06578435
      vertex 0.08570022 0.02600000 0.06277318
      vertex 0.07670120 0.02600000 0.07349780
    endloop
  endfacet
  facet normal -0.64278761 0.00000000 0.76604444
    outer loop
      vertex 0.07650769 0.02600000 0.05505972
      vertex 0.07650769 -0.02600000 0.05505972
      vertex 0.08570022 -0.02600000 0.06277318
    endloop
  endfacet
  facet normal -0.64278761 0.00000000 0.76604444
    outer loop
      vertex 0.07650769 0.02600000 0.05505972
      vertex 0.08570022 -0.02600000 0.06277318
      vertex 0.08570022 0.02600000 0.06277318
    endloop
  endfacet
  facet normal 0.50000000 0.00000000 0.86602540
    outer loop
      vertex 0.05306218 -0.02600000 0.07790639
      vertex 0.04093782 0.02600000 0.08490639
      vertex 0.04093782 -0.02600000 0.08490639
    endloop
  endfacet
  facet normal 0.50000000 -0.00000000 0.86602540
    outer loop
      vertex 0.05306218 -0.02600000 0.07790639
      vertex 0.05306218 0.02600000 0.07790639
      vertex 0.04093782 0.02600000 0.08490639
    endloop
  endfacet
  facet normal -0.50000000 0.00000000 -0.86602540
    outer loop
      vertex 0.05906218 -0.02600000 0.08829869
      vertex 0.04693782 -0.02600000 0.09529869
      vertex 0.04693782 0.02600000 0.09529869
    endloop
  endfacet
  facet normal -0.50000000 0.00000000 -0.86602540
    outer loop
      vertex 0.05906218 -0.02600000 0.08829869
      vertex 0.04693782 0.02600000 0.09529869
      vertex 0.05906218 0.02600000 0.08829869
    endloop
  endfacet
  facet normal 0.00000000 1.00000000 0.00000000
    outer loop
      vertex 0.05306218 -0.02600000 0.07790639
      vertex 0.04093782 -0.02600000 0.08490639
      vertex 0.04693782 -0.02600000 0.09529869
    endloop
  endfacet
  facet normal 0.00000000 1.00000000 -0.00000000
    outer loop
      vertex 0.05306218 -0.02600000 0.07790639
      vertex 0.04693782 -0.02600000 0.09529869
      vertex 0.05906218 -0.02600000 0.08829869
    endloop
  endfacet
  facet normal 0.86602540 0.00000000 -0.50000000
    outer loop
      vertex 0.04093782 -0.02600000 0.08490639
      vertex 0.04093782 0.02600000 0.08490639
      vertex 0.04693782 0.02600000 0.09529869
    endloop
  endfacet
  facet normal 0.86602540 0.00000000 -0.50000000
    outer loop
      vertex 0.04093782 -0.02600000 0.08490639
      vertex 0.04693782 0.02600000 0.09529869
      vertex 0.04693782 -0.02600000 0.09529869
    endloop
  endfacet
  facet normal 0.00000000 -1.00000000 0.00000000
    outer loop
      vertex 0.04093782 0.02600000 0.08490639
      vertex 0.05306218 0.02600000 0.07790639
      vertex 0.05906218 0.02600000 0.08829869
    endloop
  endfacet
  facet normal 0.00000000 -1.00000000 0.00000000
    outer loop
      vertex 0.04093782 0.02600000 0.08490639
      vertex 0.05906218 0.02600000 0.08829869
      vertex 0.04693782 0.02600000 0.09529869
    endloop
  endfacet
  facet normal -0.86602540 0.00000000 0.50000000
    outer loop
      vertex 0.05306218 0.02600000 0.07790639
      vertex 0.05306218 -0.02600000 0.07790639
      vertex 0.05906218 -0.02600000 0.08829869
    endloop
  endfacet
  facet normal -0.86602540 0.00000000 0.50000000
    outer loop
      vertex 0.05306218 0.02600000 0.07790639
      vertex 0.05906218 -0.02600000 0.08829869
      vertex 0.05906218 0.02600000 0.08829869
    endloop
  endfacet
  facet normal 0.17364818 0.00000000 0.98480775
    outer loop
      vertex 0.02321658 -0.02600000 0.09135639
      vertex 0.00942927 0.02600000 0.09378747
      vertex 0.00942927 -0.02600000 0.09378747
    endloop
  endfacet
  facet normal 0.17364818 -0.00000000 0.98480775
    outer loop
      vertex 0.02321658 -0.02600000 0.09135639
      vertex 0.02321658 0.02600000 0.09135639
      vertex 0.00942927 0.02600000 0.09378747
    endloop
  endfacet
  facet normal -0.17364818 0.00000000 -0.98480775
    outer loop
      vertex 0.02530036 -0.02600000 0.10317408
      vertex 0.01151305 -0.02600000 0.10560516
      vertex 0.01151305 0.02600000 0.10560516
    endloop
  endfacet
  facet normal -0.17364818 0.00000000 -0.98480775
    outer loop
      vertex 0.02530036 -0.02600000 0.10317408
      vertex 0.01151305 0.02600000 0.10560516
      vertex 0.02530036 0.02600000 0.10317408
    endloop
  endfacet
  facet normal 0.00000000 1.00000000 0.00000000
    outer loop
      vertex 0.02321658 -0.02600000 0.09135639
      vertex 0.00942927 -0.02600000 0.09378747
      vertex 0.01151305 -0.02600000 0.10560516
    endloop
  endfacet
  facet normal 0.00000000 1.00000000 -0.00000000
    outer loop
      vertex 0.02321658 -0.02600000 0.09135639
      vertex 0.01151305 -0.02600000 0.10560516
      vertex 0.02530036 -0.02600000 0.10317408
    endloop
  endfacet
  facet normal 0.98480775 0.00000000 -0.17364818
    outer loop
      vertex 0.00942927 -0.02600000 0.09378747
      vertex 0.00942927 0.02600000 0.09378747
      vertex 0.01151305 0.02600000 0.10560516
    endloop
  endfacet
  facet normal 0.98480775 0.00000000 -0.17364818
    outer loop
      vertex 0.00942927 -0.02600000 0.09378747
      vertex 0.01151305 0.02600000 0.10560516
      vertex 0.01151305 -0.02600000 0.10560516
    endloop
  endfacet
  facet normal 0.00000000 -1.00000000 0.00000000
    outer loop
      vertex 0.00942927 0.02600000 0.09378747
      vertex 0.02321658 0.02600000 0.09135639
      vertex 0.02530036 0.02600000 0.10317408
    endloop
  endfacet
  facet normal 0.00000000 -1.00000000 0.00000000
    outer loop
      vertex 0.00942927 0.02600000 0.09378747
      vertex 0.02530036 0.02600000 0.10317408
      vertex 0.01151305 0.02600000 0.10560516
    endloop
  endfacet
  facet normal -0.98480775 0.00000000 0.17364818
    outer loop
      vertex 0.02321658 0.02600000 0.09135639
      vertex 0.02321658 -0.02600000 0.09135639
      vertex 0.02530036 -0.02600000 0.10317408
    endloop
  endfacet
  facet normal -0.98480775 0.00000000 0.17364818
    outer loop
      vertex 0.02321658 0.02600000 0.09135639
      vertex 0.02530036 -0.02600000 0.10317408
      vertex 0.02530036 0.02600000 0.10317408
    endloop
  endfacet
  facet normal -0.17364818 0.00000000 0.98480775
    outer loop
      vertex -0.00942927 -0.02600000 0.09378747
      vertex -0.02321658 0.02600000 0.09135639
      vertex -0.02321658 -0.02600000 0.09135639
    endloop
  endfacet
  facet normal -0.17364818 0.00000000 0.98480775
    outer loop
      vertex -0.00942927 -0.02600000 0.09378747
      vertex -0.00942927 0.02600000 0.09378747
      vertex -0.02321658 0.02600000 0.09135639
    endloop
  endfacet
  facet normal 0.17364818 0.00000000 -0.98480775
    outer loop
      vertex -0.01151305 -0.02600000 0.10560516
      vertex -0.02530036 -0.02600000 0.10317408
      vertex -0.02530036 0.02600000 0.10317408
    endloop
  endfacet
  facet normal 0.17364818 0.00000000 -0.98480775
    outer loop
      vertex -0.01151305 -0.02600000 0.10560516
      vertex -0.02530036 0.02600000 0.10317408
      vertex -0.01151305 0.02600000 0.10560516
    endloop
  endfacet
  facet normal 0.00000000 1.00000000 0.00000000
    outer loop
      vertex -0.00942927 -0.02600000 0.09378747
      vertex -0.02321658 -0.02600000 0.09135639
      vertex -0.02530036 -0.02600000 0.10317408
    endloop
  endfacet
  facet normal 0.00000000 1.00000000 0.00000000
    outer loop
      vertex -0.00942927 -0.02600000 0.09378747
      vertex -0.02530036 -0.02600000 0.10317408
      vertex -0.01151305 -0.02600000 0.10560516
    endloop
  endfacet
  facet normal 0.98480775 -0.00000000 0.17364818
    outer loop
      vertex -0.02321658 -0.02600000 0.09135639
      vertex -0.02321658 0.02600000 0.09135639
      vertex -0.02530036 0.02600000 0.10317408
    endloop
  endfacet
  facet normal 0.98480775 0.00000000 0.17364818
    outer loop
      vertex -0.02321658 -0.02600000 0.09135639
      vertex -0.02530036 0.02600000 0.10317408
      vertex -0.02530036 -0.02600000 0.10317408
    endloop
  endfacet
  facet normal 0.00000000 -1.00000000 0.00000000
    outer loop
      vertex -0.02321658 0.02600000 0.09135639
      vertex -0.00942927 0.02600000 0.09378747
      vertex -0.01151305 0.02600000 0.10560516
    endloop
  endfacet
  facet normal 0.00000000 -1.00000000 0.00000000
    outer loop
      vertex -0.02321658 0.02600000 0.09135639
      vertex -0.01151305 0.02600000 0.10560516
      vertex -0.02530036 0.02600000 0.10317408
    endloop
  endfacet
  facet normal -0.98480775 -0.00000000 -0.17364818
    outer loop
      vertex -0.00942927 0.02600000 0.09378747
      vertex -0.00942927 -0.02600000 0.09378747
      vertex -0.01151305 -0.02600000 0.10560516
    endloop
  endfacet
  facet normal -0.98480775 0.00000000 -0.17364818
    outer loop
      vertex -0.00942927 0.02600000 0.09378747
      vertex -0.01151305 -0.02600000 0.10560516
      vertex -0.01151305 0.02600000 0.10560516
    endloop
  endfacet
  facet normal -0.50000000 0.00000000 0.86602540
    outer loop
      vertex -0.04093782 -0.02600000 0.08490639
      vertex -0.05306218 0.02600000 0.07790639
      vertex -0.05306218 -0.02600000 0.07790639
    endloop
  endfacet
  facet normal -0.50000000 0.00000000 0.86602540
    outer loop
      vertex -0.04093782 -0.02600000 0.08490639
      vertex -0.04093782 0.02600000 0.08490639
      vertex -0.05306218 0.02600000 0.07790639
    endloop
  endfacet
  facet normal 0.50000000 0.00000000 -0.86602540
    outer loop
      vertex -0.04693782 -0.02600000 0.09529869
      vertex -0.05906218 -0.02600000 0.08829869
      vertex -0.05906218 0.02600000 0.08829869
    endloop
  endfacet
  facet normal 0.50000000 0.00000000 -0.86602540
    outer loop
      vertex -0.04693782 -0.02600000 0.09529869
      vertex -0.05906218 0.02600000 0.08829869
      vertex -0.04693782 0.02600000 0.09529869
    endloop
  endfacet
  facet normal 0.00000000 1.00000000 0.00000000
    outer loop
      vertex -0.04093782 -0.02600000 0.08490639
      vertex -0.05306218 -0.02600000 0.07790639
      vertex -0.05906218 -0.02600000 0.08829869
    endloop
  endfacet
  facet normal 0.00000000 1.00000000 0.00000000
    outer loop
      vertex -0.04093782 -0.02600000 0.08490639
      vertex -0.05906218 -0.02600000 0.08829869
      vertex -0.04693782 -0.02600000 0.09529869
    endloop
  endfacet
  facet normal 0.86602540 -0.00000000 0.50000000
    outer loop
      vertex -0.05306218 -0.02600000 0.07790639
      vertex -0.05306218 0.02600000 0.07790639
      vertex -0.05906218 0.02600000 0.08829869
    endloop
  endfacet
  facet normal 0.86602540 0.00000000 0.50000000
    outer loop
      vertex -0.05306218 -0.02600000 0.07790639
      vertex -0.05906218 0.02600000 0.08829869
      vertex -0.05906218 -0.02600000 0.08829869
    endloop
  endfacet
  facet normal 0.00000000 -1.00000000 0.00000000
    outer loop
      vertex -0.05306218 0.02600000 0.07790639
      vertex -0.04093782 0.02600000 0.08490639
      vertex -0.04693782 0.02600000 0.09529869
    endloop
  endfacet
  facet normal 0.00000000 -1.00000000 0.00000000
    outer loop
      vertex -0.05306218 0.02600000 0.07790639
      vertex -0.04693782 0.02600000 0.09529869
      vertex -0.05906218 0.02600000 0.08829869
    endloop
  endfacet
  facet normal -0.86602540 -0.00000000 -0.50000000
    outer loop
      vertex -0.04093782 0.02600000 0.08490639
      vertex -0.04093782 -0.02600000 0.08490639
      vertex -0.04693782 -0.02600000 0.09529869
    endloop
  endfacet
  facet normal -0.86602540 0.00000000 -0.50000000
    outer loop
      vertex -0.04093782 0.02600000 0.08490639
      vertex -0.04693782 -0.02600000 0.09529869
      vertex -0.04693782 0.02600000 0.09529869
    endloop
  endfacet
  facet normal -0.76604444 0.00000000 0.64278761
    outer loop
      vertex -0.06750866 -0.02600000 0.06578435
      vertex -0.07650769 0.02600000 0.05505972
      vertex -0.07650769 -0.02600000 0.05505972
    endloop
  endfacet
  facet normal -0.76604444 0.00000000 0.64278761
    outer loop
      vertex -0.06750866 -0.02600000 0.06578435
      vertex -0.06750866 0.02600000 0.06578435
      vertex -0.07650769 0.02600000 0.05505972
    endloop
  endfacet
  facet normal 0.76604444 0.00000000 -0.64278761
    outer loop
      vertex -0.07670120 -0.02600000 0.07349780
      vertex -0.08570022 -0.02600000 0.06277318
      vertex -0.08570022 0.02600000 0.06277318
    endloop
  endfacet
  facet normal 0.76604444 0.00000000 -0.64278761
    outer loop
      vertex -0.07670120 -0.02600000 0.07349780
      vertex -0.08570022 0.02600000 0.06277318
      vertex -0.07670120 0.02600000 0.07349780
    endloop
  endfacet
  facet normal 0.00000000 1.00000000 0.00000000
    outer loop
      vertex -0.06750866 -0.02600000 0.06578435
      vertex -0.07650769 -0.02600000 0.05505972
      vertex -0.08570022 -0.02600000 0.06277318
    endloop
  endfacet
  facet normal 0.00000000 1.00000000 0.00000000
    outer loop
      vertex -0.06750866 -0.02600000 0.06578435
      vertex -0.08570022 -0.02600000 0.06277318
      vertex -0.07670120 -0.02600000 0.07349780
    endloop
  endfacet
  facet normal 0.64278761 -0.00000000 0.76604444
    outer loop
      vertex -0.07650769 -0.02600000 0.05505972
      vertex -0.07650769 0.02600000 0.05505972
      vertex -0.08570022 0.02600000 0.06277318
    endloop
  endfacet
  facet normal 0.64278761 0.00000000 0.76604444
    outer loop
      vertex -0.07650769 -0.02600000 0.05505972
      vertex -0.08570022 0.02600000 0.06277318
      vertex -0.08570022 -0.02600000 0.06277318
    endloop
  endfacet
  facet normal 0.00000000 -1.00000000 0.00000000
    outer loop
      vertex -0.07650769 0.02600000 0.05505972
      vertex -0.06750866 0.02600000 0.06578435
      vertex -0.07670120 0.02600000 0.07349780
    endloop
  endfacet
  facet normal 0.00000000 -1.00000000 0.00000000
    outer loop
      vertex -0.07650769 0.02600000 0.05505972
      vertex -0.07670120 0.02600000 0.07349780
      vertex -0.08570022 0.02600000 0.06277318
    endloop
  endfacet
  facet normal -0.64278761 -0.00000000 -0.76604444
    outer loop
      vertex -0.06750866 0.02600000 0.06578435
      vertex -0.06750866 -0.02600000 0.06578435
      vertex -0.07670120 -0.02600000 0.07349780
    endloop
  endfacet
  facet normal -0.64278761 0.00000000 -0.76604444
    outer loop
      vertex -0.06750866 0.02600000 0.06578435
      vertex -0.07670120 -0.02600000 0.07349780
      vertex -0.07670120 0.02600000 0.07349780
    endloop
  endfacet
  facet normal -0.93969262 0.00000000 0.34202014
    outer loop
      vertex -0.08593697 -0.02600000 0.03872774
      vertex -0.09072525 0.02600000 0.02557205
      vertex -0.09072525 -0.02600000 0.02557205
    endloop
  endfacet
  facet normal -0.93969262 0.00000000 0.34202014
    outer loop
      vertex -0.08593697 -0.02600000 0.03872774
      vertex -0.08593697 0.02600000 0.03872774
      vertex -0.09072525 0.02600000 0.02557205
    endloop
  endfacet
  facet normal 0.93969262 0.00000000 -0.34202014
    outer loop
      vertex -0.09721328 -0.02600000 0.04283198
      vertex -0.10200156 -0.02600000 0.02967629
      vertex -0.10200156 0.02600000 0.02967629
    endloop
  endfacet
  facet normal 0.93969262 0.00000000 -0.34202014
    outer loop
      vertex -0.09721328 -0.02600000 0.04283198
      vertex -0.10200156 0.02600000 0.02967629
      vertex -0.09721328 0.02600000 0.04283198
    endloop
  endfacet
  facet normal 0.00000000 1.00000000 0.00000000
    outer loop
      vertex -0.08593697 -0.02600000 0.03872774
      vertex -0.09072525 -0.02600000 0.02557205
      vertex -0.10200156 -0.02600000 0.02967629
    endloop
  endfacet
  facet normal 0.00000000 1.00000000 0.00000000
    outer loop
      vertex -0.08593697 -0.02600000 0.03872774
      vertex -0.10200156 -0.02600000 0.02967629
      vertex -0.09721328 -0.02600000 0.04283198
    endloop
  endfacet
  facet normal 0.34202014 -0.00000000 0.93969262
    outer loop
      vertex -0.09072525 -0.02600000 0.02557205
      vertex -0.09072525 0.02600000 0.02557205
      vertex -0.10200156 0.02600000 0.02967629
    endloop
  endfacet
  facet normal 0.34202014 0.00000000 0.93969262
    outer loop
      vertex -0.09072525 -0.02600000 0.02557205
      vertex -0.10200156 0.02600000 0.02967629
      vertex -0.10200156 -0.02600000 0.02967629
    endloop
  endfacet
  facet normal 0.00000000 -1.00000000 0.00000000
    outer loop
      vertex -0.09072525 0.02600000 0.02557205
      vertex -0.08593697 0.02600000 0.03872774
      vertex -0.09721328 0.02600000 0.04283198
    endloop
  endfacet
  facet normal 0.00000000 -1.00000000 0.00000000
    outer loop
      vertex -0.09072525 0.02600000 0.02557205
      vertex -0.09721328 0.02600000 0.04283198
      vertex -0.10200156 0.02600000 0.02967629
    endloop
  endfacet
  facet normal -0.34202014 -0.00000000 -0.93969262
    outer loop
      vertex -0.08593697 0.02600000 0.03872774
      vertex -0.08593697 -0.02600000 0.03872774
      vertex -0.09721328 -0.02600000 0.04283198
    endloop
  endfacet
  facet normal -0.34202014 0.00000000 -0.93969262
    outer loop
      vertex -0.08593697 0.02600000 0.03872774
      vertex -0.09721328 -0.02600000 0.04283198
      vertex -0.09721328 0.02600000 0.04283198
    endloop
  endfacet
  facet normal -1.00000000 0.00000000 0.00000000
    outer loop
      vertex -0.09400000 -0.02600000 0.00700000
      vertex -0.09400000 0.02600000 -0.00700000
      vertex -0.09400000 -0.02600000 -0.00700000
    endloop
  endfacet
  facet normal -1.00000000 0.00000000 0.00000000
    outer loop
      vertex -0.09400000 -0.02600000 0.00700000
      vertex -0.09400000 0.02600000 0.00700000
      vertex -0.09400000 0.02600000 -0.00700000
    endloop
  endfacet
  facet normal 1.00000000 0.00000000 0.00000000
    outer loop
      vertex -0.10600000 -0.02600000 0.00700000
      vertex -0.10600000 -0.02600000 -0.00700000
      vertex -0.10600000 0.02600000 -0.00700000
    endloop
  endfacet
  facet normal 1.00000000 -0.00000000 0.00000000
    outer loop
      vertex -0.10600000 -0.02600000 0.00700000
      vertex -0.10600000 0.02600000 -0.00700000
      vertex -0.10600000 0.02600000 0.00700000
    endloop
  endfacet
  facet normal 0.00000000 1.00000000 0.00000000
    outer loop
      vertex -0.09400000 -0.02600000 0.00700000
      vertex -0.09400000 -0.02600000 -0.00700000
      vertex -0.10600000 -0.02600000 -0.00700000
    endloop
  endfacet
  facet normal 0.00000000 1.00000000 0.00000000
    outer loop
      vertex -0.09400000 -0.02600000 0.00700000
      vertex -0.10600000 -0.02600000 -0.00700000
      vertex -0.10600000 -0.02600000 0.00700000
    endloop
  endfacet
  facet normal 0.00000000 -0.00000000 1.00000000
    outer loop
      vertex -0.09400000 -0.02600000 -0.00700000
      vertex -0.09400000 0.02600000 -0.00700000
      vertex -0.10600000 0.02600000 -0.00700000
    endloop
  endfacet
  facet normal 0.00000000 0.00000000 1.00000000
    outer loop
      vertex -0.09400000 -0.02600000 -0.00700000
      vertex -0.10600000 0.02600000 -0.00700000
      vertex -0.10600000 -0.02600000 -0.00700000
    endloop
  endfacet
  facet normal 0.00000000 -1.00000000 0.00000000
    outer loop
      vertex -0.09400000 0.02600000 -0.00700000
      vertex -0.09400000 0.02600000 0.00700000
      vertex -0.10600000 0.02600000 0.00700000
    endloop
  endfacet
  facet normal 0.00000000 -1.00000000 0.00000000
    outer loop
      vertex -0.09400000 0.02600000 -0.00700000
      vertex -0.10600000 0.02600000 0.00700000
      vertex -0.10600000 0.02600000 -0.00700000
    endloop
  endfacet
  facet normal -0.00000000 -0.00000000 -1.00000000
    outer loop
      vertex -0.09400000 0.02600000 0.00700000
      vertex -0.09400000 -0.02600000 0.00700000
      vertex -0.10600000 -0.02600000 0.00700000
    endloop
  endfacet
  facet normal -0.00000000 0.00000000 -1.00000000
    outer loop
      vertex -0.09400000 0.02600000 0.00700000
      vertex -0.10600000 -0.02600000 0.00700000
      vertex -0.10600000 0.02600000 0.00700000
    endloop
  endfacet
  facet normal -0.93969262 0.00000000 -0.34202014
    outer loop
      vertex -0.09072525 -0.02600000 -0.02557205
      vertex -0.08593697 0.02600000 -0.03872774
      vertex -0.08593697 -0.02600000 -0.03872774
    endloop
  endfacet
  facet normal -0.93969262 0.00000000 -0.34202014
    outer loop
      vertex -0.09072525 -0.02600000 -0.02557205
      vertex -0.09072525 0.02600000 -0.02557205
      vertex -0.08593697 0.02600000 -0.03872774
    endloop
  endfacet
  facet normal 0.93969262 0.00000000 0.34202014
    outer loop
      vertex -0.10200156 -0.02600000 -0.02967629
      vertex -0.09721328 -0.02600000 -0.04283198
      vertex -0.09721328 0.02600000 -0.04283198
    endloop
  endfacet
  facet normal 0.93969262 -0.00000000 0.34202014
    outer loop
      vertex -0.10200156 -0.02600000 -0.02967629
      vertex -0.09721328 0.02600000 -0.04283198
      vertex -0.10200156 0.02600000 -0.02967629
    endloop
  endfacet
  facet normal 0.00000000 1.00000000 0.00000000
    outer loop
      vertex -0.09072525 -0.02600000 -0.02557205
      vertex -0.08593697 -0.02600000 -0.03872774
      vertex -0.09721328 -0.02600000 -0.04283198
    endloop
  endfacet
  facet normal 0.00000000 1.00000000 0.00000000
    outer loop
      vertex -0.09072525 -0.02600000 -0.02557205
      vertex -0.09721328 -0.02600000 -0.04283198
      vertex -0.10200156 -0.02600000 -0.02967629
    endloop
  endfacet
  facet normal -0.34202014 0.00000000 0.93969262
    outer loop
      vertex -0.08593697 -0.02600000 -0.03872774
      vertex -0.08593697 0.02600000 -0.03872774
      vertex -0.09721328 0.02600000 -0.04283198
    endloop
  endfacet
  facet normal -0.34202014 0.00000000 0.93969262
    outer loop
      vertex -0.08593697 -0.02600000 -0.03872774
      vertex -0.09721328 0.02600000 -0.04283198
      vertex -0.09721328 -0.02600000 -0.04283198
    endloop
  endfacet
  facet normal 0.00000000 -1.00000000 0.00000000
    outer loop
      vertex -0.08593697 0.02600000 -0.03872774
      vertex -0.09072525 0.02600000 -0.02557205
      vertex -0.10200156 0.02600000 -0.02967629
    endloop
  endfacet
  facet normal -0.00000000 -1.00000000 0.00000000
    outer loop
      vertex -0.08593697 0.02600000 -0.03872774
      vertex -0.10200156 0.02600000 -0.02967629
      vertex -0.09721328 0.02600000 -0.04283198
    endloop
  endfacet
  facet normal 0.34202014 0.00000000 -0.93969262
    outer loop
      vertex -0.09072525 0.02600000 -0.02557205
      vertex -0.09072525 -0.02600000 -0.02557205
      vertex -0.10200156 -0.02600000 -0.02967629
    endloop
  endfacet
  facet normal 0.34202014 0.00000000 -0.93969262
    outer loop
      vertex -0.09072525 0.02600000 -0.02557205
      vertex -0.10200156 -0.02600000 -0.02967629
      vertex -0.10200156 0.02600000 -0.02967629
    endloop
  endfacet
  facet normal -0.76604444 0.00000000 -0.64278761
    outer loop
      vertex -0.07650769 -0.02600000 -0.05505972
      vertex -0.06750866 0.02600000 -0.06578435
      vertex -0.06750866 -0.02600000 -0.06578435
    endloop
  endfacet
  facet normal -0.76604444 0.00000000 -0.64278761
    outer loop
      vertex -0.07650769 -0.02600000 -0.05505972
      vertex -0.07650769 0.02600000 -0.05505972
      vertex -0.06750866 0.02600000 -0.06578435
    endloop
  endfacet
  facet normal 0.76604444 0.00000000 0.64278761
    outer loop
      vertex -0.08570022 -0.02600000 -0.06277318
      vertex -0.07670120 -0.02600000 -0.07349780
      vertex -0.07670120 0.02600000 -0.07349780
    endloop
  endfacet
  facet normal 0.76604444 -0.00000000 0.64278761
    outer loop
      vertex -0.08570022 -0.02600000 -0.06277318
      vertex -0.07670120 0.02600000 -0.07349780
      vertex -0.08570022 0.02600000 -0.06277318
    endloop
  endfacet
  facet normal 0.00000000 1.00000000 0.00000000
    outer loop
      vertex -0.07650769 -0.02600000 -0.05505972
      vertex -0.06750866 -0.02600000 -0.06578435
      vertex -0.07670120 -0.02600000 -0.07349780
    endloop
  endfacet
  facet normal 0.00000000 1.00000000 0.00000000
    outer loop
      vertex -0.07650769 -0.02600000 -0.05505972
      vertex -0.07670120 -0.02600000 -0.07349780
      vertex -0.08570022 -0.02600000 -0.06277318
    endloop
  endfacet
  facet normal -0.64278761 0.00000000 0.76604444
    outer loop
      vertex -0.06750866 -0.02600000 -0.06578435
      vertex -0.06750866 0.02600000 -0.06578435
      vertex -0.07670120 0.02600000 -0.07349780
    endloop
  endfacet
  facet normal -0.64278761 0.00000000 0.76604444
    outer loop
      vertex -0.06750866 -0.02600000 -0.06578435
      vertex -0.07670120 0.02600000 -0.07349780
      vertex -0.07670120 -0.02600000 -0.07349780
    endloop
  endfacet
  facet normal 0.00000000 -1.00000000 0.00000000
    outer loop
      vertex -0.06750866 0.02600000 -0.06578435
      vertex -0.07650769 0.02600000 -0.05505972
      vertex -0.08570022 0.02600000 -0.06277318
    endloop
  endfacet
  facet normal -0.00000000 -1.00000000 0.00000000
    outer loop
      vertex -0.06750866 0.02600000 -0.06578435
      vertex -0.08570022 0.02600000 -0.06277318
      vertex -0.07670120 0.02600000 -0.07349780
    endloop
  endfacet
  facet normal 0.64278761 0.00000000 -0.76604444
    outer loop
      vertex -0.07650769 0.02600000 -0.05505972
      vertex -0.07650769 -0.02600000 -0.05505972
      vertex -0.08570022 -0.02600000 -0.06277318
    endloop
  endfacet
  facet normal 0.64278761 0.00000000 -0.76604444
    outer loop
      vertex -0.07650769 0.02600000 -0.05505972
      vertex -0.08570022 -0.02600000 -0.06277318
      vertex -0.08570022 0.02600000 -0.06277318
    endloop
  endfacet
  facet normal -0.50000000 0.00000000 -0.86602540
    outer loop
      vertex -0.05306218 -0.02600000 -0.07790639
      vertex -0.04093782 0.02600000 -0.08490639
      vertex -0.04093782 -0.02600000 -0.08490639
    endloop
  endfacet
  facet normal -0.50000000 0.00000000 -0.86602540
    outer loop
      vertex -0.05306218 -0.02600000 -0.07790639
      vertex -0.05306218 0.02600000 -0.07790639
      vertex -0.04093782 0.02600000 -0.08490639
    endloop
  endfacet
  facet normal 0.50000000 0.00000000 0.86602540
    outer loop
      vertex -0.05906218 -0.02600000 -0.08829869
      vertex -0.04693782 -0.02600000 -0.09529869
      vertex -0.04693782 0.02600000 -0.09529869
    endloop
  endfacet
  facet normal 0.50000000 -0.00000000 0.86602540
    outer loop
      vertex -0.05906218 -0.02600000 -0.08829869
      vertex -0.04693782 0.02600000 -0.09529869
      vertex -0.05906218 0.02600000 -0.08829869
    endloop
  endfacet
  facet normal 0.00000000 1.00000000 0.00000000
    outer loop
      vertex -0.05306218 -0.02600000 -0.07790639
      vertex -0.04093782 -0.02600000 -0.08490639
      vertex -0.04693782 -0.02600000 -0.09529869
    endloop
  endfacet
  facet normal 0.00000000 1.00000000 0.00000000
    outer loop
      vertex -0.05306218 -0.02600000 -0.07790639
      vertex -0.04693782 -0.02600000 -0.09529869
      vertex -0.05906218 -0.02600000 -0.08829869
    endloop
  endfacet
  facet normal -0.86602540 0.00000000 0.50000000
    outer loop
      vertex -0.04093782 -0.02600000 -0.08490639
      vertex -0.04093782 0.02600000 -0.08490639
      vertex -0.04693782 0.02600000 -0.09529869
    endloop
  endfacet
  facet normal -0.86602540 0.00000000 0.50000000
    outer loop
      vertex -0.04093782 -0.02600000 -0.08490639
      vertex -0.04693782 0.02600000 -0.09529869
      vertex -0.04693782 -0.02600000 -0.09529869
    endloop
  endfacet
  facet normal -0.00000000 -1.00000000 0.00000000
    outer loop
      vertex -0.04093782 0.02600000 -0.08490639
      vertex -0.05306218 0.02600000 -0.07790639
      vertex -0.05906218 0.02600000 -0.08829869
    endloop
  endfacet
  facet normal 0.00000000 -1.00000000 0.00000000
    outer loop
      vertex -0.04093782 0.02600000 -0.08490639
      vertex -0.05906218 0.02600000 -0.08829869
      vertex -0.04693782 0.02600000 -0.09529869
    endloop
  endfacet
  facet normal 0.86602540 0.00000000 -0.50000000
    outer loop
      vertex -0.05306218 0.02600000 -0.07790639
      vertex -0.05306218 -0.02600000 -0.07790639
      vertex -0.05906218 -0.02600000 -0.08829869
    endloop
  endfacet
  facet normal 0.86602540 0.00000000 -0.50000000
    outer loop
      vertex -0.05306218 0.02600000 -0.07790639
      vertex -0.05906218 -0.02600000 -0.08829869
      vertex -0.05906218 0.02600000 -0.08829869
    endloop
  endfacet
  facet normal -0.17364818 0.00000000 -0.98480775
    outer loop
      vertex -0.02321658 -0.02600000 -0.09135639
      vertex -0.00942927 0.02600000 -0.09378747
      vertex -0.00942927 -0.02600000 -0.09378747
    endloop
  endfacet
  facet normal -0.17364818 0.00000000 -0.98480775
    outer loop
      vertex -0.02321658 -0.02600000 -0.09135639
      vertex -0.02321658 0.02600000 -0.09135639
      vertex -0.00942927 0.02600000 -0.09378747
    endloop
  endfacet
  facet normal 0.17364818 0.00000000 0.98480775
    outer loop
      vertex -0.02530036 -0.02600000 -0.10317408
      vertex -0.01151305 -0.02600000 -0.10560516
      vertex -0.01151305 0.02600000 -0.10560516
    endloop
  endfacet
  facet normal 0.17364818 -0.00000000 0.98480775
    outer loop
      vertex -0.02530036 -0.02600000 -0.10317408
      vertex -0.01151305 0.02600000 -0.10560516
      vertex -0.02530036 0.02600000 -0.10317408
    endloop
  endfacet
  facet normal 0.00000000 1.00000000 0.00000000
    outer loop
      vertex -0.02321658 -0.02600000 -0.09135639
      vertex -0.00942927 -0.02600000 -0.09378747
      vertex -0.01151305 -0.02600000 -0.10560516
    endloop
  endfacet
  facet normal 0.00000000 1.00000000 0.00000000
    outer loop
      vertex -0.02321658 -0.02600000 -0.09135639
      vertex -0.01151305 -0.02600000 -0.10560516
      vertex -0.02530036 -0.02600000 -0.10317408
    endloop
  endfacet
  facet normal -0.98480775 0.00000000 0.17364818
    outer loop
      vertex -0.00942927 -0.02600000 -0.09378747
      vertex -0.00942927 0.02600000 -0.09378747
      vertex -0.01151305 0.02600000 -0.10560516
    endloop
  endfacet
  facet normal -0.98480775 0.00000000 0.17364818
    outer loop
      vertex -0.00942927 -0.02600000 -0.09378747
      vertex -0.01151305 0.02600000 -0.10560516
      vertex -0.01151305 -0.02600000 -0.10560516
    endloop
  endfacet
  facet normal -0.00000000 -1.00000000 0.00000000
    outer loop
      vertex -0.00942927 0.02600000 -0.09378747
      vertex -0.02321658 0.02600000 -0.09135639
      vertex -0.02530036 0.02600000 -0.10317408
    endloop
  endfacet
  facet normal 0.00000000 -1.00000000 0.00000000
    outer loop
      vertex -0.00942927 0.02600000 -0.09378747
      vertex -0.02530036 0.02600000 -0.10317408
      vertex -0.01151305 0.02600000 -0.10560516
    endloop
  endfacet
  facet normal 0.98480775 0.00000000 -0.17364818
    outer loop
      vertex -0.02321658 0.02600000 -0.09135639
      vertex -0.02321658 -0.02600000 -0.09135639
      vertex -0.02530036 -0.02600000 -0.10317408
    endloop
  endfacet
  facet normal 0.98480775 0.00000000 -0.17364818
    outer loop
      vertex -0.02321658 0.02600000 -0.09135639
      vertex -0.02530036 -0.02600000 -0.10317408
      vertex -0.02530036 0.02600000 -0.10317408
    endloop
  endfacet
  facet normal 0.17364818 0.00000000 -0.98480775
    outer loop
      vertex 0.00942927 -0.02600000 -0.09378747
      vertex 0.02321658 0.02600000 -0.09135639
      vertex 0.02321658 -0.02600000 -0.09135639
    endloop
  endfacet
  facet normal 0.17364818 0.00000000 -0.98480775
    outer loop
      vertex 0.00942927 -0.02600000 -0.09378747
      vertex 0.00942927 0.02600000 -0.09378747
      vertex 0.02321658 0.02600000 -0.09135639
    endloop
  endfacet
  facet normal -0.17364818 0.00000000 0.98480775
    outer loop
      vertex 0.01151305 -0.02600000 -0.10560516
      vertex 0.02530036 -0.02600000 -0.10317408
      vertex 0.02530036 0.02600000 -0.10317408
    endloop
  endfacet
  facet normal -0.17364818 0.00000000 0.98480775
    outer loop
      vertex 0.01151305 -0.02600000 -0.10560516
      vertex 0.02530036 0.02600000 -0.10317408
      vertex 0.01151305 0.02600000 -0.10560516
    endloop
  endfacet
  facet normal -0.00000000 1.00000000 0.00000000
    outer loop
      vertex 0.00942927 -0.02600000 -0.09378747
      vertex 0.02321658 -0.02600000 -0.09135639
      vertex 0.02530036 -0.02600000 -0.10317408
    endloop
  endfacet
  facet normal 0.00000000 1.00000000 0.00000000
    outer loop
      vertex 0.00942927 -0.02600000 -0.09378747
      vertex 0.02530036 -0.02600000 -0.10317408
      vertex 0.01151305 -0.02600000 -0.10560516
    endloop
  endfacet
  facet normal -0.98480775 0.00000000 -0.17364818
    outer loop
      vertex 0.02321658 -0.02600000 -0.09135639
      vertex 0.02321658 0.02600000 -0.09135639
      vertex 0.02530036 0.02600000 -0.10317408
    endloop
  endfacet
  facet normal -0.98480775 0.00000000 -0.17364818
    outer loop
      vertex 0.02321658 -0.02600000 -0.09135639
      vertex 0.02530036 0.02600000 -0.10317408
      vertex 0.02530036 -0.02600000 -0.10317408
    endloop
  endfacet
  facet normal 0.00000000 -1.00000000 0.00000000
    outer loop
      vertex 0.02321658 0.02600000 -0.09135639
      vertex 0.00942927 0.02600000 -0.09378747
      vertex 0.01151305 0.02600000 -0.10560516
    endloop
  endfacet
  facet normal 0.00000000 -1.00000000 -0.00000000
    outer loop
      vertex 0.02321658 0.02600000 -0.09135639
      vertex 0.01151305 0.02600000 -0.10560516
      vertex 0.02530036 0.02600000 -0.10317408
    endloop
  endfacet
  facet normal 0.98480775 0.00000000 0.17364818
    outer loop
      vertex 0.00942927 0.02600000 -0.09378747
      vertex 0.00942927 -0.02600000 -0.09378747
      vertex 0.01151305 -0.02600000 -0.10560516
    endloop
  endfacet
  facet normal 0.98480775 0.00000000 0.17364818
    outer loop
      vertex 0.00942927 0.02600000 -0.09378747
      vertex 0.01151305 -0.02600000 -0.10560516
      vertex 0.01151305 0.02600000 -0.10560516
    endloop
  endfacet
  facet normal 0.50000000 0.00000000 -0.86602540
    outer loop
      vertex 0.04093782 -0.02600000 -0.08490639
      vertex 0.05306218 0.02600000 -0.07790639
      vertex 0.05306218 -0.02600000 -0.07790639
    endloop
  endfacet
  facet normal 0.50000000 0.00000000 -0.86602540
    outer loop
      vertex 0.04093782 -0.02600000 -0.08490639
      vertex 0.04093782 0.02600000 -0.08490639
      vertex 0.05306218 0.02600000 -0.07790639
    endloop
  endfacet
  facet normal -0.50000000 0.00000000 0.86602540
    outer loop
      vertex 0.04693782 -0.02600000 -0.09529869
      vertex 0.05906218 -0.02600000 -0.08829869
      vertex 0.05906218 0.02600000 -0.08829869
    endloop
  endfacet
  facet normal -0.50000000 0.00000000 0.86602540
    outer loop
      vertex 0.04693782 -0.02600000 -0.09529869
      vertex 0.05906218 0.02600000 -0.08829869
      vertex 0.04693782 0.02600000 -0.09529869
    endloop
  endfacet
  facet normal -0.00000000 1.00000000 0.00000000
    outer loop
      vertex 0.04093782 -0.02600000 -0.08490639
      vertex 0.05306218 -0.02600000 -0.07790639
      vertex 0.05906218 -0.02600000 -0.08829869
    endloop
  endfacet
  facet normal 0.00000000 1.00000000 0.00000000
    outer loop
      vertex 0.04093782 -0.02600000 -0.08490639
      vertex 0.05906218 -0.02600000 -0.08829869
      vertex 0.04693782 -0.02600000 -0.09529869
    endloop
  endfacet
  facet normal -0.86602540 0.00000000 -0.50000000
    outer loop
      vertex 0.05306218 -0.02600000 -0.07790639
      vertex 0.05306218 0.02600000 -0.07790639
      vertex 0.05906218 0.02600000 -0.08829869
    endloop
  endfacet
  facet normal -0.86602540 0.00000000 -0.50000000
    outer loop
      vertex 0.05306218 -0.02600000 -0.07790639
      vertex 0.05906218 0.02600000 -0.08829869
      vertex 0.05906218 -0.02600000 -0.08829869
    endloop
  endfacet
  facet normal 0.00000000 -1.00000000 0.00000000
    outer loop
      vertex 0.05306218 0.02600000 -0.07790639
      vertex 0.04093782 0.02600000 -0.08490639
      vertex 0.04693782 0.02600000 -0.09529869
    endloop
  endfacet
  facet normal 0.00000000 -1.00000000 -0.00000000
    outer loop
      vertex 0.05306218 0.02600000 -0.07790639
      vertex 0.04693782 0.02600000 -0.09529869
      vertex 0.05906218 0.02600000 -0.08829869
    endloop
  endfacet
  facet normal 0.86602540 0.00000000 0.50000000
    outer loop
      vertex 0.04093782 0.02600000 -0.08490639
      vertex 0.04093782 -0.02600000 -0.08490639
      vertex 0.04693782 -0.02600000 -0.09529869
    endloop
  endfacet
  facet normal 0.86602540 0.00000000 0.50000000
    outer loop
      vertex 0.04093782 0.02600000 -0.08490639
      vertex 0.04693782 -0.02600000 -0.09529869
      vertex 0.04693782 0.02600000 -0.09529869
    endloop
  endfacet
  facet normal 0.76604444 0.00000000 -0.64278761
    outer loop
      vertex 0.06750866 -0.02600000 -0.06578435
      vertex 0.07650769 0.02600000 -0.05505972
      vertex 0.07650769 -0.02600000 -0.05505972
    endloop
  endfacet
  facet normal 0.76604444 0.00000000 -0.64278761
    outer loop
      vertex 0.06750866 -0.02600000 -0.06578435
      vertex 0.06750866 0.02600000 -0.06578435
      vertex 0.07650769 0.02600000 -0.05505972
    endloop
  endfacet
  facet normal -0.76604444 0.00000000 0.64278761
    outer loop
      vertex 0.07670120 -0.02600000 -0.07349780
      vertex 0.08570022 -0.02600000 -0.06277318
      vertex 0.08570022 0.02600000 -0.06277318
    endloop
  endfacet
  facet normal -0.76604444 0.00000000 0.64278761
    outer loop
      vertex 0.07670120 -0.02600000 -0.07349780
      vertex 0.08570022 0.02600000 -0.06277318
      vertex 0.07670120 0.02600000 -0.07349780
    endloop
  endfacet
  facet normal 0.00000000 1.00000000 0.00000000
    outer loop
      vertex 0.06750866 -0.02600000 -0.06578435
      vertex 0.07650769 -0.02600000 -0.05505972
      vertex 0.08570022 -0.02600000 -0.06277318
    endloop
  endfacet
  facet normal -0.00000000 1.00000000 0.00000000
    outer loop
      vertex 0.06750866 -0.02600000 -0.06578435
      vertex 0.08570022 -0.02600000 -0.06277318
      vertex 0.07670120 -0.02600000 -0.07349780
    endloop
  endfacet
  facet normal -0.64278761 0.00000000 -0.76604444
    outer loop
      vertex 0.07650769 -0.02600000 -0.05505972
      vertex 0.07650769 0.02600000 -0.05505972
      vertex 0.08570022 0.02600000 -0.06277318
    endloop
  endfacet
  facet normal -0.64278761 0.00000000 -0.76604444
    outer loop
      vertex 0.07650769 -0.02600000 -0.05505972
      vertex 0.08570022 0.02600000 -0.06277318
      vertex 0.08570022 -0.02600000 -0.06277318
    endloop
  endfacet
  facet normal 0.00000000 -1.00000000 -0.00000000
    outer loop
      vertex 0.07650769 0.02600000 -0.05505972
      vertex 0.06750866 0.02600000 -0.06578435
      vertex 0.07670120 0.02600000 -0.07349780
    endloop
  endfacet
  facet normal 0.00000000 -1.00000000 0.00000000
    outer loop
      vertex 0.07650769 0.02600000 -0.05505972
      vertex 0.07670120 0.02600000 -0.07349780
      vertex 0.08570022 0.02600000 -0.06277318
    endloop
  endfacet
  facet normal 0.64278761 0.00000000 0.76604444
    outer loop
      vertex 0.06750866 0.02600000 -0.06578435
      vertex 0.06750866 -0.02600000 -0.06578435
      vertex 0.07670120 -0.02600000 -0.07349780
    endloop
  endfacet
  facet normal 0.64278761 0.00000000 0.76604444
    outer loop
      vertex 0.06750866 0.02600000 -0.06578435
      vertex 0.07670120 -0.02600000 -0.07349780
      vertex 0.07670120 0.02600000 -0.07349780
    endloop
  endfacet
  facet normal 0.93969262 0.00000000 -0.34202014
    outer loop
      vertex 0.08593697 -0.02600000 -0.03872774
      vertex 0.09072525 0.02600000 -0.02557205
      vertex 0.09072525 -0.02600000 -0.02557205
    endloop
  endfacet
  facet normal 0.93969262 0.00000000 -0.34202014
    outer loop
      vertex 0.08593697 -0.02600000 -0.03872774
      vertex 0.08593697 0.02600000 -0.03872774
      vertex 0.09072525 0.02600000 -0.02557205
    endloop
  endfacet
  facet normal -0.93969262 0.00000000 0.34202014
    outer loop
      vertex 0.09721328 -0.02600000 -0.04283198
      vertex 0.10200156 -0.02600000 -0.02967629
      vertex 0.10200156 0.02600000 -0.02967629
    endloop
  endfacet
  facet normal -0.93969262 0.00000000 0.34202014
    outer loop
      vertex 0.09721328 -0.02600000 -0.04283198
      vertex 0.10200156 0.02600000 -0.02967629
      vertex 0.09721328 0.02600000 -0.04283198
    endloop
  endfacet
  facet normal 0.00000000 1.00000000 0.00000000
    outer loop
      vertex 0.08593697 -0.02600000 -0.03872774
      vertex 0.09072525 -0.02600000 -0.02557205
      vertex 0.10200156 -0.02600000 -0.02967629
    endloop
  endfacet
  facet normal -0.00000000 1.00000000 0.00000000
    outer loop
      vertex 0.08593697 -0.02600000 -0.03872774
      vertex 0.10200156 -0.02600000 -0.02967629
      vertex 0.09721328 -0.02600000 -0.04283198
    endloop
  endfacet
  facet normal -0.34202014 0.00000000 -0.93969262
    outer loop
      vertex 0.09072525 -0.02600000 -0.02557205
      vertex 0.09072525 0.02600000 -0.02557205
      vertex 0.10200156 0.02600000 -0.02967629
    endloop
  endfacet
  facet normal -0.34202014 0.00000000 -0.93969262
    outer loop
      vertex 0.09072525 -0.02600000 -0.02557205
      vertex 0.10200156 0.02600000 -0.02967629
      vertex 0.10200156 -0.02600000 -0.02967629
    endloop
  endfacet
  facet normal 0.00000000 -1.00000000 -0.00000000
    outer loop
      vertex 0.09072525 0.02600000 -0.02557205
      vertex 0.08593697 0.02600000 -0.03872774
      vertex 0.09721328 0.02600000 -0.04283198
    endloop
  endfacet
  facet normal 0.00000000 -1.00000000 0.00000000
    outer loop
      vertex 0.09072525 0.02600000 -0.02557205
      vertex 0.09721328 0.02600000 -0.04283198
      vertex 0.10200156 0.02600000 -0.02967629
    endloop
  endfacet
  facet normal 0.34202014 0.00000000 0.93969262
    outer loop
      vertex 0.08593697 0.02600000 -0.03872774
      vertex 0.08593697 -0.02600000 -0.03872774
      vertex 0.09721328 -0.02600000 -0.04283198
    endloop
  endfacet
  facet normal 0.34202014 0.00000000 0.93969262
    outer loop
      vertex 0.08593697 0.02600000 -0.03872774
      vertex 0.09721328 -0.02600000 -0.04283198
      vertex 0.09721328 0.02600000 -0.04283198
    endloop
  endfacet
endsolid wheel_treads
