solid wheel_rim
  facet normal 0.00000000 -1.00000000 0.00000000
    outer loop
      vertex 0.00000000 0.02700000 0.00000000
      vertex 0.03168000 0.02700000 0.00000000
      vertex 0.03152745 0.02700000 0.00310518
    endloop
  endfacet
  facet normal 0.00000000 -1.00000000 0.00000000
    outer loop
      vertex 0.03168000 0.02700000 0.00000000
      vertex 0.07200000 0.02700000 0.00000000
      vertex 0.07165330 0.02700000 0.00705723
    endloop
  endfacet
  facet normal 0.00000000 -1.00000000 0.00000000
    outer loop
      vertex 0.03168000 0.02700000 0.00000000
      vertex 0.07165330 0.02700000 0.00705723
      vertex 0.03152745 0.02700000 0.00310518
    endloop
  endfacet
  facet normal 0.00000000 -1.00000000 0.00000000
    outer loop
      vertex 0.00000000 0.02700000 0.00000000
      vertex 0.03152745 0.02700000 0.00310518
      vertex 0.03107128 0.02700000 0.00618046
    endloop
  endfacet
  facet normal 0.00000000 -1.00000000 0.00000000
    outer loop
      vertex 0.03152745 0.02700000 0.00310518
      vertex 0.07165330 0.02700000 0.00705723
      vertex 0.07061654 0.02700000 0.01404650
    endloop
  endfacet
  facet normal 0.00000000 -1.00000000 0.00000000
    outer loop
      vertex 0.03152745 0.02700000 0.00310518
      vertex 0.07061654 0.02700000 0.01404650
      vertex 0.03107128 0.02700000 0.00618046
    endloop
  endfacet
  facet normal 0.00000000 -1.00000000 0.00000000
    outer loop
      vertex 0.00000000 0.02700000 0.00000000
      vertex 0.03107128 0.02700000 0.00618046
      vertex 0.03031587 0.02700000 0.00919622
    endloop
  endfacet
  facet normal 0.00000000 -1.00000000 0.00000000
    outer loop
      vertex 0.03107128 0.02700000 0.00618046
      vertex 0.07061654 0.02700000 0.01404650
      vertex 0.06889970 0.02700000 0.02090050
    endloop
  endfacet
  facet normal 0.00000000 -1.00000000 0.00000000
    outer loop
      vertex 0.03107128 0.02700000 0.00618046
      vertex 0.06889970 0.02700000 0.02090050
      vertex 0.03031587 0.02700000 0.00919622
    endloop
  endfacet
  facet normal 0.00000000 -1.00000000 0.00000000
    outer loop
      vertex 0.00000000 0.02700000 0.00000000
      vertex 0.03031587 0.02700000 0.00919622
      vertex 0.02926850 0.02700000 0.01212341
    endloop
  endfacet
  facet normal 0.00000000 -1.00000000 0.00000000
    outer loop
      vertex 0.03031587 0.02700000 0.00919622
      vertex 0.06889970 0.02700000 0.02090050
      vertex 0.06651933 0.02700000 0.02755321
    endloop
  endfacet
  facet normal 0.00000000 -1.00000000 0.00000000
    outer loop
      vertex 0.03031587 0.02700000 0.00919622
      vertex 0.06651933 0.02700000 0.02755321
      vertex 0.02926850 0.02700000 0.01212341
    endloop
  endfacet
  facet normal 0.00000000 -1.00000000 0.00000000
    outer loop
      vertex 0.00000000 0.02700000 0.00000000
      vertex 0.02926850 0.02700000 0.01212341
      vertex 0.02793927 0.02700000 0.01493385
    endloop
  endfacet
  facet normal 0.00000000 -1.00000000 0.00000000
    outer loop
      vertex 0.02926850 0.02700000 0.01212341
      vertex 0.06651933 0.02700000 0.02755321
      vertex 0.06349833 0.02700000 0.03394057
    endloop
  endfacet
  facet normal 0.00000000 -1.00000000 0.00000000
    outer loop
      vertex 0.02926850 0.02700000 0.01212341
      vertex 0.06349833 0.02700000 0.03394057
      vertex 0.02793927 0.02700000 0.01493385
    endloop
  endfacet
  facet normal 0.00000000 -1.00000000 0.00000000
    outer loop
      vertex 0.00000000 0.02700000 0.00000000
      vertex 0.02793927 0.02700000 0.01493385
      vertex 0.02634096 0.02700000 0.01760046
    endloop
  endfacet
  facet normal 0.00000000 -1.00000000 0.00000000
    outer loop
      vertex 0.02793927 0.02700000 0.01493385
      vertex 0.06349833 0.02700000 0.03394057
      vertex 0.05986581 0.02700000 0.04000106
    endloop
  endfacet
  facet normal 0.00000000 -1.00000000 0.00000000
    outer loop
      vertex 0.02793927 0.02700000 0.01493385
      vertex 0.05986581 0.02700000 0.04000106
      vertex 0.02634096 0.02700000 0.01760046
    endloop
  endfacet
  facet normal 0.00000000 -1.00000000 0.00000000
    outer loop
      vertex 0.00000000 0.02700000 0.00000000
      vertex 0.02634096 0.02700000 0.01760046
      vertex 0.02448897 0.02700000 0.02009758
    endloop
  endfacet
  facet normal 0.00000000 -1.00000000 0.00000000
    outer loop
      vertex 0.02634096 0.02700000 0.01760046
      vertex 0.05986581 0.02700000 0.04000106
      vertex 0.05565675 0.02700000 0.04567632
    endloop
  endfacet
  facet normal 0.00000000 -1.00000000 0.00000000
    outer loop
      vertex 0.02634096 0.02700000 0.01760046
      vertex 0.05565675 0.02700000 0.04567632
      vertex 0.02448897 0.02700000 0.02009758
    endloop
  endfacet
  facet normal 0.00000000 -1.00000000 0.00000000
    outer loop
      vertex 0.00000000 0.02700000 0.00000000
      vertex 0.02448897 0.02700000 0.02009758
      vertex 0.02240114 0.02700000 0.02240114
    endloop
  endfacet
  facet normal 0.00000000 -1.00000000 0.00000000
    outer loop
      vertex 0.02448897 0.02700000 0.02009758
      vertex 0.05565675 0.02700000 0.04567632
      vertex 0.05091169 0.02700000 0.05091169
    endloop
  endfacet
  facet normal 0.00000000 -1.00000000 0.00000000
    outer loop
      vertex 0.02448897 0.02700000 0.02009758
      vertex 0.05091169 0.02700000 0.05091169
      vertex 0.02240114 0.02700000 0.02240114
    endloop
  endfacet
  facet normal 0.00000000 -1.00000000 0.00000000
    outer loop
      vertex 0.00000000 0.02700000 0.00000000
      vertex 0.02240114 0.02700000 0.02240114
      vertex 0.02009758 0.02700000 0.02448897
    endloop
  endfacet
  facet normal 0.00000000 -1.00000000 0.00000000
    outer loop
      vertex 0.02240114 0.02700000 0.02240114
      vertex 0.05091169 0.02700000 0.05091169
      vertex 0.04567632 0.02700000 0.05565675
    endloop
  endfacet
  facet normal 0.00000000 -1.00000000 0.00000000
    outer loop
      vertex 0.02240114 0.02700000 0.02240114
      vertex 0.04567632 0.02700000 0.05565675
      vertex 0.02009758 0.02700000 0.02448897
    endloop
  endfacet
  facet normal 0.00000000 -1.00000000 0.00000000
    outer loop
      vertex 0.00000000 0.02700000 0.00000000
      vertex 0.02009758 0.02700000 0.02448897
      vertex 0.01760046 0.02700000 0.02634096
    endloop
  endfacet
  facet normal 0.00000000 -1.00000000 0.00000000
    outer loop
      vertex 0.02009758 0.02700000 0.02448897
      vertex 0.04567632 0.02700000 0.05565675
      vertex 0.04000106 0.02700000 0.05986581
    endloop
  endfacet
  facet normal 0.00000000 -1.00000000 0.00000000
    outer loop
      vertex 0.02009758 0.02700000 0.02448897
      vertex 0.04000106 0.02700000 0.05986581
      vertex 0.01760046 0.02700000 0.02634096
    endloop
  endfacet
  facet normal 0.00000000 -1.00000000 0.00000000
    outer loop
      vertex 0.00000000 0.02700000 0.00000000
      vertex 0.01760046 0.02700000 0.02634096
      vertex 0.01493385 0.02700000 0.02793927
    endloop
  endfacet
  facet normal 0.00000000 -1.00000000 0.00000000
    outer loop
      vertex 0.01760046 0.02700000 0.02634096
      vertex 0.04000106 0.02700000 0.05986581
      vertex 0.03394057 0.02700000 0.06349833
    endloop
  endfacet
  facet normal 0.00000000 -1.00000000 0.00000000
    outer loop
      vertex 0.01760046 0.02700000 0.02634096
      vertex 0.03394057 0.02700000 0.06349833
      vertex 0.01493385 0.02700000 0.02793927
    endloop
  endfacet
  facet normal 0.00000000 -1.00000000 0.00000000
    outer loop
      vertex 0.00000000 0.02700000 0.00000000
      vertex 0.01493385 0.02700000 0.02793927
      vertex 0.01212341 0.02700000 0.02926850
    endloop
  endfacet
  facet normal 0.00000000 -1.00000000 0.00000000
    outer loop
      vertex 0.01493385 0.02700000 0.02793927
      vertex 0.03394057 0.02700000 0.06349833
      vertex 0.02755321 0.02700000 0.06651933
    endloop
  endfacet
  facet normal 0.00000000 -1.00000000 0.00000000
    outer loop
      vertex 0.01493385 0.02700000 0.02793927
      vertex 0.02755321 0.02700000 0.06651933
      vertex 0.01212341 0.02700000 0.02926850
    endloop
  endfacet
  facet normal 0.00000000 -1.00000000 0.00000000
    outer loop
      vertex 0.00000000 0.02700000 0.00000000
      vertex 0.01212341 0.02700000 0.02926850
      vertex 0.00919622 0.02700000 0.03031587
    endloop
  endfacet
  facet normal 0.00000000 -1.00000000 0.00000000
    outer loop
      vertex 0.01212341 0.02700000 0.02926850
      vertex 0.02755321 0.02700000 0.06651933
      vertex 0.02090050 0.02700000 0.06889970
    endloop
  endfacet
  facet normal 0.00000000 -1.00000000 0.00000000
    outer loop
      vertex 0.01212341 0.02700000 0.02926850
      vertex 0.02090050 0.02700000 0.06889970
      vertex 0.00919622 0.02700000 0.03031587
    endloop
  endfacet
  facet normal 0.00000000 -1.00000000 0.00000000
    outer loop
      vertex 0.00000000 0.02700000 0.00000000
      vertex 0.00919622 0.02700000 0.03031587
      vertex 0.00618046 0.02700000 0.03107128
    endloop
  endfacet
  facet normal 0.00000000 -1.00000000 0.00000000
    outer loop
      vertex 0.00919622 0.02700000 0.03031587
      vertex 0.02090050 0.02700000 0.06889970
      vertex 0.01404650 0.02700000 0.07061654
    endloop
  endfacet
  facet normal 0.00000000 -1.00000000 0.00000000
    outer loop
      vertex 0.00919622 0.02700000 0.03031587
      vertex 0.01404650 0.02700000 0.07061654
      vertex 0.00618046 0.02700000 0.03107128
    endloop
  endfacet
  facet normal 0.00000000 -1.00000000 0.00000000
    outer loop
      vertex 0.00000000 0.02700000 0.00000000
      vertex 0.00618046 0.02700000 0.03107128
      vertex 0.00310518 0.02700000 0.03152745
    endloop
  endfacet
  facet normal 0.00000000 -1.00000000 0.00000000
    outer loop
      vertex 0.00618046 0.02700000 0.03107128
      vertex 0.01404650 0.02700000 0.07061654
      vertex 0.00705723 0.02700000 0.07165330
    endloop
  endfacet
  facet normal 0.00000000 -1.00000000 0.00000000
    outer loop
      vertex 0.00618046 0.02700000 0.03107128
      vertex 0.00705723 0.02700000 0.07165330
      vertex 0.00310518 0.02700000 0.03152745
    endloop
  endfacet
  facet normal 0.00000000 -1.00000000 0.00000000
    outer loop
      vertex 0.00000000 0.02700000 0.00000000
      vertex 0.00310518 0.02700000 0.03152745
      vertex 0.00000000 0.02700000 0.03168000
    endloop
  endfacet
  facet normal 0.00000000 -1.00000000 0.00000000
    outer loop
      vertex 0.00310518 0.02700000 0.03152745
      vertex 0.00705723 0.02700000 0.07165330
      vertex 0.00000000 0.02700000 0.07200000
    endloop
  endfacet
  facet normal 0.00000000 -1.00000000 0.00000000
    outer loop
      vertex 0.00310518 0.02700000 0.03152745
      vertex 0.00000000 0.02700000 0.07200000
      vertex 0.00000000 0.02700000 0.03168000
    endloop
  endfacet
  facet normal 0.00000000 -1.00000000 0.00000000
    outer loop
      vertex 0.00000000 0.02700000 0.00000000
      vertex 0.00000000 0.02700000 0.03168000
      vertex -0.00310518 0.02700000 0.03152745
    endloop
  endfacet
  facet normal 0.00000000 -1.00000000 0.00000000
    outer loop
      vertex 0.00000000 0.02700000 0.03168000
      vertex 0.00000000 0.02700000 0.07200000
      vertex -0.00705723 0.02700000 0.07165330
    endloop
  endfacet
  facet normal -0.00000000 -1.00000000 0.00000000
    outer loop
      vertex 0.00000000 0.02700000 0.03168000
      vertex -0.00705723 0.02700000 0.07165330
      vertex -0.00310518 0.02700000 0.03152745
    endloop
  endfacet
  facet normal 0.00000000 -1.00000000 0.00000000
    outer loop
      vertex 0.00000000 0.02700000 0.00000000
      vertex -0.00310518 0.02700000 0.03152745
      vertex -0.00618046 0.02700000 0.03107128
    endloop
  endfacet
  facet normal 0.00000000 -1.00000000 0.00000000
    outer loop
      vertex -0.00310518 0.02700000 0.03152745
      vertex -0.00705723 0.02700000 0.07165330
      vertex -0.01404650 0.02700000 0.07061654
    endloop
  endfacet
  facet normal -0.00000000 -1.00000000 0.00000000
    outer loop
      vertex -0.00310518 0.02700000 0.03152745
      vertex -0.01404650 0.02700000 0.07061654
      vertex -0.00618046 0.02700000 0.03107128
    endloop
  endfacet
  facet normal 0.00000000 -1.00000000 0.00000000
    outer loop
      vertex 0.00000000 0.02700000 0.00000000
      vertex -0.00618046 0.02700000 0.03107128
      vertex -0.00919622 0.02700000 0.03031587
    endloop
  endfacet
  facet normal 0.00000000 -1.00000000 0.00000000
    outer loop
      vertex -0.00618046 0.02700000 0.03107128
      vertex -0.01404650 0.02700000 0.07061654
      vertex -0.02090050 0.02700000 0.06889970
    endloop
  endfacet
  facet normal -0.00000000 -1.00000000 0.00000000
    outer loop
      vertex -0.00618046 0.02700000 0.03107128
      vertex -0.02090050 0.02700000 0.06889970
      vertex -0.00919622 0.02700000 0.03031587
    endloop
  endfacet
  facet normal 0.00000000 -1.00000000 0.00000000
    outer loop
      vertex 0.00000000 0.02700000 0.00000000
      vertex -0.00919622 0.02700000 0.03031587
      vertex -0.01212341 0.02700000 0.02926850
    endloop
  endfacet
  facet normal 0.00000000 -1.00000000 0.00000000
    outer loop
      vertex -0.00919622 0.02700000 0.03031587
      vertex -0.02090050 0.02700000 0.06889970
      vertex -0.02755321 0.02700000 0.06651933
    endloop
  endfacet
  facet normal -0.00000000 -1.00000000 0.00000000
    outer loop
      vertex -0.00919622 0.02700000 0.03031587
      vertex -0.02755321 0.02700000 0.06651933
      vertex -0.01212341 0.02700000 0.02926850
    endloop
  endfacet
  facet normal 0.00000000 -1.00000000 0.00000000
    outer loop
      vertex 0.00000000 0.02700000 0.00000000
      vertex -0.01212341 0.02700000 0.02926850
      vertex -0.01493385 0.02700000 0.02793927
    endloop
  endfacet
  facet normal 0.00000000 -1.00000000 0.00000000
    outer loop
      vertex -0.01212341 0.02700000 0.02926850
      vertex -0.02755321 0.02700000 0.06651933
      vertex -0.03394057 0.02700000 0.06349833
    endloop
  endfacet
  facet normal -0.00000000 -1.00000000 0.00000000
    outer loop
      vertex -0.01212341 0.02700000 0.02926850
      vertex -0.03394057 0.02700000 0.06349833
      vertex -0.01493385 0.02700000 0.02793927
    endloop
  endfacet
  facet normal 0.00000000 -1.00000000 0.00000000
    outer loop
      vertex 0.00000000 0.02700000 0.00000000
      vertex -0.01493385 0.02700000 0.02793927
      vertex -0.01760046 0.02700000 0.02634096
    endloop
  endfacet
  facet normal 0.00000000 -1.00000000 0.00000000
    outer loop
      vertex -0.01493385 0.02700000 0.02793927
      vertex -0.03394057 0.02700000 0.06349833
      vertex -0.04000106 0.02700000 0.05986581
    endloop
  endfacet
  facet normal -0.00000000 -1.00000000 0.00000000
    outer loop
      vertex -0.01493385 0.02700000 0.02793927
      vertex -0.04000106 0.02700000 0.05986581
      vertex -0.01760046 0.02700000 0.02634096
    endloop
  endfacet
  facet normal 0.00000000 -1.00000000 0.00000000
    outer loop
      vertex 0.00000000 0.02700000 0.00000000
      vertex -0.01760046 0.02700000 0.02634096
      vertex -0.02009758 0.02700000 0.02448897
    endloop
  endfacet
  facet normal 0.00000000 -1.00000000 0.00000000
    outer loop
      vertex -0.01760046 0.02700000 0.02634096
      vertex -0.04000106 0.02700000 0.05986581
      vertex -0.04567632 0.02700000 0.05565675
    endloop
  endfacet
  facet normal -0.00000000 -1.00000000 0.00000000
    outer loop
      vertex -0.01760046 0.02700000 0.02634096
      vertex -0.04567632 0.02700000 0.05565675
      vertex -0.02009758 0.02700000 0.02448897
    endloop
  endfacet
  facet normal 0.00000000 -1.00000000 0.00000000
    outer loop
      vertex 0.00000000 0.02700000 0.00000000
      vertex -0.02009758 0.02700000 0.02448897
      vertex -0.02240114 0.02700000 0.02240114
    endloop
  endfacet
  facet normal 0.00000000 -1.00000000 0.00000000
    outer loop
      vertex -0.02009758 0.02700000 0.02448897
      vertex -0.04567632 0.02700000 0.05565675
      vertex -0.05091169 0.02700000 0.05091169
    endloop
  endfacet
  facet normal -0.00000000 -1.00000000 0.00000000
    outer loop
      vertex -0.02009758 0.02700000 0.02448897
      vertex -0.05091169 0.02700000 0.05091169
      vertex -0.02240114 0.02700000 0.02240114
    endloop
  endfacet
  facet normal 0.00000000 -1.00000000 0.00000000
    outer loop
      vertex 0.00000000 0.02700000 0.00000000
      vertex -0.02240114 0.02700000 0.02240114
      vertex -0.02448897 0.02700000 0.02009758
    endloop
  endfacet
  facet normal 0.00000000 -1.00000000 0.00000000
    outer loop
      vertex -0.02240114 0.02700000 0.02240114
      vertex -0.05091169 0.02700000 0.05091169
      vertex -0.05565675 0.02700000 0.04567632
    endloop
  endfacet
  facet normal -0.00000000 -1.00000000 0.00000000
    outer loop
      vertex -0.02240114 0.02700000 0.02240114
      vertex -0.05565675 0.02700000 0.04567632
      vertex -0.02448897 0.02700000 0.02009758
    endloop
  endfacet
  facet normal 0.00000000 -1.00000000 0.00000000
    outer loop
      vertex 0.00000000 0.02700000 0.00000000
      vertex -0.02448897 0.02700000 0.02009758
      vertex -0.02634096 0.02700000 0.01760046
    endloop
  endfacet
  facet normal 0.00000000 -1.00000000 0.00000000
    outer loop
      vertex -0.02448897 0.02700000 0.02009758
      vertex -0.05565675 0.02700000 0.04567632
      vertex -0.05986581 0.02700000 0.04000106
    endloop
  endfacet
  facet normal -0.00000000 -1.00000000 0.00000000
    outer loop
      vertex -0.02448897 0.02700000 0.02009758
      vertex -0.05986581 0.02700000 0.04000106
      vertex -0.02634096 0.02700000 0.01760046
    endloop
  endfacet
  facet normal 0.00000000 -1.00000000 0.00000000
    outer loop
      vertex 0.00000000 0.02700000 0.00000000
      vertex -0.02634096 0.02700000 0.01760046
      vertex -0.02793927 0.02700000 0.01493385
    endloop
  endfacet
  facet normal 0.00000000 -1.00000000 0.00000000
    outer loop
      vertex -0.02634096 0.02700000 0.01760046
      vertex -0.05986581 0.02700000 0.04000106
      vertex -0.06349833 0.02700000 0.03394057
    endloop
  endfacet
  facet normal -0.00000000 -1.00000000 0.00000000
    outer loop
      vertex -0.02634096 0.02700000 0.01760046
      vertex -0.06349833 0.02700000 0.03394057
      vertex -0.02793927 0.02700000 0.01493385
    endloop
  endfacet
  facet normal 0.00000000 -1.00000000 0.00000000
    outer loop
      vertex 0.00000000 0.02700000 0.00000000
      vertex -0.02793927 0.02700000 0.01493385
      vertex -0.02926850 0.02700000 0.01212341
    endloop
  endfacet
  facet normal 0.00000000 -1.00000000 0.00000000
    outer loop
      vertex -0.02793927 0.02700000 0.01493385
      vertex -0.06349833 0.02700000 0.03394057
      vertex -0.06651933 0.02700000 0.02755321
    endloop
  endfacet
  facet normal -0.00000000 -1.00000000 0.00000000
    outer loop
      vertex -0.02793927 0.02700000 0.01493385
      vertex -0.06651933 0.02700000 0.02755321
      vertex -0.02926850 0.02700000 0.01212341
    endloop
  endfacet
  facet normal 0.00000000 -1.00000000 0.00000000
    outer loop
      vertex 0.00000000 0.02700000 0.00000000
      vertex -0.02926850 0.02700000 0.01212341
      vertex -0.03031587 0.02700000 0.00919622
    endloop
  endfacet
  facet normal 0.00000000 -1.00000000 0.00000000
    outer loop
      vertex -0.02926850 0.02700000 0.01212341
      vertex -0.06651933 0.02700000 0.02755321
      vertex -0.06889970 0.02700000 0.02090050
    endloop
  endfacet
  facet normal -0.00000000 -1.00000000 0.00000000
    outer loop
      vertex -0.02926850 0.02700000 0.01212341
      vertex -0.06889970 0.02700000 0.02090050
      vertex -0.03031587 0.02700000 0.00919622
    endloop
  endfacet
  facet normal 0.00000000 -1.00000000 0.00000000
    outer loop
      vertex 0.00000000 0.02700000 0.00000000
      vertex -0.03031587 0.02700000 0.00919622
      vertex -0.03107128 0.02700000 0.00618046
    endloop
  endfacet
  facet normal 0.00000000 -1.00000000 0.00000000
    outer loop
      vertex -0.03031587 0.02700000 0.00919622
      vertex -0.06889970 0.02700000 0.02090050
      vertex -0.07061654 0.02700000 0.01404650
    endloop
  endfacet
  facet normal -0.00000000 -1.00000000 0.00000000
    outer loop
      vertex -0.03031587 0.02700000 0.00919622
      vertex -0.07061654 0.02700000 0.01404650
      vertex -0.03107128 0.02700000 0.00618046
    endloop
  endfacet
  facet normal 0.00000000 -1.00000000 0.00000000
    outer loop
      vertex 0.00000000 0.02700000 0.00000000
      vertex -0.03107128 0.02700000 0.00618046
      vertex -0.03152745 0.02700000 0.00310518
    endloop
  endfacet
  facet normal 0.00000000 -1.00000000 0.00000000
    outer loop
      vertex -0.03107128 0.02700000 0.00618046
      vertex -0.07061654 0.02700000 0.01404650
      vertex -0.07165330 0.02700000 0.00705723
    endloop
  endfacet
  facet normal -0.00000000 -1.00000000 0.00000000
    outer loop
      vertex -0.03107128 0.02700000 0.00618046
      vertex -0.07165330 0.02700000 0.00705723
      vertex -0.03152745 0.02700000 0.00310518
    endloop
  endfacet
  facet normal 0.00000000 -1.00000000 0.00000000
    outer loop
      vertex 0.00000000 0.02700000 0.00000000
      vertex -0.03152745 0.02700000 0.00310518
      vertex -0.03168000 0.02700000 0.00000000
    endloop
  endfacet
  facet normal -0.00000000 -1.00000000 0.00000000
    outer loop
      vertex -0.03152745 0.02700000 0.00310518
      vertex -0.07165330 0.02700000 0.00705723
      vertex -0.07200000 0.02700000 0.00000000
    endloop
  endfacet
  facet normal 0.00000000 -1.00000000 0.00000000
    outer loop
      vertex -0.03152745 0.02700000 0.00310518
      vertex -0.07200000 0.02700000 0.00000000
      vertex -0.03168000 0.02700000 0.00000000
    endloop
  endfacet
  facet normal -0.00000000 -1.00000000 0.00000000
    outer loop
      vertex 0.00000000 0.02700000 0.00000000
      vertex -0.03168000 0.02700000 0.00000000
      vertex -0.03152745 0.02700000 -0.00310518
    endloop
  endfacet
  facet normal -0.00000000 -1.00000000 0.00000000
    outer loop
      vertex -0.03168000 0.02700000 0.00000000
      vertex -0.07200000 0.02700000 0.00000000
      vertex -0.07165330 0.02700000 -0.00705723
    endloop
  endfacet
  facet normal 0.00000000 -1.00000000 -0.00000000
    outer loop
      vertex -0.03168000 0.02700000 0.00000000
      vertex -0.07165330 0.02700000 -0.00705723
      vertex -0.03152745 0.02700000 -0.00310518
    endloop
  endfacet
  facet normal 0.00000000 -1.00000000 0.00000000
    outer loop
      vertex 0.00000000 0.02700000 0.00000000
      vertex -0.03152745 0.02700000 -0.00310518
      vertex -0.03107128 0.02700000 -0.00618046
    endloop
  endfacet
  facet normal 0.00000000 -1.00000000 0.00000000
    outer loop
      vertex -0.03152745 0.02700000 -0.00310518
      vertex -0.07165330 0.02700000 -0.00705723
      vertex -0.07061654 0.02700000 -0.01404650
    endloop
  endfacet
  facet normal 0.00000000 -1.00000000 -0.00000000
    outer loop
      vertex -0.03152745 0.02700000 -0.00310518
      vertex -0.07061654 0.02700000 -0.01404650
      vertex -0.03107128 0.02700000 -0.00618046
    endloop
  endfacet
  facet normal 0.00000000 -1.00000000 0.00000000
    outer loop
      vertex 0.00000000 0.02700000 0.00000000
      vertex -0.03107128 0.02700000 -0.00618046
      vertex -0.03031587 0.02700000 -0.00919622
    endloop
  endfacet
  facet normal 0.00000000 -1.00000000 0.00000000
    outer loop
      vertex -0.03107128 0.02700000 -0.00618046
      vertex -0.07061654 0.02700000 -0.01404650
      vertex -0.06889970 0.02700000 -0.02090050
    endloop
  endfacet
  facet normal 0.00000000 -1.00000000 -0.00000000
    outer loop
      vertex -0.03107128 0.02700000 -0.00618046
      vertex -0.06889970 0.02700000 -0.02090050
      vertex -0.03031587 0.02700000 -0.00919622
    endloop
  endfacet
  facet normal 0.00000000 -1.00000000 0.00000000
    outer loop
      vertex 0.00000000 0.02700000 0.00000000
      vertex -0.03031587 0.02700000 -0.00919622
      vertex -0.02926850 0.02700000 -0.01212341
    endloop
  endfacet
  facet normal 0.00000000 -1.00000000 0.00000000
    outer loop
      vertex -0.03031587 0.02700000 -0.00919622
      vertex -0.06889970 0.02700000 -0.02090050
      vertex -0.06651933 0.02700000 -0.02755321
    endloop
  endfacet
  facet normal 0.00000000 -1.00000000 -0.00000000
    outer loop
      vertex -0.03031587 0.02700000 -0.00919622
      vertex -0.06651933 0.02700000 -0.02755321
      vertex -0.02926850 0.02700000 -0.01212341
    endloop
  endfacet
  facet normal 0.00000000 -1.00000000 0.00000000
    outer loop
      vertex 0.00000000 0.02700000 0.00000000
      vertex -0.02926850 0.02700000 -0.01212341
      vertex -0.02793927 0.02700000 -0.01493385
    endloop
  endfacet
  facet normal 0.00000000 -1.00000000 0.00000000
    outer loop
      vertex -0.02926850 0.02700000 -0.01212341
      vertex -0.06651933 0.02700000 -0.02755321
      vertex -0.06349833 0.02700000 -0.03394057
    endloop
  endfacet
  facet normal 0.00000000 -1.00000000 -0.00000000
    outer loop
      vertex -0.02926850 0.02700000 -0.01212341
      vertex -0.06349833 0.02700000 -0.03394057
      vertex -0.02793927 0.02700000 -0.01493385
    endloop
  endfacet
  facet normal 0.00000000 -1.00000000 0.00000000
    outer loop
      vertex 0.00000000 0.02700000 0.00000000
      vertex -0.02793927 0.02700000 -0.01493385
      vertex -0.02634096 0.02700000 -0.01760046
    endloop
  endfacet
  facet normal 0.00000000 -1.00000000 0.00000000
    outer loop
      vertex -0.02793927 0.02700000 -0.01493385
      vertex -0.06349833 0.02700000 -0.03394057
      vertex -0.05986581 0.02700000 -0.04000106
    endloop
  endfacet
  facet normal 0.00000000 -1.00000000 -0.00000000
    outer loop
      vertex -0.02793927 0.02700000 -0.01493385
      vertex -0.05986581 0.02700000 -0.04000106
      vertex -0.02634096 0.02700000 -0.01760046
    endloop
  endfacet
  facet normal 0.00000000 -1.00000000 0.00000000
    outer loop
      vertex 0.00000000 0.02700000 0.00000000
      vertex -0.02634096 0.02700000 -0.01760046
      vertex -0.02448897 0.02700000 -0.02009758
    endloop
  endfacet
  facet normal 0.00000000 -1.00000000 0.00000000
    outer loop
      vertex -0.02634096 0.02700000 -0.01760046
      vertex -0.05986581 0.02700000 -0.04000106
      vertex -0.05565675 0.02700000 -0.04567632
    endloop
  endfacet
  facet normal 0.00000000 -1.00000000 -0.00000000
    outer loop
      vertex -0.02634096 0.02700000 -0.01760046
      vertex -0.05565675 0.02700000 -0.04567632
      vertex -0.02448897 0.02700000 -0.02009758
    endloop
  endfacet
  facet normal 0.00000000 -1.00000000 0.00000000
    outer loop
      vertex 0.00000000 0.02700000 0.00000000
      vertex -0.02448897 0.02700000 -0.02009758
      vertex -0.02240114 0.02700000 -0.02240114
    endloop
  endfacet
  facet normal 0.00000000 -1.00000000 0.00000000
    outer loop
      vertex -0.02448897 0.02700000 -0.02009758
      vertex -0.05565675 0.02700000 -0.04567632
      vertex -0.05091169 0.02700000 -0.05091169
    endloop
  endfacet
  facet normal 0.00000000 -1.00000000 -0.00000000
    outer loop
      vertex -0.02448897 0.02700000 -0.02009758
      vertex -0.05091169 0.02700000 -0.05091169
      vertex -0.02240114 0.02700000 -0.02240114
    endloop
  endfacet
  facet normal 0.00000000 -1.00000000 0.00000000
    outer loop
      vertex 0.00000000 0.02700000 0.00000000
      vertex -0.02240114 0.02700000 -0.02240114
      vertex -0.02009758 0.02700000 -0.02448897
    endloop
  endfacet
  facet normal 0.00000000 -1.00000000 0.00000000
    outer loop
      vertex -0.02240114 0.02700000 -0.02240114
      vertex -0.05091169 0.02700000 -0.05091169
      vertex -0.04567632 0.02700000 -0.05565675
    endloop
  endfacet
  facet normal 0.00000000 -1.00000000 -0.00000000
    outer loop
      vertex -0.02240114 0.02700000 -0.02240114
      vertex -0.04567632 0.02700000 -0.05565675
      vertex -0.02009758 0.02700000 -0.02448897
    endloop
  endfacet
  facet normal 0.00000000 -1.00000000 0.00000000
    outer loop
      vertex 0.00000000 0.02700000 0.00000000
      vertex -0.02009758 0.02700000 -0.02448897
      vertex -0.01760046 0.02700000 -0.02634096
    endloop
  endfacet
  facet normal 0.00000000 -1.00000000 0.00000000
    outer loop
      vertex -0.02009758 0.02700000 -0.02448897
      vertex -0.04567632 0.02700000 -0.05565675
      vertex -0.04000106 0.02700000 -0.05986581
    endloop
  endfacet
  facet normal 0.00000000 -1.00000000 -0.00000000
    outer loop
      vertex -0.02009758 0.02700000 -0.02448897
      vertex -0.04000106 0.02700000 -0.05986581
      vertex -0.01760046 0.02700000 -0.02634096
    endloop
  endfacet
  facet normal 0.00000000 -1.00000000 0.00000000
    outer loop
      vertex 0.00000000 0.02700000 0.00000000
      vertex -0.01760046 0.02700000 -0.02634096
      vertex -0.01493385 0.02700000 -0.02793927
    endloop
  endfacet
  facet normal 0.00000000 -1.00000000 0.00000000
    outer loop
      vertex -0.01760046 0.02700000 -0.02634096
      vertex -0.04000106 0.02700000 -0.05986581
      vertex -0.03394057 0.02700000 -0.06349833
    endloop
  endfacet
  facet normal 0.00000000 -1.00000000 -0.00000000
    outer loop
      vertex -0.01760046 0.02700000 -0.02634096
      vertex -0.03394057 0.02700000 -0.06349833
      vertex -0.01493385 0.02700000 -0.02793927
    endloop
  endfacet
  facet normal 0.00000000 -1.00000000 0.00000000
    outer loop
      vertex 0.00000000 0.02700000 0.00000000
      vertex -0.01493385 0.02700000 -0.02793927
      vertex -0.01212341 0.02700000 -0.02926850
    endloop
  endfacet
  facet normal 0.00000000 -1.00000000 0.00000000
    outer loop
      vertex -0.01493385 0.02700000 -0.02793927
      vertex -0.03394057 0.02700000 -0.06349833
      vertex -0.02755321 0.02700000 -0.06651933
    endloop
  endfacet
  facet normal 0.00000000 -1.00000000 -0.00000000
    outer loop
      vertex -0.01493385 0.02700000 -0.02793927
      vertex -0.02755321 0.02700000 -0.06651933
      vertex -0.01212341 0.02700000 -0.02926850
    endloop
  endfacet
  facet normal 0.00000000 -1.00000000 0.00000000
    outer loop
      vertex 0.00000000 0.02700000 0.00000000
      vertex -0.01212341 0.02700000 -0.02926850
      vertex -0.00919622 0.02700000 -0.03031587
    endloop
  endfacet
  facet normal 0.00000000 -1.00000000 0.00000000
    outer loop
      vertex -0.01212341 0.02700000 -0.02926850
      vertex -0.02755321 0.02700000 -0.06651933
      vertex -0.02090050 0.02700000 -0.06889970
    endloop
  endfacet
  facet normal 0.00000000 -1.00000000 -0.00000000
    outer loop
      vertex -0.01212341 0.02700000 -0.02926850
      vertex -0.02090050 0.02700000 -0.06889970
      vertex -0.00919622 0.02700000 -0.03031587
    endloop
  endfacet
  facet normal 0.00000000 -1.00000000 0.00000000
    outer loop
      vertex 0.00000000 0.02700000 0.00000000
      vertex -0.00919622 0.02700000 -0.03031587
      vertex -0.00618046 0.02700000 -0.03107128
    endloop
  endfacet
  facet normal 0.00000000 -1.00000000 0.00000000
    outer loop
      vertex -0.00919622 0.02700000 -0.03031587
      vertex -0.02090050 0.02700000 -0.06889970
      vertex -0.01404650 0.02700000 -0.07061654
    endloop
  endfacet
  facet normal 0.00000000 -1.00000000 -0.00000000
    outer loop
      vertex -0.00919622 0.02700000 -0.03031587
      vertex -0.01404650 0.02700000 -0.07061654
      vertex -0.00618046 0.02700000 -0.03107128
    endloop
  endfacet
  facet normal 0.00000000 -1.00000000 0.00000000
    outer loop
      vertex 0.00000000 0.02700000 0.00000000
      vertex -0.00618046 0.02700000 -0.03107128
      vertex -0.00310518 0.02700000 -0.03152745
    endloop
  endfacet
  facet normal 0.00000000 -1.00000000 0.00000000
    outer loop
      vertex -0.00618046 0.02700000 -0.03107128
      vertex -0.01404650 0.02700000 -0.07061654
      vertex -0.00705723 0.02700000 -0.07165330
    endloop
  endfacet
  facet normal 0.00000000 -1.00000000 -0.00000000
    outer loop
      vertex -0.00618046 0.02700000 -0.03107128
      vertex -0.00705723 0.02700000 -0.07165330
      vertex -0.00310518 0.02700000 -0.03152745
    endloop
  endfacet
  facet normal 0.00000000 -1.00000000 0.00000000
    outer loop
      vertex 0.00000000 0.02700000 0.00000000
      vertex -0.00310518 0.02700000 -0.03152745
      vertex -0.00000000 0.02700000 -0.03168000
    endloop
  endfacet
  facet normal 0.00000000 -1.00000000 -0.00000000
    outer loop
      vertex -0.00310518 0.02700000 -0.03152745
      vertex -0.00705723 0.02700000 -0.07165330
      vertex -0.00000000 0.02700000 -0.07200000
    endloop
  endfacet
  facet normal 0.00000000 -1.00000000 0.00000000
    outer loop
      vertex -0.00310518 0.02700000 -0.03152745
      vertex -0.00000000 0.02700000 -0.07200000
      vertex -0.00000000 0.02700000 -0.03168000
    endloop
  endfacet
  facet normal 0.00000000 -1.00000000 -0.00000000
    outer loop
      vertex 0.00000000 0.02700000 0.00000000
      vertex -0.00000000 0.02700000 -0.03168000
      vertex 0.00310518 0.02700000 -0.03152745
    endloop
  endfacet
  facet normal 0.00000000 -1.00000000 -0.00000000
    outer loop
      vertex -0.00000000 0.02700000 -0.03168000
      vertex -0.00000000 0.02700000 -0.07200000
      vertex 0.00705723 0.02700000 -0.07165330
    endloop
  endfacet
  facet normal 0.00000000 -1.00000000 0.00000000
    outer loop
      vertex -0.00000000 0.02700000 -0.03168000
      vertex 0.00705723 0.02700000 -0.07165330
      vertex 0.00310518 0.02700000 -0.03152745
    endloop
  endfacet
  facet normal 0.00000000 -1.00000000 0.00000000
    outer loop
      vertex 0.00000000 0.02700000 0.00000000
      vertex 0.00310518 0.02700000 -0.03152745
      vertex 0.00618046 0.02700000 -0.03107128
    endloop
  endfacet
  facet normal 0.00000000 -1.00000000 0.00000000
    outer loop
      vertex 0.00310518 0.02700000 -0.03152745
      vertex 0.00705723 0.02700000 -0.07165330
      vertex 0.01404650 0.02700000 -0.07061654
    endloop
  endfacet
  facet normal 0.00000000 -1.00000000 0.00000000
    outer loop
      vertex 0.00310518 0.02700000 -0.03152745
      vertex 0.01404650 0.02700000 -0.07061654
      vertex 0.00618046 0.02700000 -0.03107128
    endloop
  endfacet
  facet normal 0.00000000 -1.00000000 0.00000000
    outer loop
      vertex 0.00000000 0.02700000 0.00000000
      vertex 0.00618046 0.02700000 -0.03107128
      vertex 0.00919622 0.02700000 -0.03031587
    endloop
  endfacet
  facet normal 0.00000000 -1.00000000 0.00000000
    outer loop
      vertex 0.00618046 0.02700000 -0.03107128
      vertex 0.01404650 0.02700000 -0.07061654
      vertex 0.02090050 0.02700000 -0.06889970
    endloop
  endfacet
  facet normal 0.00000000 -1.00000000 0.00000000
    outer loop
      vertex 0.00618046 0.02700000 -0.03107128
      vertex 0.02090050 0.02700000 -0.06889970
      vertex 0.00919622 0.02700000 -0.03031587
    endloop
  endfacet
  facet normal 0.00000000 -1.00000000 0.00000000
    outer loop
      vertex 0.00000000 0.02700000 0.00000000
      vertex 0.00919622 0.02700000 -0.03031587
      vertex 0.01212341 0.02700000 -0.02926850
    endloop
  endfacet
  facet normal 0.00000000 -1.00000000 0.00000000
    outer loop
      vertex 0.00919622 0.02700000 -0.03031587
      vertex 0.02090050 0.02700000 -0.06889970
      vertex 0.02755321 0.02700000 -0.06651933
    endloop
  endfacet
  facet normal 0.00000000 -1.00000000 0.00000000
    outer loop
      vertex 0.00919622 0.02700000 -0.03031587
      vertex 0.02755321 0.02700000 -0.06651933
      vertex 0.01212341 0.02700000 -0.02926850
    endloop
  endfacet
  facet normal 0.00000000 -1.00000000 0.00000000
    outer loop
      vertex 0.00000000 0.02700000 0.00000000
      vertex 0.01212341 0.02700000 -0.02926850
      vertex 0.01493385 0.02700000 -0.02793927
    endloop
  endfacet
  facet normal 0.00000000 -1.00000000 0.00000000
    outer loop
      vertex 0.01212341 0.02700000 -0.02926850
      vertex 0.02755321 0.02700000 -0.06651933
      vertex 0.03394057 0.02700000 -0.06349833
    endloop
  endfacet
  facet normal 0.00000000 -1.00000000 0.00000000
    outer loop
      vertex 0.01212341 0.02700000 -0.02926850
      vertex 0.03394057 0.02700000 -0.06349833
      vertex 0.01493385 0.02700000 -0.02793927
    endloop
  endfacet
  facet normal 0.00000000 -1.00000000 0.00000000
    outer loop
      vertex 0.00000000 0.02700000 0.00000000
      vertex 0.01493385 0.02700000 -0.02793927
      vertex 0.01760046 0.02700000 -0.02634096
    endloop
  endfacet
  facet normal 0.00000000 -1.00000000 0.00000000
    outer loop
      vertex 0.01493385 0.02700000 -0.02793927
      vertex 0.03394057 0.02700000 -0.06349833
      vertex 0.04000106 0.02700000 -0.05986581
    endloop
  endfacet
  facet normal 0.00000000 -1.00000000 0.00000000
    outer loop
      vertex 0.01493385 0.02700000 -0.02793927
      vertex 0.04000106 0.02700000 -0.05986581
      vertex 0.01760046 0.02700000 -0.02634096
    endloop
  endfacet
  facet normal 0.00000000 -1.00000000 0.00000000
    outer loop
      vertex 0.00000000 0.02700000 0.00000000
      vertex 0.01760046 0.02700000 -0.02634096
      vertex 0.02009758 0.02700000 -0.02448897
    endloop
  endfacet
  facet normal 0.00000000 -1.00000000 0.00000000
    outer loop
      vertex 0.01760046 0.02700000 -0.02634096
      vertex 0.04000106 0.02700000 -0.05986581
      vertex 0.04567632 0.02700000 -0.05565675
    endloop
  endfacet
  facet normal 0.00000000 -1.00000000 0.00000000
    outer loop
      vertex 0.01760046 0.02700000 -0.02634096
      vertex 0.04567632 0.02700000 -0.05565675
      vertex 0.02009758 0.02700000 -0.02448897
    endloop
  endfacet
  facet normal 0.00000000 -1.00000000 0.00000000
    outer loop
      vertex 0.00000000 0.02700000 0.00000000
      vertex 0.02009758 0.02700000 -0.02448897
      vertex 0.02240114 0.02700000 -0.02240114
    endloop
  endfacet
  facet normal 0.00000000 -1.00000000 0.00000000
    outer loop
      vertex 0.02009758 0.02700000 -0.02448897
      vertex 0.04567632 0.02700000 -0.05565675
      vertex 0.05091169 0.02700000 -0.05091169
    endloop
  endfacet
  facet normal 0.00000000 -1.00000000 0.00000000
    outer loop
      vertex 0.02009758 0.02700000 -0.02448897
      vertex 0.05091169 0.02700000 -0.05091169
      vertex 0.02240114 0.02700000 -0.02240114
    endloop
  endfacet
  facet normal 0.00000000 -1.00000000 0.00000000
    outer loop
      vertex 0.00000000 0.02700000 0.00000000
      vertex 0.02240114 0.02700000 -0.02240114
      vertex 0.02448897 0.02700000 -0.02009758
    endloop
  endfacet
  facet normal 0.00000000 -1.00000000 0.00000000
    outer loop
      vertex 0.02240114 0.02700000 -0.02240114
      vertex 0.05091169 0.02700000 -0.05091169
      vertex 0.05565675 0.02700000 -0.04567632
    endloop
  endfacet
  facet normal 0.00000000 -1.00000000 0.00000000
    outer loop
      vertex 0.02240114 0.02700000 -0.02240114
      vertex 0.05565675 0.02700000 -0.04567632
      vertex 0.02448897 0.02700000 -0.02009758
    endloop
  endfacet
  facet normal 0.00000000 -1.00000000 0.00000000
    outer loop
      vertex 0.00000000 0.02700000 0.00000000
      vertex 0.02448897 0.02700000 -0.02009758
      vertex 0.02634096 0.02700000 -0.01760046
    endloop
  endfacet
  facet normal 0.00000000 -1.00000000 0.00000000
    outer loop
      vertex 0.02448897 0.02700000 -0.02009758
      vertex 0.05565675 0.02700000 -0.04567632
      vertex 0.05986581 0.02700000 -0.04000106
    endloop
  endfacet
  facet normal 0.00000000 -1.00000000 0.00000000
    outer loop
      vertex 0.02448897 0.02700000 -0.02009758
      vertex 0.05986581 0.02700000 -0.04000106
      vertex 0.02634096 0.02700000 -0.01760046
    endloop
  endfacet
  facet normal 0.00000000 -1.00000000 0.00000000
    outer loop
      vertex 0.00000000 0.02700000 0.00000000
      vertex 0.02634096 0.02700000 -0.01760046
      vertex 0.02793927 0.02700000 -0.01493385
    endloop
  endfacet
  facet normal 0.00000000 -1.00000000 0.00000000
    outer loop
      vertex 0.02634096 0.02700000 -0.01760046
      vertex 0.05986581 0.02700000 -0.04000106
      vertex 0.06349833 0.02700000 -0.03394057
    endloop
  endfacet
  facet normal 0.00000000 -1.00000000 0.00000000
    outer loop
      vertex 0.02634096 0.02700000 -0.01760046
      vertex 0.06349833 0.02700000 -0.03394057
      vertex 0.02793927 0.02700000 -0.01493385
    endloop
  endfacet
  facet normal 0.00000000 -1.00000000 0.00000000
    outer loop
      vertex 0.00000000 0.02700000 0.00000000
      vertex 0.02793927 0.02700000 -0.01493385
      vertex 0.02926850 0.02700000 -0.01212341
    endloop
  endfacet
  facet normal 0.00000000 -1.00000000 0.00000000
    outer loop
      vertex 0.02793927 0.02700000 -0.01493385
      vertex 0.06349833 0.02700000 -0.03394057
      vertex 0.06651933 0.02700000 -0.02755321
    endloop
  endfacet
  facet normal 0.00000000 -1.00000000 0.00000000
    outer loop
      vertex 0.02793927 0.02700000 -0.01493385
      vertex 0.06651933 0.02700000 -0.02755321
      vertex 0.02926850 0.02700000 -0.01212341
    endloop
  endfacet
  facet normal 0.00000000 -1.00000000 0.00000000
    outer loop
      vertex 0.00000000 0.02700000 0.00000000
      vertex 0.02926850 0.02700000 -0.01212341
      vertex 0.03031587 0.02700000 -0.00919622
    endloop
  endfacet
  facet normal 0.00000000 -1.00000000 0.00000000
    outer loop
      vertex 0.02926850 0.02700000 -0.01212341
      vertex 0.06651933 0.02700000 -0.02755321
      vertex 0.06889970 0.02700000 -0.02090050
    endloop
  endfacet
  facet normal 0.00000000 -1.00000000 0.00000000
    outer loop
      vertex 0.02926850 0.02700000 -0.01212341
      vertex 0.06889970 0.02700000 -0.02090050
      vertex 0.03031587 0.02700000 -0.00919622
    endloop
  endfacet
  facet normal 0.00000000 -1.00000000 0.00000000
    outer loop
      vertex 0.00000000 0.02700000 0.00000000
      vertex 0.03031587 0.02700000 -0.00919622
      vertex 0.03107128 0.02700000 -0.00618046
    endloop
  endfacet
  facet normal 0.00000000 -1.00000000 0.00000000
    outer loop
      vertex 0.03031587 0.02700000 -0.00919622
      vertex 0.06889970 0.02700000 -0.02090050
      vertex 0.07061654 0.02700000 -0.01404650
    endloop
  endfacet
  facet normal 0.00000000 -1.00000000 0.00000000
    outer loop
      vertex 0.03031587 0.02700000 -0.00919622
      vertex 0.07061654 0.02700000 -0.01404650
      vertex 0.03107128 0.02700000 -0.00618046
    endloop
  endfacet
  facet normal 0.00000000 -1.00000000 0.00000000
    outer loop
      vertex 0.00000000 0.02700000 0.00000000
      vertex 0.03107128 0.02700000 -0.00618046
      vertex 0.03152745 0.02700000 -0.00310518
    endloop
  endfacet
  facet normal 0.00000000 -1.00000000 0.00000000
    outer loop
      vertex 0.03107128 0.02700000 -0.00618046
      vertex 0.07061654 0.02700000 -0.01404650
      vertex 0.07165330 0.02700000 -0.00705723
    endloop
  endfacet
  facet normal 0.00000000 -1.00000000 0.00000000
    outer loop
      vertex 0.03107128 0.02700000 -0.00618046
      vertex 0.07165330 0.02700000 -0.00705723
      vertex 0.03152745 0.02700000 -0.00310518
    endloop
  endfacet
  facet normal 0.00000000 -1.00000000 0.00000000
    outer loop
      vertex 0.00000000 0.02700000 0.00000000
      vertex 0.03152745 0.02700000 -0.00310518
      vertex 0.03168000 0.02700000 -0.00000000
    endloop
  endfacet
  facet normal 0.00000000 -1.00000000 0.00000000
    outer loop
      vertex 0.03152745 0.02700000 -0.00310518
      vertex 0.07165330 0.02700000 -0.00705723
      vertex 0.07200000 0.02700000 -0.00000000
    endloop
  endfacet
  facet normal 0.00000000 -1.00000000 0.00000000
    outer loop
      vertex 0.03152745 0.02700000 -0.00310518
      vertex 0.07200000 0.02700000 -0.00000000
      vertex 0.03168000 0.02700000 -0.00000000
    endloop
  endfacet
  facet normal 0.00000000 1.00000000 0.00000000
    outer loop
      vertex 0.00000000 -0.02700000 0.00000000
      vertex 0.03152745 -0.02700000 0.00310518
      vertex 0.03168000 -0.02700000 0.00000000
    endloop
  endfacet
  facet normal 0.00000000 1.00000000 0.00000000
    outer loop
      vertex 0.03168000 -0.02700000 0.00000000
      vertex 0.07165330 -0.02700000 0.00705723
      vertex 0.07200000 -0.02700000 0.00000000
    endloop
  endfacet
  facet normal 0.00000000 1.00000000 -0.00000000
    outer loop
      vertex 0.03168000 -0.02700000 0.00000000
      vertex 0.03152745 -0.02700000 0.00310518
      vertex 0.07165330 -0.02700000 0.00705723
    endloop
  endfacet
  facet normal 0.00000000 1.00000000 0.00000000
    outer loop
      vertex 0.00000000 -0.02700000 0.00000000
      vertex 0.03107128 -0.02700000 0.00618046
      vertex 0.03152745 -0.02700000 0.00310518
    endloop
  endfacet
  facet normal 0.00000000 1.00000000 0.00000000
    outer loop
      vertex 0.03152745 -0.02700000 0.00310518
      vertex 0.07061654 -0.02700000 0.01404650
      vertex 0.07165330 -0.02700000 0.00705723
    endloop
  endfacet
  facet normal 0.00000000 1.00000000 -0.00000000
    outer loop
      vertex 0.03152745 -0.02700000 0.00310518
      vertex 0.03107128 -0.02700000 0.00618046
      vertex 0.07061654 -0.02700000 0.01404650
    endloop
  endfacet
  facet normal 0.00000000 1.00000000 0.00000000
    outer loop
      vertex 0.00000000 -0.02700000 0.00000000
      vertex 0.03031587 -0.02700000 0.00919622
      vertex 0.03107128 -0.02700000 0.00618046
    endloop
  endfacet
  facet normal 0.00000000 1.00000000 0.00000000
    outer loop
      vertex 0.03107128 -0.02700000 0.00618046
      vertex 0.06889970 -0.02700000 0.02090050
      vertex 0.07061654 -0.02700000 0.01404650
    endloop
  endfacet
  facet normal 0.00000000 1.00000000 -0.00000000
    outer loop
      vertex 0.03107128 -0.02700000 0.00618046
      vertex 0.03031587 -0.02700000 0.00919622
      vertex 0.06889970 -0.02700000 0.02090050
    endloop
  endfacet
  facet normal 0.00000000 1.00000000 0.00000000
    outer loop
      vertex 0.00000000 -0.02700000 0.00000000
      vertex 0.02926850 -0.02700000 0.01212341
      vertex 0.03031587 -0.02700000 0.00919622
    endloop
  endfacet
  facet normal 0.00000000 1.00000000 0.00000000
    outer loop
      vertex 0.03031587 -0.02700000 0.00919622
      vertex 0.06651933 -0.02700000 0.02755321
      vertex 0.06889970 -0.02700000 0.02090050
    endloop
  endfacet
  facet normal 0.00000000 1.00000000 -0.00000000
    outer loop
      vertex 0.03031587 -0.02700000 0.00919622
      vertex 0.02926850 -0.02700000 0.01212341
      vertex 0.06651933 -0.02700000 0.02755321
    endloop
  endfacet
  facet normal 0.00000000 1.00000000 0.00000000
    outer loop
      vertex 0.00000000 -0.02700000 0.00000000
      vertex 0.02793927 -0.02700000 0.01493385
      vertex 0.02926850 -0.02700000 0.01212341
    endloop
  endfacet
  facet normal 0.00000000 1.00000000 0.00000000
    outer loop
      vertex 0.02926850 -0.02700000 0.01212341
      vertex 0.06349833 -0.02700000 0.03394057
      vertex 0.06651933 -0.02700000 0.02755321
    endloop
  endfacet
  facet normal 0.00000000 1.00000000 -0.00000000
    outer loop
      vertex 0.02926850 -0.02700000 0.01212341
      vertex 0.02793927 -0.02700000 0.01493385
      vertex 0.06349833 -0.02700000 0.03394057
    endloop
  endfacet
  facet normal 0.00000000 1.00000000 0.00000000
    outer loop
      vertex 0.00000000 -0.02700000 0.00000000
      vertex 0.02634096 -0.02700000 0.01760046
      vertex 0.02793927 -0.02700000 0.01493385
    endloop
  endfacet
  facet normal 0.00000000 1.00000000 0.00000000
    outer loop
      vertex 0.02793927 -0.02700000 0.01493385
      vertex 0.05986581 -0.02700000 0.04000106
      vertex 0.06349833 -0.02700000 0.03394057
    endloop
  endfacet
  facet normal 0.00000000 1.00000000 -0.00000000
    outer loop
      vertex 0.02793927 -0.02700000 0.01493385
      vertex 0.02634096 -0.02700000 0.01760046
      vertex 0.05986581 -0.02700000 0.04000106
    endloop
  endfacet
  facet normal 0.00000000 1.00000000 0.00000000
    outer loop
      vertex 0.00000000 -0.02700000 0.00000000
      vertex 0.02448897 -0.02700000 0.02009758
      vertex 0.02634096 -0.02700000 0.01760046
    endloop
  endfacet
  facet normal 0.00000000 1.00000000 0.00000000
    outer loop
      vertex 0.02634096 -0.02700000 0.01760046
      vertex 0.05565675 -0.02700000 0.04567632
      vertex 0.05986581 -0.02700000 0.04000106
    endloop
  endfacet
  facet normal 0.00000000 1.00000000 -0.00000000
    outer loop
      vertex 0.02634096 -0.02700000 0.01760046
      vertex 0.02448897 -0.02700000 0.02009758
      vertex 0.05565675 -0.02700000 0.04567632
    endloop
  endfacet
  facet normal 0.00000000 1.00000000 0.00000000
    outer loop
      vertex 0.00000000 -0.02700000 0.00000000
      vertex 0.02240114 -0.02700000 0.02240114
      vertex 0.02448897 -0.02700000 0.02009758
    endloop
  endfacet
  facet normal 0.00000000 1.00000000 0.00000000
    outer loop
      vertex 0.02448897 -0.02700000 0.02009758
      vertex 0.05091169 -0.02700000 0.05091169
      vertex 0.05565675 -0.02700000 0.04567632
    endloop
  endfacet
  facet normal 0.00000000 1.00000000 -0.00000000
    outer loop
      vertex 0.02448897 -0.02700000 0.02009758
      vertex 0.02240114 -0.02700000 0.02240114
      vertex 0.05091169 -0.02700000 0.05091169
    endloop
  endfacet
  facet normal 0.00000000 1.00000000 0.00000000
    outer loop
      vertex 0.00000000 -0.02700000 0.00000000
      vertex 0.02009758 -0.02700000 0.02448897
      vertex 0.02240114 -0.02700000 0.02240114
    endloop
  endfacet
  facet normal 0.00000000 1.00000000 0.00000000
    outer loop
      vertex 0.02240114 -0.02700000 0.02240114
      vertex 0.04567632 -0.02700000 0.05565675
      vertex 0.05091169 -0.02700000 0.05091169
    endloop
  endfacet
  facet normal 0.00000000 1.00000000 -0.00000000
    outer loop
      vertex 0.02240114 -0.02700000 0.02240114
      vertex 0.02009758 -0.02700000 0.02448897
      vertex 0.04567632 -0.02700000 0.05565675
    endloop
  endfacet
  facet normal 0.00000000 1.00000000 0.00000000
    outer loop
      vertex 0.00000000 -0.02700000 0.00000000
      vertex 0.01760046 -0.02700000 0.02634096
      vertex 0.02009758 -0.02700000 0.02448897
    endloop
  endfacet
  facet normal 0.00000000 1.00000000 0.00000000
    outer loop
      vertex 0.02009758 -0.02700000 0.02448897
      vertex 0.04000106 -0.02700000 0.05986581
      vertex 0.04567632 -0.02700000 0.05565675
    endloop
  endfacet
  facet normal 0.00000000 1.00000000 -0.00000000
    outer loop
      vertex 0.02009758 -0.02700000 0.02448897
      vertex 0.01760046 -0.02700000 0.02634096
      vertex 0.04000106 -0.02700000 0.05986581
    endloop
  endfacet
  facet normal 0.00000000 1.00000000 0.00000000
    outer loop
      vertex 0.00000000 -0.02700000 0.00000000
      vertex 0.01493385 -0.02700000 0.02793927
      vertex 0.01760046 -0.02700000 0.02634096
    endloop
  endfacet
  facet normal 0.00000000 1.00000000 0.00000000
    outer loop
      vertex 0.01760046 -0.02700000 0.02634096
      vertex 0.03394057 -0.02700000 0.06349833
      vertex 0.04000106 -0.02700000 0.05986581
    endloop
  endfacet
  facet normal 0.00000000 1.00000000 -0.00000000
    outer loop
      vertex 0.01760046 -0.02700000 0.02634096
      vertex 0.01493385 -0.02700000 0.02793927
      vertex 0.03394057 -0.02700000 0.06349833
    endloop
  endfacet
  facet normal 0.00000000 1.00000000 0.00000000
    outer loop
      vertex 0.00000000 -0.02700000 0.00000000
      vertex 0.01212341 -0.02700000 0.02926850
      vertex 0.01493385 -0.02700000 0.02793927
    endloop
  endfacet
  facet normal 0.00000000 1.00000000 0.00000000
    outer loop
      vertex 0.01493385 -0.02700000 0.02793927
      vertex 0.02755321 -0.02700000 0.06651933
      vertex 0.03394057 -0.02700000 0.06349833
    endloop
  endfacet
  facet normal 0.00000000 1.00000000 -0.00000000
    outer loop
      vertex 0.01493385 -0.02700000 0.02793927
      vertex 0.01212341 -0.02700000 0.02926850
      vertex 0.02755321 -0.02700000 0.06651933
    endloop
  endfacet
  facet normal 0.00000000 1.00000000 0.00000000
    outer loop
      vertex 0.00000000 -0.02700000 0.00000000
      vertex 0.00919622 -0.02700000 0.03031587
      vertex 0.01212341 -0.02700000 0.02926850
    endloop
  endfacet
  facet normal 0.00000000 1.00000000 0.00000000
    outer loop
      vertex 0.01212341 -0.02700000 0.02926850
      vertex 0.02090050 -0.02700000 0.06889970
      vertex 0.02755321 -0.02700000 0.06651933
    endloop
  endfacet
  facet normal 0.00000000 1.00000000 -0.00000000
    outer loop
      vertex 0.01212341 -0.02700000 0.02926850
      vertex 0.00919622 -0.02700000 0.03031587
      vertex 0.02090050 -0.02700000 0.06889970
    endloop
  endfacet
  facet normal 0.00000000 1.00000000 0.00000000
    outer loop
      vertex 0.00000000 -0.02700000 0.00000000
      vertex 0.00618046 -0.02700000 0.03107128
      vertex 0.00919622 -0.02700000 0.03031587
    endloop
  endfacet
  facet normal 0.00000000 1.00000000 0.00000000
    outer loop
      vertex 0.00919622 -0.02700000 0.03031587
      vertex 0.01404650 -0.02700000 0.07061654
      vertex 0.02090050 -0.02700000 0.06889970
    endloop
  endfacet
  facet normal 0.00000000 1.00000000 -0.00000000
    outer loop
      vertex 0.00919622 -0.02700000 0.03031587
      vertex 0.00618046 -0.02700000 0.03107128
      vertex 0.01404650 -0.02700000 0.07061654
    endloop
  endfacet
  facet normal 0.00000000 1.00000000 0.00000000
    outer loop
      vertex 0.00000000 -0.02700000 0.00000000
      vertex 0.00310518 -0.02700000 0.03152745
      vertex 0.00618046 -0.02700000 0.03107128
    endloop
  endfacet
  facet normal 0.00000000 1.00000000 0.00000000
    outer loop
      vertex 0.00618046 -0.02700000 0.03107128
      vertex 0.00705723 -0.02700000 0.07165330
      vertex 0.01404650 -0.02700000 0.07061654
    endloop
  endfacet
  facet normal 0.00000000 1.00000000 -0.00000000
    outer loop
      vertex 0.00618046 -0.02700000 0.03107128
      vertex 0.00310518 -0.02700000 0.03152745
      vertex 0.00705723 -0.02700000 0.07165330
    endloop
  endfacet
  facet normal 0.00000000 1.00000000 0.00000000
    outer loop
      vertex 0.00000000 -0.02700000 0.00000000
      vertex 0.00000000 -0.02700000 0.03168000
      vertex 0.00310518 -0.02700000 0.03152745
    endloop
  endfacet
  facet normal 0.00000000 1.00000000 -0.00000000
    outer loop
      vertex 0.00310518 -0.02700000 0.03152745
      vertex 0.00000000 -0.02700000 0.07200000
      vertex 0.00705723 -0.02700000 0.07165330
    endloop
  endfacet
  facet normal 0.00000000 1.00000000 0.00000000
    outer loop
      vertex 0.00310518 -0.02700000 0.03152745
      vertex 0.00000000 -0.02700000 0.03168000
      vertex 0.00000000 -0.02700000 0.07200000
    endloop
  endfacet
  facet normal 0.00000000 1.00000000 -0.00000000
    outer loop
      vertex 0.00000000 -0.02700000 0.00000000
      vertex -0.00310518 -0.02700000 0.03152745
      vertex 0.00000000 -0.02700000 0.03168000
    endloop
  endfacet
  facet normal 0.00000000 1.00000000 -0.00000000
    outer loop
      vertex 0.00000000 -0.02700000 0.03168000
      vertex -0.00705723 -0.02700000 0.07165330
      vertex 0.00000000 -0.02700000 0.07200000
    endloop
  endfacet
  facet normal 0.00000000 1.00000000 0.00000000
    outer loop
      vertex 0.00000000 -0.02700000 0.03168000
      vertex -0.00310518 -0.02700000 0.03152745
      vertex -0.00705723 -0.02700000 0.07165330
    endloop
  endfacet
  facet normal 0.00000000 1.00000000 0.00000000
    outer loop
      vertex 0.00000000 -0.02700000 0.00000000
      vertex -0.00618046 -0.02700000 0.03107128
      vertex -0.00310518 -0.02700000 0.03152745
    endloop
  endfacet
  facet normal 0.00000000 1.00000000 0.00000000
    outer loop
      vertex -0.00310518 -0.02700000 0.03152745
      vertex -0.01404650 -0.02700000 0.07061654
      vertex -0.00705723 -0.02700000 0.07165330
    endloop
  endfacet
  facet normal 0.00000000 1.00000000 0.00000000
    outer loop
      vertex -0.00310518 -0.02700000 0.03152745
      vertex -0.00618046 -0.02700000 0.03107128
      vertex -0.01404650 -0.02700000 0.07061654
    endloop
  endfacet
  facet normal 0.00000000 1.00000000 0.00000000
    outer loop
      vertex 0.00000000 -0.02700000 0.00000000
      vertex -0.00919622 -0.02700000 0.03031587
      vertex -0.00618046 -0.02700000 0.03107128
    endloop
  endfacet
  facet normal 0.00000000 1.00000000 0.00000000
    outer loop
      vertex -0.00618046 -0.02700000 0.03107128
      vertex -0.02090050 -0.02700000 0.06889970
      vertex -0.01404650 -0.02700000 0.07061654
    endloop
  endfacet
  facet normal 0.00000000 1.00000000 0.00000000
    outer loop
      vertex -0.00618046 -0.02700000 0.03107128
      vertex -0.00919622 -0.02700000 0.03031587
      vertex -0.02090050 -0.02700000 0.06889970
    endloop
  endfacet
  facet normal 0.00000000 1.00000000 0.00000000
    outer loop
      vertex 0.00000000 -0.02700000 0.00000000
      vertex -0.01212341 -0.02700000 0.02926850
      vertex -0.00919622 -0.02700000 0.03031587
    endloop
  endfacet
  facet normal 0.00000000 1.00000000 0.00000000
    outer loop
      vertex -0.00919622 -0.02700000 0.03031587
      vertex -0.02755321 -0.02700000 0.06651933
      vertex -0.02090050 -0.02700000 0.06889970
    endloop
  endfacet
  facet normal 0.00000000 1.00000000 0.00000000
    outer loop
      vertex -0.00919622 -0.02700000 0.03031587
      vertex -0.01212341 -0.02700000 0.02926850
      vertex -0.02755321 -0.02700000 0.06651933
    endloop
  endfacet
  facet normal 0.00000000 1.00000000 0.00000000
    outer loop
      vertex 0.00000000 -0.02700000 0.00000000
      vertex -0.01493385 -0.02700000 0.02793927
      vertex -0.01212341 -0.02700000 0.02926850
    endloop
  endfacet
  facet normal 0.00000000 1.00000000 0.00000000
    outer loop
      vertex -0.01212341 -0.02700000 0.02926850
      vertex -0.03394057 -0.02700000 0.06349833
      vertex -0.02755321 -0.02700000 0.06651933
    endloop
  endfacet
  facet normal 0.00000000 1.00000000 0.00000000
    outer loop
      vertex -0.01212341 -0.02700000 0.02926850
      vertex -0.01493385 -0.02700000 0.02793927
      vertex -0.03394057 -0.02700000 0.06349833
    endloop
  endfacet
  facet normal 0.00000000 1.00000000 0.00000000
    outer loop
      vertex 0.00000000 -0.02700000 0.00000000
      vertex -0.01760046 -0.02700000 0.02634096
      vertex -0.01493385 -0.02700000 0.02793927
    endloop
  endfacet
  facet normal 0.00000000 1.00000000 0.00000000
    outer loop
      vertex -0.01493385 -0.02700000 0.02793927
      vertex -0.04000106 -0.02700000 0.05986581
      vertex -0.03394057 -0.02700000 0.06349833
    endloop
  endfacet
  facet normal 0.00000000 1.00000000 0.00000000
    outer loop
      vertex -0.01493385 -0.02700000 0.02793927
      vertex -0.01760046 -0.02700000 0.02634096
      vertex -0.04000106 -0.02700000 0.05986581
    endloop
  endfacet
  facet normal 0.00000000 1.00000000 0.00000000
    outer loop
      vertex 0.00000000 -0.02700000 0.00000000
      vertex -0.02009758 -0.02700000 0.02448897
      vertex -0.01760046 -0.02700000 0.02634096
    endloop
  endfacet
  facet normal 0.00000000 1.00000000 0.00000000
    outer loop
      vertex -0.01760046 -0.02700000 0.02634096
      vertex -0.04567632 -0.02700000 0.05565675
      vertex -0.04000106 -0.02700000 0.05986581
    endloop
  endfacet
  facet normal 0.00000000 1.00000000 0.00000000
    outer loop
      vertex -0.01760046 -0.02700000 0.02634096
      vertex -0.02009758 -0.02700000 0.02448897
      vertex -0.04567632 -0.02700000 0.05565675
    endloop
  endfacet
  facet normal 0.00000000 1.00000000 0.00000000
    outer loop
      vertex 0.00000000 -0.02700000 0.00000000
      vertex -0.02240114 -0.02700000 0.02240114
      vertex -0.02009758 -0.02700000 0.02448897
    endloop
  endfacet
  facet normal 0.00000000 1.00000000 0.00000000
    outer loop
      vertex -0.02009758 -0.02700000 0.02448897
      vertex -0.05091169 -0.02700000 0.05091169
      vertex -0.04567632 -0.02700000 0.05565675
    endloop
  endfacet
  facet normal 0.00000000 1.00000000 0.00000000
    outer loop
      vertex -0.02009758 -0.02700000 0.02448897
      vertex -0.02240114 -0.02700000 0.02240114
      vertex -0.05091169 -0.02700000 0.05091169
    endloop
  endfacet
  facet normal 0.00000000 1.00000000 0.00000000
    outer loop
      vertex 0.00000000 -0.02700000 0.00000000
      vertex -0.02448897 -0.02700000 0.02009758
      vertex -0.02240114 -0.02700000 0.02240114
    endloop
  endfacet
  facet normal 0.00000000 1.00000000 0.00000000
    outer loop
      vertex -0.02240114 -0.02700000 0.02240114
      vertex -0.05565675 -0.02700000 0.04567632
      vertex -0.05091169 -0.02700000 0.05091169
    endloop
  endfacet
  facet normal 0.00000000 1.00000000 0.00000000
    outer loop
      vertex -0.02240114 -0.02700000 0.02240114
      vertex -0.02448897 -0.02700000 0.02009758
      vertex -0.05565675 -0.02700000 0.04567632
    endloop
  endfacet
  facet normal 0.00000000 1.00000000 0.00000000
    outer loop
      vertex 0.00000000 -0.02700000 0.00000000
      vertex -0.02634096 -0.02700000 0.01760046
      vertex -0.02448897 -0.02700000 0.02009758
    endloop
  endfacet
  facet normal 0.00000000 1.00000000 0.00000000
    outer loop
      vertex -0.02448897 -0.02700000 0.02009758
      vertex -0.05986581 -0.02700000 0.04000106
      vertex -0.05565675 -0.02700000 0.04567632
    endloop
  endfacet
  facet normal 0.00000000 1.00000000 0.00000000
    outer loop
      vertex -0.02448897 -0.02700000 0.02009758
      vertex -0.02634096 -0.02700000 0.01760046
      vertex -0.05986581 -0.02700000 0.04000106
    endloop
  endfacet
  facet normal 0.00000000 1.00000000 0.00000000
    outer loop
      vertex 0.00000000 -0.02700000 0.00000000
      vertex -0.02793927 -0.02700000 0.01493385
      vertex -0.02634096 -0.02700000 0.01760046
    endloop
  endfacet
  facet normal 0.00000000 1.00000000 0.00000000
    outer loop
      vertex -0.02634096 -0.02700000 0.01760046
      vertex -0.06349833 -0.02700000 0.03394057
      vertex -0.05986581 -0.02700000 0.04000106
    endloop
  endfacet
  facet normal 0.00000000 1.00000000 0.00000000
    outer loop
      vertex -0.02634096 -0.02700000 0.01760046
      vertex -0.02793927 -0.02700000 0.01493385
      vertex -0.06349833 -0.02700000 0.03394057
    endloop
  endfacet
  facet normal 0.00000000 1.00000000 0.00000000
    outer loop
      vertex 0.00000000 -0.02700000 0.00000000
      vertex -0.02926850 -0.02700000 0.01212341
      vertex -0.02793927 -0.02700000 0.01493385
    endloop
  endfacet
  facet normal 0.00000000 1.00000000 0.00000000
    outer loop
      vertex -0.02793927 -0.02700000 0.01493385
      vertex -0.06651933 -0.02700000 0.02755321
      vertex -0.06349833 -0.02700000 0.03394057
    endloop
  endfacet
  facet normal 0.00000000 1.00000000 0.00000000
    outer loop
      vertex -0.02793927 -0.02700000 0.01493385
      vertex -0.02926850 -0.02700000 0.01212341
      vertex -0.06651933 -0.02700000 0.02755321
    endloop
  endfacet
  facet normal 0.00000000 1.00000000 0.00000000
    outer loop
      vertex 0.00000000 -0.02700000 0.00000000
      vertex -0.03031587 -0.02700000 0.00919622
      vertex -0.02926850 -0.02700000 0.01212341
    endloop
  endfacet
  facet normal 0.00000000 1.00000000 0.00000000
    outer loop
      vertex -0.02926850 -0.02700000 0.01212341
      vertex -0.06889970 -0.02700000 0.02090050
      vertex -0.06651933 -0.02700000 0.02755321
    endloop
  endfacet
  facet normal 0.00000000 1.00000000 0.00000000
    outer loop
      vertex -0.02926850 -0.02700000 0.01212341
      vertex -0.03031587 -0.02700000 0.00919622
      vertex -0.06889970 -0.02700000 0.02090050
    endloop
  endfacet
  facet normal 0.00000000 1.00000000 0.00000000
    outer loop
      vertex 0.00000000 -0.02700000 0.00000000
      vertex -0.03107128 -0.02700000 0.00618046
      vertex -0.03031587 -0.02700000 0.00919622
    endloop
  endfacet
  facet normal 0.00000000 1.00000000 0.00000000
    outer loop
      vertex -0.03031587 -0.02700000 0.00919622
      vertex -0.07061654 -0.02700000 0.01404650
      vertex -0.06889970 -0.02700000 0.02090050
    endloop
  endfacet
  facet normal 0.00000000 1.00000000 0.00000000
    outer loop
      vertex -0.03031587 -0.02700000 0.00919622
      vertex -0.03107128 -0.02700000 0.00618046
      vertex -0.07061654 -0.02700000 0.01404650
    endloop
  endfacet
  facet normal 0.00000000 1.00000000 0.00000000
    outer loop
      vertex 0.00000000 -0.02700000 0.00000000
      vertex -0.03152745 -0.02700000 0.00310518
      vertex -0.03107128 -0.02700000 0.00618046
    endloop
  endfacet
  facet normal 0.00000000 1.00000000 0.00000000
    outer loop
      vertex -0.03107128 -0.02700000 0.00618046
      vertex -0.07165330 -0.02700000 0.00705723
      vertex -0.07061654 -0.02700000 0.01404650
    endloop
  endfacet
  facet normal 0.00000000 1.00000000 0.00000000
    outer loop
      vertex -0.03107128 -0.02700000 0.00618046
      vertex -0.03152745 -0.02700000 0.00310518
      vertex -0.07165330 -0.02700000 0.00705723
    endloop
  endfacet
  facet normal 0.00000000 1.00000000 0.00000000
    outer loop
      vertex 0.00000000 -0.02700000 0.00000000
      vertex -0.03168000 -0.02700000 0.00000000
      vertex -0.03152745 -0.02700000 0.00310518
    endloop
  endfacet
  facet normal 0.00000000 1.00000000 0.00000000
    outer loop
      vertex -0.03152745 -0.02700000 0.00310518
      vertex -0.07200000 -0.02700000 0.00000000
      vertex -0.07165330 -0.02700000 0.00705723
    endloop
  endfacet
  facet normal 0.00000000 1.00000000 0.00000000
    outer loop
      vertex -0.03152745 -0.02700000 0.00310518
      vertex -0.03168000 -0.02700000 0.00000000
      vertex -0.07200000 -0.02700000 0.00000000
    endloop
  endfacet
  facet normal 0.00000000 1.00000000 0.00000000
    outer loop
      vertex 0.00000000 -0.02700000 0.00000000
      vertex -0.03152745 -0.02700000 -0.00310518
      vertex -0.03168000 -0.02700000 0.00000000
    endloop
  endfacet
  facet normal 0.00000000 1.00000000 0.00000000
    outer loop
      vertex -0.03168000 -0.02700000 0.00000000
      vertex -0.07165330 -0.02700000 -0.00705723
      vertex -0.07200000 -0.02700000 0.00000000
    endloop
  endfacet
  facet normal 0.00000000 1.00000000 0.00000000
    outer loop
      vertex -0.03168000 -0.02700000 0.00000000
      vertex -0.03152745 -0.02700000 -0.00310518
      vertex -0.07165330 -0.02700000 -0.00705723
    endloop
  endfacet
  facet normal 0.00000000 1.00000000 0.00000000
    outer loop
      vertex 0.00000000 -0.02700000 0.00000000
      vertex -0.03107128 -0.02700000 -0.00618046
      vertex -0.03152745 -0.02700000 -0.00310518
    endloop
  endfacet
  facet normal 0.00000000 1.00000000 0.00000000
    outer loop
      vertex -0.03152745 -0.02700000 -0.00310518
      vertex -0.07061654 -0.02700000 -0.01404650
      vertex -0.07165330 -0.02700000 -0.00705723
    endloop
  endfacet
  facet normal 0.00000000 1.00000000 0.00000000
    outer loop
      vertex -0.03152745 -0.02700000 -0.00310518
      vertex -0.03107128 -0.02700000 -0.00618046
      vertex -0.07061654 -0.02700000 -0.01404650
    endloop
  endfacet
  facet normal 0.00000000 1.00000000 0.00000000
    outer loop
      vertex 0.00000000 -0.02700000 0.00000000
      vertex -0.03031587 -0.02700000 -0.00919622
      vertex -0.03107128 -0.02700000 -0.00618046
    endloop
  endfacet
  facet normal 0.00000000 1.00000000 0.00000000
    outer loop
      vertex -0.03107128 -0.02700000 -0.00618046
      vertex -0.06889970 -0.02700000 -0.02090050
      vertex -0.07061654 -0.02700000 -0.01404650
    endloop
  endfacet
  facet normal 0.00000000 1.00000000 0.00000000
    outer loop
      vertex -0.03107128 -0.02700000 -0.00618046
      vertex -0.03031587 -0.02700000 -0.00919622
      vertex -0.06889970 -0.02700000 -0.02090050
    endloop
  endfacet
  facet normal 0.00000000 1.00000000 0.00000000
    outer loop
      vertex 0.00000000 -0.02700000 0.00000000
      vertex -0.02926850 -0.02700000 -0.01212341
      vertex -0.03031587 -0.02700000 -0.00919622
    endloop
  endfacet
  facet normal 0.00000000 1.00000000 0.00000000
    outer loop
      vertex -0.03031587 -0.02700000 -0.00919622
      vertex -0.06651933 -0.02700000 -0.02755321
      vertex -0.06889970 -0.02700000 -0.02090050
    endloop
  endfacet
  facet normal 0.00000000 1.00000000 0.00000000
    outer loop
      vertex -0.03031587 -0.02700000 -0.00919622
      vertex -0.02926850 -0.02700000 -0.01212341
      vertex -0.06651933 -0.02700000 -0.02755321
    endloop
  endfacet
  facet normal 0.00000000 1.00000000 0.00000000
    outer loop
      vertex 0.00000000 -0.02700000 0.00000000
      vertex -0.02793927 -0.02700000 -0.01493385
      vertex -0.02926850 -0.02700000 -0.01212341
    endloop
  endfacet
  facet normal 0.00000000 1.00000000 0.00000000
    outer loop
      vertex -0.02926850 -0.02700000 -0.01212341
      vertex -0.06349833 -0.02700000 -0.03394057
      vertex -0.06651933 -0.02700000 -0.02755321
    endloop
  endfacet
  facet normal 0.00000000 1.00000000 0.00000000
    outer loop
      vertex -0.02926850 -0.02700000 -0.01212341
      vertex -0.02793927 -0.02700000 -0.01493385
      vertex -0.06349833 -0.02700000 -0.03394057
    endloop
  endfacet
  facet normal 0.00000000 1.00000000 0.00000000
    outer loop
      vertex 0.00000000 -0.02700000 0.00000000
      vertex -0.02634096 -0.02700000 -0.01760046
      vertex -0.02793927 -0.02700000 -0.01493385
    endloop
  endfacet
  facet normal 0.00000000 1.00000000 0.00000000
    outer loop
      vertex -0.02793927 -0.02700000 -0.01493385
      vertex -0.05986581 -0.02700000 -0.04000106
      vertex -0.06349833 -0.02700000 -0.03394057
    endloop
  endfacet
  facet normal 0.00000000 1.00000000 0.00000000
    outer loop
      vertex -0.02793927 -0.02700000 -0.01493385
      vertex -0.02634096 -0.02700000 -0.01760046
      vertex -0.05986581 -0.02700000 -0.04000106
    endloop
  endfacet
  facet normal 0.00000000 1.00000000 0.00000000
    outer loop
      vertex 0.00000000 -0.02700000 0.00000000
      vertex -0.02448897 -0.02700000 -0.02009758
      vertex -0.02634096 -0.02700000 -0.01760046
    endloop
  endfacet
  facet normal 0.00000000 1.00000000 0.00000000
    outer loop
      vertex -0.02634096 -0.02700000 -0.01760046
      vertex -0.05565675 -0.02700000 -0.04567632
      vertex -0.05986581 -0.02700000 -0.04000106
    endloop
  endfacet
  facet normal 0.00000000 1.00000000 0.00000000
    outer loop
      vertex -0.02634096 -0.02700000 -0.01760046
      vertex -0.02448897 -0.02700000 -0.02009758
      vertex -0.05565675 -0.02700000 -0.04567632
    endloop
  endfacet
  facet normal 0.00000000 1.00000000 0.00000000
    outer loop
      vertex 0.00000000 -0.02700000 0.00000000
      vertex -0.02240114 -0.02700000 -0.02240114
      vertex -0.02448897 -0.02700000 -0.02009758
    endloop
  endfacet
  facet normal 0.00000000 1.00000000 0.00000000
    outer loop
      vertex -0.02448897 -0.02700000 -0.02009758
      vertex -0.05091169 -0.02700000 -0.05091169
      vertex -0.05565675 -0.02700000 -0.04567632
    endloop
  endfacet
  facet normal 0.00000000 1.00000000 0.00000000
    outer loop
      vertex -0.02448897 -0.02700000 -0.02009758
      vertex -0.02240114 -0.02700000 -0.02240114
      vertex -0.05091169 -0.02700000 -0.05091169
    endloop
  endfacet
  facet normal 0.00000000 1.00000000 0.00000000
    outer loop
      vertex 0.00000000 -0.02700000 0.00000000
      vertex -0.02009758 -0.02700000 -0.02448897
      vertex -0.02240114 -0.02700000 -0.02240114
    endloop
  endfacet
  facet normal 0.00000000 1.00000000 0.00000000
    outer loop
      vertex -0.02240114 -0.02700000 -0.02240114
      vertex -0.04567632 -0.02700000 -0.05565675
      vertex -0.05091169 -0.02700000 -0.05091169
    endloop
  endfacet
  facet normal 0.00000000 1.00000000 0.00000000
    outer loop
      vertex -0.02240114 -0.02700000 -0.02240114
      vertex -0.02009758 -0.02700000 -0.02448897
      vertex -0.04567632 -0.02700000 -0.05565675
    endloop
  endfacet
  facet normal 0.00000000 1.00000000 0.00000000
    outer loop
      vertex 0.00000000 -0.02700000 0.00000000
      vertex -0.01760046 -0.02700000 -0.02634096
      vertex -0.02009758 -0.02700000 -0.02448897
    endloop
  endfacet
  facet normal 0.00000000 1.00000000 0.00000000
    outer loop
      vertex -0.02009758 -0.02700000 -0.02448897
      vertex -0.04000106 -0.02700000 -0.05986581
      vertex -0.04567632 -0.02700000 -0.05565675
    endloop
  endfacet
  facet normal 0.00000000 1.00000000 0.00000000
    outer loop
      vertex -0.02009758 -0.02700000 -0.02448897
      vertex -0.01760046 -0.02700000 -0.02634096
      vertex -0.04000106 -0.02700000 -0.05986581
    endloop
  endfacet
  facet normal 0.00000000 1.00000000 0.00000000
    outer loop
      vertex 0.00000000 -0.02700000 0.00000000
      vertex -0.01493385 -0.02700000 -0.02793927
      vertex -0.01760046 -0.02700000 -0.02634096
    endloop
  endfacet
  facet normal 0.00000000 1.00000000 0.00000000
    outer loop
      vertex -0.01760046 -0.02700000 -0.02634096
      vertex -0.03394057 -0.02700000 -0.06349833
      vertex -0.04000106 -0.02700000 -0.05986581
    endloop
  endfacet
  facet normal 0.00000000 1.00000000 0.00000000
    outer loop
      vertex -0.01760046 -0.02700000 -0.02634096
      vertex -0.01493385 -0.02700000 -0.02793927
      vertex -0.03394057 -0.02700000 -0.06349833
    endloop
  endfacet
  facet normal 0.00000000 1.00000000 0.00000000
    outer loop
      vertex 0.00000000 -0.02700000 0.00000000
      vertex -0.01212341 -0.02700000 -0.02926850
      vertex -0.01493385 -0.02700000 -0.02793927
    endloop
  endfacet
  facet normal 0.00000000 1.00000000 0.00000000
    outer loop
      vertex -0.01493385 -0.02700000 -0.02793927
      vertex -0.02755321 -0.02700000 -0.06651933
      vertex -0.03394057 -0.02700000 -0.06349833
    endloop
  endfacet
  facet normal 0.00000000 1.00000000 0.00000000
    outer loop
      vertex -0.01493385 -0.02700000 -0.02793927
      vertex -0.01212341 -0.02700000 -0.02926850
      vertex -0.02755321 -0.02700000 -0.06651933
    endloop
  endfacet
  facet normal 0.00000000 1.00000000 0.00000000
    outer loop
      vertex 0.00000000 -0.02700000 0.00000000
      vertex -0.00919622 -0.02700000 -0.03031587
      vertex -0.01212341 -0.02700000 -0.02926850
    endloop
  endfacet
  facet normal 0.00000000 1.00000000 0.00000000
    outer loop
      vertex -0.01212341 -0.02700000 -0.02926850
      vertex -0.02090050 -0.02700000 -0.06889970
      vertex -0.02755321 -0.02700000 -0.06651933
    endloop
  endfacet
  facet normal 0.00000000 1.00000000 0.00000000
    outer loop
      vertex -0.01212341 -0.02700000 -0.02926850
      vertex -0.00919622 -0.02700000 -0.03031587
      vertex -0.02090050 -0.02700000 -0.06889970
    endloop
  endfacet
  facet normal 0.00000000 1.00000000 0.00000000
    outer loop
      vertex 0.00000000 -0.02700000 0.00000000
      vertex -0.00618046 -0.02700000 -0.03107128
      vertex -0.00919622 -0.02700000 -0.03031587
    endloop
  endfacet
  facet normal 0.00000000 1.00000000 0.00000000
    outer loop
      vertex -0.00919622 -0.02700000 -0.03031587
      vertex -0.01404650 -0.02700000 -0.07061654
      vertex -0.02090050 -0.02700000 -0.06889970
    endloop
  endfacet
  facet normal 0.00000000 1.00000000 0.00000000
    outer loop
      vertex -0.00919622 -0.02700000 -0.03031587
      vertex -0.00618046 -0.02700000 -0.03107128
      vertex -0.01404650 -0.02700000 -0.07061654
    endloop
  endfacet
  facet normal 0.00000000 1.00000000 0.00000000
    outer loop
      vertex 0.00000000 -0.02700000 0.00000000
      vertex -0.00310518 -0.02700000 -0.03152745
      vertex -0.00618046 -0.02700000 -0.03107128
    endloop
  endfacet
  facet normal 0.00000000 1.00000000 0.00000000
    outer loop
      vertex -0.00618046 -0.02700000 -0.03107128
      vertex -0.00705723 -0.02700000 -0.07165330
      vertex -0.01404650 -0.02700000 -0.07061654
    endloop
  endfacet
  facet normal 0.00000000 1.00000000 0.00000000
    outer loop
      vertex -0.00618046 -0.02700000 -0.03107128
      vertex -0.00310518 -0.02700000 -0.03152745
      vertex -0.00705723 -0.02700000 -0.07165330
    endloop
  endfacet
  facet normal 0.00000000 1.00000000 0.00000000
    outer loop
      vertex 0.00000000 -0.02700000 0.00000000
      vertex -0.00000000 -0.02700000 -0.03168000
      vertex -0.00310518 -0.02700000 -0.03152745
    endloop
  endfacet
  facet normal 0.00000000 1.00000000 0.00000000
    outer loop
      vertex -0.00310518 -0.02700000 -0.03152745
      vertex -0.00000000 -0.02700000 -0.07200000
      vertex -0.00705723 -0.02700000 -0.07165330
    endloop
  endfacet
  facet normal 0.00000000 1.00000000 0.00000000
    outer loop
      vertex -0.00310518 -0.02700000 -0.03152745
      vertex -0.00000000 -0.02700000 -0.03168000
      vertex -0.00000000 -0.02700000 -0.07200000
    endloop
  endfacet
  facet normal 0.00000000 1.00000000 0.00000000
    outer loop
      vertex 0.00000000 -0.02700000 0.00000000
      vertex 0.00310518 -0.02700000 -0.03152745
      vertex -0.00000000 -0.02700000 -0.03168000
    endloop
  endfacet
  facet normal 0.00000000 1.00000000 0.00000000
    outer loop
      vertex -0.00000000 -0.02700000 -0.03168000
      vertex 0.00705723 -0.02700000 -0.07165330
      vertex -0.00000000 -0.02700000 -0.07200000
    endloop
  endfacet
  facet normal -0.00000000 1.00000000 0.00000000
    outer loop
      vertex -0.00000000 -0.02700000 -0.03168000
      vertex 0.00310518 -0.02700000 -0.03152745
      vertex 0.00705723 -0.02700000 -0.07165330
    endloop
  endfacet
  facet normal 0.00000000 1.00000000 0.00000000
    outer loop
      vertex 0.00000000 -0.02700000 0.00000000
      vertex 0.00618046 -0.02700000 -0.03107128
      vertex 0.00310518 -0.02700000 -0.03152745
    endloop
  endfacet
  facet normal 0.00000000 1.00000000 0.00000000
    outer loop
      vertex 0.00310518 -0.02700000 -0.03152745
      vertex 0.01404650 -0.02700000 -0.07061654
      vertex 0.00705723 -0.02700000 -0.07165330
    endloop
  endfacet
  facet normal -0.00000000 1.00000000 0.00000000
    outer loop
      vertex 0.00310518 -0.02700000 -0.03152745
      vertex 0.00618046 -0.02700000 -0.03107128
      vertex 0.01404650 -0.02700000 -0.07061654
    endloop
  endfacet
  facet normal 0.00000000 1.00000000 0.00000000
    outer loop
      vertex 0.00000000 -0.02700000 0.00000000
      vertex 0.00919622 -0.02700000 -0.03031587
      vertex 0.00618046 -0.02700000 -0.03107128
    endloop
  endfacet
  facet normal 0.00000000 1.00000000 0.00000000
    outer loop
      vertex 0.00618046 -0.02700000 -0.03107128
      vertex 0.02090050 -0.02700000 -0.06889970
      vertex 0.01404650 -0.02700000 -0.07061654
    endloop
  endfacet
  facet normal -0.00000000 1.00000000 0.00000000
    outer loop
      vertex 0.00618046 -0.02700000 -0.03107128
      vertex 0.00919622 -0.02700000 -0.03031587
      vertex 0.02090050 -0.02700000 -0.06889970
    endloop
  endfacet
  facet normal 0.00000000 1.00000000 0.00000000
    outer loop
      vertex 0.00000000 -0.02700000 0.00000000
      vertex 0.01212341 -0.02700000 -0.02926850
      vertex 0.00919622 -0.02700000 -0.03031587
    endloop
  endfacet
  facet normal 0.00000000 1.00000000 0.00000000
    outer loop
      vertex 0.00919622 -0.02700000 -0.03031587
      vertex 0.02755321 -0.02700000 -0.06651933
      vertex 0.02090050 -0.02700000 -0.06889970
    endloop
  endfacet
  facet normal -0.00000000 1.00000000 0.00000000
    outer loop
      vertex 0.00919622 -0.02700000 -0.03031587
      vertex 0.01212341 -0.02700000 -0.02926850
      vertex 0.02755321 -0.02700000 -0.06651933
    endloop
  endfacet
  facet normal 0.00000000 1.00000000 0.00000000
    outer loop
      vertex 0.00000000 -0.02700000 0.00000000
      vertex 0.01493385 -0.02700000 -0.02793927
      vertex 0.01212341 -0.02700000 -0.02926850
    endloop
  endfacet
  facet normal 0.00000000 1.00000000 0.00000000
    outer loop
      vertex 0.01212341 -0.02700000 -0.02926850
      vertex 0.03394057 -0.02700000 -0.06349833
      vertex 0.02755321 -0.02700000 -0.06651933
    endloop
  endfacet
  facet normal -0.00000000 1.00000000 0.00000000
    outer loop
      vertex 0.01212341 -0.02700000 -0.02926850
      vertex 0.01493385 -0.02700000 -0.02793927
      vertex 0.03394057 -0.02700000 -0.06349833
    endloop
  endfacet
  facet normal 0.00000000 1.00000000 0.00000000
    outer loop
      vertex 0.00000000 -0.02700000 0.00000000
      vertex 0.01760046 -0.02700000 -0.02634096
      vertex 0.01493385 -0.02700000 -0.02793927
    endloop
  endfacet
  facet normal 0.00000000 1.00000000 0.00000000
    outer loop
      vertex 0.01493385 -0.02700000 -0.02793927
      vertex 0.04000106 -0.02700000 -0.05986581
      vertex 0.03394057 -0.02700000 -0.06349833
    endloop
  endfacet
  facet normal -0.00000000 1.00000000 0.00000000
    outer loop
      vertex 0.01493385 -0.02700000 -0.02793927
      vertex 0.01760046 -0.02700000 -0.02634096
      vertex 0.04000106 -0.02700000 -0.05986581
    endloop
  endfacet
  facet normal 0.00000000 1.00000000 0.00000000
    outer loop
      vertex 0.00000000 -0.02700000 0.00000000
      vertex 0.02009758 -0.02700000 -0.02448897
      vertex 0.01760046 -0.02700000 -0.02634096
    endloop
  endfacet
  facet normal 0.00000000 1.00000000 0.00000000
    outer loop
      vertex 0.01760046 -0.02700000 -0.02634096
      vertex 0.04567632 -0.02700000 -0.05565675
      vertex 0.04000106 -0.02700000 -0.05986581
    endloop
  endfacet
  facet normal -0.00000000 1.00000000 0.00000000
    outer loop
      vertex 0.01760046 -0.02700000 -0.02634096
      vertex 0.02009758 -0.02700000 -0.02448897
      vertex 0.04567632 -0.02700000 -0.05565675
    endloop
  endfacet
  facet normal 0.00000000 1.00000000 0.00000000
    outer loop
      vertex 0.00000000 -0.02700000 0.00000000
      vertex 0.02240114 -0.02700000 -0.02240114
      vertex 0.02009758 -0.02700000 -0.02448897
    endloop
  endfacet
  facet normal 0.00000000 1.00000000 0.00000000
    outer loop
      vertex 0.02009758 -0.02700000 -0.02448897
      vertex 0.05091169 -0.02700000 -0.05091169
      vertex 0.04567632 -0.02700000 -0.05565675
    endloop
  endfacet
  facet normal -0.00000000 1.00000000 0.00000000
    outer loop
      vertex 0.02009758 -0.02700000 -0.02448897
      vertex 0.02240114 -0.02700000 -0.02240114
      vertex 0.05091169 -0.02700000 -0.05091169
    endloop
  endfacet
  facet normal 0.00000000 1.00000000 0.00000000
    outer loop
      vertex 0.00000000 -0.02700000 0.00000000
      vertex 0.02448897 -0.02700000 -0.02009758
      vertex 0.02240114 -0.02700000 -0.02240114
    endloop
  endfacet
  facet normal 0.00000000 1.00000000 0.00000000
    outer loop
      vertex 0.02240114 -0.02700000 -0.02240114
      vertex 0.05565675 -0.02700000 -0.04567632
      vertex 0.05091169 -0.02700000 -0.05091169
    endloop
  endfacet
  facet normal -0.00000000 1.00000000 0.00000000
    outer loop
      vertex 0.02240114 -0.02700000 -0.02240114
      vertex 0.02448897 -0.02700000 -0.02009758
      vertex 0.05565675 -0.02700000 -0.04567632
    endloop
  endfacet
  facet normal 0.00000000 1.00000000 0.00000000
    outer loop
      vertex 0.00000000 -0.02700000 0.00000000
      vertex 0.02634096 -0.02700000 -0.01760046
      vertex 0.02448897 -0.02700000 -0.02009758
    endloop
  endfacet
  facet normal 0.00000000 1.00000000 0.00000000
    outer loop
      vertex 0.02448897 -0.02700000 -0.02009758
      vertex 0.05986581 -0.02700000 -0.04000106
      vertex 0.05565675 -0.02700000 -0.04567632
    endloop
  endfacet
  facet normal -0.00000000 1.00000000 0.00000000
    outer loop
      vertex 0.02448897 -0.02700000 -0.02009758
      vertex 0.02634096 -0.02700000 -0.01760046
      vertex 0.05986581 -0.02700000 -0.04000106
    endloop
  endfacet
  facet normal 0.00000000 1.00000000 0.00000000
    outer loop
      vertex 0.00000000 -0.02700000 0.00000000
      vertex 0.02793927 -0.02700000 -0.01493385
      vertex 0.02634096 -0.02700000 -0.01760046
    endloop
  endfacet
  facet normal 0.00000000 1.00000000 0.00000000
    outer loop
      vertex 0.02634096 -0.02700000 -0.01760046
      vertex 0.06349833 -0.02700000 -0.03394057
      vertex 0.05986581 -0.02700000 -0.04000106
    endloop
  endfacet
  facet normal -0.00000000 1.00000000 0.00000000
    outer loop
      vertex 0.02634096 -0.02700000 -0.01760046
      vertex 0.02793927 -0.02700000 -0.01493385
      vertex 0.06349833 -0.02700000 -0.03394057
    endloop
  endfacet
  facet normal 0.00000000 1.00000000 0.00000000
    outer loop
      vertex 0.00000000 -0.02700000 0.00000000
      vertex 0.02926850 -0.02700000 -0.01212341
      vertex 0.02793927 -0.02700000 -0.01493385
    endloop
  endfacet
  facet normal 0.00000000 1.00000000 0.00000000
    outer loop
      vertex 0.02793927 -0.02700000 -0.01493385
      vertex 0.06651933 -0.02700000 -0.02755321
      vertex 0.06349833 -0.02700000 -0.03394057
    endloop
  endfacet
  facet normal -0.00000000 1.00000000 0.00000000
    outer loop
      vertex 0.02793927 -0.02700000 -0.01493385
      vertex 0.02926850 -0.02700000 -0.01212341
      vertex 0.06651933 -0.02700000 -0.02755321
    endloop
  endfacet
  facet normal 0.00000000 1.00000000 0.00000000
    outer loop
      vertex 0.00000000 -0.02700000 0.00000000
      vertex 0.03031587 -0.02700000 -0.00919622
      vertex 0.02926850 -0.02700000 -0.01212341
    endloop
  endfacet
  facet normal 0.00000000 1.00000000 0.00000000
    outer loop
      vertex 0.02926850 -0.02700000 -0.01212341
      vertex 0.06889970 -0.02700000 -0.02090050
      vertex 0.06651933 -0.02700000 -0.02755321
    endloop
  endfacet
  facet normal -0.00000000 1.00000000 0.00000000
    outer loop
      vertex 0.02926850 -0.02700000 -0.01212341
      vertex 0.03031587 -0.02700000 -0.00919622
      vertex 0.06889970 -0.02700000 -0.02090050
    endloop
  endfacet
  facet normal 0.00000000 1.00000000 0.00000000
    outer loop
      vertex 0.00000000 -0.02700000 0.00000000
      vertex 0.03107128 -0.02700000 -0.00618046
      vertex 0.03031587 -0.02700000 -0.00919622
    endloop
  endfacet
  facet normal 0.00000000 1.00000000 0.00000000
    outer loop
      vertex 0.03031587 -0.02700000 -0.00919622
      vertex 0.07061654 -0.02700000 -0.01404650
      vertex 0.06889970 -0.02700000 -0.02090050
    endloop
  endfacet
  facet normal -0.00000000 1.00000000 0.00000000
    outer loop
      vertex 0.03031587 -0.02700000 -0.00919622
      vertex 0.03107128 -0.02700000 -0.00618046
      vertex 0.07061654 -0.02700000 -0.01404650
    endloop
  endfacet
  facet normal 0.00000000 1.00000000 0.00000000
    outer loop
      vertex 0.00000000 -0.02700000 0.00000000
      vertex 0.03152745 -0.02700000 -0.00310518
      vertex 0.03107128 -0.02700000 -0.00618046
    endloop
  endfacet
  facet normal 0.00000000 1.00000000 0.00000000
    outer loop
      vertex 0.03107128 -0.02700000 -0.00618046
      vertex 0.07165330 -0.02700000 -0.00705723
      vertex 0.07061654 -0.02700000 -0.01404650
    endloop
  endfacet
  facet normal -0.00000000 1.00000000 0.00000000
    outer loop
      vertex 0.03107128 -0.02700000 -0.00618046
      vertex 0.03152745 -0.02700000 -0.00310518
      vertex 0.07165330 -0.02700000 -0.00705723
    endloop
  endfacet
  facet normal 0.00000000 1.00000000 0.00000000
    outer loop
      vertex 0.00000000 -0.02700000 0.00000000
      vertex 0.03168000 -0.02700000 -0.00000000
      vertex 0.03152745 -0.02700000 -0.00310518
    endloop
  endfacet
  facet normal -0.00000000 1.00000000 0.00000000
    outer loop
      vertex 0.03152745 -0.02700000 -0.00310518
      vertex 0.07200000 -0.02700000 -0.00000000
      vertex 0.07165330 -0.02700000 -0.00705723
    endloop
  endfacet
  facet normal 0.00000000 1.00000000 0.00000000
    outer loop
      vertex 0.03152745 -0.02700000 -0.00310518
      vertex 0.03168000 -0.02700000 -0.00000000
      vertex 0.07200000 -0.02700000 -0.00000000
    endloop
  endfacet
endsolid wheel_rim
