solid wheel_tire
  facet normal 0.00000000 -1.00000000 0.00000000
    outer loop
      vertex 0.00000000 0.02500000 0.00000000
      vertex 0.10000000 0.02500000 0.00000000
      vertex 0.09978589 0.02500000 0.00654031
    endloop
  endfacet
  facet normal 0.00000000 1.00000000 0.00000000
    outer loop
      vertex 0.00000000 -0.02500000 0.00000000
      vertex 0.09978589 -0.02500000 0.00654031
      vertex 0.10000000 -0.02500000 0.00000000
    endloop
  endfacet
  facet normal -0.99946459 -0.00000000 -0.03271908
    outer loop
      vertex 0.10000000 0.02500000 0.00000000
      vertex 0.10000000 -0.02500000 0.00000000
      vertex 0.09978589 -0.02500000 0.00654031
    endloop
  endfacet
  facet normal -0.99946459 0.00000000 -0.03271908
    outer loop
      vertex 0.10000000 0.02500000 0.00000000
      vertex 0.09978589 -0.02500000 0.00654031
      vertex 0.09978589 0.02500000 0.00654031
    endloop
  endfacet
  facet normal 0.00000000 -1.00000000 0.00000000
    outer loop
      vertex 0.00000000 0.02500000 0.00000000
      vertex 0.09978589 0.02500000 0.00654031
      vertex 0.09914449 0.02500000 0.01305262
    endloop
  endfacet
  facet normal 0.00000000 1.00000000 0.00000000
    outer loop
      vertex 0.00000000 -0.02500000 0.00000000
      vertex 0.09914449 -0.02500000 0.01305262
      vertex 0.09978589 -0.02500000 0.00654031
    endloop
  endfacet
  facet normal -0.99518473 -0.00000000 -0.09801714
    outer loop
      vertex 0.09978589 0.02500000 0.00654031
      vertex 0.09978589 -0.02500000 0.00654031
      vertex 0.09914449 -0.02500000 0.01305262
    endloop
  endfacet
  facet normal -0.99518473 0.00000000 -0.09801714
    outer loop
      vertex 0.09978589 0.02500000 0.00654031
      vertex 0.09914449 -0.02500000 0.01305262
      vertex 0.09914449 0.02500000 0.01305262
    endloop
  endfacet
  facet normal 0.00000000 -1.00000000 0.00000000
    outer loop
      vertex 0.00000000 0.02500000 0.00000000
      vertex 0.09914449 0.02500000 0.01305262
      vertex 0.09807853 0.02500000 0.01950903
    endloop
  endfacet
  facet normal 0.00000000 1.00000000 0.00000000
    outer loop
      vertex 0.00000000 -0.02500000 0.00000000
      vertex 0.09807853 -0.02500000 0.01950903
      vertex 0.09914449 -0.02500000 0.01305262
    endloop
  endfacet
  facet normal -0.98664333 -0.00000000 -0.16289547
    outer loop
      vertex 0.09914449 0.02500000 0.01305262
      vertex 0.09914449 -0.02500000 0.01305262
      vertex 0.09807853 -0.02500000 0.01950903
    endloop
  endfacet
  facet normal -0.98664333 0.00000000 -0.16289547
    outer loop
      vertex 0.09914449 0.02500000 0.01305262
      vertex 0.09807853 -0.02500000 0.01950903
      vertex 0.09807853 0.02500000 0.01950903
    endloop
  endfacet
  facet normal 0.00000000 -1.00000000 0.00000000
    outer loop
      vertex 0.00000000 0.02500000 0.00000000
      vertex 0.09807853 0.02500000 0.01950903
      vertex 0.09659258 0.02500000 0.02588190
    endloop
  endfacet
  facet normal 0.00000000 1.00000000 0.00000000
    outer loop
      vertex 0.00000000 -0.02500000 0.00000000
      vertex 0.09659258 -0.02500000 0.02588190
      vertex 0.09807853 -0.02500000 0.01950903
    endloop
  endfacet
  facet normal -0.97387698 -0.00000000 -0.22707626
    outer loop
      vertex 0.09807853 0.02500000 0.01950903
      vertex 0.09807853 -0.02500000 0.01950903
      vertex 0.09659258 -0.02500000 0.02588190
    endloop
  endfacet
  facet normal -0.97387698 0.00000000 -0.22707626
    outer loop
      vertex 0.09807853 0.02500000 0.01950903
      vertex 0.09659258 -0.02500000 0.02588190
      vertex 0.09659258 0.02500000 0.02588190
    endloop
  endfacet
  facet normal 0.00000000 -1.00000000 0.00000000
    outer loop
      vertex 0.00000000 0.02500000 0.00000000
      vertex 0.09659258 0.02500000 0.02588190
      vertex 0.09469301 0.02500000 0.03214395
    endloop
  endfacet
  facet normal 0.00000000 1.00000000 0.00000000
    outer loop
      vertex 0.00000000 -0.02500000 0.00000000
      vertex 0.09469301 -0.02500000 0.03214395
      vertex 0.09659258 -0.02500000 0.02588190
    endloop
  endfacet
  facet normal -0.95694034 -0.00000000 -0.29028468
    outer loop
      vertex 0.09659258 0.02500000 0.02588190
      vertex 0.09659258 -0.02500000 0.02588190
      vertex 0.09469301 -0.02500000 0.03214395
    endloop
  endfacet
  facet normal -0.95694034 0.00000000 -0.29028468
    outer loop
      vertex 0.09659258 0.02500000 0.02588190
      vertex 0.09469301 -0.02500000 0.03214395
      vertex 0.09469301 0.02500000 0.03214395
    endloop
  endfacet
  facet normal 0.00000000 -1.00000000 0.00000000
    outer loop
      vertex 0.00000000 0.02500000 0.00000000
      vertex 0.09469301 0.02500000 0.03214395
      vertex 0.09238795 0.02500000 0.03826834
    endloop
  endfacet
  facet normal 0.00000000 1.00000000 0.00000000
    outer loop
      vertex 0.00000000 -0.02500000 0.00000000
      vertex 0.09238795 -0.02500000 0.03826834
      vertex 0.09469301 -0.02500000 0.03214395
    endloop
  endfacet
  facet normal -0.93590593 -0.00000000 -0.35225005
    outer loop
      vertex 0.09469301 0.02500000 0.03214395
      vertex 0.09469301 -0.02500000 0.03214395
      vertex 0.09238795 -0.02500000 0.03826834
    endloop
  endfacet
  facet normal -0.93590593 0.00000000 -0.35225005
    outer loop
      vertex 0.09469301 0.02500000 0.03214395
      vertex 0.09238795 -0.02500000 0.03826834
      vertex 0.09238795 0.02500000 0.03826834
    endloop
  endfacet
  facet normal 0.00000000 -1.00000000 0.00000000
    outer loop
      vertex 0.00000000 0.02500000 0.00000000
      vertex 0.09238795 0.02500000 0.03826834
      vertex 0.08968727 0.02500000 0.04422887
    endloop
  endfacet
  facet normal 0.00000000 1.00000000 0.00000000
    outer loop
      vertex 0.00000000 -0.02500000 0.00000000
      vertex 0.08968727 -0.02500000 0.04422887
      vertex 0.09238795 -0.02500000 0.03826834
    endloop
  endfacet
  facet normal -0.91086382 -0.00000000 -0.41270703
    outer loop
      vertex 0.09238795 0.02500000 0.03826834
      vertex 0.09238795 -0.02500000 0.03826834
      vertex 0.08968727 -0.02500000 0.04422887
    endloop
  endfacet
  facet normal -0.91086382 0.00000000 -0.41270703
    outer loop
      vertex 0.09238795 0.02500000 0.03826834
      vertex 0.08968727 -0.02500000 0.04422887
      vertex 0.08968727 0.02500000 0.04422887
    endloop
  endfacet
  facet normal 0.00000000 -1.00000000 0.00000000
    outer loop
      vertex 0.00000000 0.02500000 0.00000000
      vertex 0.08968727 0.02500000 0.04422887
      vertex 0.08660254 0.02500000 0.05000000
    endloop
  endfacet
  facet normal 0.00000000 1.00000000 0.00000000
    outer loop
      vertex 0.00000000 -0.02500000 0.00000000
      vertex 0.08660254 -0.02500000 0.05000000
      vertex 0.08968727 -0.02500000 0.04422887
    endloop
  endfacet
  facet normal -0.88192126 -0.00000000 -0.47139674
    outer loop
      vertex 0.08968727 0.02500000 0.04422887
      vertex 0.08968727 -0.02500000 0.04422887
      vertex 0.08660254 -0.02500000 0.05000000
    endloop
  endfacet
  facet normal -0.88192126 0.00000000 -0.47139674
    outer loop
      vertex 0.08968727 0.02500000 0.04422887
      vertex 0.08660254 -0.02500000 0.05000000
      vertex 0.08660254 0.02500000 0.05000000
    endloop
  endfacet
  facet normal 0.00000000 -1.00000000 0.00000000
    outer loop
      vertex 0.00000000 0.02500000 0.00000000
      vertex 0.08660254 0.02500000 0.05000000
      vertex 0.08314696 0.02500000 0.05555702
    endloop
  endfacet
  facet normal 0.00000000 1.00000000 0.00000000
    outer loop
      vertex 0.00000000 -0.02500000 0.00000000
      vertex 0.08314696 -0.02500000 0.05555702
      vertex 0.08660254 -0.02500000 0.05000000
    endloop
  endfacet
  facet normal -0.84920218 -0.00000000 -0.52806785
    outer loop
      vertex 0.08660254 0.02500000 0.05000000
      vertex 0.08660254 -0.02500000 0.05000000
      vertex 0.08314696 -0.02500000 0.05555702
    endloop
  endfacet
  facet normal -0.84920218 0.00000000 -0.52806785
    outer loop
      vertex 0.08660254 0.02500000 0.05000000
      vertex 0.08314696 -0.02500000 0.05555702
      vertex 0.08314696 0.02500000 0.05555702
    endloop
  endfacet
  facet normal 0.00000000 -1.00000000 0.00000000
    outer loop
      vertex 0.00000000 0.02500000 0.00000000
      vertex 0.08314696 0.02500000 0.05555702
      vertex 0.07933533 0.02500000 0.06087614
    endloop
  endfacet
  facet normal 0.00000000 1.00000000 0.00000000
    outer loop
      vertex 0.00000000 -0.02500000 0.00000000
      vertex 0.07933533 -0.02500000 0.06087614
      vertex 0.08314696 -0.02500000 0.05555702
    endloop
  endfacet
  facet normal -0.81284668 -0.00000000 -0.58247770
    outer loop
      vertex 0.08314696 0.02500000 0.05555702
      vertex 0.08314696 -0.02500000 0.05555702
      vertex 0.07933533 -0.02500000 0.06087614
    endloop
  endfacet
  facet normal -0.81284668 0.00000000 -0.58247770
    outer loop
      vertex 0.08314696 0.02500000 0.05555702
      vertex 0.07933533 -0.02500000 0.06087614
      vertex 0.07933533 0.02500000 0.06087614
    endloop
  endfacet
  facet normal 0.00000000 -1.00000000 0.00000000
    outer loop
      vertex 0.00000000 0.02500000 0.00000000
      vertex 0.07933533 0.02500000 0.06087614
      vertex 0.07518398 0.02500000 0.06593458
    endloop
  endfacet
  facet normal 0.00000000 1.00000000 0.00000000
    outer loop
      vertex 0.00000000 -0.02500000 0.00000000
      vertex 0.07518398 -0.02500000 0.06593458
      vertex 0.07933533 -0.02500000 0.06087614
    endloop
  endfacet
  facet normal -0.77301045 -0.00000000 -0.63439328
    outer loop
      vertex 0.07933533 0.02500000 0.06087614
      vertex 0.07933533 -0.02500000 0.06087614
      vertex 0.07518398 -0.02500000 0.06593458
    endloop
  endfacet
  facet normal -0.77301045 0.00000000 -0.63439328
    outer loop
      vertex 0.07933533 0.02500000 0.06087614
      vertex 0.07518398 -0.02500000 0.06593458
      vertex 0.07518398 0.02500000 0.06593458
    endloop
  endfacet
  facet normal 0.00000000 -1.00000000 0.00000000
    outer loop
      vertex 0.00000000 0.02500000 0.00000000
      vertex 0.07518398 0.02500000 0.06593458
      vertex 0.07071068 0.02500000 0.07071068
    endloop
  endfacet
  facet normal 0.00000000 1.00000000 0.00000000
    outer loop
      vertex 0.00000000 -0.02500000 0.00000000
      vertex 0.07071068 -0.02500000 0.07071068
      vertex 0.07518398 -0.02500000 0.06593458
    endloop
  endfacet
  facet normal -0.72986407 -0.00000000 -0.68359230
    outer loop
      vertex 0.07518398 0.02500000 0.06593458
      vertex 0.07518398 -0.02500000 0.06593458
      vertex 0.07071068 -0.02500000 0.07071068
    endloop
  endfacet
  facet normal -0.72986407 0.00000000 -0.68359230
    outer loop
      vertex 0.07518398 0.02500000 0.06593458
      vertex 0.07071068 -0.02500000 0.07071068
      vertex 0.07071068 0.02500000 0.07071068
    endloop
  endfacet
  facet normal 0.00000000 -1.00000000 0.00000000
    outer loop
      vertex 0.00000000 0.02500000 0.00000000
      vertex 0.07071068 0.02500000 0.07071068
      vertex 0.06593458 0.02500000 0.07518398
    endloop
  endfacet
  facet normal 0.00000000 1.00000000 0.00000000
    outer loop
      vertex 0.00000000 -0.02500000 0.00000000
      vertex 0.06593458 -0.02500000 0.07518398
      vertex 0.07071068 -0.02500000 0.07071068
    endloop
  endfacet
  facet normal -0.68359230 -0.00000000 -0.72986407
    outer loop
      vertex 0.07071068 0.02500000 0.07071068
      vertex 0.07071068 -0.02500000 0.07071068
      vertex 0.06593458 -0.02500000 0.07518398
    endloop
  endfacet
  facet normal -0.68359230 0.00000000 -0.72986407
    outer loop
      vertex 0.07071068 0.02500000 0.07071068
      vertex 0.06593458 -0.02500000 0.07518398
      vertex 0.06593458 0.02500000 0.07518398
    endloop
  endfacet
  facet normal 0.00000000 -1.00000000 0.00000000
    outer loop
      vertex 0.00000000 0.02500000 0.00000000
      vertex 0.06593458 0.02500000 0.07518398
      vertex 0.06087614 0.02500000 0.07933533
    endloop
  endfacet
  facet normal 0.00000000 1.00000000 0.00000000
    outer loop
      vertex 0.00000000 -0.02500000 0.00000000
      vertex 0.06087614 -0.02500000 0.07933533
      vertex 0.06593458 -0.02500000 0.07518398
    endloop
  endfacet
  facet normal -0.63439328 -0.00000000 -0.77301045
    outer loop
      vertex 0.06593458 0.02500000 0.07518398
      vertex 0.06593458 -0.02500000 0.07518398
      vertex 0.06087614 -0.02500000 0.07933533
    endloop
  endfacet
  facet normal -0.63439328 0.00000000 -0.77301045
    outer loop
      vertex 0.06593458 0.02500000 0.07518398
      vertex 0.06087614 -0.02500000 0.07933533
      vertex 0.06087614 0.02500000 0.07933533
    endloop
  endfacet
  facet normal 0.00000000 -1.00000000 0.00000000
    outer loop
      vertex 0.00000000 0.02500000 0.00000000
      vertex 0.06087614 0.02500000 0.07933533
      vertex 0.05555702 0.02500000 0.08314696
    endloop
  endfacet
  facet normal 0.00000000 1.00000000 0.00000000
    outer loop
      vertex 0.00000000 -0.02500000 0.00000000
      vertex 0.05555702 -0.02500000 0.08314696
      vertex 0.06087614 -0.02500000 0.07933533
    endloop
  endfacet
  facet normal -0.58247770 -0.00000000 -0.81284668
    outer loop
      vertex 0.06087614 0.02500000 0.07933533
      vertex 0.06087614 -0.02500000 0.07933533
      vertex 0.05555702 -0.02500000 0.08314696
    endloop
  endfacet
  facet normal -0.58247770 0.00000000 -0.81284668
    outer loop
      vertex 0.06087614 0.02500000 0.07933533
      vertex 0.05555702 -0.02500000 0.08314696
      vertex 0.05555702 0.02500000 0.08314696
    endloop
  endfacet
  facet normal 0.00000000 -1.00000000 0.00000000
    outer loop
      vertex 0.00000000 0.02500000 0.00000000
      vertex 0.05555702 0.02500000 0.08314696
      vertex 0.05000000 0.02500000 0.08660254
    endloop
  endfacet
  facet normal 0.00000000 1.00000000 0.00000000
    outer loop
      vertex 0.00000000 -0.02500000 0.00000000
      vertex 0.05000000 -0.02500000 0.08660254
      vertex 0.05555702 -0.02500000 0.08314696
    endloop
  endfacet
  facet normal -0.52806785 -0.00000000 -0.84920218
    outer loop
      vertex 0.05555702 0.02500000 0.08314696
      vertex 0.05555702 -0.02500000 0.08314696
      vertex 0.05000000 -0.02500000 0.08660254
    endloop
  endfacet
  facet normal -0.52806785 0.00000000 -0.84920218
    outer loop
      vertex 0.05555702 0.02500000 0.08314696
      vertex 0.05000000 -0.02500000 0.08660254
      vertex 0.05000000 0.02500000 0.08660254
    endloop
  endfacet
  facet normal 0.00000000 -1.00000000 0.00000000
    outer loop
      vertex 0.00000000 0.02500000 0.00000000
      vertex 0.05000000 0.02500000 0.08660254
      vertex 0.04422887 0.02500000 0.08968727
    endloop
  endfacet
  facet normal 0.00000000 1.00000000 0.00000000
    outer loop
      vertex 0.00000000 -0.02500000 0.00000000
      vertex 0.04422887 -0.02500000 0.08968727
      vertex 0.05000000 -0.02500000 0.08660254
    endloop
  endfacet
  facet normal -0.47139674 -0.00000000 -0.88192126
    outer loop
      vertex 0.05000000 0.02500000 0.08660254
      vertex 0.05000000 -0.02500000 0.08660254
      vertex 0.04422887 -0.02500000 0.08968727
    endloop
  endfacet
  facet normal -0.47139674 0.00000000 -0.88192126
    outer loop
      vertex 0.05000000 0.02500000 0.08660254
      vertex 0.04422887 -0.02500000 0.08968727
      vertex 0.04422887 0.02500000 0.08968727
    endloop
  endfacet
  facet normal 0.00000000 -1.00000000 0.00000000
    outer loop
      vertex 0.00000000 0.02500000 0.00000000
      vertex 0.04422887 0.02500000 0.08968727
      vertex 0.03826834 0.02500000 0.09238795
    endloop
  endfacet
  facet normal 0.00000000 1.00000000 0.00000000
    outer loop
      vertex 0.00000000 -0.02500000 0.00000000
      vertex 0.03826834 -0.02500000 0.09238795
      vertex 0.04422887 -0.02500000 0.08968727
    endloop
  endfacet
  facet normal -0.41270703 -0.00000000 -0.91086382
    outer loop
      vertex 0.04422887 0.02500000 0.08968727
      vertex 0.04422887 -0.02500000 0.08968727
      vertex 0.03826834 -0.02500000 0.09238795
    endloop
  endfacet
  facet normal -0.41270703 0.00000000 -0.91086382
    outer loop
      vertex 0.04422887 0.02500000 0.08968727
      vertex 0.03826834 -0.02500000 0.09238795
      vertex 0.03826834 0.02500000 0.09238795
    endloop
  endfacet
  facet normal 0.00000000 -1.00000000 0.00000000
    outer loop
      vertex 0.00000000 0.02500000 0.00000000
      vertex 0.03826834 0.02500000 0.09238795
      vertex 0.03214395 0.02500000 0.09469301
    endloop
  endfacet
  facet normal 0.00000000 1.00000000 0.00000000
    outer loop
      vertex 0.00000000 -0.02500000 0.00000000
      vertex 0.03214395 -0.02500000 0.09469301
      vertex 0.03826834 -0.02500000 0.09238795
    endloop
  endfacet
  facet normal -0.35225005 -0.00000000 -0.93590593
    outer loop
      vertex 0.03826834 0.02500000 0.09238795
      vertex 0.03826834 -0.02500000 0.09238795
      vertex 0.03214395 -0.02500000 0.09469301
    endloop
  endfacet
  facet normal -0.35225005 0.00000000 -0.93590593
    outer loop
      vertex 0.03826834 0.02500000 0.09238795
      vertex 0.03214395 -0.02500000 0.09469301
      vertex 0.03214395 0.02500000 0.09469301
    endloop
  endfacet
  facet normal 0.00000000 -1.00000000 0.00000000
    outer loop
      vertex 0.00000000 0.02500000 0.00000000
      vertex 0.03214395 0.02500000 0.09469301
      vertex 0.02588190 0.02500000 0.09659258
    endloop
  endfacet
  facet normal 0.00000000 1.00000000 0.00000000
    outer loop
      vertex 0.00000000 -0.02500000 0.00000000
      vertex 0.02588190 -0.02500000 0.09659258
      vertex 0.03214395 -0.02500000 0.09469301
    endloop
  endfacet
  facet normal -0.29028468 -0.00000000 -0.95694034
    outer loop
      vertex 0.03214395 0.02500000 0.09469301
      vertex 0.03214395 -0.02500000 0.09469301
      vertex 0.02588190 -0.02500000 0.09659258
    endloop
  endfacet
  facet normal -0.29028468 0.00000000 -0.95694034
    outer loop
      vertex 0.03214395 0.02500000 0.09469301
      vertex 0.02588190 -0.02500000 0.09659258
      vertex 0.02588190 0.02500000 0.09659258
    endloop
  endfacet
  facet normal 0.00000000 -1.00000000 0.00000000
    outer loop
      vertex 0.00000000 0.02500000 0.00000000
      vertex 0.02588190 0.02500000 0.09659258
      vertex 0.01950903 0.02500000 0.09807853
    endloop
  endfacet
  facet normal 0.00000000 1.00000000 0.00000000
    outer loop
      vertex 0.00000000 -0.02500000 0.00000000
      vertex 0.01950903 -0.02500000 0.09807853
      vertex 0.02588190 -0.02500000 0.09659258
    endloop
  endfacet
  facet normal -0.22707626 -0.00000000 -0.97387698
    outer loop
      vertex 0.02588190 0.02500000 0.09659258
      vertex 0.02588190 -0.02500000 0.09659258
      vertex 0.01950903 -0.02500000 0.09807853
    endloop
  endfacet
  facet normal -0.22707626 0.00000000 -0.97387698
    outer loop
      vertex 0.02588190 0.02500000 0.09659258
      vertex 0.01950903 -0.02500000 0.09807853
      vertex 0.01950903 0.02500000 0.09807853
    endloop
  endfacet
  facet normal 0.00000000 -1.00000000 0.00000000
    outer loop
      vertex 0.00000000 0.02500000 0.00000000
      vertex 0.01950903 0.02500000 0.09807853
      vertex 0.01305262 0.02500000 0.09914449
    endloop
  endfacet
  facet normal 0.00000000 1.00000000 0.00000000
    outer loop
      vertex 0.00000000 -0.02500000 0.00000000
      vertex 0.01305262 -0.02500000 0.09914449
      vertex 0.01950903 -0.02500000 0.09807853
    endloop
  endfacet
  facet normal -0.16289547 -0.00000000 -0.98664333
    outer loop
      vertex 0.01950903 0.02500000 0.09807853
      vertex 0.01950903 -0.02500000 0.09807853
      vertex 0.01305262 -0.02500000 0.09914449
    endloop
  endfacet
  facet normal -0.16289547 0.00000000 -0.98664333
    outer loop
      vertex 0.01950903 0.02500000 0.09807853
      vertex 0.01305262 -0.02500000 0.09914449
      vertex 0.01305262 0.02500000 0.09914449
    endloop
  endfacet
  facet normal 0.00000000 -1.00000000 0.00000000
    outer loop
      vertex 0.00000000 0.02500000 0.00000000
      vertex 0.01305262 0.02500000 0.09914449
      vertex 0.00654031 0.02500000 0.09978589
    endloop
  endfacet
  facet normal 0.00000000 1.00000000 0.00000000
    outer loop
      vertex 0.00000000 -0.02500000 0.00000000
      vertex 0.00654031 -0.02500000 0.09978589
      vertex 0.01305262 -0.02500000 0.09914449
    endloop
  endfacet
  facet normal -0.09801714 -0.00000000 -0.99518473
    outer loop
      vertex 0.01305262 0.02500000 0.09914449
      vertex 0.01305262 -0.02500000 0.09914449
      vertex 0.00654031 -0.02500000 0.09978589
    endloop
  endfacet
  facet normal -0.09801714 0.00000000 -0.99518473
    outer loop
      vertex 0.01305262 0.02500000 0.09914449
      vertex 0.00654031 -0.02500000 0.09978589
      vertex 0.00654031 0.02500000 0.09978589
    endloop
  endfacet
  facet normal 0.00000000 -1.00000000 0.00000000
    outer loop
      vertex 0.00000000 0.02500000 0.00000000
      vertex 0.00654031 0.02500000 0.09978589
      vertex 0.00000000 0.02500000 0.10000000
    endloop
  endfacet
  facet normal 0.00000000 1.00000000 0.00000000
    outer loop
      vertex 0.00000000 -0.02500000 0.00000000
      vertex 0.00000000 -0.02500000 0.10000000
      vertex 0.00654031 -0.02500000 0.09978589
    endloop
  endfacet
  facet normal -0.03271908 -0.00000000 -0.99946459
    outer loop
      vertex 0.00654031 0.02500000 0.09978589
      vertex 0.00654031 -0.02500000 0.09978589
      vertex 0.00000000 -0.02500000 0.10000000
    endloop
  endfacet
  facet normal -0.03271908 0.00000000 -0.99946459
    outer loop
      vertex 0.00654031 0.02500000 0.09978589
      vertex 0.00000000 -0.02500000 0.10000000
      vertex 0.00000000 0.02500000 0.10000000
    endloop
  endfacet
  facet normal 0.00000000 -1.00000000 0.00000000
    outer loop
      vertex 0.00000000 0.02500000 0.00000000
      vertex 0.00000000 0.02500000 0.10000000
      vertex -0.00654031 0.02500000 0.09978589
    endloop
  endfacet
  facet normal 0.00000000 1.00000000 -0.00000000
    outer loop
      vertex 0.00000000 -0.02500000 0.00000000
      vertex -0.00654031 -0.02500000 0.09978589
      vertex 0.00000000 -0.02500000 0.10000000
    endloop
  endfacet
  facet normal 0.03271908 0.00000000 -0.99946459
    outer loop
      vertex 0.00000000 0.02500000 0.10000000
      vertex 0.00000000 -0.02500000 0.10000000
      vertex -0.00654031 -0.02500000 0.09978589
    endloop
  endfacet
  facet normal 0.03271908 0.00000000 -0.99946459
    outer loop
      vertex 0.00000000 0.02500000 0.10000000
      vertex -0.00654031 -0.02500000 0.09978589
      vertex -0.00654031 0.02500000 0.09978589
    endloop
  endfacet
  facet normal 0.00000000 -1.00000000 0.00000000
    outer loop
      vertex 0.00000000 0.02500000 0.00000000
      vertex -0.00654031 0.02500000 0.09978589
      vertex -0.01305262 0.02500000 0.09914449
    endloop
  endfacet
  facet normal 0.00000000 1.00000000 0.00000000
    outer loop
      vertex 0.00000000 -0.02500000 0.00000000
      vertex -0.01305262 -0.02500000 0.09914449
      vertex -0.00654031 -0.02500000 0.09978589
    endloop
  endfacet
  facet normal 0.09801714 0.00000000 -0.99518473
    outer loop
      vertex -0.00654031 0.02500000 0.09978589
      vertex -0.00654031 -0.02500000 0.09978589
      vertex -0.01305262 -0.02500000 0.09914449
    endloop
  endfacet
  facet normal 0.09801714 0.00000000 -0.99518473
    outer loop
      vertex -0.00654031 0.02500000 0.09978589
      vertex -0.01305262 -0.02500000 0.09914449
      vertex -0.01305262 0.02500000 0.09914449
    endloop
  endfacet
  facet normal 0.00000000 -1.00000000 0.00000000
    outer loop
      vertex 0.00000000 0.02500000 0.00000000
      vertex -0.01305262 0.02500000 0.09914449
      vertex -0.01950903 0.02500000 0.09807853
    endloop
  endfacet
  facet normal 0.00000000 1.00000000 0.00000000
    outer loop
      vertex 0.00000000 -0.02500000 0.00000000
      vertex -0.01950903 -0.02500000 0.09807853
      vertex -0.01305262 -0.02500000 0.09914449
    endloop
  endfacet
  facet normal 0.16289547 0.00000000 -0.98664333
    outer loop
      vertex -0.01305262 0.02500000 0.09914449
      vertex -0.01305262 -0.02500000 0.09914449
      vertex -0.01950903 -0.02500000 0.09807853
    endloop
  endfacet
  facet normal 0.16289547 0.00000000 -0.98664333
    outer loop
      vertex -0.01305262 0.02500000 0.09914449
      vertex -0.01950903 -0.02500000 0.09807853
      vertex -0.01950903 0.02500000 0.09807853
    endloop
  endfacet
  facet normal 0.00000000 -1.00000000 0.00000000
    outer loop
      vertex 0.00000000 0.02500000 0.00000000
      vertex -0.01950903 0.02500000 0.09807853
      vertex -0.02588190 0.02500000 0.09659258
    endloop
  endfacet
  facet normal 0.00000000 1.00000000 0.00000000
    outer loop
      vertex 0.00000000 -0.02500000 0.00000000
      vertex -0.02588190 -0.02500000 0.09659258
      vertex -0.01950903 -0.02500000 0.09807853
    endloop
  endfacet
  facet normal 0.22707626 0.00000000 -0.97387698
    outer loop
      vertex -0.01950903 0.02500000 0.09807853
      vertex -0.01950903 -0.02500000 0.09807853
      vertex -0.02588190 -0.02500000 0.09659258
    endloop
  endfacet
  facet normal 0.22707626 0.00000000 -0.97387698
    outer loop
      vertex -0.01950903 0.02500000 0.09807853
      vertex -0.02588190 -0.02500000 0.09659258
      vertex -0.02588190 0.02500000 0.09659258
    endloop
  endfacet
  facet normal 0.00000000 -1.00000000 0.00000000
    outer loop
      vertex 0.00000000 0.02500000 0.00000000
      vertex -0.02588190 0.02500000 0.09659258
      vertex -0.03214395 0.02500000 0.09469301
    endloop
  endfacet
  facet normal 0.00000000 1.00000000 0.00000000
    outer loop
      vertex 0.00000000 -0.02500000 0.00000000
      vertex -0.03214395 -0.02500000 0.09469301
      vertex -0.02588190 -0.02500000 0.09659258
    endloop
  endfacet
  facet normal 0.29028468 0.00000000 -0.95694034
    outer loop
      vertex -0.02588190 0.02500000 0.09659258
      vertex -0.02588190 -0.02500000 0.09659258
      vertex -0.03214395 -0.02500000 0.09469301
    endloop
  endfacet
  facet normal 0.29028468 0.00000000 -0.95694034
    outer loop
      vertex -0.02588190 0.02500000 0.09659258
      vertex -0.03214395 -0.02500000 0.09469301
      vertex -0.03214395 0.02500000 0.09469301
    endloop
  endfacet
  facet normal 0.00000000 -1.00000000 0.00000000
    outer loop
      vertex 0.00000000 0.02500000 0.00000000
      vertex -0.03214395 0.02500000 0.09469301
      vertex -0.03826834 0.02500000 0.09238795
    endloop
  endfacet
  facet normal 0.00000000 1.00000000 0.00000000
    outer loop
      vertex 0.00000000 -0.02500000 0.00000000
      vertex -0.03826834 -0.02500000 0.09238795
      vertex -0.03214395 -0.02500000 0.09469301
    endloop
  endfacet
  facet normal 0.35225005 0.00000000 -0.93590593
    outer loop
      vertex -0.03214395 0.02500000 0.09469301
      vertex -0.03214395 -0.02500000 0.09469301
      vertex -0.03826834 -0.02500000 0.09238795
    endloop
  endfacet
  facet normal 0.35225005 0.00000000 -0.93590593
    outer loop
      vertex -0.03214395 0.02500000 0.09469301
      vertex -0.03826834 -0.02500000 0.09238795
      vertex -0.03826834 0.02500000 0.09238795
    endloop
  endfacet
  facet normal 0.00000000 -1.00000000 0.00000000
    outer loop
      vertex 0.00000000 0.02500000 0.00000000
      vertex -0.03826834 0.02500000 0.09238795
      vertex -0.04422887 0.02500000 0.08968727
    endloop
  endfacet
  facet normal 0.00000000 1.00000000 0.00000000
    outer loop
      vertex 0.00000000 -0.02500000 0.00000000
      vertex -0.04422887 -0.02500000 0.08968727
      vertex -0.03826834 -0.02500000 0.09238795
    endloop
  endfacet
  facet normal 0.41270703 0.00000000 -0.91086382
    outer loop
      vertex -0.03826834 0.02500000 0.09238795
      vertex -0.03826834 -0.02500000 0.09238795
      vertex -0.04422887 -0.02500000 0.08968727
    endloop
  endfacet
  facet normal 0.41270703 0.00000000 -0.91086382
    outer loop
      vertex -0.03826834 0.02500000 0.09238795
      vertex -0.04422887 -0.02500000 0.08968727
      vertex -0.04422887 0.02500000 0.08968727
    endloop
  endfacet
  facet normal 0.00000000 -1.00000000 0.00000000
    outer loop
      vertex 0.00000000 0.02500000 0.00000000
      vertex -0.04422887 0.02500000 0.08968727
      vertex -0.05000000 0.02500000 0.08660254
    endloop
  endfacet
  facet normal 0.00000000 1.00000000 0.00000000
    outer loop
      vertex 0.00000000 -0.02500000 0.00000000
      vertex -0.05000000 -0.02500000 0.08660254
      vertex -0.04422887 -0.02500000 0.08968727
    endloop
  endfacet
  facet normal 0.47139674 0.00000000 -0.88192126
    outer loop
      vertex -0.04422887 0.02500000 0.08968727
      vertex -0.04422887 -0.02500000 0.08968727
      vertex -0.05000000 -0.02500000 0.08660254
    endloop
  endfacet
  facet normal 0.47139674 0.00000000 -0.88192126
    outer loop
      vertex -0.04422887 0.02500000 0.08968727
      vertex -0.05000000 -0.02500000 0.08660254
      vertex -0.05000000 0.02500000 0.08660254
    endloop
  endfacet
  facet normal 0.00000000 -1.00000000 0.00000000
    outer loop
      vertex 0.00000000 0.02500000 0.00000000
      vertex -0.05000000 0.02500000 0.08660254
      vertex -0.05555702 0.02500000 0.08314696
    endloop
  endfacet
  facet normal 0.00000000 1.00000000 0.00000000
    outer loop
      vertex 0.00000000 -0.02500000 0.00000000
      vertex -0.05555702 -0.02500000 0.08314696
      vertex -0.05000000 -0.02500000 0.08660254
    endloop
  endfacet
  facet normal 0.52806785 0.00000000 -0.84920218
    outer loop
      vertex -0.05000000 0.02500000 0.08660254
      vertex -0.05000000 -0.02500000 0.08660254
      vertex -0.05555702 -0.02500000 0.08314696
    endloop
  endfacet
  facet normal 0.52806785 0.00000000 -0.84920218
    outer loop
      vertex -0.05000000 0.02500000 0.08660254
      vertex -0.05555702 -0.02500000 0.08314696
      vertex -0.05555702 0.02500000 0.08314696
    endloop
  endfacet
  facet normal 0.00000000 -1.00000000 0.00000000
    outer loop
      vertex 0.00000000 0.02500000 0.00000000
      vertex -0.05555702 0.02500000 0.08314696
      vertex -0.06087614 0.02500000 0.07933533
    endloop
  endfacet
  facet normal 0.00000000 1.00000000 0.00000000
    outer loop
      vertex 0.00000000 -0.02500000 0.00000000
      vertex -0.06087614 -0.02500000 0.07933533
      vertex -0.05555702 -0.02500000 0.08314696
    endloop
  endfacet
  facet normal 0.58247770 0.00000000 -0.81284668
    outer loop
      vertex -0.05555702 0.02500000 0.08314696
      vertex -0.05555702 -0.02500000 0.08314696
      vertex -0.06087614 -0.02500000 0.07933533
    endloop
  endfacet
  facet normal 0.58247770 0.00000000 -0.81284668
    outer loop
      vertex -0.05555702 0.02500000 0.08314696
      vertex -0.06087614 -0.02500000 0.07933533
      vertex -0.06087614 0.02500000 0.07933533
    endloop
  endfacet
  facet normal 0.00000000 -1.00000000 0.00000000
    outer loop
      vertex 0.00000000 0.02500000 0.00000000
      vertex -0.06087614 0.02500000 0.07933533
      vertex -0.06593458 0.02500000 0.07518398
    endloop
  endfacet
  facet normal 0.00000000 1.00000000 0.00000000
    outer loop
      vertex 0.00000000 -0.02500000 0.00000000
      vertex -0.06593458 -0.02500000 0.07518398
      vertex -0.06087614 -0.02500000 0.07933533
    endloop
  endfacet
  facet normal 0.63439328 0.00000000 -0.77301045
    outer loop
      vertex -0.06087614 0.02500000 0.07933533
      vertex -0.06087614 -0.02500000 0.07933533
      vertex -0.06593458 -0.02500000 0.07518398
    endloop
  endfacet
  facet normal 0.63439328 0.00000000 -0.77301045
    outer loop
      vertex -0.06087614 0.02500000 0.07933533
      vertex -0.06593458 -0.02500000 0.07518398
      vertex -0.06593458 0.02500000 0.07518398
    endloop
  endfacet
  facet normal 0.00000000 -1.00000000 0.00000000
    outer loop
      vertex 0.00000000 0.02500000 0.00000000
      vertex -0.06593458 0.02500000 0.07518398
      vertex -0.07071068 0.02500000 0.07071068
    endloop
  endfacet
  facet normal 0.00000000 1.00000000 0.00000000
    outer loop
      vertex 0.00000000 -0.02500000 0.00000000
      vertex -0.07071068 -0.02500000 0.07071068
      vertex -0.06593458 -0.02500000 0.07518398
    endloop
  endfacet
  facet normal 0.68359230 0.00000000 -0.72986407
    outer loop
      vertex -0.06593458 0.02500000 0.07518398
      vertex -0.06593458 -0.02500000 0.07518398
      vertex -0.07071068 -0.02500000 0.07071068
    endloop
  endfacet
  facet normal 0.68359230 0.00000000 -0.72986407
    outer loop
      vertex -0.06593458 0.02500000 0.07518398
      vertex -0.07071068 -0.02500000 0.07071068
      vertex -0.07071068 0.02500000 0.07071068
    endloop
  endfacet
  facet normal 0.00000000 -1.00000000 0.00000000
    outer loop
      vertex 0.00000000 0.02500000 0.00000000
      vertex -0.07071068 0.02500000 0.07071068
      vertex -0.07518398 0.02500000 0.06593458
    endloop
  endfacet
  facet normal 0.00000000 1.00000000 0.00000000
    outer loop
      vertex 0.00000000 -0.02500000 0.00000000
      vertex -0.07518398 -0.02500000 0.06593458
      vertex -0.07071068 -0.02500000 0.07071068
    endloop
  endfacet
  facet normal 0.72986407 0.00000000 -0.68359230
    outer loop
      vertex -0.07071068 0.02500000 0.07071068
      vertex -0.07071068 -0.02500000 0.07071068
      vertex -0.07518398 -0.02500000 0.06593458
    endloop
  endfacet
  facet normal 0.72986407 0.00000000 -0.68359230
    outer loop
      vertex -0.07071068 0.02500000 0.07071068
      vertex -0.07518398 -0.02500000 0.06593458
      vertex -0.07518398 0.02500000 0.06593458
    endloop
  endfacet
  facet normal 0.00000000 -1.00000000 0.00000000
    outer loop
      vertex 0.00000000 0.02500000 0.00000000
      vertex -0.07518398 0.02500000 0.06593458
      vertex -0.07933533 0.02500000 0.06087614
    endloop
  endfacet
  facet normal 0.00000000 1.00000000 0.00000000
    outer loop
      vertex 0.00000000 -0.02500000 0.00000000
      vertex -0.07933533 -0.02500000 0.06087614
      vertex -0.07518398 -0.02500000 0.06593458
    endloop
  endfacet
  facet normal 0.77301045 0.00000000 -0.63439328
    outer loop
      vertex -0.07518398 0.02500000 0.06593458
      vertex -0.07518398 -0.02500000 0.06593458
      vertex -0.07933533 -0.02500000 0.06087614
    endloop
  endfacet
  facet normal 0.77301045 0.00000000 -0.63439328
    outer loop
      vertex -0.07518398 0.02500000 0.06593458
      vertex -0.07933533 -0.02500000 0.06087614
      vertex -0.07933533 0.02500000 0.06087614
    endloop
  endfacet
  facet normal 0.00000000 -1.00000000 0.00000000
    outer loop
      vertex 0.00000000 0.02500000 0.00000000
      vertex -0.07933533 0.02500000 0.06087614
      vertex -0.08314696 0.02500000 0.05555702
    endloop
  endfacet
  facet normal 0.00000000 1.00000000 0.00000000
    outer loop
      vertex 0.00000000 -0.02500000 0.00000000
      vertex -0.08314696 -0.02500000 0.05555702
      vertex -0.07933533 -0.02500000 0.06087614
    endloop
  endfacet
  facet normal 0.81284668 0.00000000 -0.58247770
    outer loop
      vertex -0.07933533 0.02500000 0.06087614
      vertex -0.07933533 -0.02500000 0.06087614
      vertex -0.08314696 -0.02500000 0.05555702
    endloop
  endfacet
  facet normal 0.81284668 0.00000000 -0.58247770
    outer loop
      vertex -0.07933533 0.02500000 0.06087614
      vertex -0.08314696 -0.02500000 0.05555702
      vertex -0.08314696 0.02500000 0.05555702
    endloop
  endfacet
  facet normal 0.00000000 -1.00000000 0.00000000
    outer loop
      vertex 0.00000000 0.02500000 0.00000000
      vertex -0.08314696 0.02500000 0.05555702
      vertex -0.08660254 0.02500000 0.05000000
    endloop
  endfacet
  facet normal 0.00000000 1.00000000 0.00000000
    outer loop
      vertex 0.00000000 -0.02500000 0.00000000
      vertex -0.08660254 -0.02500000 0.05000000
      vertex -0.08314696 -0.02500000 0.05555702
    endloop
  endfacet
  facet normal 0.84920218 0.00000000 -0.52806785
    outer loop
      vertex -0.08314696 0.02500000 0.05555702
      vertex -0.08314696 -0.02500000 0.05555702
      vertex -0.08660254 -0.02500000 0.05000000
    endloop
  endfacet
  facet normal 0.84920218 0.00000000 -0.52806785
    outer loop
      vertex -0.08314696 0.02500000 0.05555702
      vertex -0.08660254 -0.02500000 0.05000000
      vertex -0.08660254 0.02500000 0.05000000
    endloop
  endfacet
  facet normal 0.00000000 -1.00000000 0.00000000
    outer loop
      vertex 0.00000000 0.02500000 0.00000000
      vertex -0.08660254 0.02500000 0.05000000
      vertex -0.08968727 0.02500000 0.04422887
    endloop
  endfacet
  facet normal 0.00000000 1.00000000 0.00000000
    outer loop
      vertex 0.00000000 -0.02500000 0.00000000
      vertex -0.08968727 -0.02500000 0.04422887
      vertex -0.08660254 -0.02500000 0.05000000
    endloop
  endfacet
  facet normal 0.88192126 0.00000000 -0.47139674
    outer loop
      vertex -0.08660254 0.02500000 0.05000000
      vertex -0.08660254 -0.02500000 0.05000000
      vertex -0.08968727 -0.02500000 0.04422887
    endloop
  endfacet
  facet normal 0.88192126 0.00000000 -0.47139674
    outer loop
      vertex -0.08660254 0.02500000 0.05000000
      vertex -0.08968727 -0.02500000 0.04422887
      vertex -0.08968727 0.02500000 0.04422887
    endloop
  endfacet
  facet normal 0.00000000 -1.00000000 0.00000000
    outer loop
      vertex 0.00000000 0.02500000 0.00000000
      vertex -0.08968727 0.02500000 0.04422887
      vertex -0.09238795 0.02500000 0.03826834
    endloop
  endfacet
  facet normal 0.00000000 1.00000000 0.00000000
    outer loop
      vertex 0.00000000 -0.02500000 0.00000000
      vertex -0.09238795 -0.02500000 0.03826834
      vertex -0.08968727 -0.02500000 0.04422887
    endloop
  endfacet
  facet normal 0.91086382 0.00000000 -0.41270703
    outer loop
      vertex -0.08968727 0.02500000 0.04422887
      vertex -0.08968727 -0.02500000 0.04422887
      vertex -0.09238795 -0.02500000 0.03826834
    endloop
  endfacet
  facet normal 0.91086382 0.00000000 -0.41270703
    outer loop
      vertex -0.08968727 0.02500000 0.04422887
      vertex -0.09238795 -0.02500000 0.03826834
      vertex -0.09238795 0.02500000 0.03826834
    endloop
  endfacet
  facet normal 0.00000000 -1.00000000 0.00000000
    outer loop
      vertex 0.00000000 0.02500000 0.00000000
      vertex -0.09238795 0.02500000 0.03826834
      vertex -0.09469301 0.02500000 0.03214395
    endloop
  endfacet
  facet normal 0.00000000 1.00000000 0.00000000
    outer loop
      vertex 0.00000000 -0.02500000 0.00000000
      vertex -0.09469301 -0.02500000 0.03214395
      vertex -0.09238795 -0.02500000 0.03826834
    endloop
  endfacet
  facet normal 0.93590593 0.00000000 -0.35225005
    outer loop
      vertex -0.09238795 0.02500000 0.03826834
      vertex -0.09238795 -0.02500000 0.03826834
      vertex -0.09469301 -0.02500000 0.03214395
    endloop
  endfacet
  facet normal 0.93590593 0.00000000 -0.35225005
    outer loop
      vertex -0.09238795 0.02500000 0.03826834
      vertex -0.09469301 -0.02500000 0.03214395
      vertex -0.09469301 0.02500000 0.03214395
    endloop
  endfacet
  facet normal 0.00000000 -1.00000000 0.00000000
    outer loop
      vertex 0.00000000 0.02500000 0.00000000
      vertex -0.09469301 0.02500000 0.03214395
      vertex -0.09659258 0.02500000 0.02588190
    endloop
  endfacet
  facet normal 0.00000000 1.00000000 0.00000000
    outer loop
      vertex 0.00000000 -0.02500000 0.00000000
      vertex -0.09659258 -0.02500000 0.02588190
      vertex -0.09469301 -0.02500000 0.03214395
    endloop
  endfacet
  facet normal 0.95694034 0.00000000 -0.29028468
    outer loop
      vertex -0.09469301 0.02500000 0.03214395
      vertex -0.09469301 -0.02500000 0.03214395
      vertex -0.09659258 -0.02500000 0.02588190
    endloop
  endfacet
  facet normal 0.95694034 0.00000000 -0.29028468
    outer loop
      vertex -0.09469301 0.02500000 0.03214395
      vertex -0.09659258 -0.02500000 0.02588190
      vertex -0.09659258 0.02500000 0.02588190
    endloop
  endfacet
  facet normal 0.00000000 -1.00000000 0.00000000
    outer loop
      vertex 0.00000000 0.02500000 0.00000000
      vertex -0.09659258 0.02500000 0.02588190
      vertex -0.09807853 0.02500000 0.01950903
    endloop
  endfacet
  facet normal 0.00000000 1.00000000 0.00000000
    outer loop
      vertex 0.00000000 -0.02500000 0.00000000
      vertex -0.09807853 -0.02500000 0.01950903
      vertex -0.09659258 -0.02500000 0.02588190
    endloop
  endfacet
  facet normal 0.97387698 0.00000000 -0.22707626
    outer loop
      vertex -0.09659258 0.02500000 0.02588190
      vertex -0.09659258 -0.02500000 0.02588190
      vertex -0.09807853 -0.02500000 0.01950903
    endloop
  endfacet
  facet normal 0.97387698 0.00000000 -0.22707626
    outer loop
      vertex -0.09659258 0.02500000 0.02588190
      vertex -0.09807853 -0.02500000 0.01950903
      vertex -0.09807853 0.02500000 0.01950903
    endloop
  endfacet
  facet normal 0.00000000 -1.00000000 0.00000000
    outer loop
      vertex 0.00000000 0.02500000 0.00000000
      vertex -0.09807853 0.02500000 0.01950903
      vertex -0.09914449 0.02500000 0.01305262
    endloop
  endfacet
  facet normal 0.00000000 1.00000000 0.00000000
    outer loop
      vertex 0.00000000 -0.02500000 0.00000000
      vertex -0.09914449 -0.02500000 0.01305262
      vertex -0.09807853 -0.02500000 0.01950903
    endloop
  endfacet
  facet normal 0.98664333 0.00000000 -0.16289547
    outer loop
      vertex -0.09807853 0.02500000 0.01950903
      vertex -0.09807853 -0.02500000 0.01950903
      vertex -0.09914449 -0.02500000 0.01305262
    endloop
  endfacet
  facet normal 0.98664333 0.00000000 -0.16289547
    outer loop
      vertex -0.09807853 0.02500000 0.01950903
      vertex -0.09914449 -0.02500000 0.01305262
      vertex -0.09914449 0.02500000 0.01305262
    endloop
  endfacet
  facet normal 0.00000000 -1.00000000 0.00000000
    outer loop
      vertex 0.00000000 0.02500000 0.00000000
      vertex -0.09914449 0.02500000 0.01305262
      vertex -0.09978589 0.02500000 0.00654031
    endloop
  endfacet
  facet normal 0.00000000 1.00000000 0.00000000
    outer loop
      vertex 0.00000000 -0.02500000 0.00000000
      vertex -0.09978589 -0.02500000 0.00654031
      vertex -0.09914449 -0.02500000 0.01305262
    endloop
  endfacet
  facet normal 0.99518473 0.00000000 -0.09801714
    outer loop
      vertex -0.09914449 0.02500000 0.01305262
      vertex -0.09914449 -0.02500000 0.01305262
      vertex -0.09978589 -0.02500000 0.00654031
    endloop
  endfacet
  facet normal 0.99518473 0.00000000 -0.09801714
    outer loop
      vertex -0.09914449 0.02500000 0.01305262
      vertex -0.09978589 -0.02500000 0.00654031
      vertex -0.09978589 0.02500000 0.00654031
    endloop
  endfacet
  facet normal 0.00000000 -1.00000000 0.00000000
    outer loop
      vertex 0.00000000 0.02500000 0.00000000
      vertex -0.09978589 0.02500000 0.00654031
      vertex -0.10000000 0.02500000 0.00000000
    endloop
  endfacet
  facet normal 0.00000000 1.00000000 0.00000000
    outer loop
      vertex 0.00000000 -0.02500000 0.00000000
      vertex -0.10000000 -0.02500000 0.00000000
      vertex -0.09978589 -0.02500000 0.00654031
    endloop
  endfacet
  facet normal 0.99946459 0.00000000 -0.03271908
    outer loop
      vertex -0.09978589 0.02500000 0.00654031
      vertex -0.09978589 -0.02500000 0.00654031
      vertex -0.10000000 -0.02500000 0.00000000
    endloop
  endfacet
  facet normal 0.99946459 0.00000000 -0.03271908
    outer loop
      vertex -0.09978589 0.02500000 0.00654031
      vertex -0.10000000 -0.02500000 0.00000000
      vertex -0.10000000 0.02500000 0.00000000
    endloop
  endfacet
  facet normal -0.00000000 -1.00000000 0.00000000
    outer loop
      vertex 0.00000000 0.02500000 0.00000000
      vertex -0.10000000 0.02500000 0.00000000
      vertex -0.09978589 0.02500000 -0.00654031
    endloop
  endfacet
  facet normal 0.00000000 1.00000000 0.00000000
    outer loop
      vertex 0.00000000 -0.02500000 0.00000000
      vertex -0.09978589 -0.02500000 -0.00654031
      vertex -0.10000000 -0.02500000 0.00000000
    endloop
  endfacet
  facet normal 0.99946459 0.00000000 0.03271908
    outer loop
      vertex -0.10000000 0.02500000 0.00000000
      vertex -0.10000000 -0.02500000 0.00000000
      vertex -0.09978589 -0.02500000 -0.00654031
    endloop
  endfacet
  facet normal 0.99946459 0.00000000 0.03271908
    outer loop
      vertex -0.10000000 0.02500000 0.00000000
      vertex -0.09978589 -0.02500000 -0.00654031
      vertex -0.09978589 0.02500000 -0.00654031
    endloop
  endfacet
  facet normal 0.00000000 -1.00000000 0.00000000
    outer loop
      vertex 0.00000000 0.02500000 0.00000000
      vertex -0.09978589 0.02500000 -0.00654031
      vertex -0.09914449 0.02500000 -0.01305262
    endloop
  endfacet
  facet normal 0.00000000 1.00000000 0.00000000
    outer loop
      vertex 0.00000000 -0.02500000 0.00000000
      vertex -0.09914449 -0.02500000 -0.01305262
      vertex -0.09978589 -0.02500000 -0.00654031
    endloop
  endfacet
  facet normal 0.99518473 0.00000000 0.09801714
    outer loop
      vertex -0.09978589 0.02500000 -0.00654031
      vertex -0.09978589 -0.02500000 -0.00654031
      vertex -0.09914449 -0.02500000 -0.01305262
    endloop
  endfacet
  facet normal 0.99518473 0.00000000 0.09801714
    outer loop
      vertex -0.09978589 0.02500000 -0.00654031
      vertex -0.09914449 -0.02500000 -0.01305262
      vertex -0.09914449 0.02500000 -0.01305262
    endloop
  endfacet
  facet normal 0.00000000 -1.00000000 0.00000000
    outer loop
      vertex 0.00000000 0.02500000 0.00000000
      vertex -0.09914449 0.02500000 -0.01305262
      vertex -0.09807853 0.02500000 -0.01950903
    endloop
  endfacet
  facet normal 0.00000000 1.00000000 0.00000000
    outer loop
      vertex 0.00000000 -0.02500000 0.00000000
      vertex -0.09807853 -0.02500000 -0.01950903
      vertex -0.09914449 -0.02500000 -0.01305262
    endloop
  endfacet
  facet normal 0.98664333 0.00000000 0.16289547
    outer loop
      vertex -0.09914449 0.02500000 -0.01305262
      vertex -0.09914449 -0.02500000 -0.01305262
      vertex -0.09807853 -0.02500000 -0.01950903
    endloop
  endfacet
  facet normal 0.98664333 0.00000000 0.16289547
    outer loop
      vertex -0.09914449 0.02500000 -0.01305262
      vertex -0.09807853 -0.02500000 -0.01950903
      vertex -0.09807853 0.02500000 -0.01950903
    endloop
  endfacet
  facet normal 0.00000000 -1.00000000 0.00000000
    outer loop
      vertex 0.00000000 0.02500000 0.00000000
      vertex -0.09807853 0.02500000 -0.01950903
      vertex -0.09659258 0.02500000 -0.02588190
    endloop
  endfacet
  facet normal 0.00000000 1.00000000 0.00000000
    outer loop
      vertex 0.00000000 -0.02500000 0.00000000
      vertex -0.09659258 -0.02500000 -0.02588190
      vertex -0.09807853 -0.02500000 -0.01950903
    endloop
  endfacet
  facet normal 0.97387698 0.00000000 0.22707626
    outer loop
      vertex -0.09807853 0.02500000 -0.01950903
      vertex -0.09807853 -0.02500000 -0.01950903
      vertex -0.09659258 -0.02500000 -0.02588190
    endloop
  endfacet
  facet normal 0.97387698 0.00000000 0.22707626
    outer loop
      vertex -0.09807853 0.02500000 -0.01950903
      vertex -0.09659258 -0.02500000 -0.02588190
      vertex -0.09659258 0.02500000 -0.02588190
    endloop
  endfacet
  facet normal 0.00000000 -1.00000000 0.00000000
    outer loop
      vertex 0.00000000 0.02500000 0.00000000
      vertex -0.09659258 0.02500000 -0.02588190
      vertex -0.09469301 0.02500000 -0.03214395
    endloop
  endfacet
  facet normal 0.00000000 1.00000000 0.00000000
    outer loop
      vertex 0.00000000 -0.02500000 0.00000000
      vertex -0.09469301 -0.02500000 -0.03214395
      vertex -0.09659258 -0.02500000 -0.02588190
    endloop
  endfacet
  facet normal 0.95694034 0.00000000 0.29028468
    outer loop
      vertex -0.09659258 0.02500000 -0.02588190
      vertex -0.09659258 -0.02500000 -0.02588190
      vertex -0.09469301 -0.02500000 -0.03214395
    endloop
  endfacet
  facet normal 0.95694034 0.00000000 0.29028468
    outer loop
      vertex -0.09659258 0.02500000 -0.02588190
      vertex -0.09469301 -0.02500000 -0.03214395
      vertex -0.09469301 0.02500000 -0.03214395
    endloop
  endfacet
  facet normal 0.00000000 -1.00000000 0.00000000
    outer loop
      vertex 0.00000000 0.02500000 0.00000000
      vertex -0.09469301 0.02500000 -0.03214395
      vertex -0.09238795 0.02500000 -0.03826834
    endloop
  endfacet
  facet normal 0.00000000 1.00000000 0.00000000
    outer loop
      vertex 0.00000000 -0.02500000 0.00000000
      vertex -0.09238795 -0.02500000 -0.03826834
      vertex -0.09469301 -0.02500000 -0.03214395
    endloop
  endfacet
  facet normal 0.93590593 0.00000000 0.35225005
    outer loop
      vertex -0.09469301 0.02500000 -0.03214395
      vertex -0.09469301 -0.02500000 -0.03214395
      vertex -0.09238795 -0.02500000 -0.03826834
    endloop
  endfacet
  facet normal 0.93590593 0.00000000 0.35225005
    outer loop
      vertex -0.09469301 0.02500000 -0.03214395
      vertex -0.09238795 -0.02500000 -0.03826834
      vertex -0.09238795 0.02500000 -0.03826834
    endloop
  endfacet
  facet normal 0.00000000 -1.00000000 0.00000000
    outer loop
      vertex 0.00000000 0.02500000 0.00000000
      vertex -0.09238795 0.02500000 -0.03826834
      vertex -0.08968727 0.02500000 -0.04422887
    endloop
  endfacet
  facet normal 0.00000000 1.00000000 0.00000000
    outer loop
      vertex 0.00000000 -0.02500000 0.00000000
      vertex -0.08968727 -0.02500000 -0.04422887
      vertex -0.09238795 -0.02500000 -0.03826834
    endloop
  endfacet
  facet normal 0.91086382 0.00000000 0.41270703
    outer loop
      vertex -0.09238795 0.02500000 -0.03826834
      vertex -0.09238795 -0.02500000 -0.03826834
      vertex -0.08968727 -0.02500000 -0.04422887
    endloop
  endfacet
  facet normal 0.91086382 0.00000000 0.41270703
    outer loop
      vertex -0.09238795 0.02500000 -0.03826834
      vertex -0.08968727 -0.02500000 -0.04422887
      vertex -0.08968727 0.02500000 -0.04422887
    endloop
  endfacet
  facet normal 0.00000000 -1.00000000 0.00000000
    outer loop
      vertex 0.00000000 0.02500000 0.00000000
      vertex -0.08968727 0.02500000 -0.04422887
      vertex -0.08660254 0.02500000 -0.05000000
    endloop
  endfacet
  facet normal 0.00000000 1.00000000 0.00000000
    outer loop
      vertex 0.00000000 -0.02500000 0.00000000
      vertex -0.08660254 -0.02500000 -0.05000000
      vertex -0.08968727 -0.02500000 -0.04422887
    endloop
  endfacet
  facet normal 0.88192126 0.00000000 0.47139674
    outer loop
      vertex -0.08968727 0.02500000 -0.04422887
      vertex -0.08968727 -0.02500000 -0.04422887
      vertex -0.08660254 -0.02500000 -0.05000000
    endloop
  endfacet
  facet normal 0.88192126 0.00000000 0.47139674
    outer loop
      vertex -0.08968727 0.02500000 -0.04422887
      vertex -0.08660254 -0.02500000 -0.05000000
      vertex -0.08660254 0.02500000 -0.05000000
    endloop
  endfacet
  facet normal 0.00000000 -1.00000000 0.00000000
    outer loop
      vertex 0.00000000 0.02500000 0.00000000
      vertex -0.08660254 0.02500000 -0.05000000
      vertex -0.08314696 0.02500000 -0.05555702
    endloop
  endfacet
  facet normal 0.00000000 1.00000000 0.00000000
    outer loop
      vertex 0.00000000 -0.02500000 0.00000000
      vertex -0.08314696 -0.02500000 -0.05555702
      vertex -0.08660254 -0.02500000 -0.05000000
    endloop
  endfacet
  facet normal 0.84920218 0.00000000 0.52806785
    outer loop
      vertex -0.08660254 0.02500000 -0.05000000
      vertex -0.08660254 -0.02500000 -0.05000000
      vertex -0.08314696 -0.02500000 -0.05555702
    endloop
  endfacet
  facet normal 0.84920218 0.00000000 0.52806785
    outer loop
      vertex -0.08660254 0.02500000 -0.05000000
      vertex -0.08314696 -0.02500000 -0.05555702
      vertex -0.08314696 0.02500000 -0.05555702
    endloop
  endfacet
  facet normal 0.00000000 -1.00000000 0.00000000
    outer loop
      vertex 0.00000000 0.02500000 0.00000000
      vertex -0.08314696 0.02500000 -0.05555702
      vertex -0.07933533 0.02500000 -0.06087614
    endloop
  endfacet
  facet normal 0.00000000 1.00000000 0.00000000
    outer loop
      vertex 0.00000000 -0.02500000 0.00000000
      vertex -0.07933533 -0.02500000 -0.06087614
      vertex -0.08314696 -0.02500000 -0.05555702
    endloop
  endfacet
  facet normal 0.81284668 0.00000000 0.58247770
    outer loop
      vertex -0.08314696 0.02500000 -0.05555702
      vertex -0.08314696 -0.02500000 -0.05555702
      vertex -0.07933533 -0.02500000 -0.06087614
    endloop
  endfacet
  facet normal 0.81284668 0.00000000 0.58247770
    outer loop
      vertex -0.08314696 0.02500000 -0.05555702
      vertex -0.07933533 -0.02500000 -0.06087614
      vertex -0.07933533 0.02500000 -0.06087614
    endloop
  endfacet
  facet normal 0.00000000 -1.00000000 0.00000000
    outer loop
      vertex 0.00000000 0.02500000 0.00000000
      vertex -0.07933533 0.02500000 -0.06087614
      vertex -0.07518398 0.02500000 -0.06593458
    endloop
  endfacet
  facet normal 0.00000000 1.00000000 0.00000000
    outer loop
      vertex 0.00000000 -0.02500000 0.00000000
      vertex -0.07518398 -0.02500000 -0.06593458
      vertex -0.07933533 -0.02500000 -0.06087614
    endloop
  endfacet
  facet normal 0.77301045 0.00000000 0.63439328
    outer loop
      vertex -0.07933533 0.02500000 -0.06087614
      vertex -0.07933533 -0.02500000 -0.06087614
      vertex -0.07518398 -0.02500000 -0.06593458
    endloop
  endfacet
  facet normal 0.77301045 0.00000000 0.63439328
    outer loop
      vertex -0.07933533 0.02500000 -0.06087614
      vertex -0.07518398 -0.02500000 -0.06593458
      vertex -0.07518398 0.02500000 -0.06593458
    endloop
  endfacet
  facet normal 0.00000000 -1.00000000 0.00000000
    outer loop
      vertex 0.00000000 0.02500000 0.00000000
      vertex -0.07518398 0.02500000 -0.06593458
      vertex -0.07071068 0.02500000 -0.07071068
    endloop
  endfacet
  facet normal 0.00000000 1.00000000 0.00000000
    outer loop
      vertex 0.00000000 -0.02500000 0.00000000
      vertex -0.07071068 -0.02500000 -0.07071068
      vertex -0.07518398 -0.02500000 -0.06593458
    endloop
  endfacet
  facet normal 0.72986407 0.00000000 0.68359230
    outer loop
      vertex -0.07518398 0.02500000 -0.06593458
      vertex -0.07518398 -0.02500000 -0.06593458
      vertex -0.07071068 -0.02500000 -0.07071068
    endloop
  endfacet
  facet normal 0.72986407 0.00000000 0.68359230
    outer loop
      vertex -0.07518398 0.02500000 -0.06593458
      vertex -0.07071068 -0.02500000 -0.07071068
      vertex -0.07071068 0.02500000 -0.07071068
    endloop
  endfacet
  facet normal 0.00000000 -1.00000000 0.00000000
    outer loop
      vertex 0.00000000 0.02500000 0.00000000
      vertex -0.07071068 0.02500000 -0.07071068
      vertex -0.06593458 0.02500000 -0.07518398
    endloop
  endfacet
  facet normal 0.00000000 1.00000000 0.00000000
    outer loop
      vertex 0.00000000 -0.02500000 0.00000000
      vertex -0.06593458 -0.02500000 -0.07518398
      vertex -0.07071068 -0.02500000 -0.07071068
    endloop
  endfacet
  facet normal 0.68359230 0.00000000 0.72986407
    outer loop
      vertex -0.07071068 0.02500000 -0.07071068
      vertex -0.07071068 -0.02500000 -0.07071068
      vertex -0.06593458 -0.02500000 -0.07518398
    endloop
  endfacet
  facet normal 0.68359230 0.00000000 0.72986407
    outer loop
      vertex -0.07071068 0.02500000 -0.07071068
      vertex -0.06593458 -0.02500000 -0.07518398
      vertex -0.06593458 0.02500000 -0.07518398
    endloop
  endfacet
  facet normal 0.00000000 -1.00000000 0.00000000
    outer loop
      vertex 0.00000000 0.02500000 0.00000000
      vertex -0.06593458 0.02500000 -0.07518398
      vertex -0.06087614 0.02500000 -0.07933533
    endloop
  endfacet
  facet normal 0.00000000 1.00000000 0.00000000
    outer loop
      vertex 0.00000000 -0.02500000 0.00000000
      vertex -0.06087614 -0.02500000 -0.07933533
      vertex -0.06593458 -0.02500000 -0.07518398
    endloop
  endfacet
  facet normal 0.63439328 0.00000000 0.77301045
    outer loop
      vertex -0.06593458 0.02500000 -0.07518398
      vertex -0.06593458 -0.02500000 -0.07518398
      vertex -0.06087614 -0.02500000 -0.07933533
    endloop
  endfacet
  facet normal 0.63439328 0.00000000 0.77301045
    outer loop
      vertex -0.06593458 0.02500000 -0.07518398
      vertex -0.06087614 -0.02500000 -0.07933533
      vertex -0.06087614 0.02500000 -0.07933533
    endloop
  endfacet
  facet normal 0.00000000 -1.00000000 0.00000000
    outer loop
      vertex 0.00000000 0.02500000 0.00000000
      vertex -0.06087614 0.02500000 -0.07933533
      vertex -0.05555702 0.02500000 -0.08314696
    endloop
  endfacet
  facet normal 0.00000000 1.00000000 0.00000000
    outer loop
      vertex 0.00000000 -0.02500000 0.00000000
      vertex -0.05555702 -0.02500000 -0.08314696
      vertex -0.06087614 -0.02500000 -0.07933533
    endloop
  endfacet
  facet normal 0.58247770 0.00000000 0.81284668
    outer loop
      vertex -0.06087614 0.02500000 -0.07933533
      vertex -0.06087614 -0.02500000 -0.07933533
      vertex -0.05555702 -0.02500000 -0.08314696
    endloop
  endfacet
  facet normal 0.58247770 0.00000000 0.81284668
    outer loop
      vertex -0.06087614 0.02500000 -0.07933533
      vertex -0.05555702 -0.02500000 -0.08314696
      vertex -0.05555702 0.02500000 -0.08314696
    endloop
  endfacet
  facet normal 0.00000000 -1.00000000 0.00000000
    outer loop
      vertex 0.00000000 0.02500000 0.00000000
      vertex -0.05555702 0.02500000 -0.08314696
      vertex -0.05000000 0.02500000 -0.08660254
    endloop
  endfacet
  facet normal 0.00000000 1.00000000 0.00000000
    outer loop
      vertex 0.00000000 -0.02500000 0.00000000
      vertex -0.05000000 -0.02500000 -0.08660254
      vertex -0.05555702 -0.02500000 -0.08314696
    endloop
  endfacet
  facet normal 0.52806785 0.00000000 0.84920218
    outer loop
      vertex -0.05555702 0.02500000 -0.08314696
      vertex -0.05555702 -0.02500000 -0.08314696
      vertex -0.05000000 -0.02500000 -0.08660254
    endloop
  endfacet
  facet normal 0.52806785 0.00000000 0.84920218
    outer loop
      vertex -0.05555702 0.02500000 -0.08314696
      vertex -0.05000000 -0.02500000 -0.08660254
      vertex -0.05000000 0.02500000 -0.08660254
    endloop
  endfacet
  facet normal 0.00000000 -1.00000000 0.00000000
    outer loop
      vertex 0.00000000 0.02500000 0.00000000
      vertex -0.05000000 0.02500000 -0.08660254
      vertex -0.04422887 0.02500000 -0.08968727
    endloop
  endfacet
  facet normal 0.00000000 1.00000000 0.00000000
    outer loop
      vertex 0.00000000 -0.02500000 0.00000000
      vertex -0.04422887 -0.02500000 -0.08968727
      vertex -0.05000000 -0.02500000 -0.08660254
    endloop
  endfacet
  facet normal 0.47139674 0.00000000 0.88192126
    outer loop
      vertex -0.05000000 0.02500000 -0.08660254
      vertex -0.05000000 -0.02500000 -0.08660254
      vertex -0.04422887 -0.02500000 -0.08968727
    endloop
  endfacet
  facet normal 0.47139674 0.00000000 0.88192126
    outer loop
      vertex -0.05000000 0.02500000 -0.08660254
      vertex -0.04422887 -0.02500000 -0.08968727
      vertex -0.04422887 0.02500000 -0.08968727
    endloop
  endfacet
  facet normal 0.00000000 -1.00000000 0.00000000
    outer loop
      vertex 0.00000000 0.02500000 0.00000000
      vertex -0.04422887 0.02500000 -0.08968727
      vertex -0.03826834 0.02500000 -0.09238795
    endloop
  endfacet
  facet normal 0.00000000 1.00000000 0.00000000
    outer loop
      vertex 0.00000000 -0.02500000 0.00000000
      vertex -0.03826834 -0.02500000 -0.09238795
      vertex -0.04422887 -0.02500000 -0.08968727
    endloop
  endfacet
  facet normal 0.41270703 0.00000000 0.91086382
    outer loop
      vertex -0.04422887 0.02500000 -0.08968727
      vertex -0.04422887 -0.02500000 -0.08968727
      vertex -0.03826834 -0.02500000 -0.09238795
    endloop
  endfacet
  facet normal 0.41270703 0.00000000 0.91086382
    outer loop
      vertex -0.04422887 0.02500000 -0.08968727
      vertex -0.03826834 -0.02500000 -0.09238795
      vertex -0.03826834 0.02500000 -0.09238795
    endloop
  endfacet
  facet normal 0.00000000 -1.00000000 0.00000000
    outer loop
      vertex 0.00000000 0.02500000 0.00000000
      vertex -0.03826834 0.02500000 -0.09238795
      vertex -0.03214395 0.02500000 -0.09469301
    endloop
  endfacet
  facet normal 0.00000000 1.00000000 0.00000000
    outer loop
      vertex 0.00000000 -0.02500000 0.00000000
      vertex -0.03214395 -0.02500000 -0.09469301
      vertex -0.03826834 -0.02500000 -0.09238795
    endloop
  endfacet
  facet normal 0.35225005 0.00000000 0.93590593
    outer loop
      vertex -0.03826834 0.02500000 -0.09238795
      vertex -0.03826834 -0.02500000 -0.09238795
      vertex -0.03214395 -0.02500000 -0.09469301
    endloop
  endfacet
  facet normal 0.35225005 0.00000000 0.93590593
    outer loop
      vertex -0.03826834 0.02500000 -0.09238795
      vertex -0.03214395 -0.02500000 -0.09469301
      vertex -0.03214395 0.02500000 -0.09469301
    endloop
  endfacet
  facet normal 0.00000000 -1.00000000 0.00000000
    outer loop
      vertex 0.00000000 0.02500000 0.00000000
      vertex -0.03214395 0.02500000 -0.09469301
      vertex -0.02588190 0.02500000 -0.09659258
    endloop
  endfacet
  facet normal 0.00000000 1.00000000 0.00000000
    outer loop
      vertex 0.00000000 -0.02500000 0.00000000
      vertex -0.02588190 -0.02500000 -0.09659258
      vertex -0.03214395 -0.02500000 -0.09469301
    endloop
  endfacet
  facet normal 0.29028468 0.00000000 0.95694034
    outer loop
      vertex -0.03214395 0.02500000 -0.09469301
      vertex -0.03214395 -0.02500000 -0.09469301
      vertex -0.02588190 -0.02500000 -0.09659258
    endloop
  endfacet
  facet normal 0.29028468 0.00000000 0.95694034
    outer loop
      vertex -0.03214395 0.02500000 -0.09469301
      vertex -0.02588190 -0.02500000 -0.09659258
      vertex -0.02588190 0.02500000 -0.09659258
    endloop
  endfacet
  facet normal 0.00000000 -1.00000000 0.00000000
    outer loop
      vertex 0.00000000 0.02500000 0.00000000
      vertex -0.02588190 0.02500000 -0.09659258
      vertex -0.01950903 0.02500000 -0.09807853
    endloop
  endfacet
  facet normal 0.00000000 1.00000000 0.00000000
    outer loop
      vertex 0.00000000 -0.02500000 0.00000000
      vertex -0.01950903 -0.02500000 -0.09807853
      vertex -0.02588190 -0.02500000 -0.09659258
    endloop
  endfacet
  facet normal 0.22707626 0.00000000 0.97387698
    outer loop
      vertex -0.02588190 0.02500000 -0.09659258
      vertex -0.02588190 -0.02500000 -0.09659258
      vertex -0.01950903 -0.02500000 -0.09807853
    endloop
  endfacet
  facet normal 0.22707626 0.00000000 0.97387698
    outer loop
      vertex -0.02588190 0.02500000 -0.09659258
      vertex -0.01950903 -0.02500000 -0.09807853
      vertex -0.01950903 0.02500000 -0.09807853
    endloop
  endfacet
  facet normal 0.00000000 -1.00000000 0.00000000
    outer loop
      vertex 0.00000000 0.02500000 0.00000000
      vertex -0.01950903 0.02500000 -0.09807853
      vertex -0.01305262 0.02500000 -0.09914449
    endloop
  endfacet
  facet normal 0.00000000 1.00000000 0.00000000
    outer loop
      vertex 0.00000000 -0.02500000 0.00000000
      vertex -0.01305262 -0.02500000 -0.09914449
      vertex -0.01950903 -0.02500000 -0.09807853
    endloop
  endfacet
  facet normal 0.16289547 0.00000000 0.98664333
    outer loop
      vertex -0.01950903 0.02500000 -0.09807853
      vertex -0.01950903 -0.02500000 -0.09807853
      vertex -0.01305262 -0.02500000 -0.09914449
    endloop
  endfacet
  facet normal 0.16289547 0.00000000 0.98664333
    outer loop
      vertex -0.01950903 0.02500000 -0.09807853
      vertex -0.01305262 -0.02500000 -0.09914449
      vertex -0.01305262 0.02500000 -0.09914449
    endloop
  endfacet
  facet normal 0.00000000 -1.00000000 0.00000000
    outer loop
      vertex 0.00000000 0.02500000 0.00000000
      vertex -0.01305262 0.02500000 -0.09914449
      vertex -0.00654031 0.02500000 -0.09978589
    endloop
  endfacet
  facet normal 0.00000000 1.00000000 0.00000000
    outer loop
      vertex 0.00000000 -0.02500000 0.00000000
      vertex -0.00654031 -0.02500000 -0.09978589
      vertex -0.01305262 -0.02500000 -0.09914449
    endloop
  endfacet
  facet normal 0.09801714 0.00000000 0.99518473
    outer loop
      vertex -0.01305262 0.02500000 -0.09914449
      vertex -0.01305262 -0.02500000 -0.09914449
      vertex -0.00654031 -0.02500000 -0.09978589
    endloop
  endfacet
  facet normal 0.09801714 0.00000000 0.99518473
    outer loop
      vertex -0.01305262 0.02500000 -0.09914449
      vertex -0.00654031 -0.02500000 -0.09978589
      vertex -0.00654031 0.02500000 -0.09978589
    endloop
  endfacet
  facet normal 0.00000000 -1.00000000 0.00000000
    outer loop
      vertex 0.00000000 0.02500000 0.00000000
      vertex -0.00654031 0.02500000 -0.09978589
      vertex -0.00000000 0.02500000 -0.10000000
    endloop
  endfacet
  facet normal 0.00000000 1.00000000 0.00000000
    outer loop
      vertex 0.00000000 -0.02500000 0.00000000
      vertex -0.00000000 -0.02500000 -0.10000000
      vertex -0.00654031 -0.02500000 -0.09978589
    endloop
  endfacet
  facet normal 0.03271908 0.00000000 0.99946459
    outer loop
      vertex -0.00654031 0.02500000 -0.09978589
      vertex -0.00654031 -0.02500000 -0.09978589
      vertex -0.00000000 -0.02500000 -0.10000000
    endloop
  endfacet
  facet normal 0.03271908 0.00000000 0.99946459
    outer loop
      vertex -0.00654031 0.02500000 -0.09978589
      vertex -0.00000000 -0.02500000 -0.10000000
      vertex -0.00000000 0.02500000 -0.10000000
    endloop
  endfacet
  facet normal 0.00000000 -1.00000000 -0.00000000
    outer loop
      vertex 0.00000000 0.02500000 0.00000000
      vertex -0.00000000 0.02500000 -0.10000000
      vertex 0.00654031 0.02500000 -0.09978589
    endloop
  endfacet
  facet normal 0.00000000 1.00000000 0.00000000
    outer loop
      vertex 0.00000000 -0.02500000 0.00000000
      vertex 0.00654031 -0.02500000 -0.09978589
      vertex -0.00000000 -0.02500000 -0.10000000
    endloop
  endfacet
  facet normal -0.03271908 0.00000000 0.99946459
    outer loop
      vertex -0.00000000 0.02500000 -0.10000000
      vertex -0.00000000 -0.02500000 -0.10000000
      vertex 0.00654031 -0.02500000 -0.09978589
    endloop
  endfacet
  facet normal -0.03271908 0.00000000 0.99946459
    outer loop
      vertex -0.00000000 0.02500000 -0.10000000
      vertex 0.00654031 -0.02500000 -0.09978589
      vertex 0.00654031 0.02500000 -0.09978589
    endloop
  endfacet
  facet normal 0.00000000 -1.00000000 0.00000000
    outer loop
      vertex 0.00000000 0.02500000 0.00000000
      vertex 0.00654031 0.02500000 -0.09978589
      vertex 0.01305262 0.02500000 -0.09914449
    endloop
  endfacet
  facet normal 0.00000000 1.00000000 0.00000000
    outer loop
      vertex 0.00000000 -0.02500000 0.00000000
      vertex 0.01305262 -0.02500000 -0.09914449
      vertex 0.00654031 -0.02500000 -0.09978589
    endloop
  endfacet
  facet normal -0.09801714 0.00000000 0.99518473
    outer loop
      vertex 0.00654031 0.02500000 -0.09978589
      vertex 0.00654031 -0.02500000 -0.09978589
      vertex 0.01305262 -0.02500000 -0.09914449
    endloop
  endfacet
  facet normal -0.09801714 0.00000000 0.99518473
    outer loop
      vertex 0.00654031 0.02500000 -0.09978589
      vertex 0.01305262 -0.02500000 -0.09914449
      vertex 0.01305262 0.02500000 -0.09914449
    endloop
  endfacet
  facet normal 0.00000000 -1.00000000 0.00000000
    outer loop
      vertex 0.00000000 0.02500000 0.00000000
      vertex 0.01305262 0.02500000 -0.09914449
      vertex 0.01950903 0.02500000 -0.09807853
    endloop
  endfacet
  facet normal 0.00000000 1.00000000 0.00000000
    outer loop
      vertex 0.00000000 -0.02500000 0.00000000
      vertex 0.01950903 -0.02500000 -0.09807853
      vertex 0.01305262 -0.02500000 -0.09914449
    endloop
  endfacet
  facet normal -0.16289547 0.00000000 0.98664333
    outer loop
      vertex 0.01305262 0.02500000 -0.09914449
      vertex 0.01305262 -0.02500000 -0.09914449
      vertex 0.01950903 -0.02500000 -0.09807853
    endloop
  endfacet
  facet normal -0.16289547 0.00000000 0.98664333
    outer loop
      vertex 0.01305262 0.02500000 -0.09914449
      vertex 0.01950903 -0.02500000 -0.09807853
      vertex 0.01950903 0.02500000 -0.09807853
    endloop
  endfacet
  facet normal 0.00000000 -1.00000000 0.00000000
    outer loop
      vertex 0.00000000 0.02500000 0.00000000
      vertex 0.01950903 0.02500000 -0.09807853
      vertex 0.02588190 0.02500000 -0.09659258
    endloop
  endfacet
  facet normal 0.00000000 1.00000000 0.00000000
    outer loop
      vertex 0.00000000 -0.02500000 0.00000000
      vertex 0.02588190 -0.02500000 -0.09659258
      vertex 0.01950903 -0.02500000 -0.09807853
    endloop
  endfacet
  facet normal -0.22707626 0.00000000 0.97387698
    outer loop
      vertex 0.01950903 0.02500000 -0.09807853
      vertex 0.01950903 -0.02500000 -0.09807853
      vertex 0.02588190 -0.02500000 -0.09659258
    endloop
  endfacet
  facet normal -0.22707626 0.00000000 0.97387698
    outer loop
      vertex 0.01950903 0.02500000 -0.09807853
      vertex 0.02588190 -0.02500000 -0.09659258
      vertex 0.02588190 0.02500000 -0.09659258
    endloop
  endfacet
  facet normal 0.00000000 -1.00000000 0.00000000
    outer loop
      vertex 0.00000000 0.02500000 0.00000000
      vertex 0.02588190 0.02500000 -0.09659258
      vertex 0.03214395 0.02500000 -0.09469301
    endloop
  endfacet
  facet normal 0.00000000 1.00000000 0.00000000
    outer loop
      vertex 0.00000000 -0.02500000 0.00000000
      vertex 0.03214395 -0.02500000 -0.09469301
      vertex 0.02588190 -0.02500000 -0.09659258
    endloop
  endfacet
  facet normal -0.29028468 0.00000000 0.95694034
    outer loop
      vertex 0.02588190 0.02500000 -0.09659258
      vertex 0.02588190 -0.02500000 -0.09659258
      vertex 0.03214395 -0.02500000 -0.09469301
    endloop
  endfacet
  facet normal -0.29028468 0.00000000 0.95694034
    outer loop
      vertex 0.02588190 0.02500000 -0.09659258
      vertex 0.03214395 -0.02500000 -0.09469301
      vertex 0.03214395 0.02500000 -0.09469301
    endloop
  endfacet
  facet normal 0.00000000 -1.00000000 0.00000000
    outer loop
      vertex 0.00000000 0.02500000 0.00000000
      vertex 0.03214395 0.02500000 -0.09469301
      vertex 0.03826834 0.02500000 -0.09238795
    endloop
  endfacet
  facet normal 0.00000000 1.00000000 0.00000000
    outer loop
      vertex 0.00000000 -0.02500000 0.00000000
      vertex 0.03826834 -0.02500000 -0.09238795
      vertex 0.03214395 -0.02500000 -0.09469301
    endloop
  endfacet
  facet normal -0.35225005 0.00000000 0.93590593
    outer loop
      vertex 0.03214395 0.02500000 -0.09469301
      vertex 0.03214395 -0.02500000 -0.09469301
      vertex 0.03826834 -0.02500000 -0.09238795
    endloop
  endfacet
  facet normal -0.35225005 0.00000000 0.93590593
    outer loop
      vertex 0.03214395 0.02500000 -0.09469301
      vertex 0.03826834 -0.02500000 -0.09238795
      vertex 0.03826834 0.02500000 -0.09238795
    endloop
  endfacet
  facet normal 0.00000000 -1.00000000 0.00000000
    outer loop
      vertex 0.00000000 0.02500000 0.00000000
      vertex 0.03826834 0.02500000 -0.09238795
      vertex 0.04422887 0.02500000 -0.08968727
    endloop
  endfacet
  facet normal 0.00000000 1.00000000 0.00000000
    outer loop
      vertex 0.00000000 -0.02500000 0.00000000
      vertex 0.04422887 -0.02500000 -0.08968727
      vertex 0.03826834 -0.02500000 -0.09238795
    endloop
  endfacet
  facet normal -0.41270703 0.00000000 0.91086382
    outer loop
      vertex 0.03826834 0.02500000 -0.09238795
      vertex 0.03826834 -0.02500000 -0.09238795
      vertex 0.04422887 -0.02500000 -0.08968727
    endloop
  endfacet
  facet normal -0.41270703 0.00000000 0.91086382
    outer loop
      vertex 0.03826834 0.02500000 -0.09238795
      vertex 0.04422887 -0.02500000 -0.08968727
      vertex 0.04422887 0.02500000 -0.08968727
    endloop
  endfacet
  facet normal 0.00000000 -1.00000000 0.00000000
    outer loop
      vertex 0.00000000 0.02500000 0.00000000
      vertex 0.04422887 0.02500000 -0.08968727
      vertex 0.05000000 0.02500000 -0.08660254
    endloop
  endfacet
  facet normal 0.00000000 1.00000000 0.00000000
    outer loop
      vertex 0.00000000 -0.02500000 0.00000000
      vertex 0.05000000 -0.02500000 -0.08660254
      vertex 0.04422887 -0.02500000 -0.08968727
    endloop
  endfacet
  facet normal -0.47139674 0.00000000 0.88192126
    outer loop
      vertex 0.04422887 0.02500000 -0.08968727
      vertex 0.04422887 -0.02500000 -0.08968727
      vertex 0.05000000 -0.02500000 -0.08660254
    endloop
  endfacet
  facet normal -0.47139674 0.00000000 0.88192126
    outer loop
      vertex 0.04422887 0.02500000 -0.08968727
      vertex 0.05000000 -0.02500000 -0.08660254
      vertex 0.05000000 0.02500000 -0.08660254
    endloop
  endfacet
  facet normal 0.00000000 -1.00000000 0.00000000
    outer loop
      vertex 0.00000000 0.02500000 0.00000000
      vertex 0.05000000 0.02500000 -0.08660254
      vertex 0.05555702 0.02500000 -0.08314696
    endloop
  endfacet
  facet normal 0.00000000 1.00000000 0.00000000
    outer loop
      vertex 0.00000000 -0.02500000 0.00000000
      vertex 0.05555702 -0.02500000 -0.08314696
      vertex 0.05000000 -0.02500000 -0.08660254
    endloop
  endfacet
  facet normal -0.52806785 0.00000000 0.84920218
    outer loop
      vertex 0.05000000 0.02500000 -0.08660254
      vertex 0.05000000 -0.02500000 -0.08660254
      vertex 0.05555702 -0.02500000 -0.08314696
    endloop
  endfacet
  facet normal -0.52806785 0.00000000 0.84920218
    outer loop
      vertex 0.05000000 0.02500000 -0.08660254
      vertex 0.05555702 -0.02500000 -0.08314696
      vertex 0.05555702 0.02500000 -0.08314696
    endloop
  endfacet
  facet normal 0.00000000 -1.00000000 0.00000000
    outer loop
      vertex 0.00000000 0.02500000 0.00000000
      vertex 0.05555702 0.02500000 -0.08314696
      vertex 0.06087614 0.02500000 -0.07933533
    endloop
  endfacet
  facet normal 0.00000000 1.00000000 0.00000000
    outer loop
      vertex 0.00000000 -0.02500000 0.00000000
      vertex 0.06087614 -0.02500000 -0.07933533
      vertex 0.05555702 -0.02500000 -0.08314696
    endloop
  endfacet
  facet normal -0.58247770 0.00000000 0.81284668
    outer loop
      vertex 0.05555702 0.02500000 -0.08314696
      vertex 0.05555702 -0.02500000 -0.08314696
      vertex 0.06087614 -0.02500000 -0.07933533
    endloop
  endfacet
  facet normal -0.58247770 0.00000000 0.81284668
    outer loop
      vertex 0.05555702 0.02500000 -0.08314696
      vertex 0.06087614 -0.02500000 -0.07933533
      vertex 0.06087614 0.02500000 -0.07933533
    endloop
  endfacet
  facet normal 0.00000000 -1.00000000 0.00000000
    outer loop
      vertex 0.00000000 0.02500000 0.00000000
      vertex 0.06087614 0.02500000 -0.07933533
      vertex 0.06593458 0.02500000 -0.07518398
    endloop
  endfacet
  facet normal 0.00000000 1.00000000 0.00000000
    outer loop
      vertex 0.00000000 -0.02500000 0.00000000
      vertex 0.06593458 -0.02500000 -0.07518398
      vertex 0.06087614 -0.02500000 -0.07933533
    endloop
  endfacet
  facet normal -0.63439328 0.00000000 0.77301045
    outer loop
      vertex 0.06087614 0.02500000 -0.07933533
      vertex 0.06087614 -0.02500000 -0.07933533
      vertex 0.06593458 -0.02500000 -0.07518398
    endloop
  endfacet
  facet normal -0.63439328 0.00000000 0.77301045
    outer loop
      vertex 0.06087614 0.02500000 -0.07933533
      vertex 0.06593458 -0.02500000 -0.07518398
      vertex 0.06593458 0.02500000 -0.07518398
    endloop
  endfacet
  facet normal 0.00000000 -1.00000000 0.00000000
    outer loop
      vertex 0.00000000 0.02500000 0.00000000
      vertex 0.06593458 0.02500000 -0.07518398
      vertex 0.07071068 0.02500000 -0.07071068
    endloop
  endfacet
  facet normal 0.00000000 1.00000000 0.00000000
    outer loop
      vertex 0.00000000 -0.02500000 0.00000000
      vertex 0.07071068 -0.02500000 -0.07071068
      vertex 0.06593458 -0.02500000 -0.07518398
    endloop
  endfacet
  facet normal -0.68359230 0.00000000 0.72986407
    outer loop
      vertex 0.06593458 0.02500000 -0.07518398
      vertex 0.06593458 -0.02500000 -0.07518398
      vertex 0.07071068 -0.02500000 -0.07071068
    endloop
  endfacet
  facet normal -0.68359230 0.00000000 0.72986407
    outer loop
      vertex 0.06593458 0.02500000 -0.07518398
      vertex 0.07071068 -0.02500000 -0.07071068
      vertex 0.07071068 0.02500000 -0.07071068
    endloop
  endfacet
  facet normal 0.00000000 -1.00000000 0.00000000
    outer loop
      vertex 0.00000000 0.02500000 0.00000000
      vertex 0.07071068 0.02500000 -0.07071068
      vertex 0.07518398 0.02500000 -0.06593458
    endloop
  endfacet
  facet normal 0.00000000 1.00000000 0.00000000
    outer loop
      vertex 0.00000000 -0.02500000 0.00000000
      vertex 0.07518398 -0.02500000 -0.06593458
      vertex 0.07071068 -0.02500000 -0.07071068
    endloop
  endfacet
  facet normal -0.72986407 0.00000000 0.68359230
    outer loop
      vertex 0.07071068 0.02500000 -0.07071068
      vertex 0.07071068 -0.02500000 -0.07071068
      vertex 0.07518398 -0.02500000 -0.06593458
    endloop
  endfacet
  facet normal -0.72986407 0.00000000 0.68359230
    outer loop
      vertex 0.07071068 0.02500000 -0.07071068
      vertex 0.07518398 -0.02500000 -0.06593458
      vertex 0.07518398 0.02500000 -0.06593458
    endloop
  endfacet
  facet normal 0.00000000 -1.00000000 0.00000000
    outer loop
      vertex 0.00000000 0.02500000 0.00000000
      vertex 0.07518398 0.02500000 -0.06593458
      vertex 0.07933533 0.02500000 -0.06087614
    endloop
  endfacet
  facet normal 0.00000000 1.00000000 0.00000000
    outer loop
      vertex 0.00000000 -0.02500000 0.00000000
      vertex 0.07933533 -0.02500000 -0.06087614
      vertex 0.07518398 -0.02500000 -0.06593458
    endloop
  endfacet
  facet normal -0.77301045 0.00000000 0.63439328
    outer loop
      vertex 0.07518398 0.02500000 -0.06593458
      vertex 0.07518398 -0.02500000 -0.06593458
      vertex 0.07933533 -0.02500000 -0.06087614
    endloop
  endfacet
  facet normal -0.77301045 0.00000000 0.63439328
    outer loop
      vertex 0.07518398 0.02500000 -0.06593458
      vertex 0.07933533 -0.02500000 -0.06087614
      vertex 0.07933533 0.02500000 -0.06087614
    endloop
  endfacet
  facet normal 0.00000000 -1.00000000 0.00000000
    outer loop
      vertex 0.00000000 0.02500000 0.00000000
      vertex 0.07933533 0.02500000 -0.06087614
      vertex 0.08314696 0.02500000 -0.05555702
    endloop
  endfacet
  facet normal 0.00000000 1.00000000 0.00000000
    outer loop
      vertex 0.00000000 -0.02500000 0.00000000
      vertex 0.08314696 -0.02500000 -0.05555702
      vertex 0.07933533 -0.02500000 -0.06087614
    endloop
  endfacet
  facet normal -0.81284668 0.00000000 0.58247770
    outer loop
      vertex 0.07933533 0.02500000 -0.06087614
      vertex 0.07933533 -0.02500000 -0.06087614
      vertex 0.08314696 -0.02500000 -0.05555702
    endloop
  endfacet
  facet normal -0.81284668 0.00000000 0.58247770
    outer loop
      vertex 0.07933533 0.02500000 -0.06087614
      vertex 0.08314696 -0.02500000 -0.05555702
      vertex 0.08314696 0.02500000 -0.05555702
    endloop
  endfacet
  facet normal 0.00000000 -1.00000000 0.00000000
    outer loop
      vertex 0.00000000 0.02500000 0.00000000
      vertex 0.08314696 0.02500000 -0.05555702
      vertex 0.08660254 0.02500000 -0.05000000
    endloop
  endfacet
  facet normal 0.00000000 1.00000000 0.00000000
    outer loop
      vertex 0.00000000 -0.02500000 0.00000000
      vertex 0.08660254 -0.02500000 -0.05000000
      vertex 0.08314696 -0.02500000 -0.05555702
    endloop
  endfacet
  facet normal -0.84920218 0.00000000 0.52806785
    outer loop
      vertex 0.08314696 0.02500000 -0.05555702
      vertex 0.08314696 -0.02500000 -0.05555702
      vertex 0.08660254 -0.02500000 -0.05000000
    endloop
  endfacet
  facet normal -0.84920218 0.00000000 0.52806785
    outer loop
      vertex 0.08314696 0.02500000 -0.05555702
      vertex 0.08660254 -0.02500000 -0.05000000
      vertex 0.08660254 0.02500000 -0.05000000
    endloop
  endfacet
  facet normal 0.00000000 -1.00000000 0.00000000
    outer loop
      vertex 0.00000000 0.02500000 0.00000000
      vertex 0.08660254 0.02500000 -0.05000000
      vertex 0.08968727 0.02500000 -0.04422887
    endloop
  endfacet
  facet normal 0.00000000 1.00000000 0.00000000
    outer loop
      vertex 0.00000000 -0.02500000 0.00000000
      vertex 0.08968727 -0.02500000 -0.04422887
      vertex 0.08660254 -0.02500000 -0.05000000
    endloop
  endfacet
  facet normal -0.88192126 0.00000000 0.47139674
    outer loop
      vertex 0.08660254 0.02500000 -0.05000000
      vertex 0.08660254 -0.02500000 -0.05000000
      vertex 0.08968727 -0.02500000 -0.04422887
    endloop
  endfacet
  facet normal -0.88192126 0.00000000 0.47139674
    outer loop
      vertex 0.08660254 0.02500000 -0.05000000
      vertex 0.08968727 -0.02500000 -0.04422887
      vertex 0.08968727 0.02500000 -0.04422887
    endloop
  endfacet
  facet normal 0.00000000 -1.00000000 0.00000000
    outer loop
      vertex 0.00000000 0.02500000 0.00000000
      vertex 0.08968727 0.02500000 -0.04422887
      vertex 0.09238795 0.02500000 -0.03826834
    endloop
  endfacet
  facet normal 0.00000000 1.00000000 0.00000000
    outer loop
      vertex 0.00000000 -0.02500000 0.00000000
      vertex 0.09238795 -0.02500000 -0.03826834
      vertex 0.08968727 -0.02500000 -0.04422887
    endloop
  endfacet
  facet normal -0.91086382 0.00000000 0.41270703
    outer loop
      vertex 0.08968727 0.02500000 -0.04422887
      vertex 0.08968727 -0.02500000 -0.04422887
      vertex 0.09238795 -0.02500000 -0.03826834
    endloop
  endfacet
  facet normal -0.91086382 0.00000000 0.41270703
    outer loop
      vertex 0.08968727 0.02500000 -0.04422887
      vertex 0.09238795 -0.02500000 -0.03826834
      vertex 0.09238795 0.02500000 -0.03826834
    endloop
  endfacet
  facet normal 0.00000000 -1.00000000 0.00000000
    outer loop
      vertex 0.00000000 0.02500000 0.00000000
      vertex 0.09238795 0.02500000 -0.03826834
      vertex 0.09469301 0.02500000 -0.03214395
    endloop
  endfacet
  facet normal 0.00000000 1.00000000 0.00000000
    outer loop
      vertex 0.00000000 -0.02500000 0.00000000
      vertex 0.09469301 -0.02500000 -0.03214395
      vertex 0.09238795 -0.02500000 -0.03826834
    endloop
  endfacet
  facet normal -0.93590593 0.00000000 0.35225005
    outer loop
      vertex 0.09238795 0.02500000 -0.03826834
      vertex 0.09238795 -0.02500000 -0.03826834
      vertex 0.09469301 -0.02500000 -0.03214395
    endloop
  endfacet
  facet normal -0.93590593 0.00000000 0.35225005
    outer loop
      vertex 0.09238795 0.02500000 -0.03826834
      vertex 0.09469301 -0.02500000 -0.03214395
      vertex 0.09469301 0.02500000 -0.03214395
    endloop
  endfacet
  facet normal 0.00000000 -1.00000000 0.00000000
    outer loop
      vertex 0.00000000 0.02500000 0.00000000
      vertex 0.09469301 0.02500000 -0.03214395
      vertex 0.09659258 0.02500000 -0.02588190
    endloop
  endfacet
  facet normal 0.00000000 1.00000000 0.00000000
    outer loop
      vertex 0.00000000 -0.02500000 0.00000000
      vertex 0.09659258 -0.02500000 -0.02588190
      vertex 0.09469301 -0.02500000 -0.03214395
    endloop
  endfacet
  facet normal -0.95694034 0.00000000 0.29028468
    outer loop
      vertex 0.09469301 0.02500000 -0.03214395
      vertex 0.09469301 -0.02500000 -0.03214395
      vertex 0.09659258 -0.02500000 -0.02588190
    endloop
  endfacet
  facet normal -0.95694034 0.00000000 0.29028468
    outer loop
      vertex 0.09469301 0.02500000 -0.03214395
      vertex 0.09659258 -0.02500000 -0.02588190
      vertex 0.09659258 0.02500000 -0.02588190
    endloop
  endfacet
  facet normal 0.00000000 -1.00000000 0.00000000
    outer loop
      vertex 0.00000000 0.02500000 0.00000000
      vertex 0.09659258 0.02500000 -0.02588190
      vertex 0.09807853 0.02500000 -0.01950903
    endloop
  endfacet
  facet normal 0.00000000 1.00000000 0.00000000
    outer loop
      vertex 0.00000000 -0.02500000 0.00000000
      vertex 0.09807853 -0.02500000 -0.01950903
      vertex 0.09659258 -0.02500000 -0.02588190
    endloop
  endfacet
  facet normal -0.97387698 0.00000000 0.22707626
    outer loop
      vertex 0.09659258 0.02500000 -0.02588190
      vertex 0.09659258 -0.02500000 -0.02588190
      vertex 0.09807853 -0.02500000 -0.01950903
    endloop
  endfacet
  facet normal -0.97387698 0.00000000 0.22707626
    outer loop
      vertex 0.09659258 0.02500000 -0.02588190
      vertex 0.09807853 -0.02500000 -0.01950903
      vertex 0.09807853 0.02500000 -0.01950903
    endloop
  endfacet
  facet normal 0.00000000 -1.00000000 0.00000000
    outer loop
      vertex 0.00000000 0.02500000 0.00000000
      vertex 0.09807853 0.02500000 -0.01950903
      vertex 0.09914449 0.02500000 -0.01305262
    endloop
  endfacet
  facet normal 0.00000000 1.00000000 0.00000000
    outer loop
      vertex 0.00000000 -0.02500000 0.00000000
      vertex 0.09914449 -0.02500000 -0.01305262
      vertex 0.09807853 -0.02500000 -0.01950903
    endloop
  endfacet
  facet normal -0.98664333 0.00000000 0.16289547
    outer loop
      vertex 0.09807853 0.02500000 -0.01950903
      vertex 0.09807853 -0.02500000 -0.01950903
      vertex 0.09914449 -0.02500000 -0.01305262
    endloop
  endfacet
  facet normal -0.98664333 0.00000000 0.16289547
    outer loop
      vertex 0.09807853 0.02500000 -0.01950903
      vertex 0.09914449 -0.02500000 -0.01305262
      vertex 0.09914449 0.02500000 -0.01305262
    endloop
  endfacet
  facet normal 0.00000000 -1.00000000 0.00000000
    outer loop
      vertex 0.00000000 0.02500000 0.00000000
      vertex 0.09914449 0.02500000 -0.01305262
      vertex 0.09978589 0.02500000 -0.00654031
    endloop
  endfacet
  facet normal 0.00000000 1.00000000 0.00000000
    outer loop
      vertex 0.00000000 -0.02500000 0.00000000
      vertex 0.09978589 -0.02500000 -0.00654031
      vertex 0.09914449 -0.02500000 -0.01305262
    endloop
  endfacet
  facet normal -0.99518473 0.00000000 0.09801714
    outer loop
      vertex 0.09914449 0.02500000 -0.01305262
      vertex 0.09914449 -0.02500000 -0.01305262
      vertex 0.09978589 -0.02500000 -0.00654031
    endloop
  endfacet
  facet normal -0.99518473 0.00000000 0.09801714
    outer loop
      vertex 0.09914449 0.02500000 -0.01305262
      vertex 0.09978589 -0.02500000 -0.00654031
      vertex 0.09978589 0.02500000 -0.00654031
    endloop
  endfacet
  facet normal 0.00000000 -1.00000000 0.00000000
    outer loop
      vertex 0.00000000 0.02500000 0.00000000
      vertex 0.09978589 0.02500000 -0.00654031
      vertex 0.10000000 0.02500000 -0.00000000
    endloop
  endfacet
  facet normal 0.00000000 1.00000000 0.00000000
    outer loop
      vertex 0.00000000 -0.02500000 0.00000000
      vertex 0.10000000 -0.02500000 -0.00000000
      vertex 0.09978589 -0.02500000 -0.00654031
    endloop
  endfacet
  facet normal -0.99946459 0.00000000 0.03271908
    outer loop
      vertex 0.09978589 0.02500000 -0.00654031
      vertex 0.09978589 -0.02500000 -0.00654031
      vertex 0.10000000 -0.02500000 -0.00000000
    endloop
  endfacet
  facet normal -0.99946459 0.00000000 0.03271908
    outer loop
      vertex 0.09978589 0.02500000 -0.00654031
      vertex 0.10000000 -0.02500000 -0.00000000
      vertex 0.10000000 0.02500000 -0.00000000
    endloop
  endfacet
endsolid wheel_tire
