solid waist_connector
  facet normal 0.00000000 0.00000000 -1.00000000
    outer loop
      vertex -0.03750000 -0.03750000 -0.38298742
      vertex 0.03750000 0.03750000 -0.38298742
      vertex 0.03750000 -0.03750000 -0.38298742
    endloop
  endfacet
  facet normal 0.00000000 0.00000000 -1.00000000
    outer loop
      vertex -0.03750000 -0.03750000 -0.38298742
      vertex -0.03750000 0.03750000 -0.38298742
      vertex 0.03750000 0.03750000 -0.38298742
    endloop
  endfacet
  facet normal 0.00000000 0.00000000 1.00000000
    outer loop
      vertex -0.03750000 -0.03750000 0.38298742
      vertex 0.03750000 -0.03750000 0.38298742
      vertex 0.03750000 0.03750000 0.38298742
    endloop
  endfacet
  facet normal 0.00000000 0.00000000 1.00000000
    outer loop
      vertex -0.03750000 -0.03750000 0.38298742
      vertex 0.03750000 0.03750000 0.38298742
      vertex -0.03750000 0.03750000 0.38298742
    endloop
  endfacet
  facet normal 0.00000000 -1.00000000 0.00000000
    outer loop
      vertex -0.03750000 -0.03750000 -0.38298742
      vertex 0.03750000 -0.03750000 -0.38298742
      vertex 0.03750000 -0.03750000 0.38298742
    endloop
  endfacet
  facet normal 0.00000000 -1.00000000 0.00000000
    outer loop
      vertex -0.03750000 -0.03750000 -0.38298742
      vertex 0.03750000 -0.03750000 0.38298742
      vertex -0.03750000 -0.03750000 0.38298742
    endloop
  endfacet
  facet normal 1.00000000 0.00000000 0.00000000
    outer loop
      vertex 0.03750000 -0.03750000 -0.38298742
      vertex 0.03750000 0.03750000 -0.38298742
      vertex 0.03750000 0.03750000 0.38298742
    endloop
  endfacet
  facet normal 1.00000000 0.00000000 0.00000000
    outer loop
      vertex 0.03750000 -0.03750000 -0.38298742
      vertex 0.03750000 0.03750000 0.38298742
      vertex 0.03750000 -0.03750000 0.38298742
    endloop
  endfacet
  facet normal 0.00000000 1.00000000 0.00000000
    outer loop
      vertex 0.03750000 0.03750000 -0.38298742
      vertex -0.03750000 0.03750000 -0.38298742
      vertex -0.03750000 0.03750000 0.38298742
    endloop
  endfacet
  facet normal 0.00000000 1.00000000 -0.00000000
    outer loop
      vertex 0.03750000 0.03750000 -0.38298742
      vertex -0.03750000 0.03750000 0.38298742
      vertex 0.03750000 0.03750000 0.38298742
    endloop
  endfacet
  facet normal -1.00000000 0.00000000 0.00000000
    outer loop
      vertex -0.03750000 0.03750000 -0.38298742
      vertex -0.03750000 -0.03750000 -0.38298742
      vertex -0.03750000 -0.03750000 0.38298742
    endloop
  endfacet
  facet normal -1.00000000 0.00000000 0.00000000
    outer loop
      vertex -0.03750000 0.03750000 -0.38298742
      vertex -0.03750000 -0.03750000 0.38298742
      vertex -0.03750000 0.03750000 0.38298742
    endloop
  endfacet
endsolid waist_connector
